<svg xmlns="http://www.w3.org/2000/svg" xmlns:xlink="http://www.w3.org/1999/xlink" width="972" zoomAndPan="magnify" viewBox="0 0 729 537.000006" height="716" preserveAspectRatio="xMidYMid meet" version="1.0"><defs><g/><clipPath id="f40c91e855"><path d="M 0.675781 0 L 728.320312 0 L 728.320312 536 L 0.675781 536 Z M 0.675781 0 " clip-rule="nonzero"/></clipPath><clipPath id="1369a1ea30"><path d="M 240.746094 215 L 487 215 L 487 428 L 240.746094 428 Z M 240.746094 215 " clip-rule="nonzero"/></clipPath></defs><g clip-path="url(#f40c91e855)"><path fill="#ffffff" d="M 0.675781 0 L 728.324219 0 L 728.324219 536 L 0.675781 536 Z M 0.675781 0 " fill-opacity="1" fill-rule="nonzero"/><path fill="#ffffff" d="M 0.675781 0 L 728.324219 0 L 728.324219 536 L 0.675781 536 Z M 0.675781 0 " fill-opacity="1" fill-rule="nonzero"/></g><path fill="#000000" d="M 285.832031 223.242188 L 289.9375 223.242188 C 290.207031 223.242188 290.472656 223.214844 290.738281 223.164062 C 291 223.113281 291.257812 223.035156 291.507812 222.929688 C 291.753906 222.828125 291.992188 222.703125 292.214844 222.554688 C 292.4375 222.402344 292.648438 222.234375 292.835938 222.042969 C 293.027344 221.855469 293.199219 221.648438 293.347656 221.425781 C 293.496094 221.199219 293.625 220.964844 293.726562 220.714844 C 293.828125 220.46875 293.90625 220.210938 293.960938 219.949219 C 294.011719 219.683594 294.039062 219.417969 294.039062 219.152344 C 294.039062 218.882812 294.011719 218.617188 293.960938 218.351562 C 293.90625 218.089844 293.828125 217.832031 293.726562 217.585938 C 293.625 217.335938 293.496094 217.101562 293.347656 216.878906 C 293.199219 216.652344 293.027344 216.445312 292.835938 216.257812 C 292.648438 216.066406 292.4375 215.898438 292.214844 215.75 C 291.992188 215.597656 291.753906 215.472656 291.507812 215.371094 C 291.257812 215.265625 291 215.191406 290.738281 215.136719 C 290.472656 215.085938 290.207031 215.058594 289.9375 215.058594 L 285.832031 215.058594 C 285.5625 215.058594 285.296875 215.085938 285.035156 215.136719 C 284.769531 215.191406 284.511719 215.265625 284.265625 215.371094 C 284.015625 215.472656 283.777344 215.597656 283.554688 215.75 C 283.332031 215.898438 283.125 216.066406 282.933594 216.257812 C 282.742188 216.445312 282.574219 216.652344 282.421875 216.878906 C 282.273438 217.101562 282.148438 217.335938 282.042969 217.585938 C 281.941406 217.832031 281.863281 218.089844 281.808594 218.351562 C 281.757812 218.617188 281.730469 218.882812 281.730469 219.152344 C 281.730469 219.417969 281.757812 219.683594 281.808594 219.949219 C 281.863281 220.210938 281.941406 220.46875 282.042969 220.714844 C 282.148438 220.964844 282.273438 221.199219 282.421875 221.425781 C 282.574219 221.648438 282.742188 221.855469 282.933594 222.042969 C 283.125 222.234375 283.332031 222.402344 283.554688 222.554688 C 283.777344 222.703125 284.015625 222.828125 284.265625 222.929688 C 284.511719 223.035156 284.769531 223.113281 285.035156 223.164062 C 285.296875 223.214844 285.5625 223.242188 285.832031 223.242188 Z M 285.832031 223.242188 " fill-opacity="1" fill-rule="nonzero"/><path fill="#000000" d="M 437.625 243.703125 C 437.625 242.898438 437.546875 242.097656 437.386719 241.308594 C 437.230469 240.515625 436.996094 239.75 436.6875 239.003906 C 436.378906 238.261719 436 237.554688 435.550781 236.882812 C 435.101562 236.210938 434.589844 235.59375 434.019531 235.023438 C 433.449219 234.453125 432.828125 233.945312 432.15625 233.496094 C 431.484375 233.046875 430.773438 232.667969 430.027344 232.359375 C 429.28125 232.054688 428.511719 231.820312 427.71875 231.664062 C 426.925781 231.503906 426.125 231.425781 425.316406 231.425781 C 424.507812 231.425781 423.707031 231.503906 422.917969 231.664062 C 422.125 231.820312 421.355469 232.054688 420.609375 232.359375 C 419.859375 232.667969 419.152344 233.046875 418.480469 233.496094 C 417.808594 233.945312 417.1875 234.453125 416.613281 235.023438 C 416.042969 235.59375 415.53125 236.210938 415.085938 236.882812 C 414.636719 237.554688 414.257812 238.261719 413.945312 239.003906 C 413.636719 239.75 413.402344 240.515625 413.246094 241.308594 C 413.089844 242.097656 413.011719 242.898438 413.011719 243.703125 C 413.011719 244.507812 413.089844 245.308594 413.246094 246.097656 C 413.402344 246.886719 413.636719 247.65625 413.945312 248.402344 C 414.257812 249.144531 414.636719 249.851562 415.085938 250.523438 C 415.53125 251.191406 416.042969 251.8125 416.613281 252.382812 C 417.1875 252.953125 417.808594 253.460938 418.480469 253.910156 C 419.152344 254.359375 419.859375 254.734375 420.609375 255.042969 C 421.355469 255.351562 422.125 255.585938 422.917969 255.742188 C 423.707031 255.898438 424.507812 255.980469 425.316406 255.980469 C 426.125 255.976562 426.925781 255.898438 427.71875 255.742188 C 428.507812 255.582031 429.277344 255.351562 430.023438 255.039062 C 430.769531 254.730469 431.480469 254.355469 432.152344 253.90625 C 432.824219 253.457031 433.445312 252.949219 434.015625 252.378906 C 434.585938 251.808594 435.097656 251.191406 435.546875 250.519531 C 435.996094 249.851562 436.375 249.144531 436.683594 248.398438 C 436.992188 247.65625 437.226562 246.886719 437.386719 246.097656 C 437.542969 245.308594 437.625 244.507812 437.625 243.703125 Z M 421.214844 243.703125 C 421.214844 243.433594 421.242188 243.167969 421.292969 242.90625 C 421.347656 242.640625 421.425781 242.386719 421.527344 242.136719 C 421.628906 241.886719 421.757812 241.652344 421.90625 241.429688 C 422.054688 241.207031 422.226562 241 422.417969 240.808594 C 422.605469 240.621094 422.8125 240.449219 423.039062 240.300781 C 423.261719 240.152344 423.5 240.023438 423.746094 239.921875 C 423.996094 239.820312 424.253906 239.742188 424.515625 239.6875 C 424.78125 239.636719 425.046875 239.609375 425.316406 239.609375 C 425.585938 239.609375 425.855469 239.636719 426.117188 239.6875 C 426.382812 239.742188 426.636719 239.820312 426.886719 239.921875 C 427.136719 240.023438 427.371094 240.152344 427.597656 240.300781 C 427.820312 240.449219 428.027344 240.621094 428.21875 240.808594 C 428.410156 241 428.578125 241.207031 428.726562 241.429688 C 428.878906 241.652344 429.003906 241.886719 429.109375 242.136719 C 429.210938 242.386719 429.289062 242.640625 429.339844 242.90625 C 429.394531 243.167969 429.417969 243.433594 429.417969 243.703125 C 429.417969 243.972656 429.394531 244.238281 429.339844 244.5 C 429.289062 244.765625 429.210938 245.019531 429.109375 245.269531 C 429.003906 245.515625 428.878906 245.753906 428.726562 245.976562 C 428.578125 246.199219 428.410156 246.40625 428.21875 246.597656 C 428.027344 246.785156 427.820312 246.957031 427.597656 247.105469 C 427.371094 247.253906 427.136719 247.378906 426.886719 247.484375 C 426.636719 247.585938 426.382812 247.664062 426.117188 247.714844 C 425.855469 247.769531 425.585938 247.792969 425.316406 247.792969 C 425.046875 247.792969 424.78125 247.769531 424.515625 247.714844 C 424.253906 247.664062 423.996094 247.585938 423.75 247.480469 C 423.5 247.378906 423.261719 247.253906 423.039062 247.105469 C 422.816406 246.953125 422.609375 246.785156 422.417969 246.59375 C 422.226562 246.40625 422.058594 246.199219 421.90625 245.976562 C 421.757812 245.753906 421.632812 245.515625 421.527344 245.269531 C 421.425781 245.019531 421.347656 244.765625 421.292969 244.5 C 421.242188 244.238281 421.214844 243.972656 421.214844 243.703125 Z M 421.214844 243.703125 " fill-opacity="1" fill-rule="nonzero"/><path fill="#000000" d="M 404.804688 243.703125 C 404.804688 242.898438 404.726562 242.097656 404.570312 241.308594 C 404.410156 240.515625 404.175781 239.75 403.867188 239.003906 C 403.558594 238.261719 403.179688 237.554688 402.730469 236.882812 C 402.28125 236.210938 401.773438 235.59375 401.199219 235.023438 C 400.628906 234.453125 400.007812 233.945312 399.335938 233.496094 C 398.664062 233.046875 397.953125 232.667969 397.207031 232.359375 C 396.460938 232.054688 395.691406 231.820312 394.898438 231.664062 C 394.105469 231.503906 393.304688 231.425781 392.496094 231.425781 C 391.691406 231.425781 390.890625 231.503906 390.097656 231.664062 C 389.304688 231.820312 388.535156 232.054688 387.789062 232.359375 C 387.042969 232.667969 386.332031 233.046875 385.660156 233.496094 C 384.988281 233.945312 384.367188 234.453125 383.796875 235.023438 C 383.222656 235.59375 382.714844 236.210938 382.265625 236.882812 C 381.816406 237.554688 381.4375 238.261719 381.128906 239.003906 C 380.816406 239.75 380.585938 240.515625 380.425781 241.308594 C 380.269531 242.097656 380.191406 242.898438 380.191406 243.703125 C 380.191406 244.507812 380.269531 245.308594 380.425781 246.097656 C 380.585938 246.886719 380.816406 247.65625 381.128906 248.402344 C 381.4375 249.144531 381.816406 249.851562 382.265625 250.523438 C 382.714844 251.191406 383.222656 251.8125 383.796875 252.382812 C 384.367188 252.953125 384.988281 253.460938 385.660156 253.910156 C 386.332031 254.359375 387.042969 254.734375 387.789062 255.042969 C 388.535156 255.351562 389.304688 255.585938 390.097656 255.742188 C 390.890625 255.898438 391.691406 255.980469 392.496094 255.980469 C 393.304688 255.976562 394.105469 255.898438 394.898438 255.742188 C 395.691406 255.582031 396.460938 255.351562 397.207031 255.039062 C 397.953125 254.730469 398.660156 254.355469 399.332031 253.90625 C 400.003906 253.457031 400.625 252.949219 401.195312 252.378906 C 401.769531 251.808594 402.277344 251.191406 402.726562 250.519531 C 403.175781 249.851562 403.554688 249.144531 403.863281 248.398438 C 404.175781 247.65625 404.40625 246.886719 404.566406 246.097656 C 404.726562 245.308594 404.804688 244.507812 404.804688 243.703125 Z M 388.394531 243.703125 C 388.394531 243.433594 388.421875 243.167969 388.472656 242.90625 C 388.527344 242.640625 388.605469 242.386719 388.707031 242.136719 C 388.8125 241.886719 388.9375 241.652344 389.085938 241.429688 C 389.238281 241.207031 389.40625 241 389.597656 240.808594 C 389.789062 240.621094 389.996094 240.449219 390.21875 240.300781 C 390.441406 240.152344 390.679688 240.023438 390.929688 239.921875 C 391.175781 239.820312 391.433594 239.742188 391.699219 239.6875 C 391.960938 239.636719 392.226562 239.609375 392.496094 239.609375 C 392.765625 239.609375 393.035156 239.636719 393.296875 239.6875 C 393.5625 239.742188 393.820312 239.820312 394.066406 239.921875 C 394.316406 240.023438 394.554688 240.152344 394.777344 240.300781 C 395 240.449219 395.207031 240.621094 395.398438 240.808594 C 395.589844 241 395.757812 241.207031 395.910156 241.429688 C 396.058594 241.652344 396.183594 241.886719 396.289062 242.136719 C 396.390625 242.386719 396.46875 242.640625 396.519531 242.90625 C 396.574219 243.167969 396.601562 243.433594 396.601562 243.703125 C 396.601562 243.972656 396.574219 244.238281 396.519531 244.5 C 396.46875 244.765625 396.390625 245.019531 396.289062 245.269531 C 396.183594 245.515625 396.058594 245.753906 395.910156 245.976562 C 395.757812 246.199219 395.589844 246.40625 395.398438 246.597656 C 395.207031 246.785156 395 246.957031 394.777344 247.105469 C 394.554688 247.253906 394.316406 247.378906 394.066406 247.484375 C 393.820312 247.585938 393.5625 247.664062 393.296875 247.714844 C 393.035156 247.769531 392.765625 247.792969 392.496094 247.792969 C 392.226562 247.792969 391.960938 247.769531 391.699219 247.714844 C 391.433594 247.664062 391.175781 247.585938 390.929688 247.480469 C 390.679688 247.378906 390.445312 247.253906 390.21875 247.105469 C 389.996094 246.953125 389.789062 246.785156 389.597656 246.59375 C 389.40625 246.40625 389.238281 246.199219 389.089844 245.976562 C 388.9375 245.753906 388.8125 245.515625 388.707031 245.269531 C 388.605469 245.019531 388.527344 244.765625 388.476562 244.5 C 388.421875 244.238281 388.394531 243.972656 388.394531 243.703125 Z M 388.394531 243.703125 " fill-opacity="1" fill-rule="nonzero"/><path fill="#000000" d="M 257.117188 243.703125 C 257.117188 244.507812 257.195312 245.308594 257.355469 246.097656 C 257.511719 246.886719 257.746094 247.65625 258.058594 248.398438 C 258.367188 249.144531 258.746094 249.851562 259.195312 250.519531 C 259.644531 251.191406 260.152344 251.808594 260.726562 252.378906 C 261.296875 252.949219 261.917969 253.457031 262.589844 253.90625 C 263.261719 254.355469 263.96875 254.730469 264.714844 255.039062 C 265.460938 255.351562 266.230469 255.582031 267.023438 255.742188 C 267.816406 255.898438 268.617188 255.976562 269.425781 255.980469 L 359.679688 255.980469 C 360.484375 255.980469 361.285156 255.898438 362.078125 255.742188 C 362.871094 255.585938 363.640625 255.351562 364.386719 255.042969 C 365.132812 254.734375 365.84375 254.359375 366.515625 253.910156 C 367.1875 253.460938 367.808594 252.953125 368.378906 252.382812 C 368.953125 251.8125 369.460938 251.191406 369.910156 250.523438 C 370.359375 249.851562 370.738281 249.144531 371.046875 248.402344 C 371.359375 247.65625 371.589844 246.886719 371.75 246.097656 C 371.90625 245.308594 371.984375 244.507812 371.984375 243.703125 C 371.984375 242.898438 371.90625 242.097656 371.75 241.308594 C 371.589844 240.515625 371.359375 239.75 371.046875 239.003906 C 370.738281 238.261719 370.359375 237.554688 369.910156 236.882812 C 369.460938 236.210938 368.953125 235.59375 368.378906 235.023438 C 367.808594 234.453125 367.1875 233.945312 366.515625 233.496094 C 365.84375 233.046875 365.132812 232.667969 364.386719 232.359375 C 363.640625 232.054688 362.871094 231.820312 362.078125 231.664062 C 361.285156 231.503906 360.484375 231.425781 359.679688 231.425781 L 269.425781 231.425781 C 268.617188 231.425781 267.816406 231.507812 267.023438 231.664062 C 266.230469 231.824219 265.460938 232.054688 264.714844 232.363281 C 263.96875 232.671875 263.261719 233.050781 262.589844 233.5 C 261.917969 233.949219 261.296875 234.457031 260.726562 235.027344 C 260.152344 235.597656 259.644531 236.214844 259.195312 236.886719 C 258.746094 237.554688 258.367188 238.261719 258.058594 239.007812 C 257.746094 239.75 257.511719 240.519531 257.355469 241.308594 C 257.195312 242.097656 257.117188 242.898438 257.117188 243.703125 Z M 363.78125 243.703125 C 363.78125 243.972656 363.753906 244.238281 363.699219 244.5 C 363.648438 244.765625 363.570312 245.019531 363.46875 245.269531 C 363.363281 245.515625 363.238281 245.753906 363.089844 245.976562 C 362.9375 246.199219 362.769531 246.40625 362.578125 246.59375 C 362.386719 246.785156 362.179688 246.953125 361.957031 247.105469 C 361.734375 247.253906 361.496094 247.378906 361.246094 247.480469 C 361 247.585938 360.742188 247.664062 360.476562 247.714844 C 360.214844 247.769531 359.949219 247.792969 359.679688 247.792969 L 269.425781 247.792969 C 269.15625 247.792969 268.886719 247.769531 268.625 247.714844 C 268.359375 247.664062 268.101562 247.585938 267.855469 247.484375 C 267.605469 247.378906 267.367188 247.253906 267.144531 247.105469 C 266.921875 246.957031 266.714844 246.785156 266.523438 246.597656 C 266.332031 246.40625 266.164062 246.199219 266.011719 245.976562 C 265.863281 245.753906 265.738281 245.515625 265.632812 245.269531 C 265.53125 245.019531 265.453125 244.765625 265.398438 244.5 C 265.347656 244.238281 265.320312 243.972656 265.320312 243.703125 C 265.320312 243.433594 265.347656 243.167969 265.398438 242.90625 C 265.453125 242.640625 265.53125 242.386719 265.632812 242.136719 C 265.738281 241.886719 265.863281 241.652344 266.011719 241.429688 C 266.164062 241.207031 266.332031 241 266.523438 240.808594 C 266.714844 240.621094 266.921875 240.449219 267.144531 240.300781 C 267.367188 240.152344 267.605469 240.023438 267.855469 239.921875 C 268.101562 239.820312 268.359375 239.742188 268.625 239.6875 C 268.886719 239.636719 269.15625 239.609375 269.425781 239.609375 L 359.679688 239.609375 C 359.949219 239.609375 360.214844 239.636719 360.476562 239.691406 C 360.742188 239.742188 361 239.820312 361.246094 239.921875 C 361.496094 240.027344 361.734375 240.152344 361.957031 240.300781 C 362.179688 240.449219 362.386719 240.621094 362.578125 240.808594 C 362.769531 241 362.9375 241.207031 363.089844 241.429688 C 363.238281 241.652344 363.363281 241.890625 363.46875 242.136719 C 363.570312 242.386719 363.648438 242.640625 363.699219 242.90625 C 363.753906 243.167969 363.78125 243.433594 363.78125 243.703125 Z M 363.78125 243.703125 " fill-opacity="1" fill-rule="nonzero"/><path fill="#000000" d="M 281.730469 305.082031 L 322.757812 305.082031 C 323.023438 305.082031 323.292969 305.058594 323.554688 305.003906 C 323.820312 304.953125 324.078125 304.875 324.324219 304.773438 C 324.574219 304.667969 324.8125 304.542969 325.035156 304.394531 C 325.257812 304.246094 325.464844 304.074219 325.65625 303.882812 C 325.847656 303.695312 326.015625 303.488281 326.167969 303.265625 C 326.316406 303.042969 326.441406 302.804688 326.546875 302.558594 C 326.648438 302.308594 326.726562 302.054688 326.78125 301.789062 C 326.832031 301.527344 326.859375 301.261719 326.859375 300.992188 C 326.859375 300.722656 326.832031 300.457031 326.78125 300.191406 C 326.726562 299.929688 326.648438 299.671875 326.546875 299.425781 C 326.441406 299.175781 326.316406 298.941406 326.167969 298.71875 C 326.015625 298.496094 325.847656 298.289062 325.65625 298.097656 C 325.464844 297.90625 325.257812 297.738281 325.035156 297.589844 C 324.8125 297.441406 324.574219 297.3125 324.324219 297.210938 C 324.078125 297.109375 323.820312 297.03125 323.554688 296.976562 C 323.292969 296.925781 323.023438 296.898438 322.757812 296.898438 L 281.730469 296.898438 C 281.460938 296.898438 281.195312 296.925781 280.929688 296.976562 C 280.667969 297.03125 280.410156 297.109375 280.160156 297.210938 C 279.914062 297.3125 279.675781 297.441406 279.453125 297.589844 C 279.226562 297.738281 279.019531 297.90625 278.832031 298.097656 C 278.640625 298.289062 278.46875 298.496094 278.320312 298.71875 C 278.171875 298.941406 278.042969 299.175781 277.941406 299.425781 C 277.839844 299.671875 277.761719 299.929688 277.707031 300.191406 C 277.65625 300.457031 277.628906 300.722656 277.628906 300.992188 C 277.628906 301.261719 277.65625 301.527344 277.707031 301.789062 C 277.761719 302.054688 277.839844 302.308594 277.941406 302.558594 C 278.042969 302.804688 278.171875 303.042969 278.320312 303.265625 C 278.46875 303.488281 278.640625 303.695312 278.832031 303.882812 C 279.019531 304.074219 279.226562 304.246094 279.453125 304.394531 C 279.675781 304.542969 279.914062 304.667969 280.160156 304.773438 C 280.410156 304.875 280.667969 304.953125 280.929688 305.003906 C 281.195312 305.058594 281.460938 305.082031 281.730469 305.082031 Z M 281.730469 305.082031 " fill-opacity="1" fill-rule="nonzero"/><path fill="#000000" d="M 339.164062 305.082031 L 351.472656 305.082031 C 351.742188 305.082031 352.007812 305.058594 352.273438 305.003906 C 352.539062 304.953125 352.792969 304.875 353.042969 304.773438 C 353.292969 304.667969 353.527344 304.542969 353.753906 304.394531 C 353.976562 304.246094 354.183594 304.074219 354.375 303.882812 C 354.566406 303.695312 354.734375 303.488281 354.882812 303.265625 C 355.035156 303.042969 355.160156 302.804688 355.261719 302.558594 C 355.367188 302.308594 355.445312 302.054688 355.496094 301.789062 C 355.550781 301.527344 355.574219 301.261719 355.574219 300.992188 C 355.574219 300.722656 355.550781 300.457031 355.496094 300.191406 C 355.445312 299.929688 355.367188 299.671875 355.261719 299.425781 C 355.160156 299.175781 355.035156 298.941406 354.882812 298.71875 C 354.734375 298.496094 354.566406 298.289062 354.375 298.097656 C 354.183594 297.90625 353.976562 297.738281 353.753906 297.589844 C 353.527344 297.441406 353.292969 297.3125 353.042969 297.210938 C 352.792969 297.109375 352.539062 297.03125 352.273438 296.976562 C 352.007812 296.925781 351.742188 296.898438 351.472656 296.898438 L 339.164062 296.898438 C 338.894531 296.898438 338.628906 296.925781 338.367188 296.976562 C 338.101562 297.03125 337.84375 297.109375 337.597656 297.210938 C 337.347656 297.3125 337.109375 297.441406 336.886719 297.589844 C 336.664062 297.738281 336.457031 297.90625 336.265625 298.097656 C 336.074219 298.289062 335.90625 298.496094 335.753906 298.71875 C 335.605469 298.941406 335.480469 299.175781 335.375 299.425781 C 335.273438 299.671875 335.195312 299.929688 335.140625 300.191406 C 335.089844 300.457031 335.0625 300.722656 335.0625 300.992188 C 335.0625 301.261719 335.089844 301.527344 335.140625 301.789062 C 335.195312 302.054688 335.273438 302.308594 335.375 302.558594 C 335.480469 302.804688 335.605469 303.042969 335.753906 303.265625 C 335.90625 303.488281 336.074219 303.695312 336.265625 303.882812 C 336.457031 304.074219 336.664062 304.246094 336.886719 304.394531 C 337.109375 304.542969 337.347656 304.667969 337.597656 304.773438 C 337.84375 304.875 338.101562 304.953125 338.367188 305.003906 C 338.628906 305.058594 338.894531 305.082031 339.164062 305.082031 Z M 339.164062 305.082031 " fill-opacity="1" fill-rule="nonzero"/><path fill="#000000" d="M 269.425781 321.453125 L 388.394531 321.453125 C 388.664062 321.453125 388.929688 321.425781 389.195312 321.371094 C 389.460938 321.320312 389.714844 321.242188 389.964844 321.140625 C 390.214844 321.035156 390.449219 320.910156 390.675781 320.761719 C 390.898438 320.613281 391.105469 320.441406 391.296875 320.253906 C 391.488281 320.0625 391.65625 319.855469 391.804688 319.632812 C 391.957031 319.410156 392.082031 319.171875 392.183594 318.925781 C 392.289062 318.675781 392.367188 318.421875 392.417969 318.15625 C 392.472656 317.894531 392.496094 317.628906 392.496094 317.359375 C 392.496094 317.089844 392.472656 316.824219 392.417969 316.5625 C 392.367188 316.296875 392.289062 316.042969 392.183594 315.792969 C 392.082031 315.546875 391.957031 315.308594 391.804688 315.085938 C 391.65625 314.863281 391.488281 314.65625 391.296875 314.464844 C 391.105469 314.277344 390.898438 314.105469 390.675781 313.957031 C 390.449219 313.808594 390.214844 313.679688 389.964844 313.578125 C 389.714844 313.476562 389.460938 313.398438 389.195312 313.347656 C 388.929688 313.292969 388.664062 313.265625 388.394531 313.265625 L 269.425781 313.265625 C 269.15625 313.265625 268.886719 313.292969 268.625 313.347656 C 268.359375 313.398438 268.101562 313.476562 267.855469 313.578125 C 267.605469 313.679688 267.367188 313.808594 267.144531 313.957031 C 266.921875 314.105469 266.714844 314.277344 266.523438 314.464844 C 266.332031 314.65625 266.164062 314.863281 266.011719 315.085938 C 265.863281 315.308594 265.738281 315.546875 265.632812 315.792969 C 265.53125 316.042969 265.453125 316.296875 265.398438 316.5625 C 265.347656 316.824219 265.320312 317.089844 265.320312 317.359375 C 265.320312 317.628906 265.347656 317.894531 265.398438 318.15625 C 265.453125 318.421875 265.53125 318.675781 265.632812 318.925781 C 265.738281 319.171875 265.863281 319.410156 266.011719 319.632812 C 266.164062 319.855469 266.332031 320.0625 266.523438 320.253906 C 266.714844 320.441406 266.921875 320.613281 267.144531 320.761719 C 267.367188 320.910156 267.605469 321.035156 267.855469 321.140625 C 268.101562 321.242188 268.359375 321.320312 268.625 321.371094 C 268.886719 321.425781 269.15625 321.453125 269.425781 321.453125 Z M 269.425781 321.453125 " fill-opacity="1" fill-rule="nonzero"/><path fill="#000000" d="M 269.425781 337.820312 L 371.984375 337.820312 C 372.253906 337.820312 372.523438 337.792969 372.785156 337.742188 C 373.050781 337.6875 373.304688 337.609375 373.554688 337.507812 C 373.804688 337.40625 374.039062 337.277344 374.265625 337.128906 C 374.488281 336.980469 374.695312 336.8125 374.886719 336.621094 C 375.078125 336.429688 375.246094 336.222656 375.398438 336 C 375.546875 335.777344 375.671875 335.542969 375.777344 335.292969 C 375.878906 335.046875 375.957031 334.789062 376.007812 334.527344 C 376.0625 334.261719 376.089844 333.996094 376.089844 333.726562 C 376.089844 333.457031 376.0625 333.191406 376.007812 332.929688 C 375.957031 332.664062 375.878906 332.410156 375.777344 332.160156 C 375.671875 331.914062 375.546875 331.675781 375.398438 331.453125 C 375.246094 331.230469 375.078125 331.023438 374.886719 330.835938 C 374.695312 330.644531 374.488281 330.472656 374.265625 330.324219 C 374.039062 330.175781 373.804688 330.050781 373.554688 329.945312 C 373.304688 329.84375 373.050781 329.765625 372.785156 329.714844 C 372.523438 329.660156 372.253906 329.636719 371.984375 329.636719 L 269.425781 329.636719 C 269.15625 329.636719 268.886719 329.660156 268.625 329.714844 C 268.359375 329.765625 268.101562 329.84375 267.855469 329.945312 C 267.605469 330.050781 267.367188 330.175781 267.144531 330.324219 C 266.921875 330.472656 266.714844 330.644531 266.523438 330.835938 C 266.332031 331.023438 266.164062 331.230469 266.011719 331.453125 C 265.863281 331.675781 265.738281 331.914062 265.632812 332.160156 C 265.53125 332.410156 265.453125 332.664062 265.398438 332.929688 C 265.347656 333.191406 265.320312 333.457031 265.320312 333.726562 C 265.320312 333.996094 265.347656 334.261719 265.398438 334.527344 C 265.453125 334.789062 265.53125 335.046875 265.632812 335.292969 C 265.738281 335.542969 265.863281 335.777344 266.011719 336 C 266.164062 336.222656 266.332031 336.429688 266.523438 336.621094 C 266.714844 336.8125 266.921875 336.980469 267.144531 337.128906 C 267.367188 337.277344 267.605469 337.40625 267.855469 337.507812 C 268.101562 337.609375 268.359375 337.6875 268.625 337.742188 C 268.886719 337.792969 269.15625 337.820312 269.425781 337.820312 Z M 269.425781 337.820312 " fill-opacity="1" fill-rule="nonzero"/><path fill="#000000" d="M 269.425781 354.1875 L 355.574219 354.1875 C 355.84375 354.1875 356.113281 354.160156 356.375 354.109375 C 356.640625 354.054688 356.898438 353.980469 357.144531 353.875 C 357.394531 353.773438 357.628906 353.648438 357.855469 353.496094 C 358.078125 353.347656 358.285156 353.179688 358.476562 352.988281 C 358.667969 352.800781 358.835938 352.59375 358.988281 352.367188 C 359.136719 352.144531 359.261719 351.910156 359.367188 351.660156 C 359.46875 351.414062 359.546875 351.15625 359.597656 350.894531 C 359.652344 350.628906 359.679688 350.363281 359.679688 350.09375 C 359.679688 349.828125 359.652344 349.5625 359.597656 349.296875 C 359.546875 349.035156 359.46875 348.777344 359.367188 348.53125 C 359.261719 348.28125 359.136719 348.046875 358.988281 347.820312 C 358.835938 347.597656 358.667969 347.390625 358.476562 347.203125 C 358.285156 347.011719 358.078125 346.84375 357.855469 346.691406 C 357.628906 346.542969 357.394531 346.417969 357.144531 346.316406 C 356.898438 346.210938 356.640625 346.132812 356.375 346.082031 C 356.113281 346.03125 355.84375 346.003906 355.574219 346.003906 L 269.425781 346.003906 C 269.15625 346.003906 268.886719 346.03125 268.625 346.082031 C 268.359375 346.132812 268.101562 346.210938 267.855469 346.316406 C 267.605469 346.417969 267.367188 346.542969 267.144531 346.691406 C 266.921875 346.84375 266.714844 347.011719 266.523438 347.203125 C 266.332031 347.390625 266.164062 347.597656 266.011719 347.820312 C 265.863281 348.046875 265.738281 348.28125 265.632812 348.53125 C 265.53125 348.777344 265.453125 349.035156 265.398438 349.296875 C 265.347656 349.5625 265.320312 349.828125 265.320312 350.09375 C 265.320312 350.363281 265.347656 350.628906 265.398438 350.894531 C 265.453125 351.15625 265.53125 351.414062 265.632812 351.660156 C 265.738281 351.910156 265.863281 352.144531 266.011719 352.367188 C 266.164062 352.59375 266.332031 352.800781 266.523438 352.988281 C 266.714844 353.179688 266.921875 353.347656 267.144531 353.496094 C 267.367188 353.648438 267.605469 353.773438 267.855469 353.875 C 268.101562 353.980469 268.359375 354.054688 268.625 354.109375 C 268.886719 354.160156 269.15625 354.1875 269.425781 354.1875 Z M 269.425781 354.1875 " fill-opacity="1" fill-rule="nonzero"/><path fill="#000000" d="M 408.90625 370.554688 L 425.316406 370.554688 C 425.585938 370.554688 425.855469 370.53125 426.117188 370.476562 C 426.382812 370.425781 426.636719 370.347656 426.886719 370.246094 C 427.136719 370.140625 427.371094 370.015625 427.597656 369.867188 C 427.820312 369.71875 428.027344 369.546875 428.21875 369.355469 C 428.410156 369.167969 428.578125 368.960938 428.726562 368.738281 C 428.878906 368.515625 429.003906 368.277344 429.109375 368.03125 C 429.210938 367.78125 429.289062 367.527344 429.339844 367.261719 C 429.394531 367 429.417969 366.730469 429.417969 366.464844 C 429.417969 366.195312 429.394531 365.929688 429.339844 365.664062 C 429.289062 365.402344 429.210938 365.144531 429.109375 364.898438 C 429.003906 364.648438 428.878906 364.414062 428.726562 364.191406 C 428.578125 363.96875 428.410156 363.761719 428.21875 363.570312 C 428.027344 363.378906 427.820312 363.210938 427.597656 363.0625 C 427.371094 362.910156 427.136719 362.785156 426.886719 362.683594 C 426.636719 362.582031 426.382812 362.503906 426.117188 362.449219 C 425.855469 362.398438 425.585938 362.371094 425.316406 362.371094 L 408.90625 362.371094 C 408.636719 362.371094 408.371094 362.398438 408.105469 362.449219 C 407.84375 362.503906 407.585938 362.582031 407.335938 362.683594 C 407.089844 362.785156 406.851562 362.910156 406.628906 363.0625 C 406.40625 363.210938 406.195312 363.378906 406.007812 363.570312 C 405.816406 363.761719 405.644531 363.96875 405.496094 364.191406 C 405.347656 364.414062 405.21875 364.648438 405.117188 364.898438 C 405.015625 365.144531 404.9375 365.402344 404.882812 365.664062 C 404.832031 365.929688 404.804688 366.195312 404.804688 366.464844 C 404.804688 366.730469 404.832031 367 404.882812 367.261719 C 404.9375 367.527344 405.015625 367.78125 405.117188 368.03125 C 405.21875 368.277344 405.347656 368.515625 405.496094 368.738281 C 405.644531 368.960938 405.816406 369.167969 406.007812 369.355469 C 406.195312 369.546875 406.40625 369.71875 406.628906 369.867188 C 406.851562 370.015625 407.089844 370.140625 407.335938 370.246094 C 407.585938 370.347656 407.84375 370.425781 408.105469 370.476562 C 408.371094 370.53125 408.636719 370.554688 408.90625 370.554688 Z M 408.90625 370.554688 " fill-opacity="1" fill-rule="nonzero"/><path fill="#000000" d="M 269.425781 370.554688 L 347.371094 370.554688 C 347.640625 370.554688 347.90625 370.53125 348.171875 370.476562 C 348.433594 370.425781 348.691406 370.347656 348.941406 370.246094 C 349.191406 370.140625 349.425781 370.015625 349.648438 369.867188 C 349.875 369.71875 350.082031 369.546875 350.273438 369.355469 C 350.460938 369.167969 350.632812 368.960938 350.78125 368.738281 C 350.929688 368.515625 351.058594 368.277344 351.160156 368.03125 C 351.265625 367.78125 351.339844 367.527344 351.394531 367.261719 C 351.445312 367 351.472656 366.730469 351.472656 366.464844 C 351.472656 366.195312 351.445312 365.929688 351.394531 365.664062 C 351.339844 365.402344 351.265625 365.144531 351.160156 364.898438 C 351.058594 364.648438 350.929688 364.414062 350.78125 364.191406 C 350.632812 363.96875 350.460938 363.761719 350.273438 363.570312 C 350.082031 363.378906 349.875 363.210938 349.648438 363.0625 C 349.425781 362.910156 349.191406 362.785156 348.941406 362.683594 C 348.691406 362.582031 348.433594 362.503906 348.171875 362.449219 C 347.90625 362.398438 347.640625 362.371094 347.371094 362.371094 L 269.425781 362.371094 C 269.15625 362.371094 268.886719 362.398438 268.625 362.449219 C 268.359375 362.503906 268.101562 362.582031 267.855469 362.683594 C 267.605469 362.785156 267.367188 362.910156 267.144531 363.0625 C 266.921875 363.210938 266.714844 363.378906 266.523438 363.570312 C 266.332031 363.761719 266.164062 363.96875 266.011719 364.191406 C 265.863281 364.414062 265.738281 364.648438 265.632812 364.898438 C 265.53125 365.144531 265.453125 365.402344 265.398438 365.664062 C 265.347656 365.929688 265.320312 366.195312 265.320312 366.464844 C 265.320312 366.730469 265.347656 367 265.398438 367.261719 C 265.453125 367.527344 265.53125 367.78125 265.632812 368.03125 C 265.738281 368.277344 265.863281 368.515625 266.011719 368.738281 C 266.164062 368.960938 266.332031 369.167969 266.523438 369.355469 C 266.714844 369.546875 266.921875 369.71875 267.144531 369.867188 C 267.367188 370.015625 267.605469 370.140625 267.855469 370.246094 C 268.101562 370.347656 268.359375 370.425781 268.625 370.476562 C 268.886719 370.53125 269.15625 370.554688 269.425781 370.554688 Z M 269.425781 370.554688 " fill-opacity="1" fill-rule="nonzero"/><path fill="#000000" d="M 388.394531 382.832031 C 388.394531 383.101562 388.421875 383.367188 388.472656 383.628906 C 388.527344 383.894531 388.605469 384.148438 388.707031 384.398438 C 388.8125 384.644531 388.9375 384.882812 389.085938 385.105469 C 389.238281 385.328125 389.40625 385.535156 389.597656 385.726562 C 389.789062 385.914062 389.996094 386.085938 390.21875 386.234375 C 390.441406 386.382812 390.679688 386.507812 390.929688 386.613281 C 391.175781 386.714844 391.433594 386.792969 391.699219 386.84375 C 391.960938 386.898438 392.226562 386.925781 392.496094 386.925781 L 425.316406 386.925781 C 425.585938 386.925781 425.855469 386.898438 426.117188 386.84375 C 426.382812 386.792969 426.636719 386.714844 426.886719 386.613281 C 427.136719 386.507812 427.371094 386.382812 427.597656 386.234375 C 427.820312 386.085938 428.027344 385.914062 428.21875 385.726562 C 428.410156 385.535156 428.578125 385.328125 428.726562 385.105469 C 428.878906 384.882812 429.003906 384.644531 429.109375 384.398438 C 429.210938 384.148438 429.289062 383.894531 429.339844 383.628906 C 429.394531 383.367188 429.417969 383.101562 429.417969 382.832031 C 429.417969 382.5625 429.394531 382.296875 429.339844 382.035156 C 429.289062 381.769531 429.210938 381.515625 429.109375 381.265625 C 429.003906 381.019531 428.878906 380.78125 428.726562 380.558594 C 428.578125 380.335938 428.410156 380.128906 428.21875 379.9375 C 428.027344 379.75 427.820312 379.578125 427.597656 379.429688 C 427.371094 379.28125 427.136719 379.152344 426.886719 379.050781 C 426.636719 378.949219 426.382812 378.871094 426.117188 378.820312 C 425.855469 378.765625 425.585938 378.738281 425.316406 378.738281 L 392.496094 378.738281 C 392.226562 378.738281 391.960938 378.765625 391.699219 378.820312 C 391.433594 378.871094 391.175781 378.949219 390.929688 379.050781 C 390.679688 379.152344 390.441406 379.28125 390.21875 379.429688 C 389.996094 379.578125 389.789062 379.75 389.597656 379.9375 C 389.40625 380.128906 389.238281 380.335938 389.085938 380.558594 C 388.9375 380.78125 388.8125 381.019531 388.707031 381.265625 C 388.605469 381.515625 388.527344 381.769531 388.472656 382.035156 C 388.421875 382.296875 388.394531 382.5625 388.394531 382.832031 Z M 388.394531 382.832031 " fill-opacity="1" fill-rule="nonzero"/><path fill="#000000" d="M 269.425781 386.925781 L 347.371094 386.925781 C 347.640625 386.925781 347.90625 386.898438 348.171875 386.84375 C 348.433594 386.792969 348.691406 386.714844 348.941406 386.613281 C 349.191406 386.507812 349.425781 386.382812 349.648438 386.234375 C 349.875 386.085938 350.082031 385.914062 350.273438 385.726562 C 350.460938 385.535156 350.632812 385.328125 350.78125 385.105469 C 350.929688 384.882812 351.058594 384.644531 351.160156 384.398438 C 351.265625 384.148438 351.339844 383.894531 351.394531 383.628906 C 351.445312 383.367188 351.472656 383.101562 351.472656 382.832031 C 351.472656 382.5625 351.445312 382.296875 351.394531 382.035156 C 351.339844 381.769531 351.265625 381.515625 351.160156 381.265625 C 351.058594 381.019531 350.929688 380.78125 350.78125 380.558594 C 350.632812 380.335938 350.460938 380.128906 350.273438 379.9375 C 350.082031 379.75 349.875 379.578125 349.648438 379.429688 C 349.425781 379.28125 349.191406 379.152344 348.941406 379.050781 C 348.691406 378.949219 348.433594 378.871094 348.171875 378.820312 C 347.90625 378.765625 347.640625 378.738281 347.371094 378.738281 L 269.425781 378.738281 C 269.15625 378.738281 268.886719 378.765625 268.625 378.820312 C 268.359375 378.871094 268.101562 378.949219 267.855469 379.050781 C 267.605469 379.152344 267.367188 379.28125 267.144531 379.429688 C 266.921875 379.578125 266.714844 379.75 266.523438 379.9375 C 266.332031 380.128906 266.164062 380.335938 266.011719 380.558594 C 265.863281 380.78125 265.738281 381.019531 265.632812 381.265625 C 265.53125 381.515625 265.453125 381.769531 265.398438 382.035156 C 265.347656 382.296875 265.320312 382.5625 265.320312 382.832031 C 265.320312 383.101562 265.347656 383.367188 265.398438 383.628906 C 265.453125 383.894531 265.53125 384.148438 265.632812 384.398438 C 265.738281 384.644531 265.863281 384.882812 266.011719 385.105469 C 266.164062 385.328125 266.332031 385.535156 266.523438 385.726562 C 266.714844 385.914062 266.921875 386.085938 267.144531 386.234375 C 267.367188 386.382812 267.605469 386.507812 267.855469 386.613281 C 268.101562 386.714844 268.359375 386.792969 268.625 386.84375 C 268.886719 386.898438 269.15625 386.925781 269.425781 386.925781 Z M 269.425781 386.925781 " fill-opacity="1" fill-rule="nonzero"/><path fill="#000000" d="M 396.601562 395.109375 L 269.425781 395.109375 C 269.15625 395.109375 268.886719 395.132812 268.625 395.1875 C 268.359375 395.238281 268.101562 395.316406 267.855469 395.417969 C 267.605469 395.523438 267.367188 395.648438 267.144531 395.796875 C 266.921875 395.945312 266.714844 396.117188 266.523438 396.304688 C 266.332031 396.496094 266.164062 396.703125 266.011719 396.925781 C 265.863281 397.148438 265.738281 397.386719 265.632812 397.632812 C 265.53125 397.882812 265.453125 398.136719 265.398438 398.402344 C 265.347656 398.664062 265.320312 398.929688 265.320312 399.199219 C 265.320312 399.46875 265.347656 399.734375 265.398438 400 C 265.453125 400.261719 265.53125 400.519531 265.632812 400.765625 C 265.738281 401.015625 265.863281 401.25 266.011719 401.472656 C 266.164062 401.695312 266.332031 401.902344 266.523438 402.09375 C 266.714844 402.285156 266.921875 402.453125 267.144531 402.601562 C 267.367188 402.75 267.605469 402.878906 267.855469 402.980469 C 268.101562 403.082031 268.359375 403.160156 268.625 403.214844 C 268.886719 403.265625 269.15625 403.292969 269.425781 403.292969 L 396.601562 403.292969 C 396.871094 403.292969 397.136719 403.265625 397.402344 403.214844 C 397.664062 403.160156 397.921875 403.082031 398.171875 402.980469 C 398.417969 402.878906 398.65625 402.75 398.878906 402.601562 C 399.101562 402.453125 399.3125 402.285156 399.5 402.09375 C 399.691406 401.902344 399.863281 401.695312 400.011719 401.472656 C 400.160156 401.25 400.289062 401.015625 400.390625 400.765625 C 400.492188 400.519531 400.570312 400.261719 400.625 400 C 400.675781 399.734375 400.703125 399.46875 400.703125 399.199219 C 400.703125 398.929688 400.675781 398.664062 400.625 398.402344 C 400.570312 398.136719 400.492188 397.882812 400.390625 397.632812 C 400.289062 397.386719 400.160156 397.148438 400.011719 396.925781 C 399.863281 396.703125 399.691406 396.496094 399.5 396.304688 C 399.3125 396.117188 399.101562 395.945312 398.878906 395.796875 C 398.65625 395.648438 398.417969 395.523438 398.171875 395.417969 C 397.921875 395.316406 397.664062 395.238281 397.402344 395.1875 C 397.136719 395.132812 396.871094 395.109375 396.601562 395.109375 Z M 396.601562 395.109375 " fill-opacity="1" fill-rule="nonzero"/><g clip-path="url(#1369a1ea30)"><path fill="#000000" d="M 482.132812 260.683594 C 481.75 260.304688 481.351562 259.949219 480.9375 259.609375 C 480.523438 259.269531 480.089844 258.953125 479.644531 258.652344 C 479.195312 258.355469 478.734375 258.082031 478.261719 257.832031 C 477.789062 257.578125 477.300781 257.351562 476.804688 257.144531 C 476.308594 256.941406 475.804688 256.761719 475.289062 256.605469 C 474.777344 256.449219 474.253906 256.320312 473.730469 256.214844 C 473.203125 256.113281 472.671875 256.035156 472.136719 255.980469 C 471.601562 255.929688 471.066406 255.902344 470.527344 255.902344 C 469.992188 255.902344 469.457031 255.929688 468.921875 255.980469 C 468.386719 256.035156 467.855469 256.113281 467.328125 256.214844 C 466.800781 256.320312 466.28125 256.449219 465.765625 256.605469 C 465.253906 256.761719 464.746094 256.941406 464.25 257.144531 C 463.753906 257.351562 463.269531 257.578125 462.796875 257.832031 C 462.320312 258.082031 461.859375 258.355469 461.414062 258.652344 C 460.96875 258.953125 460.535156 259.269531 460.121094 259.609375 C 459.703125 259.949219 459.304688 260.304688 458.925781 260.683594 L 454.035156 265.566406 L 454.035156 235.519531 C 454.035156 234.847656 454 234.179688 453.933594 233.515625 C 453.867188 232.847656 453.769531 232.1875 453.636719 231.527344 C 453.503906 230.871094 453.339844 230.222656 453.144531 229.582031 C 452.949219 228.941406 452.722656 228.3125 452.46875 227.691406 C 452.210938 227.074219 451.921875 226.46875 451.605469 225.878906 C 451.289062 225.289062 450.945312 224.714844 450.570312 224.15625 C 450.195312 223.601562 449.796875 223.0625 449.371094 222.546875 C 448.945312 222.027344 448.496094 221.53125 448.019531 221.058594 C 447.542969 220.585938 447.046875 220.136719 446.527344 219.710938 C 446.007812 219.285156 445.472656 218.886719 444.914062 218.515625 C 444.355469 218.140625 443.777344 217.796875 443.1875 217.480469 C 442.59375 217.164062 441.988281 216.878906 441.367188 216.621094 C 440.746094 216.367188 440.117188 216.140625 439.472656 215.945312 C 438.832031 215.75 438.179688 215.585938 437.523438 215.457031 C 436.863281 215.324219 436.199219 215.226562 435.53125 215.160156 C 434.863281 215.09375 434.195312 215.058594 433.523438 215.058594 L 306.347656 215.058594 C 306.078125 215.058594 305.808594 215.085938 305.546875 215.136719 C 305.28125 215.191406 305.023438 215.265625 304.777344 215.371094 C 304.527344 215.472656 304.289062 215.597656 304.066406 215.75 C 303.84375 215.898438 303.636719 216.066406 303.445312 216.257812 C 303.253906 216.445312 303.085938 216.652344 302.933594 216.878906 C 302.785156 217.101562 302.660156 217.335938 302.554688 217.585938 C 302.453125 217.832031 302.375 218.089844 302.324219 218.351562 C 302.269531 218.617188 302.242188 218.882812 302.242188 219.152344 C 302.242188 219.417969 302.269531 219.683594 302.324219 219.949219 C 302.375 220.210938 302.453125 220.46875 302.554688 220.714844 C 302.660156 220.964844 302.785156 221.199219 302.933594 221.425781 C 303.085938 221.648438 303.253906 221.855469 303.445312 222.042969 C 303.636719 222.234375 303.84375 222.402344 304.066406 222.554688 C 304.289062 222.703125 304.527344 222.828125 304.777344 222.929688 C 305.023438 223.035156 305.28125 223.113281 305.546875 223.164062 C 305.808594 223.214844 306.078125 223.242188 306.347656 223.242188 L 433.523438 223.242188 C 434.332031 223.242188 435.128906 223.324219 435.921875 223.480469 C 436.714844 223.636719 437.484375 223.871094 438.230469 224.179688 C 438.976562 224.488281 439.683594 224.867188 440.355469 225.316406 C 441.027344 225.761719 441.648438 226.273438 442.222656 226.84375 C 442.792969 227.410156 443.300781 228.03125 443.75 228.703125 C 444.199219 229.371094 444.578125 230.078125 444.890625 230.824219 C 445.199219 231.566406 445.433594 232.335938 445.589844 233.125 C 445.75 233.914062 445.828125 234.714844 445.828125 235.519531 L 445.828125 264.164062 L 248.910156 264.164062 L 248.910156 235.519531 C 248.914062 234.714844 248.992188 233.914062 249.148438 233.125 C 249.308594 232.335938 249.542969 231.566406 249.851562 230.824219 C 250.160156 230.078125 250.539062 229.371094 250.988281 228.703125 C 251.4375 228.03125 251.949219 227.410156 252.519531 226.84375 C 253.089844 226.273438 253.714844 225.761719 254.382812 225.316406 C 255.054688 224.867188 255.765625 224.488281 256.511719 224.179688 C 257.257812 223.871094 258.027344 223.636719 258.820312 223.480469 C 259.609375 223.324219 260.410156 223.242188 261.21875 223.242188 L 273.527344 223.242188 C 273.796875 223.242188 274.0625 223.214844 274.328125 223.164062 C 274.589844 223.113281 274.847656 223.035156 275.097656 222.929688 C 275.34375 222.828125 275.582031 222.703125 275.804688 222.554688 C 276.03125 222.402344 276.238281 222.234375 276.425781 222.042969 C 276.617188 221.855469 276.789062 221.648438 276.9375 221.425781 C 277.085938 221.199219 277.214844 220.964844 277.316406 220.714844 C 277.417969 220.46875 277.496094 220.210938 277.550781 219.949219 C 277.601562 219.683594 277.628906 219.417969 277.628906 219.152344 C 277.628906 218.882812 277.601562 218.617188 277.550781 218.351562 C 277.496094 218.089844 277.417969 217.832031 277.316406 217.585938 C 277.214844 217.335938 277.085938 217.101562 276.9375 216.878906 C 276.789062 216.652344 276.617188 216.445312 276.425781 216.257812 C 276.238281 216.066406 276.03125 215.898438 275.804688 215.75 C 275.582031 215.597656 275.34375 215.472656 275.097656 215.371094 C 274.847656 215.265625 274.589844 215.191406 274.328125 215.136719 C 274.0625 215.085938 273.796875 215.058594 273.527344 215.058594 L 261.21875 215.058594 C 260.546875 215.058594 259.878906 215.09375 259.210938 215.160156 C 258.539062 215.226562 257.878906 215.324219 257.21875 215.457031 C 256.558594 215.585938 255.910156 215.75 255.265625 215.945312 C 254.625 216.140625 253.992188 216.367188 253.375 216.621094 C 252.753906 216.878906 252.148438 217.164062 251.554688 217.480469 C 250.960938 217.796875 250.386719 218.140625 249.828125 218.515625 C 249.269531 218.886719 248.730469 219.285156 248.210938 219.710938 C 247.695312 220.136719 247.195312 220.585938 246.722656 221.058594 C 246.246094 221.53125 245.796875 222.027344 245.371094 222.546875 C 244.945312 223.0625 244.542969 223.601562 244.171875 224.15625 C 243.796875 224.714844 243.453125 225.289062 243.136719 225.878906 C 242.820312 226.46875 242.53125 227.074219 242.273438 227.691406 C 242.015625 228.3125 241.789062 228.941406 241.59375 229.582031 C 241.398438 230.222656 241.238281 230.871094 241.105469 231.527344 C 240.972656 232.1875 240.875 232.847656 240.808594 233.515625 C 240.742188 234.179688 240.707031 234.847656 240.707031 235.519531 L 240.707031 407.382812 C 240.707031 408.054688 240.742188 408.722656 240.808594 409.390625 C 240.875 410.054688 240.972656 410.71875 241.105469 411.375 C 241.238281 412.03125 241.398438 412.679688 241.59375 413.320312 C 241.789062 413.960938 242.015625 414.589844 242.273438 415.210938 C 242.53125 415.828125 242.820312 416.433594 243.136719 417.023438 C 243.453125 417.613281 243.796875 418.1875 244.171875 418.746094 C 244.542969 419.300781 244.945312 419.839844 245.371094 420.355469 C 245.796875 420.875 246.246094 421.371094 246.722656 421.84375 C 247.195312 422.316406 247.695312 422.765625 248.210938 423.191406 C 248.730469 423.617188 249.269531 424.015625 249.828125 424.386719 C 250.386719 424.761719 250.960938 425.105469 251.554688 425.421875 C 252.148438 425.738281 252.753906 426.023438 253.375 426.28125 C 253.992188 426.535156 254.625 426.761719 255.265625 426.957031 C 255.910156 427.152344 256.558594 427.316406 257.21875 427.445312 C 257.878906 427.578125 258.539062 427.675781 259.210938 427.742188 C 259.878906 427.808594 260.546875 427.84375 261.21875 427.84375 L 433.523438 427.84375 C 434.195312 427.84375 434.863281 427.808594 435.53125 427.742188 C 436.199219 427.675781 436.863281 427.578125 437.523438 427.445312 C 438.179688 427.316406 438.832031 427.152344 439.472656 426.957031 C 440.117188 426.761719 440.746094 426.535156 441.367188 426.28125 C 441.988281 426.023438 442.59375 425.738281 443.1875 425.421875 C 443.777344 425.105469 444.355469 424.761719 444.914062 424.386719 C 445.472656 424.015625 446.007812 423.617188 446.527344 423.191406 C 447.046875 422.765625 447.542969 422.316406 448.019531 421.84375 C 448.496094 421.371094 448.945312 420.875 449.371094 420.355469 C 449.796875 419.839844 450.195312 419.300781 450.570312 418.746094 C 450.945312 418.1875 451.289062 417.613281 451.605469 417.023438 C 451.921875 416.433594 452.210938 415.828125 452.46875 415.210938 C 452.722656 414.589844 452.949219 413.960938 453.144531 413.320312 C 453.339844 412.679688 453.503906 412.03125 453.636719 411.375 C 453.769531 410.71875 453.867188 410.054688 453.933594 409.390625 C 454 408.722656 454.035156 408.054688 454.035156 407.382812 L 454.035156 311.863281 L 482.132812 283.835938 C 482.511719 283.457031 482.871094 283.058594 483.210938 282.644531 C 483.554688 282.230469 483.871094 281.800781 484.171875 281.355469 C 484.46875 280.90625 484.742188 280.449219 484.996094 279.976562 C 485.25 279.503906 485.480469 279.019531 485.683594 278.523438 C 485.890625 278.027344 486.070312 277.523438 486.226562 277.011719 C 486.382812 276.496094 486.511719 275.976562 486.617188 275.453125 C 486.71875 274.925781 486.800781 274.398438 486.851562 273.863281 C 486.902344 273.332031 486.929688 272.796875 486.929688 272.261719 C 486.929688 271.722656 486.902344 271.1875 486.851562 270.65625 C 486.796875 270.121094 486.71875 269.59375 486.617188 269.066406 C 486.511719 268.542969 486.378906 268.023438 486.226562 267.507812 C 486.070312 266.996094 485.886719 266.492188 485.683594 265.996094 C 485.476562 265.503906 485.25 265.019531 484.996094 264.546875 C 484.742188 264.070312 484.46875 263.613281 484.167969 263.167969 C 483.871094 262.722656 483.550781 262.289062 483.210938 261.875 C 482.871094 261.460938 482.511719 261.0625 482.132812 260.683594 Z M 447.0625 307.242188 L 447.007812 307.296875 L 387.089844 367.0625 L 369.683594 372.851562 L 375.484375 355.492188 L 450.21875 280.941406 L 461.824219 292.515625 Z M 445.828125 407.382812 C 445.828125 408.191406 445.75 408.988281 445.589844 409.777344 C 445.433594 410.566406 445.199219 411.335938 444.890625 412.078125 C 444.578125 412.824219 444.199219 413.53125 443.75 414.199219 C 443.300781 414.871094 442.792969 415.492188 442.222656 416.0625 C 441.648438 416.628906 441.027344 417.140625 440.355469 417.585938 C 439.683594 418.035156 438.976562 418.414062 438.230469 418.722656 C 437.484375 419.03125 436.714844 419.265625 435.921875 419.421875 C 435.128906 419.578125 434.332031 419.660156 433.523438 419.660156 L 261.21875 419.660156 C 260.410156 419.660156 259.609375 419.578125 258.820312 419.421875 C 258.027344 419.265625 257.257812 419.03125 256.511719 418.722656 C 255.765625 418.414062 255.054688 418.035156 254.382812 417.585938 C 253.714844 417.140625 253.089844 416.628906 252.519531 416.0625 C 251.949219 415.492188 251.4375 414.871094 250.988281 414.199219 C 250.539062 413.53125 250.160156 412.824219 249.851562 412.078125 C 249.542969 411.335938 249.308594 410.566406 249.148438 409.777344 C 248.992188 408.988281 248.914062 408.191406 248.910156 407.382812 L 248.910156 272.347656 L 445.828125 272.347656 L 445.828125 273.75 L 368.996094 350.386719 C 368.539062 350.84375 368.210938 351.375 368.007812 351.984375 L 359.304688 378.027344 C 359.203125 378.335938 359.136719 378.652344 359.109375 378.976562 C 359.082031 379.296875 359.089844 379.621094 359.140625 379.941406 C 359.1875 380.261719 359.277344 380.570312 359.398438 380.871094 C 359.519531 381.171875 359.679688 381.453125 359.867188 381.714844 C 360.058594 381.980469 360.277344 382.214844 360.523438 382.425781 C 360.769531 382.640625 361.039062 382.816406 361.328125 382.964844 C 361.617188 383.113281 361.917969 383.226562 362.234375 383.300781 C 362.550781 383.378906 362.871094 383.414062 363.195312 383.414062 C 363.640625 383.417969 364.074219 383.34375 364.496094 383.203125 L 390.601562 374.519531 C 391.214844 374.316406 391.746094 373.988281 392.203125 373.53125 L 445.828125 320.046875 Z M 476.332031 278.050781 L 467.628906 286.730469 L 456.023438 275.15625 L 464.726562 266.472656 C 465.109375 266.09375 465.523438 265.753906 465.972656 265.457031 C 466.417969 265.15625 466.890625 264.90625 467.390625 264.699219 C 467.886719 264.492188 468.402344 264.339844 468.929688 264.234375 C 469.457031 264.128906 469.992188 264.074219 470.53125 264.074219 C 471.070312 264.074219 471.601562 264.128906 472.132812 264.234375 C 472.660156 264.339844 473.171875 264.492188 473.671875 264.699219 C 474.167969 264.90625 474.640625 265.15625 475.089844 265.457031 C 475.539062 265.753906 475.953125 266.09375 476.332031 266.472656 C 476.714844 266.855469 477.054688 267.265625 477.351562 267.714844 C 477.652344 268.160156 477.90625 268.632812 478.113281 269.128906 C 478.316406 269.625 478.472656 270.136719 478.578125 270.664062 C 478.683594 271.191406 478.734375 271.722656 478.734375 272.261719 C 478.734375 272.800781 478.683594 273.332031 478.578125 273.859375 C 478.472656 274.386719 478.316406 274.898438 478.109375 275.394531 C 477.90625 275.890625 477.652344 276.363281 477.351562 276.808594 C 477.054688 277.257812 476.714844 277.667969 476.332031 278.050781 Z M 476.332031 278.050781 " fill-opacity="1" fill-rule="nonzero"/></g><g fill="#000000" fill-opacity="1"><g transform="translate(232.324252, 159.253445)"><g><path d="M 1.84375 0 L 1.84375 -2.234375 C 3.113281 -2.273438 4.128906 -2.382812 4.890625 -2.5625 C 5.648438 -2.75 6.242188 -3.066406 6.671875 -3.515625 C 7.109375 -3.960938 7.398438 -4.597656 7.546875 -5.421875 C 7.691406 -6.242188 7.765625 -7.304688 7.765625 -8.609375 L 7.765625 -34.421875 C 7.765625 -35.734375 7.707031 -36.785156 7.59375 -37.578125 C 7.488281 -38.378906 7.257812 -39.015625 6.90625 -39.484375 C 6.550781 -39.953125 6.066406 -40.269531 5.453125 -40.4375 C 4.835938 -40.601562 4.023438 -40.722656 3.015625 -40.796875 L 3.015625 -43.03125 L 20.953125 -43.03125 C 26.578125 -43.03125 30.910156 -42.125 33.953125 -40.3125 C 36.992188 -38.507812 38.515625 -35.929688 38.515625 -32.578125 C 38.515625 -28.148438 35.328125 -25.019531 28.953125 -23.1875 L 28.953125 -22.96875 C 31.003906 -22.96875 32.859375 -22.675781 34.515625 -22.09375 C 36.171875 -21.519531 37.578125 -20.710938 38.734375 -19.671875 C 39.890625 -18.628906 40.78125 -17.398438 41.40625 -15.984375 C 42.039062 -14.566406 42.359375 -13.019531 42.359375 -11.34375 C 42.359375 -9.445312 41.898438 -7.789062 40.984375 -6.375 C 40.078125 -4.957031 38.769531 -3.765625 37.0625 -2.796875 C 33.738281 -0.929688 29.171875 0 23.359375 0 Z M 23.75 -3.40625 C 29.75 -3.40625 32.75 -6.109375 32.75 -11.515625 C 32.75 -14.828125 31.671875 -17.25 29.515625 -18.78125 C 28.390625 -19.5625 26.941406 -20.117188 25.171875 -20.453125 C 23.410156 -20.785156 21.242188 -20.953125 18.671875 -20.953125 L 15.984375 -20.953125 L 15.984375 -9.78125 C 15.984375 -7.46875 16.578125 -5.828125 17.765625 -4.859375 C 18.960938 -3.890625 20.957031 -3.40625 23.75 -3.40625 Z M 19.28125 -24.3125 C 20.957031 -24.3125 22.410156 -24.46875 23.640625 -24.78125 C 24.867188 -25.101562 25.910156 -25.5625 26.765625 -26.15625 C 28.554688 -27.382812 29.453125 -29.300781 29.453125 -31.90625 C 29.453125 -34.632812 28.78125 -36.601562 27.4375 -37.8125 C 26.101562 -39.019531 23.941406 -39.625 20.953125 -39.625 L 16.984375 -39.625 C 16.316406 -39.625 15.984375 -39.304688 15.984375 -38.671875 L 15.984375 -24.3125 Z M 19.28125 -24.3125 "/></g></g></g><g fill="#000000" fill-opacity="1"><g transform="translate(276.867069, 159.253445)"><g><path d="M 13.8125 -9.171875 C 13.8125 -7.679688 13.863281 -6.488281 13.96875 -5.59375 C 14.082031 -4.695312 14.304688 -4.003906 14.640625 -3.515625 C 14.972656 -3.035156 15.457031 -2.710938 16.09375 -2.546875 C 16.726562 -2.378906 17.585938 -2.273438 18.671875 -2.234375 L 18.671875 0 L 1.0625 0 L 1.0625 -2.234375 C 2.101562 -2.273438 2.945312 -2.394531 3.59375 -2.59375 C 4.25 -2.800781 4.753906 -3.132812 5.109375 -3.59375 C 5.460938 -4.0625 5.703125 -4.710938 5.828125 -5.546875 C 5.960938 -6.390625 6.03125 -7.46875 6.03125 -8.78125 L 6.03125 -31.859375 C 6.03125 -34.015625 5.992188 -35.789062 5.921875 -37.1875 C 5.847656 -38.59375 5.753906 -39.554688 5.640625 -40.078125 C 5.453125 -41.003906 5.03125 -41.613281 4.375 -41.90625 C 3.726562 -42.207031 2.550781 -42.359375 0.84375 -42.359375 L 0.84375 -44.265625 L 13.8125 -46.390625 Z M 13.8125 -9.171875 "/></g></g></g><g fill="#000000" fill-opacity="1"><g transform="translate(296.707354, 159.253445)"><g><path d="M 18.328125 -30.1875 C 20.566406 -30.1875 22.679688 -29.800781 24.671875 -29.03125 C 26.671875 -28.269531 28.421875 -27.21875 29.921875 -25.875 C 31.429688 -24.53125 32.625 -22.9375 33.5 -21.09375 C 34.375 -19.25 34.8125 -17.226562 34.8125 -15.03125 C 34.8125 -12.757812 34.375 -10.671875 33.5 -8.765625 C 32.625 -6.867188 31.429688 -5.226562 29.921875 -3.84375 C 28.421875 -2.46875 26.671875 -1.390625 24.671875 -0.609375 C 22.679688 0.171875 20.566406 0.5625 18.328125 0.5625 C 16.128906 0.5625 14.039062 0.179688 12.0625 -0.578125 C 10.09375 -1.347656 8.363281 -2.421875 6.875 -3.796875 C 5.382812 -5.179688 4.207031 -6.832031 3.34375 -8.75 C 2.488281 -10.664062 2.0625 -12.757812 2.0625 -15.03125 C 2.0625 -17.226562 2.488281 -19.257812 3.34375 -21.125 C 4.207031 -22.988281 5.382812 -24.585938 6.875 -25.921875 C 8.363281 -27.265625 10.09375 -28.3125 12.0625 -29.0625 C 14.039062 -29.8125 16.128906 -30.1875 18.328125 -30.1875 Z M 18.328125 -26.9375 C 17.210938 -26.9375 16.1875 -26.644531 15.25 -26.0625 C 14.320312 -25.488281 13.53125 -24.679688 12.875 -23.640625 C 12.226562 -22.597656 11.726562 -21.335938 11.375 -19.859375 C 11.019531 -18.390625 10.84375 -16.765625 10.84375 -14.984375 C 10.84375 -13.117188 11.019531 -11.441406 11.375 -9.953125 C 11.726562 -8.460938 12.226562 -7.191406 12.875 -6.140625 C 13.53125 -5.097656 14.3125 -4.285156 15.21875 -3.703125 C 16.132812 -3.128906 17.171875 -2.84375 18.328125 -2.84375 C 19.484375 -2.84375 20.535156 -3.128906 21.484375 -3.703125 C 22.441406 -4.285156 23.253906 -5.109375 23.921875 -6.171875 C 24.585938 -7.234375 25.109375 -8.507812 25.484375 -10 C 25.859375 -11.488281 26.046875 -13.148438 26.046875 -14.984375 C 26.046875 -16.765625 25.859375 -18.378906 25.484375 -19.828125 C 25.109375 -21.285156 24.585938 -22.546875 23.921875 -23.609375 C 23.253906 -24.671875 22.441406 -25.488281 21.484375 -26.0625 C 20.535156 -26.644531 19.484375 -26.9375 18.328125 -26.9375 Z M 18.328125 -26.9375 "/></g></g></g><g fill="#000000" fill-opacity="1"><g transform="translate(333.593501, 159.253445)"><g><path d="M 12.75 -6.03125 C 13.75 -5.957031 14.628906 -5.882812 15.390625 -5.8125 C 16.160156 -5.738281 16.890625 -5.65625 17.578125 -5.5625 C 18.265625 -5.46875 18.953125 -5.375 19.640625 -5.28125 C 20.328125 -5.1875 21.066406 -5.082031 21.859375 -4.96875 C 24.765625 -4.5625 27.046875 -3.472656 28.703125 -1.703125 C 30.359375 0.0664062 31.1875 2.253906 31.1875 4.859375 C 31.1875 8.023438 29.878906 10.425781 27.265625 12.0625 C 24.660156 13.707031 20.828125 14.53125 15.765625 14.53125 C 11.109375 14.53125 7.519531 13.847656 5 12.484375 C 2.488281 11.128906 1.234375 9.203125 1.234375 6.703125 C 1.234375 4.765625 1.734375 3.300781 2.734375 2.3125 C 3.742188 1.332031 5.015625 0.84375 6.546875 0.84375 C 7.515625 0.84375 8.453125 1.035156 9.359375 1.421875 C 10.273438 1.816406 11.050781 2.382812 11.6875 3.125 C 10.71875 3.3125 9.925781 3.75 9.3125 4.4375 C 8.695312 5.132812 8.390625 5.945312 8.390625 6.875 C 8.390625 8.363281 9.050781 9.507812 10.375 10.3125 C 11.695312 11.113281 13.640625 11.515625 16.203125 11.515625 C 21.796875 11.515625 24.59375 9.742188 24.59375 6.203125 C 24.59375 4.929688 24.171875 3.835938 23.328125 2.921875 C 22.492188 2.015625 21.296875 1.46875 19.734375 1.28125 L 9.953125 -0.0625 C 5.816406 -0.613281 3.75 -2.457031 3.75 -5.59375 C 3.75 -7.113281 4.238281 -8.359375 5.21875 -9.328125 C 6.207031 -10.296875 7.617188 -10.96875 9.453125 -11.34375 L 9.453125 -11.5625 C 8.585938 -11.90625 7.8125 -12.375 7.125 -12.96875 C 6.4375 -13.5625 5.832031 -14.25 5.3125 -15.03125 C 4.789062 -15.8125 4.390625 -16.660156 4.109375 -17.578125 C 3.828125 -18.492188 3.6875 -19.4375 3.6875 -20.40625 C 3.6875 -21.78125 3.972656 -23.070312 4.546875 -24.28125 C 5.128906 -25.488281 5.929688 -26.519531 6.953125 -27.375 C 7.984375 -28.238281 9.195312 -28.921875 10.59375 -29.421875 C 11.988281 -29.929688 13.503906 -30.1875 15.140625 -30.1875 C 16.742188 -30.1875 18.304688 -29.941406 19.828125 -29.453125 C 21.359375 -28.972656 22.664062 -28.300781 23.75 -27.4375 C 24.601562 -27.957031 25.347656 -28.394531 25.984375 -28.75 C 26.617188 -29.101562 27.207031 -29.382812 27.75 -29.59375 C 28.289062 -29.800781 28.785156 -29.953125 29.234375 -30.046875 C 29.679688 -30.140625 30.128906 -30.1875 30.578125 -30.1875 C 31.992188 -30.1875 33.140625 -29.867188 34.015625 -29.234375 C 34.890625 -28.597656 35.328125 -27.757812 35.328125 -26.71875 C 35.328125 -25.9375 35.082031 -25.289062 34.59375 -24.78125 C 34.113281 -24.28125 33.484375 -24.03125 32.703125 -24.03125 C 32.140625 -24.03125 31.691406 -24.148438 31.359375 -24.390625 C 31.023438 -24.640625 30.695312 -24.921875 30.375 -25.234375 C 30.0625 -25.546875 29.734375 -25.820312 29.390625 -26.0625 C 29.054688 -26.3125 28.613281 -26.4375 28.0625 -26.4375 C 27.28125 -26.4375 26.535156 -25.929688 25.828125 -24.921875 C 26.191406 -24.296875 26.445312 -23.617188 26.59375 -22.890625 C 26.75 -22.160156 26.828125 -21.3125 26.828125 -20.34375 C 26.828125 -18.925781 26.601562 -17.617188 26.15625 -16.421875 C 25.707031 -15.234375 25.007812 -14.179688 24.0625 -13.265625 C 23.113281 -12.359375 21.894531 -11.585938 20.40625 -10.953125 C 18.914062 -10.316406 17.109375 -9.890625 14.984375 -9.671875 C 13.191406 -9.484375 11.953125 -9.238281 11.265625 -8.9375 C 10.578125 -8.644531 10.234375 -8.195312 10.234375 -7.59375 C 10.234375 -6.707031 11.070312 -6.1875 12.75 -6.03125 Z M 15.421875 -12.859375 C 16.617188 -12.859375 17.550781 -13.488281 18.21875 -14.75 C 18.882812 -16.019531 19.21875 -17.789062 19.21875 -20.0625 C 19.21875 -22.375 18.882812 -24.15625 18.21875 -25.40625 C 17.550781 -26.65625 16.601562 -27.28125 15.375 -27.28125 C 14.101562 -27.28125 13.09375 -26.644531 12.34375 -25.375 C 11.601562 -24.101562 11.234375 -22.367188 11.234375 -20.171875 C 11.234375 -17.941406 11.613281 -16.164062 12.375 -14.84375 C 13.144531 -13.519531 14.160156 -12.859375 15.421875 -12.859375 Z M 15.421875 -12.859375 "/></g></g></g><g fill="#000000" fill-opacity="1"><g transform="translate(367.68525, 159.253445)"><g><path d="M 12.75 -6.03125 C 13.75 -5.957031 14.628906 -5.882812 15.390625 -5.8125 C 16.160156 -5.738281 16.890625 -5.65625 17.578125 -5.5625 C 18.265625 -5.46875 18.953125 -5.375 19.640625 -5.28125 C 20.328125 -5.1875 21.066406 -5.082031 21.859375 -4.96875 C 24.765625 -4.5625 27.046875 -3.472656 28.703125 -1.703125 C 30.359375 0.0664062 31.1875 2.253906 31.1875 4.859375 C 31.1875 8.023438 29.878906 10.425781 27.265625 12.0625 C 24.660156 13.707031 20.828125 14.53125 15.765625 14.53125 C 11.109375 14.53125 7.519531 13.847656 5 12.484375 C 2.488281 11.128906 1.234375 9.203125 1.234375 6.703125 C 1.234375 4.765625 1.734375 3.300781 2.734375 2.3125 C 3.742188 1.332031 5.015625 0.84375 6.546875 0.84375 C 7.515625 0.84375 8.453125 1.035156 9.359375 1.421875 C 10.273438 1.816406 11.050781 2.382812 11.6875 3.125 C 10.71875 3.3125 9.925781 3.75 9.3125 4.4375 C 8.695312 5.132812 8.390625 5.945312 8.390625 6.875 C 8.390625 8.363281 9.050781 9.507812 10.375 10.3125 C 11.695312 11.113281 13.640625 11.515625 16.203125 11.515625 C 21.796875 11.515625 24.59375 9.742188 24.59375 6.203125 C 24.59375 4.929688 24.171875 3.835938 23.328125 2.921875 C 22.492188 2.015625 21.296875 1.46875 19.734375 1.28125 L 9.953125 -0.0625 C 5.816406 -0.613281 3.75 -2.457031 3.75 -5.59375 C 3.75 -7.113281 4.238281 -8.359375 5.21875 -9.328125 C 6.207031 -10.296875 7.617188 -10.96875 9.453125 -11.34375 L 9.453125 -11.5625 C 8.585938 -11.90625 7.8125 -12.375 7.125 -12.96875 C 6.4375 -13.5625 5.832031 -14.25 5.3125 -15.03125 C 4.789062 -15.8125 4.390625 -16.660156 4.109375 -17.578125 C 3.828125 -18.492188 3.6875 -19.4375 3.6875 -20.40625 C 3.6875 -21.78125 3.972656 -23.070312 4.546875 -24.28125 C 5.128906 -25.488281 5.929688 -26.519531 6.953125 -27.375 C 7.984375 -28.238281 9.195312 -28.921875 10.59375 -29.421875 C 11.988281 -29.929688 13.503906 -30.1875 15.140625 -30.1875 C 16.742188 -30.1875 18.304688 -29.941406 19.828125 -29.453125 C 21.359375 -28.972656 22.664062 -28.300781 23.75 -27.4375 C 24.601562 -27.957031 25.347656 -28.394531 25.984375 -28.75 C 26.617188 -29.101562 27.207031 -29.382812 27.75 -29.59375 C 28.289062 -29.800781 28.785156 -29.953125 29.234375 -30.046875 C 29.679688 -30.140625 30.128906 -30.1875 30.578125 -30.1875 C 31.992188 -30.1875 33.140625 -29.867188 34.015625 -29.234375 C 34.890625 -28.597656 35.328125 -27.757812 35.328125 -26.71875 C 35.328125 -25.9375 35.082031 -25.289062 34.59375 -24.78125 C 34.113281 -24.28125 33.484375 -24.03125 32.703125 -24.03125 C 32.140625 -24.03125 31.691406 -24.148438 31.359375 -24.390625 C 31.023438 -24.640625 30.695312 -24.921875 30.375 -25.234375 C 30.0625 -25.546875 29.734375 -25.820312 29.390625 -26.0625 C 29.054688 -26.3125 28.613281 -26.4375 28.0625 -26.4375 C 27.28125 -26.4375 26.535156 -25.929688 25.828125 -24.921875 C 26.191406 -24.296875 26.445312 -23.617188 26.59375 -22.890625 C 26.75 -22.160156 26.828125 -21.3125 26.828125 -20.34375 C 26.828125 -18.925781 26.601562 -17.617188 26.15625 -16.421875 C 25.707031 -15.234375 25.007812 -14.179688 24.0625 -13.265625 C 23.113281 -12.359375 21.894531 -11.585938 20.40625 -10.953125 C 18.914062 -10.316406 17.109375 -9.890625 14.984375 -9.671875 C 13.191406 -9.484375 11.953125 -9.238281 11.265625 -8.9375 C 10.578125 -8.644531 10.234375 -8.195312 10.234375 -7.59375 C 10.234375 -6.707031 11.070312 -6.1875 12.75 -6.03125 Z M 15.421875 -12.859375 C 16.617188 -12.859375 17.550781 -13.488281 18.21875 -14.75 C 18.882812 -16.019531 19.21875 -17.789062 19.21875 -20.0625 C 19.21875 -22.375 18.882812 -24.15625 18.21875 -25.40625 C 17.550781 -26.65625 16.601562 -27.28125 15.375 -27.28125 C 14.101562 -27.28125 13.09375 -26.644531 12.34375 -25.375 C 11.601562 -24.101562 11.234375 -22.367188 11.234375 -20.171875 C 11.234375 -17.941406 11.613281 -16.164062 12.375 -14.84375 C 13.144531 -13.519531 14.160156 -12.859375 15.421875 -12.859375 Z M 15.421875 -12.859375 "/></g></g></g><g fill="#000000" fill-opacity="1"><g transform="translate(401.776999, 159.253445)"><g><path d="M 14.359375 -9.171875 C 14.359375 -7.679688 14.414062 -6.488281 14.53125 -5.59375 C 14.644531 -4.695312 14.867188 -4.003906 15.203125 -3.515625 C 15.535156 -3.035156 16.019531 -2.710938 16.65625 -2.546875 C 17.289062 -2.378906 18.144531 -2.273438 19.21875 -2.234375 L 19.21875 0 L 1.625 0 L 1.625 -2.234375 C 2.664062 -2.273438 3.507812 -2.394531 4.15625 -2.59375 C 4.8125 -2.800781 5.316406 -3.132812 5.671875 -3.59375 C 6.023438 -4.0625 6.265625 -4.710938 6.390625 -5.546875 C 6.523438 -6.390625 6.59375 -7.46875 6.59375 -8.78125 L 6.59375 -15.65625 C 6.59375 -17.8125 6.554688 -19.585938 6.484375 -20.984375 C 6.410156 -22.378906 6.316406 -23.335938 6.203125 -23.859375 C 6.015625 -24.796875 5.59375 -25.410156 4.9375 -25.703125 C 4.289062 -26.003906 3.109375 -26.15625 1.390625 -26.15625 L 1.390625 -28.0625 L 14.359375 -30.1875 Z M 6.140625 -42.03125 C 6.140625 -43.257812 6.554688 -44.289062 7.390625 -45.125 C 8.234375 -45.96875 9.253906 -46.390625 10.453125 -46.390625 C 11.679688 -46.390625 12.710938 -45.96875 13.546875 -45.125 C 14.390625 -44.289062 14.8125 -43.257812 14.8125 -42.03125 C 14.8125 -40.832031 14.390625 -39.8125 13.546875 -38.96875 C 12.710938 -38.132812 11.679688 -37.71875 10.453125 -37.71875 C 9.253906 -37.71875 8.234375 -38.132812 7.390625 -38.96875 C 6.554688 -39.8125 6.140625 -40.832031 6.140625 -42.03125 Z M 6.140625 -42.03125 "/></g></g></g><g fill="#000000" fill-opacity="1"><g transform="translate(421.952611, 159.253445)"><g><path d="M 14.359375 -9.109375 C 14.359375 -7.578125 14.40625 -6.375 14.5 -5.5 C 14.59375 -4.625 14.796875 -3.953125 15.109375 -3.484375 C 15.429688 -3.023438 15.914062 -2.71875 16.5625 -2.5625 C 17.21875 -2.414062 18.101562 -2.304688 19.21875 -2.234375 L 19.21875 0 L 1.625 0 L 1.625 -2.234375 C 2.695312 -2.304688 3.5625 -2.414062 4.21875 -2.5625 C 4.875 -2.71875 5.378906 -3.019531 5.734375 -3.46875 C 6.085938 -3.914062 6.316406 -4.546875 6.421875 -5.359375 C 6.535156 -6.179688 6.59375 -7.300781 6.59375 -8.71875 L 6.59375 -15.703125 C 6.59375 -17.898438 6.554688 -19.675781 6.484375 -21.03125 C 6.410156 -22.394531 6.316406 -23.320312 6.203125 -23.8125 C 6.085938 -24.289062 5.9375 -24.6875 5.75 -25 C 5.570312 -25.320312 5.296875 -25.566406 4.921875 -25.734375 C 4.546875 -25.898438 4.078125 -26.007812 3.515625 -26.0625 C 2.960938 -26.125 2.253906 -26.15625 1.390625 -26.15625 L 1.390625 -28.0625 L 12.1875 -30.1875 L 12.90625 -25.265625 L 13.140625 -25.265625 C 14.367188 -26.828125 15.820312 -28.035156 17.5 -28.890625 C 19.175781 -29.753906 21.019531 -30.1875 23.03125 -30.1875 C 25.414062 -30.1875 27.34375 -29.859375 28.8125 -29.203125 C 30.28125 -28.546875 31.59375 -27.457031 32.75 -25.9375 C 33.382812 -25.070312 33.941406 -23.957031 34.421875 -22.59375 C 34.910156 -21.238281 35.15625 -19.367188 35.15625 -16.984375 L 35.15625 -9.109375 C 35.15625 -7.578125 35.203125 -6.375 35.296875 -5.5 C 35.390625 -4.625 35.59375 -3.953125 35.90625 -3.484375 C 36.226562 -3.023438 36.703125 -2.71875 37.328125 -2.5625 C 37.960938 -2.414062 38.820312 -2.304688 39.90625 -2.234375 L 39.90625 0 L 22.40625 0 L 22.40625 -2.234375 C 23.53125 -2.273438 24.414062 -2.378906 25.0625 -2.546875 C 25.71875 -2.710938 26.210938 -3.019531 26.546875 -3.46875 C 26.878906 -3.914062 27.101562 -4.554688 27.21875 -5.390625 C 27.332031 -6.234375 27.390625 -7.34375 27.390625 -8.71875 L 27.390625 -16.3125 C 27.390625 -18.21875 27.273438 -19.820312 27.046875 -21.125 C 26.828125 -22.425781 26.460938 -23.476562 25.953125 -24.28125 C 25.453125 -25.082031 24.789062 -25.660156 23.96875 -26.015625 C 23.15625 -26.367188 22.132812 -26.546875 20.90625 -26.546875 C 19.707031 -26.546875 18.679688 -26.207031 17.828125 -25.53125 C 16.972656 -24.863281 16.226562 -23.9375 15.59375 -22.75 C 15.257812 -22.070312 14.96875 -21.203125 14.71875 -20.140625 C 14.476562 -19.085938 14.359375 -17.984375 14.359375 -16.828125 Z M 14.359375 -9.109375 "/></g></g></g><g fill="#000000" fill-opacity="1"><g transform="translate(462.583261, 159.253445)"><g><path d="M 12.75 -6.03125 C 13.75 -5.957031 14.628906 -5.882812 15.390625 -5.8125 C 16.160156 -5.738281 16.890625 -5.65625 17.578125 -5.5625 C 18.265625 -5.46875 18.953125 -5.375 19.640625 -5.28125 C 20.328125 -5.1875 21.066406 -5.082031 21.859375 -4.96875 C 24.765625 -4.5625 27.046875 -3.472656 28.703125 -1.703125 C 30.359375 0.0664062 31.1875 2.253906 31.1875 4.859375 C 31.1875 8.023438 29.878906 10.425781 27.265625 12.0625 C 24.660156 13.707031 20.828125 14.53125 15.765625 14.53125 C 11.109375 14.53125 7.519531 13.847656 5 12.484375 C 2.488281 11.128906 1.234375 9.203125 1.234375 6.703125 C 1.234375 4.765625 1.734375 3.300781 2.734375 2.3125 C 3.742188 1.332031 5.015625 0.84375 6.546875 0.84375 C 7.515625 0.84375 8.453125 1.035156 9.359375 1.421875 C 10.273438 1.816406 11.050781 2.382812 11.6875 3.125 C 10.71875 3.3125 9.925781 3.75 9.3125 4.4375 C 8.695312 5.132812 8.390625 5.945312 8.390625 6.875 C 8.390625 8.363281 9.050781 9.507812 10.375 10.3125 C 11.695312 11.113281 13.640625 11.515625 16.203125 11.515625 C 21.796875 11.515625 24.59375 9.742188 24.59375 6.203125 C 24.59375 4.929688 24.171875 3.835938 23.328125 2.921875 C 22.492188 2.015625 21.296875 1.46875 19.734375 1.28125 L 9.953125 -0.0625 C 5.816406 -0.613281 3.75 -2.457031 3.75 -5.59375 C 3.75 -7.113281 4.238281 -8.359375 5.21875 -9.328125 C 6.207031 -10.296875 7.617188 -10.96875 9.453125 -11.34375 L 9.453125 -11.5625 C 8.585938 -11.90625 7.8125 -12.375 7.125 -12.96875 C 6.4375 -13.5625 5.832031 -14.25 5.3125 -15.03125 C 4.789062 -15.8125 4.390625 -16.660156 4.109375 -17.578125 C 3.828125 -18.492188 3.6875 -19.4375 3.6875 -20.40625 C 3.6875 -21.78125 3.972656 -23.070312 4.546875 -24.28125 C 5.128906 -25.488281 5.929688 -26.519531 6.953125 -27.375 C 7.984375 -28.238281 9.195312 -28.921875 10.59375 -29.421875 C 11.988281 -29.929688 13.503906 -30.1875 15.140625 -30.1875 C 16.742188 -30.1875 18.304688 -29.941406 19.828125 -29.453125 C 21.359375 -28.972656 22.664062 -28.300781 23.75 -27.4375 C 24.601562 -27.957031 25.347656 -28.394531 25.984375 -28.75 C 26.617188 -29.101562 27.207031 -29.382812 27.75 -29.59375 C 28.289062 -29.800781 28.785156 -29.953125 29.234375 -30.046875 C 29.679688 -30.140625 30.128906 -30.1875 30.578125 -30.1875 C 31.992188 -30.1875 33.140625 -29.867188 34.015625 -29.234375 C 34.890625 -28.597656 35.328125 -27.757812 35.328125 -26.71875 C 35.328125 -25.9375 35.082031 -25.289062 34.59375 -24.78125 C 34.113281 -24.28125 33.484375 -24.03125 32.703125 -24.03125 C 32.140625 -24.03125 31.691406 -24.148438 31.359375 -24.390625 C 31.023438 -24.640625 30.695312 -24.921875 30.375 -25.234375 C 30.0625 -25.546875 29.734375 -25.820312 29.390625 -26.0625 C 29.054688 -26.3125 28.613281 -26.4375 28.0625 -26.4375 C 27.28125 -26.4375 26.535156 -25.929688 25.828125 -24.921875 C 26.191406 -24.296875 26.445312 -23.617188 26.59375 -22.890625 C 26.75 -22.160156 26.828125 -21.3125 26.828125 -20.34375 C 26.828125 -18.925781 26.601562 -17.617188 26.15625 -16.421875 C 25.707031 -15.234375 25.007812 -14.179688 24.0625 -13.265625 C 23.113281 -12.359375 21.894531 -11.585938 20.40625 -10.953125 C 18.914062 -10.316406 17.109375 -9.890625 14.984375 -9.671875 C 13.191406 -9.484375 11.953125 -9.238281 11.265625 -8.9375 C 10.578125 -8.644531 10.234375 -8.195312 10.234375 -7.59375 C 10.234375 -6.707031 11.070312 -6.1875 12.75 -6.03125 Z M 15.421875 -12.859375 C 16.617188 -12.859375 17.550781 -13.488281 18.21875 -14.75 C 18.882812 -16.019531 19.21875 -17.789062 19.21875 -20.0625 C 19.21875 -22.375 18.882812 -24.15625 18.21875 -25.40625 C 17.550781 -26.65625 16.601562 -27.28125 15.375 -27.28125 C 14.101562 -27.28125 13.09375 -26.644531 12.34375 -25.375 C 11.601562 -24.101562 11.234375 -22.367188 11.234375 -20.171875 C 11.234375 -17.941406 11.613281 -16.164062 12.375 -14.84375 C 13.144531 -13.519531 14.160156 -12.859375 15.421875 -12.859375 Z M 15.421875 -12.859375 "/></g></g></g></svg>