<svg xmlns="http://www.w3.org/2000/svg" xmlns:xlink="http://www.w3.org/1999/xlink" width="972" zoomAndPan="magnify" viewBox="0 0 729 537.000006" height="716" preserveAspectRatio="xMidYMid meet" version="1.0"><defs><g/><clipPath id="7857c91af3"><path d="M 0.675781 0 L 728.320312 0 L 728.320312 536 L 0.675781 536 Z M 0.675781 0 " clip-rule="nonzero"/></clipPath><clipPath id="afb8dfd396"><path d="M 247.179688 214.402344 L 481.496094 214.402344 L 481.496094 428.503906 L 247.179688 428.503906 Z M 247.179688 214.402344 " clip-rule="nonzero"/></clipPath></defs><g clip-path="url(#7857c91af3)"><path fill="#ffffff" d="M 0.675781 0 L 728.324219 0 L 728.324219 536 L 0.675781 536 Z M 0.675781 0 " fill-opacity="1" fill-rule="nonzero"/><path fill="#ffffff" d="M 0.675781 0 L 728.324219 0 L 728.324219 536 L 0.675781 536 Z M 0.675781 0 " fill-opacity="1" fill-rule="nonzero"/></g><g clip-path="url(#afb8dfd396)"><path fill="#000000" d="M 460.285156 214.554688 L 268.390625 214.554688 C 256.695312 214.554688 247.179688 224.070312 247.179688 235.765625 L 247.179688 355.6875 C 247.179688 367.382812 256.695312 376.898438 268.390625 376.898438 L 324.925781 376.898438 L 324.925781 397.035156 L 302.171875 397.035156 C 291.890625 397.035156 283.527344 404.058594 283.527344 412.691406 L 283.527344 424.570312 C 283.527344 426.65625 285.21875 428.347656 287.304688 428.347656 L 441.371094 428.347656 C 443.457031 428.347656 445.148438 426.65625 445.148438 424.570312 L 445.148438 412.691406 C 445.148438 404.058594 436.785156 397.035156 426.503906 397.035156 L 403.75 397.035156 L 403.75 376.898438 L 460.285156 376.898438 C 471.980469 376.898438 481.496094 367.382812 481.496094 355.6875 L 481.496094 235.765625 C 481.496094 224.070312 471.980469 214.554688 460.285156 214.554688 Z M 437.589844 412.691406 L 437.589844 420.789062 L 291.085938 420.789062 L 291.085938 412.691406 C 291.085938 408.300781 296.160156 404.59375 302.171875 404.59375 L 426.503906 404.59375 C 432.515625 404.59375 437.589844 408.300781 437.589844 412.691406 Z M 396.191406 397.035156 L 332.484375 397.035156 L 332.484375 376.898438 L 396.191406 376.898438 Z M 473.9375 355.6875 C 473.9375 363.214844 467.8125 369.339844 460.285156 369.339844 L 268.390625 369.339844 C 260.863281 369.339844 254.738281 363.214844 254.738281 355.6875 L 254.738281 235.765625 C 254.738281 228.238281 260.863281 222.113281 268.390625 222.113281 L 460.285156 222.113281 C 467.8125 222.113281 473.9375 228.238281 473.9375 235.765625 Z M 460.71875 229.132812 L 267.953125 229.132812 C 264.539062 229.132812 261.757812 231.910156 261.757812 235.328125 L 261.757812 343.753906 C 261.757812 345.84375 263.449219 347.535156 265.539062 347.535156 L 463.136719 347.535156 C 465.226562 347.535156 466.917969 345.84375 466.917969 343.753906 L 466.917969 235.328125 C 466.917969 231.910156 464.136719 229.132812 460.71875 229.132812 Z M 459.359375 339.976562 L 269.316406 339.976562 L 269.316406 236.691406 L 459.359375 236.691406 Z M 281.375 311.433594 L 288.410156 311.433594 C 288.761719 325.933594 300.65625 337.625 315.242188 337.625 C 329.824219 337.625 341.71875 325.933594 342.070312 311.433594 L 349.105469 311.433594 C 350.175781 311.433594 351.199219 310.980469 351.914062 310.179688 C 352.632812 309.382812 352.976562 308.320312 352.863281 307.253906 C 351.3125 292.761719 341.761719 280.953125 328.867188 276 C 333.375 272.144531 336.242188 266.421875 336.242188 260.039062 C 336.242188 248.460938 326.820312 239.042969 315.242188 239.042969 C 303.660156 239.042969 294.242188 248.460938 294.242188 260.039062 C 294.242188 266.421875 297.105469 272.144531 301.617188 276 C 288.71875 280.953125 279.171875 292.761719 277.621094 307.253906 C 277.507812 308.320312 277.851562 309.382812 278.566406 310.179688 C 279.28125 310.980469 280.304688 311.433594 281.375 311.433594 Z M 315.242188 330.066406 C 304.605469 330.066406 295.953125 321.414062 295.953125 310.777344 C 295.953125 300.144531 304.605469 291.492188 315.242188 291.492188 C 325.875 291.492188 334.527344 300.144531 334.527344 310.777344 C 334.527344 321.414062 325.875 330.066406 315.242188 330.066406 Z M 301.800781 260.042969 C 301.800781 252.628906 307.828125 246.601562 315.242188 246.601562 C 322.652344 246.601562 328.683594 252.628906 328.683594 260.042969 C 328.683594 267.453125 322.652344 273.480469 315.242188 273.480469 C 307.828125 273.480469 301.800781 267.453125 301.800781 260.042969 Z M 315.242188 281.042969 C 329.316406 281.042969 341.273438 290.601562 344.601562 303.875 L 341.183594 303.875 C 338.128906 292.410156 327.65625 283.933594 315.242188 283.933594 C 302.824219 283.933594 292.351562 292.410156 289.296875 303.875 L 285.878906 303.875 C 289.207031 290.601562 301.164062 281.042969 315.242188 281.042969 Z M 311.746094 296.945312 C 310.097656 295.996094 308.128906 295.996094 306.484375 296.945312 C 304.835938 297.898438 303.851562 299.601562 303.851562 301.503906 L 303.851562 320.054688 C 303.851562 321.957031 304.835938 323.660156 306.484375 324.609375 C 307.308594 325.085938 308.210938 325.324219 309.113281 325.324219 C 310.019531 325.324219 310.921875 325.085938 311.746094 324.609375 L 327.8125 315.335938 C 329.457031 314.386719 330.441406 312.679688 330.441406 310.777344 C 330.441406 308.878906 329.457031 307.175781 327.8125 306.222656 Z M 311.410156 316.078125 L 311.410156 305.480469 L 320.585938 310.777344 Z M 371.503906 290.738281 C 371.625 288.65625 373.410156 287.0625 375.5 287.1875 C 382.761719 287.617188 388.710938 288.515625 394.789062 290.097656 C 396.808594 290.621094 398.019531 292.6875 397.496094 294.707031 C 397.050781 296.40625 395.519531 297.535156 393.839844 297.535156 C 393.523438 297.535156 393.203125 297.496094 392.886719 297.410156 C 387.304688 295.957031 381.804688 295.132812 375.054688 294.734375 C 372.96875 294.613281 371.378906 292.824219 371.503906 290.738281 Z M 397.488281 306.722656 C 397.039062 308.414062 395.511719 309.535156 393.839844 309.535156 C 393.519531 309.535156 393.191406 309.492188 392.867188 309.40625 C 387.492188 307.980469 381.828125 307.117188 375.039062 306.691406 C 372.957031 306.558594 371.375 304.765625 371.503906 302.683594 C 371.632812 300.601562 373.433594 299.019531 375.511719 299.148438 C 382.808594 299.605469 388.941406 300.542969 394.808594 302.101562 C 396.824219 302.636719 398.027344 304.707031 397.488281 306.722656 Z M 397.507812 270.609375 C 397.085938 272.335938 395.542969 273.492188 393.839844 273.492188 C 393.542969 273.492188 393.242188 273.457031 392.941406 273.382812 C 386.832031 271.890625 381.65625 271.148438 375.085938 270.816406 C 373 270.710938 371.394531 268.9375 371.5 266.851562 C 371.605469 264.765625 373.382812 263.160156 375.464844 263.265625 C 382.546875 263.625 388.128906 264.425781 394.734375 266.039062 C 396.761719 266.535156 398.003906 268.582031 397.507812 270.609375 Z M 371.503906 278.792969 C 371.617188 276.710938 373.410156 275.109375 375.484375 275.230469 C 382.671875 275.625 388.4375 276.476562 394.765625 278.078125 C 396.789062 278.589844 398.011719 280.644531 397.5 282.667969 C 397.066406 284.378906 395.527344 285.519531 393.839844 285.519531 C 393.535156 285.519531 393.222656 285.484375 392.910156 285.40625 C 387.078125 283.929688 381.742188 283.144531 375.066406 282.777344 C 372.984375 282.660156 371.386719 280.878906 371.503906 278.792969 Z M 363.640625 316.457031 C 381.628906 316.457031 395.066406 318.949219 403.582031 323.863281 C 404.164062 324.203125 404.816406 324.371094 405.46875 324.371094 C 406.121094 324.371094 406.773438 324.203125 407.359375 323.863281 C 415.871094 318.949219 429.3125 316.457031 447.296875 316.457031 C 449.386719 316.457031 451.078125 314.765625 451.078125 312.675781 L 451.078125 256.074219 C 451.078125 253.988281 449.386719 252.296875 447.296875 252.296875 C 427.261719 252.296875 420.828125 254.039062 408.007812 257.511719 C 407.191406 257.734375 406.347656 257.960938 405.46875 258.199219 C 404.59375 257.960938 403.746094 257.734375 402.929688 257.511719 C 390.113281 254.039062 383.679688 252.296875 363.640625 252.296875 C 361.554688 252.296875 359.863281 253.988281 359.863281 256.074219 L 359.863281 312.675781 C 359.863281 314.765625 361.554688 316.457031 363.640625 316.457031 Z M 409.25 265.007812 C 409.496094 264.9375 409.742188 264.871094 409.984375 264.808594 C 421.667969 261.640625 427.4375 260.078125 443.519531 259.878906 L 443.519531 308.933594 C 429.207031 309.207031 417.902344 311.0625 409.25 314.570312 Z M 367.421875 259.875 C 383.5 260.078125 389.273438 261.640625 400.953125 264.804688 C 401.199219 264.871094 401.441406 264.9375 401.691406 265.007812 L 401.691406 314.570312 C 393.039062 311.0625 381.730469 309.207031 367.421875 308.933594 Z M 439.4375 302.683594 C 439.566406 304.765625 437.984375 306.558594 435.902344 306.691406 C 429.113281 307.117188 423.445312 307.980469 418.074219 309.40625 C 417.75 309.492188 417.421875 309.535156 417.101562 309.535156 C 415.429688 309.535156 413.898438 308.417969 413.449219 306.722656 C 412.914062 304.707031 414.117188 302.636719 416.132812 302.101562 C 422 300.542969 428.128906 299.605469 435.429688 299.148438 C 437.507812 299.019531 439.304688 300.601562 439.4375 302.683594 Z M 439.4375 290.738281 C 439.5625 292.824219 437.972656 294.609375 435.886719 294.734375 C 429.136719 295.132812 423.636719 295.960938 418.054688 297.410156 C 417.734375 297.496094 417.414062 297.535156 417.101562 297.535156 C 415.421875 297.535156 413.886719 296.40625 413.445312 294.707031 C 412.921875 292.6875 414.132812 290.621094 416.152344 290.097656 C 422.230469 288.515625 428.179688 287.617188 435.441406 287.191406 C 437.53125 287.0625 439.3125 288.65625 439.4375 290.738281 Z M 413.433594 270.609375 C 412.9375 268.582031 414.179688 266.535156 416.207031 266.039062 C 422.8125 264.425781 428.394531 263.625 435.472656 263.265625 C 437.550781 263.164062 439.335938 264.765625 439.4375 266.851562 C 439.542969 268.933594 437.941406 270.710938 435.855469 270.816406 C 429.28125 271.148438 424.109375 271.890625 418 273.382812 C 417.699219 273.457031 417.398438 273.492188 417.101562 273.492188 C 415.398438 273.492188 413.851562 272.335938 413.433594 270.609375 Z M 439.4375 278.792969 C 439.554688 280.878906 437.957031 282.660156 435.871094 282.777344 C 429.195312 283.144531 423.859375 283.929688 418.03125 285.40625 C 417.71875 285.484375 417.40625 285.523438 417.101562 285.523438 C 415.410156 285.523438 413.871094 284.382812 413.4375 282.667969 C 412.925781 280.644531 414.152344 278.589844 416.175781 278.078125 C 422.503906 276.476562 428.269531 275.625 435.457031 275.230469 C 437.546875 275.109375 439.324219 276.710938 439.4375 278.792969 Z M 439.4375 278.792969 " fill-opacity="1" fill-rule="nonzero"/></g><g fill="#000000" fill-opacity="1"><g transform="translate(246.933765, 159.253445)"><g><path d="M 39.515625 -43.03125 L 42.25 -43.03125 L 41.140625 -28.890625 L 38.90625 -28.890625 C 38.113281 -32.316406 36.59375 -35.019531 34.34375 -37 C 32.09375 -38.976562 29.363281 -39.96875 26.15625 -39.96875 C 23.957031 -39.96875 22 -39.523438 20.28125 -38.640625 C 18.570312 -37.765625 17.128906 -36.515625 15.953125 -34.890625 C 14.785156 -33.273438 13.894531 -31.300781 13.28125 -28.96875 C 12.664062 -26.644531 12.359375 -24.03125 12.359375 -21.125 C 12.359375 -15.351562 13.539062 -10.910156 15.90625 -7.796875 C 18.269531 -4.679688 21.757812 -3.125 26.375 -3.125 C 30.101562 -3.125 33.1875 -4.128906 35.625 -6.140625 C 38.070312 -8.160156 39.816406 -11.160156 40.859375 -15.140625 L 43.3125 -15.140625 L 43.3125 0 L 40.6875 0 L 39.90625 -4.421875 C 35.8125 -1.097656 30.835938 0.5625 24.984375 0.5625 C 21.585938 0.5625 18.507812 0.0625 15.75 -0.9375 C 13 -1.945312 10.65625 -3.375 8.71875 -5.21875 C 6.78125 -7.070312 5.28125 -9.316406 4.21875 -11.953125 C 3.15625 -14.597656 2.625 -17.546875 2.625 -20.796875 C 2.625 -24.179688 3.179688 -27.269531 4.296875 -30.0625 C 5.421875 -32.863281 7 -35.269531 9.03125 -37.28125 C 11.0625 -39.289062 13.484375 -40.84375 16.296875 -41.9375 C 19.109375 -43.039062 22.226562 -43.59375 25.65625 -43.59375 C 27.925781 -43.59375 30.046875 -43.273438 32.015625 -42.640625 C 33.992188 -42.003906 36.140625 -40.984375 38.453125 -39.578125 Z M 39.515625 -43.03125 "/></g></g></g><g fill="#000000" fill-opacity="1"><g transform="translate(292.92968, 159.253445)"><g><path d="M 18.328125 -30.1875 C 20.566406 -30.1875 22.679688 -29.800781 24.671875 -29.03125 C 26.671875 -28.269531 28.421875 -27.21875 29.921875 -25.875 C 31.429688 -24.53125 32.625 -22.9375 33.5 -21.09375 C 34.375 -19.25 34.8125 -17.226562 34.8125 -15.03125 C 34.8125 -12.757812 34.375 -10.671875 33.5 -8.765625 C 32.625 -6.867188 31.429688 -5.226562 29.921875 -3.84375 C 28.421875 -2.46875 26.671875 -1.390625 24.671875 -0.609375 C 22.679688 0.171875 20.566406 0.5625 18.328125 0.5625 C 16.128906 0.5625 14.039062 0.179688 12.0625 -0.578125 C 10.09375 -1.347656 8.363281 -2.421875 6.875 -3.796875 C 5.382812 -5.179688 4.207031 -6.832031 3.34375 -8.75 C 2.488281 -10.664062 2.0625 -12.757812 2.0625 -15.03125 C 2.0625 -17.226562 2.488281 -19.257812 3.34375 -21.125 C 4.207031 -22.988281 5.382812 -24.585938 6.875 -25.921875 C 8.363281 -27.265625 10.09375 -28.3125 12.0625 -29.0625 C 14.039062 -29.8125 16.128906 -30.1875 18.328125 -30.1875 Z M 18.328125 -26.9375 C 17.210938 -26.9375 16.1875 -26.644531 15.25 -26.0625 C 14.320312 -25.488281 13.53125 -24.679688 12.875 -23.640625 C 12.226562 -22.597656 11.726562 -21.335938 11.375 -19.859375 C 11.019531 -18.390625 10.84375 -16.765625 10.84375 -14.984375 C 10.84375 -13.117188 11.019531 -11.441406 11.375 -9.953125 C 11.726562 -8.460938 12.226562 -7.191406 12.875 -6.140625 C 13.53125 -5.097656 14.3125 -4.285156 15.21875 -3.703125 C 16.132812 -3.128906 17.171875 -2.84375 18.328125 -2.84375 C 19.484375 -2.84375 20.535156 -3.128906 21.484375 -3.703125 C 22.441406 -4.285156 23.253906 -5.109375 23.921875 -6.171875 C 24.585938 -7.234375 25.109375 -8.507812 25.484375 -10 C 25.859375 -11.488281 26.046875 -13.148438 26.046875 -14.984375 C 26.046875 -16.765625 25.859375 -18.378906 25.484375 -19.828125 C 25.109375 -21.285156 24.585938 -22.546875 23.921875 -23.609375 C 23.253906 -24.671875 22.441406 -25.488281 21.484375 -26.0625 C 20.535156 -26.644531 19.484375 -26.9375 18.328125 -26.9375 Z M 18.328125 -26.9375 "/></g></g></g><g fill="#000000" fill-opacity="1"><g transform="translate(329.815827, 159.253445)"><g><path d="M 25.984375 -20.453125 C 25.984375 -21.941406 25.945312 -23.125 25.875 -24 C 25.800781 -24.875 25.597656 -25.546875 25.265625 -26.015625 C 24.929688 -26.484375 24.4375 -26.800781 23.78125 -26.96875 C 23.125 -27.132812 22.238281 -27.273438 21.125 -27.390625 L 21.125 -29.625 L 33.765625 -29.625 L 33.765625 -12.6875 C 33.765625 -10.414062 33.789062 -8.632812 33.84375 -7.34375 C 33.894531 -6.0625 34 -5.101562 34.15625 -4.46875 C 34.257812 -3.988281 34.382812 -3.609375 34.53125 -3.328125 C 34.6875 -3.046875 34.929688 -2.820312 35.265625 -2.65625 C 35.597656 -2.488281 36.050781 -2.375 36.625 -2.3125 C 37.207031 -2.257812 37.96875 -2.234375 38.90625 -2.234375 L 38.90625 -0.0625 L 27.78125 0.609375 L 27.15625 -4.359375 L 26.9375 -4.359375 C 25.96875 -2.796875 24.609375 -1.582031 22.859375 -0.71875 C 21.109375 0.132812 19.148438 0.5625 16.984375 0.5625 C 13.003906 0.5625 9.96875 -0.851562 7.875 -3.6875 C 6.28125 -5.851562 5.484375 -8.925781 5.484375 -12.90625 L 5.484375 -20.453125 C 5.484375 -21.984375 5.441406 -23.1875 5.359375 -24.0625 C 5.285156 -24.9375 5.085938 -25.597656 4.765625 -26.046875 C 4.453125 -26.492188 3.976562 -26.800781 3.34375 -26.96875 C 2.71875 -27.132812 1.847656 -27.273438 0.734375 -27.390625 L 0.734375 -29.625 L 13.25 -29.625 L 13.25 -13.8125 C 13.25 -10.039062 13.710938 -7.304688 14.640625 -5.609375 C 15.578125 -3.921875 17.066406 -3.078125 19.109375 -3.078125 C 21.304688 -3.078125 23.003906 -4.082031 24.203125 -6.09375 C 25.390625 -8.03125 25.984375 -10.878906 25.984375 -14.640625 Z M 25.984375 -20.453125 "/></g></g></g><g fill="#000000" fill-opacity="1"><g transform="translate(369.440492, 159.253445)"><g><path d="M 14.421875 -8.65625 C 14.421875 -7.207031 14.484375 -6.0625 14.609375 -5.21875 C 14.742188 -4.382812 15.015625 -3.742188 15.421875 -3.296875 C 15.835938 -2.847656 16.4375 -2.554688 17.21875 -2.421875 C 18 -2.296875 19.039062 -2.234375 20.34375 -2.234375 L 20.34375 0 L 1.671875 0 L 1.671875 -2.234375 C 2.796875 -2.304688 3.691406 -2.414062 4.359375 -2.5625 C 5.023438 -2.71875 5.523438 -3.019531 5.859375 -3.46875 C 6.203125 -3.914062 6.421875 -4.554688 6.515625 -5.390625 C 6.609375 -6.234375 6.65625 -7.363281 6.65625 -8.78125 L 6.65625 -15.59375 C 6.65625 -17.90625 6.597656 -19.75 6.484375 -21.125 C 6.367188 -22.5 6.125 -23.5625 5.75 -24.3125 C 5.382812 -25.0625 4.851562 -25.554688 4.15625 -25.796875 C 3.46875 -26.035156 2.566406 -26.15625 1.453125 -26.15625 L 1.453125 -28.109375 L 12.625 -30.1875 L 13.53125 -23.75 L 13.75 -23.75 C 14.757812 -25.726562 16.082031 -27.296875 17.71875 -28.453125 C 19.351562 -29.609375 21.085938 -30.1875 22.921875 -30.1875 C 24.328125 -30.1875 25.476562 -29.832031 26.375 -29.125 C 27.269531 -28.414062 27.71875 -27.519531 27.71875 -26.4375 C 27.71875 -25.238281 27.375 -24.226562 26.6875 -23.40625 C 26 -22.59375 25.054688 -22.1875 23.859375 -22.1875 C 23.304688 -22.1875 22.804688 -22.296875 22.359375 -22.515625 C 21.910156 -22.742188 21.507812 -23 21.15625 -23.28125 C 20.800781 -23.5625 20.445312 -23.820312 20.09375 -24.0625 C 19.738281 -24.300781 19.375 -24.421875 19 -24.421875 C 18.289062 -24.421875 17.617188 -23.953125 16.984375 -23.015625 C 16.359375 -22.085938 15.835938 -20.84375 15.421875 -19.28125 C 15.128906 -18.164062 14.890625 -16.90625 14.703125 -15.5 C 14.515625 -14.101562 14.421875 -12.71875 14.421875 -11.34375 Z M 14.421875 -8.65625 "/></g></g></g><g fill="#000000" fill-opacity="1"><g transform="translate(397.272776, 159.253445)"><g><path d="M 4.75 0 L 3.015625 0 L 3.015625 -10.171875 L 5.359375 -10.171875 C 5.992188 -7.484375 6.90625 -5.523438 8.09375 -4.296875 C 9.289062 -3.066406 10.84375 -2.453125 12.75 -2.453125 C 14.125 -2.453125 15.191406 -2.738281 15.953125 -3.3125 C 16.722656 -3.894531 17.109375 -4.691406 17.109375 -5.703125 C 17.109375 -6.742188 16.640625 -7.757812 15.703125 -8.75 C 14.773438 -9.738281 13.265625 -10.789062 11.171875 -11.90625 C 8.347656 -13.4375 6.316406 -14.953125 5.078125 -16.453125 C 3.847656 -17.960938 3.234375 -19.671875 3.234375 -21.578125 C 3.234375 -22.804688 3.46875 -23.953125 3.9375 -25.015625 C 4.40625 -26.078125 5.039062 -27 5.84375 -27.78125 C 6.644531 -28.5625 7.601562 -29.164062 8.71875 -29.59375 C 9.832031 -30.019531 11.046875 -30.234375 12.359375 -30.234375 C 13.503906 -30.234375 14.644531 -30.066406 15.78125 -29.734375 C 16.925781 -29.398438 17.925781 -28.9375 18.78125 -28.34375 L 19.78125 -29.671875 L 21.234375 -29.671875 L 21.234375 -21.234375 L 19.0625 -21.234375 C 18.195312 -23.359375 17.304688 -24.882812 16.390625 -25.8125 C 15.484375 -26.75 14.378906 -27.21875 13.078125 -27.21875 C 12.035156 -27.21875 11.207031 -26.9375 10.59375 -26.375 C 9.976562 -25.820312 9.671875 -25.078125 9.671875 -24.140625 C 9.671875 -23.097656 10.125 -22.109375 11.03125 -21.171875 C 11.945312 -20.242188 13.46875 -19.222656 15.59375 -18.109375 C 17.082031 -17.285156 18.367188 -16.484375 19.453125 -15.703125 C 20.535156 -14.921875 21.410156 -14.128906 22.078125 -13.328125 C 22.742188 -12.523438 23.234375 -11.6875 23.546875 -10.8125 C 23.867188 -9.9375 24.03125 -9 24.03125 -8 C 24.03125 -6.6875 23.785156 -5.507812 23.296875 -4.46875 C 22.816406 -3.425781 22.128906 -2.53125 21.234375 -1.78125 C 20.335938 -1.039062 19.265625 -0.460938 18.015625 -0.046875 C 16.773438 0.359375 15.390625 0.5625 13.859375 0.5625 C 12.253906 0.5625 10.765625 0.347656 9.390625 -0.078125 C 8.015625 -0.515625 6.878906 -1.140625 5.984375 -1.953125 Z M 4.75 0 "/></g></g></g><g fill="#000000" fill-opacity="1"><g transform="translate(423.316634, 159.253445)"><g><path d="M 30.1875 -5.203125 C 26.789062 -1.359375 22.5625 0.5625 17.5 0.5625 C 15.1875 0.5625 13.085938 0.195312 11.203125 -0.53125 C 9.328125 -1.257812 7.71875 -2.285156 6.375 -3.609375 C 5.03125 -4.929688 3.984375 -6.503906 3.234375 -8.328125 C 2.492188 -10.148438 2.125 -12.179688 2.125 -14.421875 C 2.125 -16.734375 2.515625 -18.847656 3.296875 -20.765625 C 4.078125 -22.679688 5.1875 -24.335938 6.625 -25.734375 C 8.0625 -27.128906 9.753906 -28.21875 11.703125 -29 C 13.660156 -29.789062 15.816406 -30.1875 18.171875 -30.1875 C 22.117188 -30.1875 25.191406 -29.125 27.390625 -27 C 29.585938 -24.875 30.6875 -21.890625 30.6875 -18.046875 C 30.6875 -17.453125 30.59375 -17.085938 30.40625 -16.953125 C 30.21875 -16.828125 29.695312 -16.765625 28.84375 -16.765625 L 10.84375 -16.765625 C 10.695312 -16.429688 10.625 -15.816406 10.625 -14.921875 C 10.625 -11.273438 11.414062 -8.390625 13 -6.265625 C 14.582031 -4.140625 16.734375 -3.078125 19.453125 -3.078125 C 21.015625 -3.078125 22.566406 -3.429688 24.109375 -4.140625 C 25.660156 -4.847656 27.160156 -5.851562 28.609375 -7.15625 Z M 19.34375 -19.890625 C 20.832031 -19.890625 21.789062 -19.972656 22.21875 -20.140625 C 22.644531 -20.316406 22.859375 -20.71875 22.859375 -21.34375 C 22.859375 -22.988281 22.390625 -24.332031 21.453125 -25.375 C 20.523438 -26.414062 19.351562 -26.9375 17.9375 -26.9375 C 16.332031 -26.9375 14.90625 -26.273438 13.65625 -24.953125 C 12.414062 -23.628906 11.609375 -21.941406 11.234375 -19.890625 Z M 19.34375 -19.890625 "/></g></g></g><g fill="#000000" fill-opacity="1"><g transform="translate(456.011166, 159.253445)"><g><path d="M 4.75 0 L 3.015625 0 L 3.015625 -10.171875 L 5.359375 -10.171875 C 5.992188 -7.484375 6.90625 -5.523438 8.09375 -4.296875 C 9.289062 -3.066406 10.84375 -2.453125 12.75 -2.453125 C 14.125 -2.453125 15.191406 -2.738281 15.953125 -3.3125 C 16.722656 -3.894531 17.109375 -4.691406 17.109375 -5.703125 C 17.109375 -6.742188 16.640625 -7.757812 15.703125 -8.75 C 14.773438 -9.738281 13.265625 -10.789062 11.171875 -11.90625 C 8.347656 -13.4375 6.316406 -14.953125 5.078125 -16.453125 C 3.847656 -17.960938 3.234375 -19.671875 3.234375 -21.578125 C 3.234375 -22.804688 3.46875 -23.953125 3.9375 -25.015625 C 4.40625 -26.078125 5.039062 -27 5.84375 -27.78125 C 6.644531 -28.5625 7.601562 -29.164062 8.71875 -29.59375 C 9.832031 -30.019531 11.046875 -30.234375 12.359375 -30.234375 C 13.503906 -30.234375 14.644531 -30.066406 15.78125 -29.734375 C 16.925781 -29.398438 17.925781 -28.9375 18.78125 -28.34375 L 19.78125 -29.671875 L 21.234375 -29.671875 L 21.234375 -21.234375 L 19.0625 -21.234375 C 18.195312 -23.359375 17.304688 -24.882812 16.390625 -25.8125 C 15.484375 -26.75 14.378906 -27.21875 13.078125 -27.21875 C 12.035156 -27.21875 11.207031 -26.9375 10.59375 -26.375 C 9.976562 -25.820312 9.671875 -25.078125 9.671875 -24.140625 C 9.671875 -23.097656 10.125 -22.109375 11.03125 -21.171875 C 11.945312 -20.242188 13.46875 -19.222656 15.59375 -18.109375 C 17.082031 -17.285156 18.367188 -16.484375 19.453125 -15.703125 C 20.535156 -14.921875 21.410156 -14.128906 22.078125 -13.328125 C 22.742188 -12.523438 23.234375 -11.6875 23.546875 -10.8125 C 23.867188 -9.9375 24.03125 -9 24.03125 -8 C 24.03125 -6.6875 23.785156 -5.507812 23.296875 -4.46875 C 22.816406 -3.425781 22.128906 -2.53125 21.234375 -1.78125 C 20.335938 -1.039062 19.265625 -0.460938 18.015625 -0.046875 C 16.773438 0.359375 15.390625 0.5625 13.859375 0.5625 C 12.253906 0.5625 10.765625 0.347656 9.390625 -0.078125 C 8.015625 -0.515625 6.878906 -1.140625 5.984375 -1.953125 Z M 4.75 0 "/></g></g></g></svg>