<svg xmlns="http://www.w3.org/2000/svg" xmlns:xlink="http://www.w3.org/1999/xlink" width="1219" zoomAndPan="magnify" viewBox="0 0 914.25 712.499978" height="950" preserveAspectRatio="xMidYMid meet" version="1.0"><defs><g/><clipPath id="354856bb19"><path d="M 681.242188 474 L 828 474 L 828 640.917969 L 681.242188 640.917969 Z M 681.242188 474 " clip-rule="nonzero"/></clipPath><clipPath id="6dc86239d0"><path d="M 667.207031 463 L 841.847656 463 L 841.847656 485 L 667.207031 485 Z M 667.207031 463 " clip-rule="nonzero"/></clipPath><clipPath id="c62c7d1557"><path d="M 668 319.429688 L 726 319.429688 L 726 373 L 668 373 Z M 668 319.429688 " clip-rule="nonzero"/></clipPath><clipPath id="142a61f962"><path d="M 332.574219 174.4375 L 548.175781 174.4375 L 548.175781 345.296875 L 332.574219 345.296875 Z M 332.574219 174.4375 " clip-rule="nonzero"/></clipPath></defs><path fill="#b4b4b5" d="M 625.613281 379.445312 L 675.683594 387.941406 C 677.210938 388.199219 678.453125 389.65625 678.453125 391.191406 L 678.453125 413.566406 C 678.453125 415.097656 677.210938 416.128906 675.683594 415.871094 L 625.613281 407.371094 C 624.082031 407.109375 622.839844 405.65625 622.839844 404.125 L 622.839844 381.75 C 622.839844 380.214844 624.082031 379.183594 625.613281 379.445312 Z M 650.5625 404.316406 L 651.34375 404.445312 L 651.34375 403.109375 C 652.269531 403.21875 653.027344 403.019531 653.609375 402.503906 C 654.195312 401.988281 654.484375 401.273438 654.484375 400.351562 C 654.484375 399.9375 654.414062 399.539062 654.273438 399.152344 C 654.136719 398.773438 653.933594 398.429688 653.675781 398.125 C 653.414062 397.820312 653.078125 397.542969 652.664062 397.292969 C 652.449219 397.164062 652.007812 396.953125 651.34375 396.675781 L 651.34375 392.855469 C 651.773438 393.015625 652.113281 393.257812 652.363281 393.574219 C 652.609375 393.894531 652.773438 394.320312 652.847656 394.855469 L 654.21875 394.878906 C 654.101562 394.019531 653.753906 393.300781 653.175781 392.722656 C 652.722656 392.269531 652.109375 391.941406 651.34375 391.734375 L 651.34375 391.101562 L 650.5625 390.96875 L 650.5625 391.601562 C 649.683594 391.539062 649.023438 391.667969 648.574219 391.988281 C 647.910156 392.460938 647.574219 393.164062 647.574219 394.109375 C 647.574219 394.640625 647.6875 395.128906 647.917969 395.585938 C 648.144531 396.039062 648.46875 396.425781 648.890625 396.730469 C 649.460938 397.148438 650.015625 397.453125 650.5625 397.648438 L 650.5625 401.867188 C 650.042969 401.730469 649.59375 401.386719 649.222656 400.855469 C 648.964844 400.472656 648.78125 399.921875 648.679688 399.195312 L 647.347656 399.214844 C 647.394531 399.910156 647.570312 400.519531 647.871094 401.050781 C 648.175781 401.578125 648.53125 401.984375 648.945312 402.269531 C 649.363281 402.554688 649.898438 402.792969 650.5625 402.988281 Z M 650.5625 392.707031 C 650.046875 392.695312 649.640625 392.835938 649.34375 393.117188 C 649.046875 393.402344 648.902344 393.773438 648.902344 394.230469 C 648.902344 394.679688 649.027344 395.082031 649.277344 395.425781 C 649.535156 395.773438 649.957031 396.089844 650.5625 396.375 Z M 651.34375 402 C 651.859375 402.023438 652.28125 401.871094 652.617188 401.550781 C 652.953125 401.222656 653.121094 400.777344 653.121094 400.210938 C 653.121094 399.730469 653.003906 399.320312 652.769531 398.992188 C 652.527344 398.660156 652.054688 398.316406 651.34375 397.964844 Z M 637.679688 385.535156 C 637.074219 385.433594 636.582031 385.839844 636.582031 386.441406 L 636.582031 404.09375 C 636.582031 404.699219 637.074219 405.273438 637.679688 405.375 L 663.617188 409.777344 C 664.21875 409.882812 664.710938 409.472656 664.710938 408.867188 L 664.710938 391.21875 C 664.710938 390.613281 664.21875 390.042969 663.617188 389.9375 Z M 662.519531 391.941406 L 638.773438 387.914062 L 638.773438 403.371094 L 662.519531 407.402344 L 662.519531 391.941406 " fill-opacity="1" fill-rule="evenodd"/><g clip-path="url(#354856bb19)"><path fill="#3a3a3a" d="M 695.441406 579.710938 L 813.601562 579.710938 L 813.601562 481.320312 C 813.601562 477.433594 816.75 474.277344 820.636719 474.277344 C 824.519531 474.277344 827.667969 477.433594 827.667969 481.320312 L 827.667969 633.941406 C 827.667969 637.828125 824.519531 640.984375 820.636719 640.984375 C 816.75 640.984375 813.601562 637.828125 813.601562 633.941406 L 813.601562 593.792969 L 695.441406 593.792969 L 695.441406 633.941406 C 695.441406 637.828125 692.289062 640.984375 688.410156 640.984375 C 684.523438 640.984375 681.375 637.828125 681.375 633.941406 L 681.375 481.320312 C 681.375 477.433594 684.523438 474.277344 688.410156 474.277344 C 692.289062 474.277344 695.441406 477.433594 695.441406 481.320312 L 695.441406 579.710938 " fill-opacity="1" fill-rule="evenodd"/></g><g clip-path="url(#6dc86239d0)"><path fill="#3a3a3a" d="M 671.195312 463.152344 L 838.214844 463.152344 C 840.21875 463.152344 841.847656 464.777344 841.847656 466.78125 L 841.847656 481.320312 C 841.847656 483.324219 840.21875 484.953125 838.214844 484.953125 L 671.195312 484.953125 C 669.1875 484.953125 667.558594 483.324219 667.558594 481.320312 L 667.558594 466.78125 C 667.558594 464.777344 669.1875 463.152344 671.195312 463.152344 " fill-opacity="1" fill-rule="nonzero"/></g><g clip-path="url(#c62c7d1557)"><path fill="#b4b4b5" d="M 679.9375 320.25 L 723.964844 345.5625 C 725.316406 346.339844 725.980469 348.132812 725.445312 349.570312 L 717.707031 370.566406 C 717.179688 372.003906 715.65625 372.542969 714.308594 371.765625 L 670.28125 346.453125 C 668.929688 345.675781 668.269531 343.882812 668.800781 342.441406 L 676.539062 321.449219 C 677.066406 320.011719 678.589844 319.472656 679.9375 320.25 Z M 694.738281 352.222656 L 695.425781 352.621094 L 695.890625 351.359375 C 696.722656 351.789062 697.5 351.863281 698.226562 351.582031 C 698.949219 351.296875 699.472656 350.730469 699.792969 349.867188 C 699.9375 349.476562 700.007812 349.078125 700.007812 348.667969 C 700.011719 348.261719 699.941406 347.875 699.800781 347.496094 C 699.664062 347.121094 699.445312 346.746094 699.144531 346.363281 C 698.988281 346.171875 698.644531 345.824219 698.113281 345.328125 L 699.4375 341.742188 C 699.789062 342.042969 700.019531 342.386719 700.140625 342.773438 C 700.261719 343.15625 700.269531 343.613281 700.160156 344.144531 L 701.433594 344.640625 C 701.617188 343.792969 701.546875 343 701.199219 342.257812 C 700.933594 341.675781 700.476562 341.152344 699.824219 340.695312 L 700.042969 340.097656 L 699.355469 339.703125 L 699.136719 340.300781 C 698.335938 339.9375 697.671875 339.828125 697.136719 339.96875 C 696.351562 340.183594 695.796875 340.730469 695.46875 341.617188 C 695.285156 342.113281 695.21875 342.613281 695.277344 343.121094 C 695.335938 343.628906 695.503906 344.097656 695.796875 344.53125 C 696.1875 345.121094 696.601562 345.597656 697.046875 345.972656 L 695.585938 349.929688 C 695.144531 349.617188 694.847656 349.144531 694.679688 348.515625 C 694.566406 348.070312 694.589844 347.488281 694.742188 346.765625 L 693.484375 346.328125 C 693.292969 346.996094 693.246094 347.628906 693.34375 348.234375 C 693.445312 348.828125 693.644531 349.339844 693.933594 349.746094 C 694.222656 350.15625 694.644531 350.566406 695.199219 350.980469 Z M 698.757812 341.335938 C 698.273438 341.148438 697.847656 341.132812 697.46875 341.296875 C 697.09375 341.460938 696.828125 341.757812 696.667969 342.1875 C 696.511719 342.609375 696.492188 343.027344 696.609375 343.441406 C 696.726562 343.855469 697.015625 344.300781 697.484375 344.777344 Z M 696.269531 350.324219 C 696.746094 350.527344 697.199219 350.53125 697.628906 350.339844 C 698.054688 350.152344 698.371094 349.796875 698.5625 349.261719 C 698.726562 348.8125 698.757812 348.386719 698.652344 347.996094 C 698.542969 347.601562 698.214844 347.113281 697.667969 346.539062 Z M 689.148438 330.144531 C 688.617188 329.835938 688.015625 330.050781 687.804688 330.617188 L 681.703125 347.175781 C 681.492188 347.742188 681.757812 348.453125 682.285156 348.757812 L 705.097656 361.875 C 705.628906 362.179688 706.226562 361.964844 706.441406 361.398438 L 712.542969 344.839844 C 712.753906 344.273438 712.488281 343.5625 711.960938 343.257812 Z M 710.242188 344.761719 L 689.351562 332.753906 L 684.003906 347.257812 L 704.894531 359.265625 L 710.242188 344.761719 " fill-opacity="1" fill-rule="evenodd"/></g><path fill="#b4b4b5" d="M 718.230469 379.523438 L 735.773438 427.214844 C 736.308594 428.671875 735.667969 430.476562 734.335938 431.238281 L 714.941406 442.375 C 713.613281 443.132812 712.101562 442.570312 711.5625 441.109375 L 694.023438 393.417969 C 693.484375 391.957031 694.128906 390.15625 695.457031 389.398438 L 714.855469 378.261719 C 716.179688 377.5 717.695312 378.066406 718.230469 379.523438 Z M 709.085938 413.554688 L 709.355469 414.296875 L 710.519531 413.632812 C 710.882812 414.492188 711.433594 415.050781 712.171875 415.300781 C 712.90625 415.546875 713.667969 415.449219 714.46875 414.992188 C 714.828125 414.785156 715.144531 414.523438 715.402344 414.214844 C 715.664062 413.902344 715.863281 413.558594 715.996094 413.179688 C 716.128906 412.800781 716.203125 412.375 716.21875 411.890625 C 716.222656 411.636719 716.179688 411.152344 716.09375 410.433594 L 719.40625 408.53125 C 719.480469 408.984375 719.441406 409.402344 719.289062 409.773438 C 719.132812 410.148438 718.84375 410.503906 718.421875 410.835938 L 719.078125 412.035156 C 719.765625 411.507812 720.214844 410.847656 720.429688 410.058594 C 720.601562 409.441406 720.582031 408.746094 720.375 407.976562 L 720.925781 407.660156 L 720.652344 406.914062 L 720.101562 407.230469 C 719.71875 406.441406 719.277344 405.929688 718.78125 405.699219 C 718.042969 405.355469 717.261719 405.414062 716.445312 405.882812 C 715.988281 406.148438 715.613281 406.492188 715.332031 406.914062 C 715.050781 407.34375 714.882812 407.8125 714.824219 408.332031 C 714.746094 409.035156 714.757812 409.671875 714.859375 410.242188 L 711.207031 412.339844 C 711.066406 411.816406 711.136719 411.261719 711.417969 410.671875 C 711.617188 410.253906 712.007812 409.824219 712.585938 409.375 L 711.902344 408.230469 C 711.324219 408.617188 710.878906 409.070312 710.574219 409.597656 C 710.265625 410.121094 710.089844 410.636719 710.050781 411.136719 C 710.011719 411.636719 710.074219 412.222656 710.234375 412.898438 Z M 719.144531 407.777344 C 718.894531 407.328125 718.574219 407.042969 718.183594 406.925781 C 717.789062 406.8125 717.394531 406.867188 717 407.09375 C 716.609375 407.316406 716.324219 407.625 716.148438 408.019531 C 715.972656 408.410156 715.910156 408.941406 715.964844 409.605469 Z M 711.476562 413.082031 C 711.714844 413.539062 712.058594 413.835938 712.503906 413.964844 C 712.953125 414.097656 713.425781 414.019531 713.914062 413.738281 C 714.332031 413.5 714.625 413.191406 714.796875 412.824219 C 714.964844 412.449219 715.027344 411.867188 714.972656 411.074219 Z M 718.953125 393.027344 C 718.738281 392.453125 718.144531 392.230469 717.621094 392.527344 L 702.320312 401.3125 C 701.796875 401.613281 701.542969 402.324219 701.753906 402.898438 L 710.84375 427.605469 C 711.050781 428.183594 711.652344 428.40625 712.175781 428.101562 L 727.476562 419.324219 C 727.996094 419.019531 728.25 418.308594 728.042969 417.734375 Z M 725.757812 417.785156 L 717.4375 395.160156 L 704.035156 402.851562 L 712.359375 425.476562 L 725.757812 417.785156 " fill-opacity="1" fill-rule="evenodd"/><path fill="#2f2f2f" d="M 597.179688 632.242188 L 565.84375 621.789062 L 564.816406 622.132812 L 564.8125 622.117188 L 534.464844 632.242188 C 530.78125 633.46875 526.800781 631.464844 525.589844 627.78125 C 524.371094 624.101562 526.367188 620.132812 530.039062 618.910156 L 558.785156 609.320312 L 558.785156 553.425781 L 530.613281 553.425781 C 528.480469 553.425781 526.527344 552.46875 525.21875 550.925781 L 524.355469 551.097656 L 523.714844 547.871094 C 523.703125 547.835938 523.695312 547.796875 523.6875 547.761719 L 523.023438 544.421875 L 497.042969 414.425781 C 496.28125 410.621094 498.765625 406.90625 502.570312 406.144531 C 506.371094 405.386719 510.082031 407.867188 510.839844 411.671875 L 536.351562 539.339844 L 618.5 539.339844 C 622.382812 539.339844 625.535156 542.492188 625.535156 546.382812 C 625.535156 550.265625 622.382812 553.425781 618.5 553.425781 L 572.851562 553.425781 L 572.851562 609.320312 L 601.601562 618.910156 C 605.269531 620.132812 607.265625 624.101562 606.050781 627.78125 C 604.835938 631.464844 600.859375 633.46875 597.179688 632.242188 " fill-opacity="1" fill-rule="evenodd"/><path fill="#d1d1d1" d="M 657.109375 462.929688 C 657.109375 462.929688 663.570312 461.691406 668.742188 456.445312 C 668.742188 456.445312 680.589844 452.472656 679.492188 450.296875 C 679.492188 450.296875 677.914062 446.578125 670.855469 449.796875 L 666.058594 452.179688 C 666.058594 452.179688 663.644531 450.691406 668.4375 447.898438 L 669.628906 446.058594 L 671.304688 445.882812 C 671.304688 445.882812 673.703125 446.808594 676.160156 445.855469 C 676.160156 445.855469 678.550781 446.1875 682.117188 448.195312 C 682.117188 448.195312 685.355469 454.769531 688.554688 450.585938 C 688.554688 450.585938 688.460938 449.484375 685.785156 447.292969 L 678.078125 441.234375 L 680.496094 440.785156 L 684.769531 441.441406 C 684.769531 441.441406 688.25 440.925781 687.070312 438.675781 L 681.265625 437.246094 L 674.710938 436.769531 L 669.078125 438.535156 L 665.910156 439.398438 L 664.898438 440.933594 L 661.9375 441.492188 L 654.957031 448.160156 L 649.839844 452.308594 L 651.714844 464.007812 L 657.109375 462.929688 " fill-opacity="1" fill-rule="evenodd"/><path fill="#bcbcbc" d="M 543.914062 420.90625 L 562.976562 418.234375 L 559.839844 395.839844 L 540.78125 398.511719 L 543.914062 420.90625 " fill-opacity="1" fill-rule="evenodd"/><path fill="#d1d1d1" d="M 544.125 353.011719 C 556.136719 351.324219 567.617188 362.398438 569.769531 377.742188 C 571.917969 393.089844 563.921875 406.894531 551.90625 408.578125 C 539.890625 410.265625 528.40625 399.195312 526.257812 383.847656 C 524.109375 368.503906 532.105469 354.695312 544.125 353.011719 " fill-opacity="1" fill-rule="evenodd"/><path fill="#868686" d="M 566.261719 413.136719 L 560.179688 412.289062 C 558.011719 412.203125 555.8125 412.292969 553.6875 412.730469 C 551.421875 413.199219 549.203125 413.960938 547.070312 414.839844 L 546.632812 415.023438 C 541.414062 417.558594 536.515625 421.535156 533.464844 426.515625 C 530.789062 430.894531 529.4375 435.921875 530.085938 441.011719 C 531.082031 447.132812 531.582031 452.703125 532.226562 458.839844 C 533.757812 473.496094 532.648438 516.445312 533.363281 520.335938 C 541.300781 563.472656 587.273438 519.140625 602.882812 545.074219 C 609.324219 560.234375 616.53125 575.070312 623.480469 590.007812 L 623.53125 589.980469 L 626.632812 596.832031 C 628.484375 600.566406 631.453125 603.671875 635.347656 605.257812 C 639.355469 606.890625 643.792969 606.863281 647.78125 605.191406 L 648.027344 605.089844 C 651.820312 603.242188 654.976562 600.242188 656.582031 596.296875 C 658.210938 592.289062 657.894531 587.839844 656.519531 583.808594 C 650.03125 564.832031 635.546875 526.421875 617.839844 514.792969 C 610.355469 509.875 596.351562 505.855469 587.984375 506.265625 C 591.207031 497.917969 586.269531 486.875 586.636719 473.0625 C 609.785156 481.585938 618.257812 481.667969 646.199219 472.628906 C 646.28125 472.597656 646.363281 472.570312 646.445312 472.539062 C 648.515625 471.824219 650.714844 470.839844 652.261719 469.234375 C 653.945312 467.484375 654.839844 465.375 655.253906 462.992188 C 656.109375 458.054688 653.859375 453.203125 649.511719 450.699219 C 646.785156 449.128906 643.542969 448.671875 640.496094 449.492188 C 633.339844 451.414062 625.519531 453.328125 618.113281 453.875 C 606.957031 454.691406 602.148438 452.246094 595.492188 443.375 C 591.179688 437.625 587.945312 431.328125 583.890625 425.457031 C 581.417969 421.875 578.367188 418.507812 574.542969 416.351562 C 572 414.914062 569.167969 413.828125 566.261719 413.136719 " fill-opacity="1" fill-rule="evenodd"/><path fill="#727272" d="M 566.261719 413.136719 L 560.179688 412.289062 C 558.011719 412.203125 555.8125 412.292969 553.6875 412.730469 C 551.421875 413.199219 549.203125 413.960938 547.070312 414.839844 L 546.632812 415.023438 C 541.414062 417.558594 536.515625 421.535156 533.464844 426.515625 C 530.789062 430.894531 529.4375 435.921875 530.085938 441.011719 C 531.082031 447.132812 531.582031 452.703125 532.226562 458.839844 C 533.449219 470.570312 532.984375 500.417969 533.117188 513.871094 L 588.023438 506.164062 C 591.164062 497.832031 586.273438 486.820312 586.636719 473.0625 C 609.785156 481.585938 618.257812 481.667969 646.199219 472.628906 C 646.28125 472.597656 646.363281 472.570312 646.445312 472.539062 C 648.515625 471.824219 650.714844 470.839844 652.261719 469.234375 C 653.945312 467.484375 654.839844 465.375 655.253906 462.992188 C 656.109375 458.054688 653.859375 453.203125 649.511719 450.699219 C 646.785156 449.128906 643.542969 448.671875 640.496094 449.492188 C 633.339844 451.414062 625.519531 453.328125 618.113281 453.875 C 606.957031 454.691406 602.148438 452.246094 595.492188 443.375 C 591.179688 437.625 587.945312 431.328125 583.890625 425.457031 C 581.417969 421.875 578.367188 418.507812 574.542969 416.351562 C 572 414.914062 569.167969 413.828125 566.261719 413.136719 " fill-opacity="1" fill-rule="evenodd"/><path fill="#202020" d="M 630.835938 614.324219 C 630.835938 614.324219 713.738281 602.902344 660.894531 592.132812 C 660.894531 592.132812 623.546875 584.898438 630.835938 614.324219 " fill-opacity="1" fill-rule="evenodd"/><path fill="#202020" d="M 548.667969 384.039062 L 549.300781 378.277344 L 555.96875 370.976562 C 555.96875 370.976562 566.152344 364.648438 565.859375 361.324219 C 563.625 335.804688 488 357.824219 533.308594 402.15625 L 535.960938 402.265625 L 539.574219 390.199219 L 544.230469 387.015625 C 534.039062 378.289062 543.558594 362.21875 548.667969 384.039062 " fill-opacity="1" fill-rule="evenodd"/><path fill="#2f2f2f" d="M 745.554688 445.546875 L 778.199219 359.226562 L 791.351562 364.179688 L 755.25 459.628906 L 678.191406 459.628906 L 678.191406 445.546875 L 745.554688 445.546875 " fill-opacity="1" fill-rule="evenodd"/><g clip-path="url(#142a61f962)"><path fill="#545454" d="M 438.871094 179.203125 C 432.277344 179.203125 426.140625 180.890625 420.453125 184.265625 C 413.96875 188.117188 409.25 193.429688 406.296875 200.207031 C 405.519531 201.988281 403.78125 203.050781 401.953125 203.050781 C 401.324219 203.050781 400.683594 202.925781 400.066406 202.65625 C 397.039062 201.335938 393.667969 200.566406 389.957031 200.339844 C 389.917969 200.335938 389.878906 200.335938 389.839844 200.335938 C 389.714844 200.332031 389.59375 200.332031 389.472656 200.332031 C 389.464844 200.332031 389.457031 200.332031 389.449219 200.332031 C 389.429688 200.332031 389.410156 200.332031 389.394531 200.332031 C 382.308594 200.332031 376.238281 202.574219 371.1875 207.058594 C 371.183594 207.0625 371.183594 207.0625 371.179688 207.0625 C 371.179688 207.066406 371.175781 207.070312 371.171875 207.070312 C 369.511719 208.558594 368.070312 210.242188 366.84375 212.117188 C 366.8125 212.164062 366.78125 212.214844 366.75 212.265625 L 365.269531 214.914062 C 365.242188 214.960938 365.21875 215.011719 365.195312 215.058594 C 364.214844 217.117188 363.527344 219.3125 363.128906 221.648438 C 363.121094 221.710938 363.113281 221.769531 363.105469 221.832031 L 363.054688 222.386719 C 362.84375 224.5625 361.195312 226.257812 359.128906 226.605469 C 355.367188 227.34375 351.855469 228.917969 348.59375 231.328125 C 342.757812 235.640625 339.105469 241.625 337.636719 249.285156 C 337.625 249.359375 337.613281 249.433594 337.605469 249.507812 L 337.265625 252.914062 C 337.257812 252.988281 337.253906 253.0625 337.25 253.136719 C 337.152344 260.753906 339.507812 267.265625 344.316406 272.667969 L 344.320312 272.671875 C 344.320312 272.671875 344.324219 272.671875 344.324219 272.675781 C 349.199219 278.113281 355.496094 281.039062 363.21875 281.453125 C 363.253906 281.457031 363.292969 281.457031 363.332031 281.457031 C 363.339844 281.457031 363.347656 281.457031 363.355469 281.457031 C 363.359375 281.457031 363.359375 281.457031 363.363281 281.457031 C 363.367188 281.457031 363.367188 281.457031 363.371094 281.457031 C 363.398438 281.457031 363.421875 281.457031 363.441406 281.457031 C 365.242188 281.457031 366.976562 281.3125 368.644531 281.015625 C 368.8125 280.988281 368.980469 280.96875 369.152344 280.957031 C 369.257812 280.949219 369.363281 280.945312 369.46875 280.945312 C 371.734375 280.945312 373.707031 282.5625 374.121094 284.824219 C 375.121094 290.253906 378.242188 295.269531 383.484375 299.871094 C 383.484375 299.875 383.488281 299.878906 383.488281 299.878906 C 389.839844 305.417969 397.96875 308.992188 407.878906 310.609375 C 407.910156 310.617188 407.9375 310.621094 407.964844 310.625 C 410.378906 310.933594 412.707031 311.09375 414.949219 311.101562 C 414.957031 311.101562 414.964844 311.101562 414.972656 311.101562 C 414.976562 311.101562 414.976562 311.101562 414.980469 311.101562 C 415.019531 311.101562 415.058594 311.101562 415.097656 311.101562 C 421.710938 311.101562 427.566406 309.777344 432.667969 307.128906 C 432.671875 307.125 432.675781 307.125 432.679688 307.121094 L 432.691406 307.117188 C 434.382812 306.230469 435.914062 305.210938 437.285156 304.066406 C 437.808594 303.628906 438.417969 303.308594 439.074219 303.128906 C 439.484375 303.019531 439.90625 302.960938 440.324219 302.960938 C 441.261719 302.960938 442.1875 303.242188 442.980469 303.777344 C 444.109375 304.542969 445.285156 305.257812 446.5 305.914062 C 448.308594 306.894531 450.207031 307.75 452.195312 308.484375 C 452.332031 308.535156 452.460938 308.589844 452.589844 308.648438 C 452.746094 308.722656 452.910156 308.792969 453.089844 308.859375 C 453.097656 308.863281 453.101562 308.863281 453.109375 308.867188 C 454.601562 309.4375 457.820312 310.1875 462.769531 311.125 C 462.839844 311.140625 462.914062 311.148438 462.984375 311.15625 C 464.746094 311.335938 466.46875 311.425781 468.15625 311.433594 C 468.164062 311.433594 468.167969 311.433594 468.175781 311.433594 C 468.179688 311.433594 468.183594 311.433594 468.1875 311.433594 C 468.226562 311.433594 468.261719 311.433594 468.304688 311.433594 C 471.074219 311.433594 473.742188 311.199219 476.308594 310.726562 C 476.320312 310.726562 476.328125 310.722656 476.335938 310.722656 C 478.28125 310.363281 480.164062 309.871094 481.988281 309.246094 C 482.136719 309.195312 482.285156 309.148438 482.4375 309.109375 C 482.644531 309.058594 482.863281 308.992188 483.09375 308.910156 C 483.101562 308.90625 483.109375 308.90625 483.121094 308.902344 C 484.566406 308.386719 487.097656 307.0625 490.714844 304.917969 C 490.757812 304.894531 490.800781 304.867188 490.84375 304.835938 C 497.59375 300.265625 501.875 294.179688 503.695312 286.582031 C 504.148438 284.679688 505.726562 283.253906 507.660156 282.992188 L 507.664062 282.992188 C 507.875 282.960938 508.085938 282.949219 508.296875 282.949219 C 508.558594 282.949219 508.820312 282.96875 509.078125 283.011719 C 510.722656 283.289062 512.421875 283.429688 514.175781 283.433594 C 514.179688 283.433594 514.183594 283.433594 514.1875 283.433594 C 514.191406 283.433594 514.195312 283.433594 514.195312 283.433594 C 514.222656 283.433594 514.25 283.433594 514.277344 283.433594 C 515.515625 283.433594 516.78125 283.367188 518.070312 283.230469 C 518.109375 283.226562 518.152344 283.21875 518.191406 283.214844 L 518.195312 283.214844 C 526.210938 281.964844 532.636719 278.257812 537.472656 272.09375 C 537.476562 272.089844 537.476562 272.089844 537.480469 272.085938 C 539.03125 270.089844 540.3125 267.917969 541.316406 265.566406 C 541.339844 265.511719 541.359375 265.460938 541.378906 265.40625 L 542.539062 262.085938 C 542.558594 262.035156 542.574219 261.984375 542.589844 261.933594 C 543.289062 259.429688 543.644531 256.824219 543.660156 254.109375 C 543.660156 254.085938 543.660156 254.066406 543.660156 254.039062 C 543.46875 245.761719 540.628906 238.851562 535.128906 233.308594 L 535.132812 233.308594 C 535.117188 233.292969 535.101562 233.277344 535.085938 233.261719 C 530.53125 228.6875 525.054688 225.917969 518.660156 224.960938 C 516.671875 224.679688 515.070312 223.167969 514.679688 221.1875 C 514.09375 218.195312 512.917969 215.328125 511.15625 212.589844 C 511.144531 212.574219 511.132812 212.558594 511.125 212.542969 C 507.421875 206.820312 502.011719 203.019531 494.890625 201.132812 C 494.851562 201.125 494.8125 201.113281 494.773438 201.105469 C 492.578125 200.636719 490.4375 200.398438 488.355469 200.394531 C 488.347656 200.394531 488.339844 200.394531 488.332031 200.394531 C 488.316406 200.394531 488.300781 200.394531 488.289062 200.394531 C 484.855469 200.394531 481.601562 201.019531 478.53125 202.265625 C 477.949219 202.503906 477.34375 202.617188 476.75 202.617188 C 474.984375 202.617188 473.296875 201.625 472.484375 199.941406 C 471.875 198.675781 471.179688 197.433594 470.402344 196.207031 C 465.296875 188.167969 457.792969 182.832031 447.890625 180.207031 C 447.851562 180.195312 447.8125 180.1875 447.773438 180.179688 C 447.765625 180.175781 447.757812 180.175781 447.753906 180.175781 C 444.746094 179.535156 441.8125 179.210938 438.960938 179.203125 C 438.953125 179.203125 438.945312 179.203125 438.9375 179.203125 C 438.914062 179.203125 438.894531 179.203125 438.871094 179.203125 Z M 438.871094 174.46875 C 438.90625 174.46875 438.9375 174.46875 438.972656 174.46875 C 442.160156 174.476562 445.421875 174.835938 448.757812 175.546875 C 448.875 175.574219 448.988281 175.601562 449.101562 175.632812 C 460.199219 178.574219 468.632812 184.585938 474.398438 193.671875 C 475.273438 195.050781 476.058594 196.453125 476.746094 197.882812 C 480.390625 196.398438 484.238281 195.660156 488.289062 195.660156 C 488.3125 195.660156 488.339844 195.660156 488.363281 195.660156 C 490.777344 195.664062 493.242188 195.9375 495.765625 196.476562 C 495.878906 196.5 495.992188 196.527344 496.105469 196.558594 C 504.40625 198.753906 510.734375 203.226562 515.097656 209.972656 C 517.210938 213.234375 518.621094 216.671875 519.324219 220.277344 L 519.328125 220.277344 C 526.769531 221.382812 533.140625 224.597656 538.441406 229.921875 C 544.855469 236.367188 548.175781 244.371094 548.394531 253.933594 C 548.394531 254 548.394531 254.066406 548.394531 254.136719 C 548.378906 257.273438 547.960938 260.296875 547.148438 263.207031 C 547.105469 263.359375 547.058594 263.503906 547.007812 263.652344 L 545.847656 266.96875 C 545.792969 267.125 545.734375 267.277344 545.667969 267.425781 C 544.503906 270.152344 543.019531 272.675781 541.21875 274.992188 C 541.210938 275 541.203125 275.007812 541.199219 275.015625 C 535.59375 282.15625 528.167969 286.449219 518.921875 287.890625 C 518.804688 287.910156 518.6875 287.925781 518.566406 287.9375 C 517.113281 288.089844 515.683594 288.167969 514.277344 288.167969 C 514.246094 288.167969 514.214844 288.167969 514.1875 288.167969 C 512.167969 288.164062 510.203125 288 508.296875 287.683594 C 506.195312 296.472656 501.261719 303.496094 493.5 308.757812 C 493.375 308.839844 493.253906 308.917969 493.125 308.992188 C 489.246094 311.289062 486.4375 312.746094 484.703125 313.363281 C 484.320312 313.5 483.945312 313.613281 483.585938 313.703125 C 481.519531 314.414062 479.390625 314.972656 477.195312 315.378906 C 474.335938 315.902344 471.371094 316.167969 468.304688 316.167969 C 468.261719 316.167969 468.21875 316.167969 468.175781 316.167969 C 466.324219 316.164062 464.433594 316.0625 462.507812 315.867188 C 462.300781 315.84375 462.09375 315.816406 461.890625 315.777344 C 456.664062 314.789062 453.175781 313.960938 451.421875 313.289062 C 451.125 313.179688 450.84375 313.058594 450.578125 312.933594 C 448.371094 312.121094 446.257812 311.167969 444.25 310.078125 C 442.894531 309.347656 441.585938 308.550781 440.324219 307.695312 C 438.691406 309.058594 436.882812 310.261719 434.890625 311.308594 C 434.882812 311.3125 434.871094 311.320312 434.863281 311.324219 C 429.074219 314.332031 422.484375 315.835938 415.097656 315.835938 C 415.054688 315.835938 415.011719 315.835938 414.972656 315.835938 L 414.96875 315.835938 C 412.519531 315.828125 409.984375 315.65625 407.359375 315.320312 C 407.28125 315.308594 407.199219 315.296875 407.117188 315.285156 C 396.320312 313.519531 387.40625 309.574219 380.378906 303.445312 C 380.371094 303.441406 380.367188 303.4375 380.359375 303.429688 C 374.292969 298.105469 370.660156 292.1875 369.464844 285.679688 C 367.523438 286.019531 365.519531 286.191406 363.441406 286.191406 C 363.414062 286.191406 363.382812 286.191406 363.355469 286.191406 L 363.351562 286.191406 C 363.34375 286.191406 363.335938 286.191406 363.332031 286.191406 L 363.335938 286.191406 C 363.210938 286.191406 363.085938 286.1875 362.960938 286.179688 C 353.9375 285.695312 346.550781 282.246094 340.800781 275.835938 C 340.792969 275.828125 340.789062 275.824219 340.78125 275.816406 C 335.160156 269.5 332.402344 261.917969 332.519531 253.074219 C 332.519531 252.863281 332.53125 252.652344 332.554688 252.441406 L 332.894531 249.035156 C 332.917969 248.820312 332.949219 248.605469 332.988281 248.390625 C 334.6875 239.523438 338.953125 232.566406 345.777344 227.523438 C 349.648438 224.664062 353.835938 222.800781 358.339844 221.9375 L 358.394531 221.378906 C 358.410156 221.207031 358.433594 221.03125 358.460938 220.859375 C 358.933594 218.089844 359.75 215.476562 360.921875 213.023438 C 360.988281 212.878906 361.0625 212.738281 361.140625 212.601562 L 362.621094 209.953125 C 362.703125 209.808594 362.789062 209.664062 362.878906 209.523438 C 364.335938 207.300781 366.050781 205.304688 368.023438 203.539062 C 368.027344 203.53125 368.035156 203.523438 368.042969 203.519531 C 373.992188 198.238281 381.109375 195.597656 389.394531 195.597656 C 389.421875 195.597656 389.453125 195.597656 389.484375 195.597656 C 389.621094 195.597656 389.761719 195.597656 389.902344 195.601562 C 390.015625 195.601562 390.132812 195.605469 390.246094 195.613281 C 394.515625 195.875 398.417969 196.773438 401.957031 198.316406 C 405.316406 190.605469 410.679688 184.5625 418.039062 180.195312 C 424.46875 176.378906 431.414062 174.46875 438.871094 174.46875 Z M 500.421875 315.332031 C 499.363281 315.332031 498.242188 315.539062 497.0625 315.949219 C 494.820312 316.890625 493.234375 318.304688 492.308594 320.183594 C 491.453125 321.914062 491.335938 323.71875 491.949219 325.601562 L 492.421875 326.609375 C 493.460938 328.261719 494.945312 329.34375 496.875 329.859375 C 497.578125 330.039062 498.277344 330.132812 498.976562 330.132812 C 500.375 330.132812 501.828125 329.761719 503.335938 329.019531 C 505.363281 327.859375 506.714844 326.304688 507.398438 324.359375 C 507.589844 323.804688 507.707031 323.234375 507.757812 322.65625 L 507.75 321.449219 C 507.699219 320.914062 507.574219 320.378906 507.375 319.839844 C 506.578125 317.957031 505.265625 316.652344 503.433594 315.917969 C 502.453125 315.527344 501.449219 315.332031 500.421875 315.332031 Z M 500.421875 310.597656 C 502.058594 310.597656 503.648438 310.90625 505.1875 311.523438 C 508.277344 312.757812 510.46875 314.941406 511.773438 318.082031 C 512.167969 319.117188 512.402344 320.167969 512.484375 321.226562 L 512.496094 322.808594 C 512.425781 323.863281 512.21875 324.890625 511.875 325.898438 C 510.792969 329.007812 508.6875 331.441406 505.5625 333.199219 C 503.351562 334.308594 501.15625 334.867188 498.976562 334.867188 C 497.867188 334.867188 496.761719 334.722656 495.664062 334.433594 C 492.417969 333.574219 489.945312 331.710938 488.246094 328.851562 L 487.550781 327.371094 C 486.421875 324.164062 486.589844 321.070312 488.0625 318.089844 C 489.53125 315.109375 491.964844 312.921875 495.367188 311.527344 C 497.097656 310.90625 498.785156 310.597656 500.421875 310.597656 Z M 518.800781 334.046875 C 518.667969 334.046875 518.527344 334.050781 518.382812 334.066406 C 517.328125 334.234375 516.511719 334.667969 515.941406 335.375 C 515.410156 336.03125 515.175781 336.824219 515.238281 337.757812 C 515.398438 338.675781 515.8125 339.390625 516.480469 339.898438 C 517.105469 340.378906 517.84375 340.617188 518.695312 340.617188 C 518.808594 340.617188 518.925781 340.613281 519.046875 340.605469 L 519.050781 340.605469 L 519.675781 340.488281 C 520.605469 340.195312 521.300781 339.679688 521.765625 338.9375 L 521.765625 338.941406 C 522.203125 338.234375 522.324219 337.417969 522.132812 336.488281 C 521.859375 335.625 521.347656 334.972656 520.601562 334.527344 C 520.378906 334.398438 520.140625 334.292969 519.882812 334.210938 L 519.886719 334.210938 L 519.191406 334.066406 C 519.0625 334.050781 518.933594 334.046875 518.800781 334.046875 Z M 518.800781 329.3125 C 519.203125 329.3125 519.597656 329.339844 519.988281 329.394531 L 521.039062 329.617188 C 521.726562 329.808594 522.375 330.082031 522.980469 330.433594 C 524.855469 331.535156 526.101562 333.152344 526.714844 335.285156 C 527.242188 337.539062 526.933594 339.585938 525.792969 341.429688 C 524.648438 343.261719 522.980469 344.484375 520.78125 345.097656 L 519.679688 345.300781 C 519.34375 345.335938 519.015625 345.351562 518.695312 345.351562 C 516.777344 345.351562 515.078125 344.789062 513.605469 343.660156 C 511.886719 342.347656 510.863281 340.566406 510.535156 338.316406 C 510.324219 336.050781 510.898438 334.078125 512.261719 332.398438 C 513.621094 330.714844 515.460938 329.707031 517.773438 329.371094 C 518.121094 329.332031 518.464844 329.3125 518.800781 329.3125 Z M 518.800781 329.3125 " fill-opacity="1" fill-rule="nonzero"/></g><g fill="#545454" fill-opacity="1"><g transform="translate(416.075052, 274.84643)"><g><path d="M 26.625 -67.890625 L 26.625 -58.609375 C 28.789062 -58.609375 30.890625 -58.269531 32.921875 -57.59375 C 34.960938 -56.914062 36.757812 -55.984375 38.3125 -54.796875 C 39.875 -53.617188 41.117188 -52.273438 42.046875 -50.765625 C 42.984375 -49.253906 43.453125 -47.671875 43.453125 -46.015625 C 43.453125 -44.710938 43.046875 -43.65625 42.234375 -42.84375 C 41.429688 -42.039062 40.378906 -41.640625 39.078125 -41.640625 C 37.867188 -41.640625 36.910156 -41.941406 36.203125 -42.546875 C 35.503906 -43.148438 34.914062 -43.914062 34.4375 -44.84375 C 33.957031 -45.78125 33.539062 -46.785156 33.1875 -47.859375 C 32.84375 -48.941406 32.40625 -49.945312 31.875 -50.875 C 31.34375 -51.8125 30.675781 -52.582031 29.875 -53.1875 C 29.070312 -53.789062 27.988281 -54.09375 26.625 -54.09375 L 26.625 -35.6875 C 30 -34.320312 32.90625 -32.9375 35.34375 -31.53125 C 37.78125 -30.125 39.765625 -28.648438 41.296875 -27.109375 C 42.835938 -25.578125 43.972656 -23.941406 44.703125 -22.203125 C 45.429688 -20.472656 45.796875 -18.601562 45.796875 -16.59375 C 45.796875 -14.226562 45.34375 -12.039062 44.4375 -10.03125 C 43.53125 -8.019531 42.242188 -6.269531 40.578125 -4.78125 C 38.921875 -3.300781 36.910156 -2.097656 34.546875 -1.171875 C 32.179688 -0.242188 29.539062 0.347656 26.625 0.609375 L 26.625 12.828125 L 21.5 12.828125 L 21.5 0.671875 C 18.832031 0.523438 16.351562 0.0625 14.0625 -0.71875 C 11.78125 -1.5 9.804688 -2.515625 8.140625 -3.765625 C 6.484375 -5.023438 5.175781 -6.484375 4.21875 -8.140625 C 3.269531 -9.804688 2.796875 -11.566406 2.796875 -13.421875 C 2.796875 -15.179688 3.179688 -16.523438 3.953125 -17.453125 C 4.734375 -18.390625 5.828125 -18.859375 7.234375 -18.859375 C 8.648438 -18.859375 9.796875 -18.289062 10.671875 -17.15625 C 11.554688 -16.03125 12.375 -13.984375 13.125 -11.015625 C 14.226562 -6.640625 17.019531 -4.273438 21.5 -3.921875 L 21.5 -24.75 C 15.71875 -27.0625 11.492188 -29.625 8.828125 -32.4375 C 6.160156 -35.25 4.828125 -38.566406 4.828125 -42.390625 C 4.828125 -44.960938 5.300781 -47.253906 6.25 -49.265625 C 7.207031 -51.273438 8.46875 -52.984375 10.03125 -54.390625 C 11.59375 -55.796875 13.363281 -56.875 15.34375 -57.625 C 17.332031 -58.382812 19.382812 -58.765625 21.5 -58.765625 L 21.5 -67.890625 Z M 36.203125 -12.671875 C 36.203125 -14.785156 35.472656 -16.609375 34.015625 -18.140625 C 32.554688 -19.671875 30.09375 -21.191406 26.625 -22.703125 L 26.625 -4.078125 C 29.695312 -4.472656 32.0625 -5.410156 33.71875 -6.890625 C 35.375 -8.378906 36.203125 -10.304688 36.203125 -12.671875 Z M 13.359375 -46.46875 C 13.359375 -43.144531 16.070312 -40.253906 21.5 -37.796875 L 21.5 -54.015625 C 20.394531 -54.015625 19.347656 -53.8125 18.359375 -53.40625 C 17.378906 -53.007812 16.515625 -52.46875 15.765625 -51.78125 C 15.015625 -51.101562 14.425781 -50.300781 14 -49.375 C 13.570312 -48.445312 13.359375 -47.476562 13.359375 -46.46875 Z M 13.359375 -46.46875 "/></g></g></g></svg>