<svg xmlns="http://www.w3.org/2000/svg" xmlns:xlink="http://www.w3.org/1999/xlink" width="1200" zoomAndPan="magnify" viewBox="0 0 900 449.999984" height="600" preserveAspectRatio="xMidYMid meet" version="1.0"><defs><g/><clipPath id="f4f4795d12"><path d="M 294 207 L 501 207 L 501 301.609375 L 294 301.609375 Z M 294 207 " clip-rule="nonzero"/></clipPath><clipPath id="b788379893"><path d="M 542 148.609375 L 572 148.609375 L 572 180 L 542 180 Z M 542 148.609375 " clip-rule="nonzero"/></clipPath><clipPath id="9a25aa02aa"><path d="M 504 273 L 606.453125 273 L 606.453125 277 L 504 277 Z M 504 273 " clip-rule="nonzero"/></clipPath></defs><rect x="-90" width="1080" fill="#ffffff" y="-44.999998" height="539.99998" fill-opacity="1"/><rect x="-90" width="1080" fill="#ffffff" y="-44.999998" height="539.99998" fill-opacity="1"/><path fill="#000000" d="M 332.980469 258.335938 C 331.148438 257.484375 329.777344 255.785156 329.40625 253.683594 C 329.285156 252.988281 329.285156 252.300781 329.382812 251.640625 C 328.441406 251.101562 327.566406 250.46875 326.769531 249.757812 L 321.703125 249.757812 C 320.300781 249.757812 319.164062 250.894531 319.164062 252.296875 L 319.164062 261.183594 C 319.164062 262.585938 320.300781 263.722656 321.703125 263.722656 L 336.785156 263.722656 C 334.664062 262.800781 333.144531 260.753906 332.980469 258.335938 Z M 332.980469 258.335938 " fill-opacity="1" fill-rule="nonzero"/><g clip-path="url(#f4f4795d12)"><path fill="#000000" d="M 480.582031 295.253906 L 480.582031 299.0625 C 480.582031 300.464844 481.71875 301.601562 483.121094 301.601562 L 498.34375 301.601562 C 499.746094 301.601562 500.878906 300.464844 500.878906 299.0625 L 500.878906 253.777344 C 500.878906 252.375 499.746094 251.238281 498.34375 251.238281 L 483.121094 251.238281 C 481.71875 251.238281 480.582031 252.375 480.582031 253.777344 L 480.582031 265.628906 L 461.574219 265.628906 C 461.722656 265.164062 461.894531 264.703125 462.078125 264.246094 C 462.25 263.820312 462.4375 263.394531 462.632812 262.976562 L 465.089844 262.976562 C 469.46875 262.976562 473.015625 259.421875 473.015625 255.039062 C 473.015625 253.484375 472.5625 252.035156 471.789062 250.808594 C 472.109375 250.496094 472.421875 250.199219 472.722656 249.917969 C 475.101562 247.699219 476.882812 246.371094 476.882812 246.371094 C 468.957031 233.355469 389.027344 215.898438 380.144531 224.152344 C 379.097656 225.125 377.941406 226.699219 376.742188 228.691406 C 375.492188 228.175781 374.265625 227.613281 373.085938 227 C 374.449219 229.488281 375.128906 232.019531 375.152344 234.671875 C 375.160156 235.972656 374.964844 237.300781 374.59375 238.59375 C 377.257812 232.527344 379.929688 227.816406 381.871094 226.011719 C 382.132812 225.769531 383.800781 224.558594 390.957031 224.558594 C 402.539062 224.558594 421.78125 227.730469 439.980469 232.640625 C 459.082031 237.796875 469.355469 242.753906 473.226562 246.058594 C 468.476562 250.09375 457.621094 260.574219 458.175781 271.679688 C 458.136719 271.820312 457.085938 274.042969 442.992188 274.042969 C 434.433594 274.042969 423.511719 273.25 412.953125 272.480469 L 412.828125 272.472656 C 402.242188 271.703125 391.300781 270.910156 382.753906 270.910156 C 374.140625 270.910156 369.019531 271.675781 366.15625 273.398438 C 365.917969 273.539062 365.730469 273.632812 365.585938 273.695312 C 364.996094 271.804688 365.320312 264.710938 369.851562 251.007812 C 370.890625 247.867188 372.019531 244.808594 373.179688 241.953125 C 373.042969 242.191406 372.90625 242.429688 372.753906 242.660156 C 370.363281 246.378906 366.386719 249.46875 360.601562 252.113281 C 354.59375 254.84375 346.792969 257.039062 336.753906 258.824219 C 336.386719 258.890625 336.015625 258.921875 335.644531 258.921875 C 335.1875 258.921875 334.738281 258.867188 334.304688 258.773438 C 334.722656 261.160156 336.796875 262.976562 339.300781 262.976562 L 363.925781 262.976562 C 363.734375 263.890625 363.566406 264.773438 363.421875 265.628906 L 314.40625 265.628906 L 314.40625 209.761719 C 314.40625 208.359375 313.269531 207.21875 311.871094 207.21875 L 296.648438 207.21875 C 295.246094 207.21875 294.109375 208.359375 294.109375 209.761719 L 294.109375 299.0625 C 294.109375 300.464844 295.246094 301.601562 296.648438 301.601562 L 311.871094 301.601562 C 313.269531 301.601562 314.40625 300.464844 314.40625 299.0625 L 314.40625 295.253906 Z M 480.582031 295.253906 " fill-opacity="1" fill-rule="nonzero"/></g><path fill="#000000" d="M 363.730469 234.585938 C 363.730469 234.617188 363.734375 234.652344 363.734375 234.679688 C 363.71875 235.207031 363.640625 235.691406 363.136719 236.507812 C 362.628906 237.308594 361.59375 238.441406 359.59375 239.722656 C 355.613281 242.300781 347.855469 245.269531 334.765625 247.574219 C 332.007812 248.0625 330.167969 250.699219 330.65625 253.460938 C 331.089844 255.921875 333.230469 257.652344 335.644531 257.652344 C 335.941406 257.652344 336.238281 257.625 336.535156 257.574219 C 346.914062 255.730469 354.472656 253.503906 360.078125 250.957031 C 365.660156 248.40625 369.417969 245.5 371.691406 241.972656 C 373.195312 239.640625 373.894531 237.039062 373.882812 234.679688 C 373.847656 230.578125 372.085938 227.492188 370.589844 225.425781 C 370.558594 225.386719 370.53125 225.351562 370.503906 225.3125 C 369.003906 223.304688 367.625 222.164062 367.417969 221.988281 C 365.253906 220.207031 362.058594 220.515625 360.277344 222.679688 C 359.269531 223.902344 358.933594 225.457031 359.214844 226.898438 C 359.199219 226.9375 359.175781 226.976562 359.160156 227.011719 C 357.378906 231.636719 355.597656 236.257812 353.816406 240.878906 C 356.175781 239.882812 357.785156 239.070312 358.90625 238.652344 C 360.472656 238.074219 362.136719 236.492188 363.730469 234.585938 Z M 363.730469 234.585938 " fill-opacity="1" fill-rule="nonzero"/><path fill="#000000" d="M 334.546875 246.320312 C 341.757812 245.050781 346.976562 243.480469 350.789062 242.074219 C 350.925781 241.59375 351.039062 241.101562 351.128906 240.597656 C 352.492188 232.832031 347.304688 225.425781 339.542969 224.0625 C 331.78125 222.703125 324.386719 227.894531 323.023438 235.664062 C 321.976562 241.644531 324.8125 247.40625 329.714844 250.363281 C 330.476562 248.328125 332.253906 246.730469 334.546875 246.320312 Z M 334.546875 246.320312 " fill-opacity="1" fill-rule="nonzero"/><path fill="#000000" d="M 334.441406 194.386719 C 334.578125 194.414062 334.722656 194.414062 335 194.417969 C 335.144531 194.417969 335.320312 194.414062 335.53125 194.410156 C 335.589844 194.410156 335.652344 194.40625 335.71875 194.40625 C 336.652344 194.40625 337.742188 194.523438 338.988281 194.753906 L 339.617188 194.871094 C 341.917969 195.296875 343.304688 195.570312 343.734375 195.675781 C 344.601562 195.898438 345.410156 196.207031 346.160156 196.609375 C 346.339844 196.703125 346.546875 196.777344 346.792969 196.835938 C 346.890625 196.859375 346.984375 196.875 347.082031 196.875 C 347.085938 196.875 347.089844 196.875 347.09375 196.875 C 347.632812 196.875 347.992188 196.414062 348.121094 195.84375 C 348.144531 195.742188 348.15625 195.644531 348.15625 195.542969 C 348.113281 194.589844 347.164062 194.078125 345.632812 193.6875 C 345.390625 193.625 345.105469 193.566406 344.773438 193.511719 C 344.464844 193.457031 344.070312 193.375 343.589844 193.253906 C 343.304688 193.183594 342.960938 193.117188 342.554688 193.054688 C 340.816406 192.800781 339.605469 192.597656 338.941406 192.460938 L 342.148438 190.507812 C 342.550781 190.257812 342.914062 190.035156 343.25 189.839844 C 344.304688 189.230469 345.738281 188.292969 347.546875 187.03125 L 349.066406 185.988281 C 349.429688 185.753906 349.769531 185.519531 350.070312 185.292969 C 350.445312 185.007812 350.742188 184.847656 350.898438 184.804688 C 351.199219 184.691406 351.335938 184.699219 351.519531 184.515625 L 351.523438 184.519531 C 351.722656 184.332031 351.832031 184.070312 351.914062 183.742188 C 351.941406 183.621094 351.960938 183.511719 351.960938 183.394531 C 351.988281 183.058594 351.726562 182.707031 351.390625 182.644531 C 351.0625 182.566406 350.613281 182.507812 350.023438 182.472656 C 348.90625 182.402344 347.84375 182.253906 346.828125 182.027344 C 346.0625 181.863281 345.269531 181.710938 344.449219 181.574219 C 343.625 181.433594 342.976562 181.296875 342.507812 181.164062 C 342.015625 181.023438 341.46875 180.875 340.871094 180.726562 C 340.78125 180.707031 340.636719 180.636719 340.457031 180.511719 C 340.242188 180.375 340.113281 180.292969 339.953125 180.25 C 339.914062 180.230469 339.847656 180.230469 339.828125 180.230469 C 339.574219 180.242188 339.398438 180.359375 339.167969 180.523438 C 338.902344 180.71875 338.707031 180.933594 338.632812 181.214844 C 338.609375 181.292969 338.601562 181.382812 338.601562 181.464844 C 338.601562 181.792969 338.75 182.097656 338.996094 182.367188 C 339.339844 182.753906 339.90625 183.003906 340.695312 183.203125 C 341.238281 183.339844 341.933594 183.464844 342.800781 183.585938 C 343.039062 183.621094 343.339844 183.667969 343.691406 183.730469 C 344.058594 183.792969 344.417969 183.855469 344.765625 183.90625 C 346.039062 184.097656 346.976562 184.265625 347.558594 184.398438 C 346.359375 185.320312 344.378906 186.613281 341.640625 188.257812 C 338.492188 190.152344 336.132812 191.414062 334.589844 192.035156 C 334.15625 192.21875 333.890625 192.625 333.765625 193.136719 C 333.730469 193.257812 333.714844 193.382812 333.714844 193.5 C 333.691406 193.925781 334.023438 194.308594 334.441406 194.386719 Z M 334.441406 194.386719 " fill-opacity="1" fill-rule="nonzero"/><path fill="#000000" d="M 389.398438 199.851562 C 390.523438 199.027344 391.136719 198.542969 391.371094 198.144531 L 391.386719 198.117188 L 391.398438 198.09375 L 391.40625 198.066406 C 391.449219 197.960938 391.472656 197.847656 391.472656 197.726562 C 391.480469 197.476562 391.351562 197.238281 391.164062 197.082031 C 390.933594 196.882812 390.675781 196.738281 390.402344 196.671875 C 390.152344 196.609375 389.835938 196.566406 389.433594 196.535156 C 389.234375 196.527344 389.070312 196.511719 388.945312 196.492188 C 388.773438 196.472656 388.636719 196.457031 388.515625 196.449219 C 387.402344 196.320312 386.414062 196.144531 385.558594 195.929688 C 384.929688 195.773438 384.429688 195.546875 384.058594 195.269531 C 383.945312 195.195312 383.890625 195.15625 383.777344 195.121094 C 383.625 195.078125 383.480469 195.058594 383.34375 195.058594 C 382.832031 195.039062 382.40625 195.417969 382.304688 195.925781 C 382.277344 196.027344 382.261719 196.132812 382.261719 196.238281 C 382.289062 197.082031 383.070312 197.558594 384.261719 197.855469 C 384.820312 198 385.367188 198.09375 385.910156 198.144531 C 386.800781 198.234375 387.457031 198.320312 387.847656 198.386719 C 385.898438 199.871094 383.238281 201.644531 379.882812 203.695312 C 379.902344 203.59375 379.917969 203.492188 379.917969 203.390625 C 379.910156 202.554688 379.171875 202.042969 378.074219 201.777344 C 377.242188 201.570312 376.03125 201.445312 374.410156 201.390625 C 374.019531 201.378906 373.695312 201.363281 373.464844 201.351562 C 373.734375 201.15625 374.128906 200.882812 374.628906 200.566406 C 376.707031 199.226562 378.304688 198.152344 379.421875 197.347656 C 380.546875 196.523438 381.160156 196.035156 381.390625 195.640625 L 381.414062 195.601562 C 381.46875 195.457031 381.496094 195.34375 381.496094 195.21875 C 381.5 194.96875 381.375 194.734375 381.183594 194.578125 C 380.957031 194.378906 380.699219 194.234375 380.421875 194.164062 C 380.175781 194.101562 379.855469 194.058594 379.453125 194.03125 C 379.253906 194.019531 379.09375 194.007812 378.96875 193.984375 C 378.796875 193.964844 378.65625 193.953125 378.539062 193.945312 C 377.429688 193.8125 376.4375 193.640625 375.578125 193.425781 C 374.949219 193.265625 374.453125 193.042969 374.082031 192.765625 C 373.96875 192.691406 373.914062 192.648438 373.800781 192.617188 C 373.648438 192.574219 373.503906 192.554688 373.367188 192.554688 C 372.855469 192.535156 372.429688 192.914062 372.328125 193.417969 C 372.300781 193.519531 372.285156 193.628906 372.285156 193.734375 C 372.3125 194.578125 373.09375 195.054688 374.285156 195.351562 C 374.84375 195.492188 375.390625 195.589844 375.929688 195.636719 C 376.824219 195.730469 377.476562 195.8125 377.867188 195.882812 C 375.921875 197.367188 373.261719 199.136719 369.902344 201.1875 C 369.925781 201.085938 369.941406 200.984375 369.941406 200.886719 C 369.929688 200.046875 369.195312 199.539062 368.097656 199.273438 C 367.265625 199.0625 366.054688 198.941406 364.433594 198.886719 C 364.039062 198.875 363.71875 198.859375 363.488281 198.847656 C 363.757812 198.652344 364.152344 198.375 364.652344 198.058594 C 366.730469 196.71875 368.328125 195.648438 369.445312 194.839844 C 370.566406 194.015625 371.183594 193.53125 371.414062 193.136719 L 371.433594 193.097656 C 371.492188 192.949219 371.519531 192.835938 371.519531 192.714844 C 371.523438 192.464844 371.394531 192.230469 371.207031 192.070312 C 370.980469 191.871094 370.722656 191.730469 370.449219 191.660156 C 370.199219 191.597656 369.878906 191.554688 369.476562 191.527344 C 369.28125 191.515625 369.117188 191.5 368.988281 191.480469 C 368.820312 191.460938 368.679688 191.449219 368.5625 191.4375 C 367.453125 191.308594 366.460938 191.132812 365.605469 190.917969 C 364.972656 190.761719 364.476562 190.539062 364.101562 190.257812 C 363.988281 190.1875 363.941406 190.144531 363.8125 190.109375 C 363.667969 190.070312 363.523438 190.050781 363.386719 190.050781 C 362.878906 190.03125 362.449219 190.410156 362.351562 190.914062 C 362.320312 191.015625 362.308594 191.121094 362.308594 191.226562 C 362.335938 192.074219 363.117188 192.550781 364.304688 192.847656 C 364.867188 192.988281 365.414062 193.082031 365.953125 193.132812 C 366.847656 193.226562 367.503906 193.308594 367.890625 193.378906 C 365.945312 194.863281 363.285156 196.632812 359.925781 198.683594 C 359.949219 198.582031 359.964844 198.480469 359.964844 198.378906 C 359.953125 197.542969 359.21875 197.035156 358.121094 196.769531 C 357.289062 196.558594 356.078125 196.433594 354.457031 196.378906 C 354.066406 196.367188 353.742188 196.355469 353.511719 196.34375 C 353.78125 196.144531 354.175781 195.871094 354.671875 195.554688 C 356.753906 194.214844 358.351562 193.144531 359.46875 192.335938 C 360.589844 191.511719 361.207031 191.027344 361.4375 190.632812 L 361.457031 190.597656 L 361.46875 190.578125 L 361.476562 190.554688 C 361.515625 190.445312 361.542969 190.332031 361.542969 190.210938 C 361.546875 189.960938 361.417969 189.722656 361.230469 189.566406 C 361.003906 189.367188 360.746094 189.222656 360.46875 189.15625 C 360.21875 189.09375 359.902344 189.050781 359.5 189.019531 C 359.300781 189.011719 359.140625 188.996094 359.011719 188.976562 C 358.84375 188.957031 358.703125 188.941406 358.585938 188.9375 C 357.472656 188.804688 356.480469 188.628906 355.625 188.414062 C 354.996094 188.257812 354.5 188.035156 354.125 187.753906 C 354.011719 187.683594 353.957031 187.640625 353.847656 187.605469 C 353.691406 187.566406 353.546875 187.546875 353.410156 187.546875 C 352.902344 187.523438 352.472656 187.902344 352.371094 188.410156 C 352.34375 188.511719 352.332031 188.621094 352.332031 188.726562 C 352.355469 189.566406 353.140625 190.042969 354.328125 190.34375 C 354.886719 190.484375 355.4375 190.578125 355.976562 190.628906 C 356.871094 190.722656 357.527344 190.804688 357.914062 190.875 C 355.953125 192.367188 353.273438 194.152344 349.882812 196.222656 C 349.207031 196.632812 348.671875 196.96875 348.277344 197.234375 L 348.175781 197.300781 L 348.148438 197.421875 C 348.132812 197.484375 348.128906 197.539062 348.128906 197.582031 C 348.128906 197.878906 348.300781 198.128906 348.527344 198.316406 C 348.773438 198.515625 349.023438 198.65625 349.28125 198.722656 C 349.417969 198.753906 349.550781 198.773438 349.691406 198.773438 C 350.011719 198.773438 350.335938 198.683594 350.652344 198.519531 C 351.019531 198.3125 351.628906 198.1875 352.46875 198.1875 C 352.753906 198.1875 353.070312 198.203125 353.414062 198.234375 C 354.773438 198.34375 355.730469 198.472656 356.257812 198.605469 C 357.199219 198.839844 357.886719 199.164062 358.328125 199.542969 C 358.359375 199.570312 358.394531 199.597656 358.425781 199.625 C 358.371094 199.664062 358.308594 199.703125 358.257812 199.738281 L 358.15625 199.804688 L 358.125 199.921875 C 358.109375 199.988281 358.109375 200.042969 358.109375 200.085938 C 358.109375 200.382812 358.277344 200.636719 358.507812 200.820312 C 358.75 201.019531 359 201.160156 359.257812 201.226562 C 359.394531 201.257812 359.53125 201.277344 359.671875 201.277344 C 359.988281 201.277344 360.3125 201.1875 360.628906 201.023438 C 360.996094 200.816406 361.601562 200.695312 362.441406 200.695312 C 362.730469 200.695312 363.046875 200.710938 363.394531 200.738281 C 364.75 200.847656 365.710938 200.976562 366.234375 201.109375 C 367.175781 201.34375 367.867188 201.667969 368.304688 202.050781 C 368.335938 202.078125 368.371094 202.101562 368.402344 202.128906 C 368.347656 202.167969 368.285156 202.207031 368.234375 202.242188 L 368.132812 202.308594 L 368.101562 202.429688 C 368.085938 202.496094 368.085938 202.546875 368.085938 202.589844 C 368.085938 202.886719 368.253906 203.140625 368.484375 203.324219 C 368.730469 203.523438 368.980469 203.664062 369.238281 203.730469 C 369.371094 203.761719 369.507812 203.78125 369.652344 203.78125 C 369.972656 203.78125 370.292969 203.691406 370.609375 203.527344 C 370.972656 203.324219 371.582031 203.199219 372.421875 203.199219 C 372.710938 203.199219 373.027344 203.214844 373.371094 203.242188 C 374.730469 203.355469 375.6875 203.480469 376.214844 203.613281 C 377.15625 203.851562 377.84375 204.171875 378.285156 204.554688 C 378.3125 204.582031 378.351562 204.609375 378.382812 204.636719 C 378.324219 204.671875 378.265625 204.710938 378.210938 204.746094 L 378.109375 204.816406 L 378.082031 204.933594 C 378.066406 205 378.0625 205.054688 378.0625 205.097656 C 378.0625 205.394531 378.234375 205.644531 378.460938 205.828125 C 378.707031 206.027344 378.953125 206.167969 379.214844 206.234375 C 379.347656 206.265625 379.484375 206.285156 379.628906 206.285156 C 379.945312 206.285156 380.269531 206.195312 380.585938 206.035156 C 380.953125 205.824219 381.558594 205.703125 382.398438 205.703125 C 382.6875 205.703125 383.003906 205.71875 383.347656 205.746094 C 384.707031 205.859375 385.667969 205.988281 386.191406 206.121094 C 387.132812 206.355469 387.820312 206.679688 388.261719 207.058594 C 388.398438 207.183594 388.546875 207.308594 388.707031 207.425781 L 388.878906 207.554688 L 389.058594 207.445312 C 389.464844 207.203125 389.726562 206.78125 389.855469 206.257812 C 389.882812 206.136719 389.902344 206.015625 389.902344 205.894531 C 389.890625 205.058594 389.152344 204.546875 388.054688 204.28125 C 387.222656 204.074219 386.011719 203.949219 384.394531 203.898438 C 384 203.882812 383.679688 203.871094 383.445312 203.855469 C 383.714844 203.660156 384.113281 203.386719 384.609375 203.070312 C 386.6875 201.730469 388.28125 200.65625 389.398438 199.851562 Z M 389.398438 199.851562 " fill-opacity="1" fill-rule="nonzero"/><path fill="#000000" d="M 391.378906 207.960938 C 391.429688 207.96875 391.472656 207.976562 391.53125 207.976562 C 391.75 207.972656 391.980469 207.898438 392.292969 207.773438 C 392.664062 207.625 392.957031 207.46875 393.179688 207.292969 C 393.441406 207.070312 393.597656 206.738281 393.703125 206.316406 C 393.71875 206.238281 393.730469 206.164062 393.730469 206.089844 C 393.734375 205.875 393.648438 205.667969 393.507812 205.511719 C 393.351562 205.332031 393.1875 205.195312 392.972656 205.136719 L 392.757812 205.082031 C 392.359375 204.984375 392.03125 204.929688 391.753906 204.925781 C 391.484375 204.933594 391.253906 204.957031 391.050781 205.144531 C 390.851562 205.375 390.800781 205.644531 390.652344 206.179688 C 390.566406 206.515625 390.519531 206.789062 390.519531 207.019531 C 390.523438 207.183594 390.539062 207.335938 390.632812 207.484375 C 390.792969 207.738281 391.0625 207.878906 391.378906 207.960938 Z M 391.378906 207.960938 " fill-opacity="1" fill-rule="nonzero"/><path fill="#000000" d="M 396.363281 209.210938 C 396.417969 209.222656 396.460938 209.226562 396.515625 209.226562 C 396.734375 209.222656 396.960938 209.148438 397.277344 209.027344 C 397.648438 208.875 397.941406 208.71875 398.160156 208.542969 C 398.429688 208.320312 398.578125 207.992188 398.6875 207.570312 C 398.703125 207.492188 398.714844 207.421875 398.714844 207.339844 C 398.71875 207.128906 398.632812 206.917969 398.492188 206.761719 C 398.335938 206.585938 398.171875 206.445312 397.953125 206.386719 L 397.742188 206.332031 L 397.664062 206.640625 L 397.742188 206.332031 C 397.34375 206.234375 397.015625 206.179688 396.738281 206.179688 C 396.46875 206.183594 396.234375 206.203125 396.035156 206.398438 C 395.835938 206.625 395.78125 206.894531 395.632812 207.433594 C 395.550781 207.765625 395.503906 208.039062 395.503906 208.269531 C 395.503906 208.4375 395.523438 208.589844 395.617188 208.738281 C 395.777344 208.992188 396.050781 209.132812 396.363281 209.210938 Z M 396.363281 209.210938 " fill-opacity="1" fill-rule="nonzero"/><path fill="#000000" d="M 402.726562 207.585938 C 402.328125 207.484375 402 207.433594 401.722656 207.429688 C 401.453125 207.433594 401.222656 207.457031 401.019531 207.644531 C 400.820312 207.875 400.765625 208.148438 400.621094 208.683594 C 400.535156 209.015625 400.488281 209.289062 400.488281 209.519531 C 400.488281 209.6875 400.507812 209.839844 400.597656 209.984375 C 400.761719 210.242188 401.03125 210.382812 401.347656 210.460938 C 401.402344 210.472656 401.445312 210.476562 401.5 210.476562 C 401.71875 210.472656 401.949219 210.402344 402.261719 210.277344 C 402.632812 210.125 402.925781 209.972656 403.144531 209.792969 C 403.414062 209.574219 403.566406 209.242188 403.671875 208.820312 C 403.6875 208.742188 403.699219 208.667969 403.699219 208.589844 C 403.699219 208.378906 403.617188 208.171875 403.476562 208.015625 C 403.320312 207.835938 403.15625 207.695312 402.9375 207.636719 Z M 402.726562 207.585938 " fill-opacity="1" fill-rule="nonzero"/><path fill="#000000" d="M 582.941406 268.445312 L 582.941406 232.59375 L 589.40625 232.59375 L 589.40625 228.324219 L 540.34375 228.324219 L 540.34375 232.59375 L 546.484375 232.59375 L 546.484375 268.445312 L 550.960938 268.445312 L 550.960938 232.59375 L 578.464844 232.59375 L 578.464844 268.445312 Z M 582.941406 268.445312 " fill-opacity="1" fill-rule="nonzero"/><path fill="#000000" d="M 588.773438 206.59375 L 580.378906 223.132812 L 562.53125 223.132812 L 562.53125 226.121094 L 582.210938 226.121094 L 591.4375 207.945312 Z M 588.773438 206.59375 " fill-opacity="1" fill-rule="nonzero"/><path fill="#000000" d="M 559.472656 180.773438 C 551.496094 180.773438 545.027344 187.246094 545.027344 195.234375 C 545.027344 203.21875 551.496094 209.691406 559.472656 209.691406 C 562.347656 209.691406 565.023438 208.847656 567.273438 207.398438 L 573.90625 211.433594 L 569.800781 205.335938 C 572.347656 202.730469 573.917969 199.164062 573.917969 195.234375 C 573.917969 187.246094 567.449219 180.773438 559.472656 180.773438 Z M 559.933594 207.835938 C 553.289062 207.835938 547.898438 202.441406 547.898438 195.789062 C 547.898438 189.132812 553.289062 183.738281 559.933594 183.738281 C 566.582031 183.738281 571.972656 189.132812 571.972656 195.789062 C 571.972656 202.441406 566.582031 207.835938 559.933594 207.835938 Z M 559.933594 207.835938 " fill-opacity="1" fill-rule="nonzero"/><path fill="#000000" d="M 565.300781 195.558594 C 564.515625 194.976562 563.035156 194.53125 560.851562 194.226562 L 560.851562 189.71875 C 562.433594 189.867188 563.296875 190.496094 563.4375 191.609375 L 566.011719 191.609375 C 565.703125 189.601562 563.984375 188.515625 560.851562 188.355469 L 560.851562 186.972656 L 559.441406 186.972656 L 559.441406 188.355469 C 557.804688 188.457031 556.503906 188.828125 555.539062 189.476562 C 554.578125 190.121094 554.09375 190.972656 554.09375 192.027344 C 554.09375 193.90625 555.875 195.085938 559.441406 195.570312 L 559.441406 200.582031 C 557.503906 200.359375 556.4375 199.503906 556.246094 198.007812 L 553.683594 198.007812 C 553.933594 200.363281 555.851562 201.675781 559.441406 201.941406 L 559.441406 203.316406 L 560.851562 203.316406 L 560.851562 201.925781 C 562.613281 201.859375 563.988281 201.441406 564.984375 200.664062 C 565.976562 199.894531 566.476562 198.984375 566.476562 197.9375 C 566.472656 196.933594 566.082031 196.140625 565.300781 195.558594 Z M 559.441406 194.027344 C 558.613281 193.886719 557.941406 193.664062 557.425781 193.355469 C 556.914062 193.050781 556.65625 192.566406 556.65625 191.894531 C 556.65625 190.652344 557.582031 189.921875 559.441406 189.699219 Z M 560.851562 200.582031 L 560.851562 195.785156 C 562.058594 196 562.867188 196.277344 563.28125 196.609375 C 563.695312 196.945312 563.902344 197.421875 563.902344 198.046875 C 563.902344 199.5625 562.882812 200.40625 560.851562 200.582031 Z M 560.851562 200.582031 " fill-opacity="1" fill-rule="nonzero"/><g clip-path="url(#b788379893)"><path fill="#000000" d="M 542.335938 163.066406 C 542.335938 171.050781 548.800781 177.523438 556.777344 177.523438 C 559.800781 177.523438 562.601562 176.59375 564.921875 175.007812 L 570.738281 179.722656 L 567.371094 172.890625 C 569.761719 170.3125 571.222656 166.859375 571.222656 163.066406 C 571.222656 155.082031 564.753906 148.609375 556.78125 148.609375 C 548.800781 148.609375 542.335938 155.082031 542.335938 163.066406 Z M 557.242188 151.574219 C 563.890625 151.574219 569.277344 156.96875 569.277344 163.621094 C 569.277344 170.277344 563.890625 175.671875 557.242188 175.671875 C 550.59375 175.671875 545.203125 170.277344 545.203125 163.621094 C 545.203125 156.96875 550.59375 151.574219 557.242188 151.574219 Z M 557.242188 151.574219 " fill-opacity="1" fill-rule="nonzero"/></g><path fill="#000000" d="M 553.550781 165.84375 L 550.992188 165.84375 C 551.238281 168.199219 553.15625 169.507812 556.746094 169.777344 L 556.746094 171.148438 L 558.160156 171.148438 L 558.160156 169.761719 C 559.917969 169.695312 561.296875 169.273438 562.289062 168.5 C 563.285156 167.726562 563.78125 166.816406 563.78125 165.769531 C 563.78125 164.765625 563.390625 163.972656 562.605469 163.390625 C 561.824219 162.808594 560.339844 162.363281 558.160156 162.058594 L 558.160156 157.550781 C 559.742188 157.699219 560.605469 158.332031 560.746094 159.441406 L 563.320312 159.441406 C 563.011719 157.433594 561.292969 156.347656 558.160156 156.1875 L 558.160156 154.808594 L 556.746094 154.808594 L 556.746094 156.1875 C 555.109375 156.289062 553.808594 156.664062 552.847656 157.308594 C 551.882812 157.957031 551.402344 158.808594 551.402344 159.863281 C 551.402344 161.742188 553.183594 162.921875 556.746094 163.40625 L 556.746094 168.414062 C 554.8125 168.195312 553.746094 167.335938 553.550781 165.84375 Z M 558.160156 163.621094 C 559.363281 163.835938 560.175781 164.109375 560.585938 164.445312 C 561 164.777344 561.207031 165.257812 561.207031 165.878906 C 561.207031 167.398438 560.191406 168.242188 558.160156 168.414062 Z M 554.734375 161.191406 C 554.21875 160.886719 553.960938 160.398438 553.960938 159.730469 C 553.960938 158.484375 554.890625 157.753906 556.746094 157.53125 L 556.746094 161.863281 C 555.917969 161.71875 555.25 161.496094 554.734375 161.191406 Z M 554.734375 161.191406 " fill-opacity="1" fill-rule="nonzero"/><path fill="#000000" d="M 602.875 179.894531 C 602.875 171.910156 596.410156 165.4375 588.433594 165.4375 C 580.453125 165.4375 573.988281 171.910156 573.988281 179.894531 C 573.988281 186.644531 578.609375 192.3125 584.855469 193.90625 L 586.003906 201.261719 L 587.96875 194.339844 C 588.125 194.347656 588.277344 194.351562 588.433594 194.351562 C 596.410156 194.351562 602.875 187.878906 602.875 179.894531 Z M 588.894531 192.5 C 582.246094 192.5 576.855469 187.105469 576.855469 180.453125 C 576.855469 173.796875 582.246094 168.402344 588.894531 168.402344 C 595.542969 168.402344 600.933594 173.796875 600.933594 180.453125 C 600.929688 187.105469 595.542969 192.5 588.894531 192.5 Z M 588.894531 192.5 " fill-opacity="1" fill-rule="nonzero"/><path fill="#000000" d="M 594.257812 180.21875 C 593.476562 179.636719 591.992188 179.195312 589.8125 178.886719 L 589.8125 174.378906 C 591.394531 174.527344 592.257812 175.160156 592.398438 176.269531 L 594.972656 176.269531 C 594.664062 174.261719 592.945312 173.179688 589.8125 173.019531 L 589.8125 171.636719 L 588.398438 171.636719 L 588.398438 173.019531 C 586.761719 173.121094 585.460938 173.492188 584.5 174.136719 C 583.535156 174.785156 583.054688 175.636719 583.054688 176.691406 C 583.054688 178.570312 584.835938 179.75 588.398438 180.234375 L 588.398438 185.242188 C 586.464844 185.023438 585.398438 184.164062 585.207031 182.671875 L 582.644531 182.671875 C 582.890625 185.027344 584.808594 186.335938 588.398438 186.605469 L 588.398438 187.976562 L 589.8125 187.976562 L 589.8125 186.589844 C 591.570312 186.523438 592.949219 186.101562 593.941406 185.328125 C 594.9375 184.554688 595.433594 183.644531 595.433594 182.601562 C 595.433594 181.597656 595.042969 180.800781 594.257812 180.21875 Z M 588.398438 178.691406 C 587.570312 178.546875 586.902344 178.324219 586.386719 178.019531 C 585.871094 177.714844 585.613281 177.226562 585.613281 176.558594 C 585.613281 175.316406 586.542969 174.582031 588.398438 174.363281 Z M 589.8125 185.242188 L 589.8125 180.449219 C 591.015625 180.664062 591.828125 180.9375 592.238281 181.273438 C 592.652344 181.609375 592.859375 182.085938 592.859375 182.707031 C 592.859375 184.226562 591.84375 185.070312 589.8125 185.242188 Z M 589.8125 185.242188 " fill-opacity="1" fill-rule="nonzero"/><path fill="#000000" d="M 540.8125 268.15625 L 540.8125 251.65625 L 541.808594 251.65625 L 541.808594 246.960938 L 520.003906 246.960938 C 520.492188 234.679688 519.589844 222.355469 517.277344 210.230469 C 515.742188 210.523438 514.207031 210.816406 512.671875 211.109375 C 516.261719 229.953125 516.363281 249.285156 513 268.15625 L 517.765625 268.15625 C 518.109375 266.171875 518.40625 264.179688 518.675781 262.183594 L 536.121094 262.183594 L 536.121094 268.15625 Z M 519 259.621094 C 519.3125 256.96875 519.5625 254.316406 519.746094 251.65625 L 536.121094 251.65625 L 536.121094 259.621094 Z M 519 259.621094 " fill-opacity="1" fill-rule="nonzero"/><g clip-path="url(#9a25aa02aa)"><path fill="#000000" d="M 504.554688 273.265625 L 606.035156 273.265625 L 606.035156 276.441406 L 504.554688 276.441406 Z M 504.554688 273.265625 " fill-opacity="1" fill-rule="nonzero"/></g><g fill="#000000" fill-opacity="1"><g transform="translate(209.396484, 389.599978)"><g><path d="M 3.46875 0 L 3.46875 -1.796875 L 7.390625 -1.796875 C 7.910156 -1.796875 8.265625 -1.894531 8.453125 -2.09375 C 8.640625 -2.300781 8.734375 -2.648438 8.734375 -3.140625 L 8.734375 -36.734375 C 8.734375 -37.253906 8.640625 -37.609375 8.453125 -37.796875 C 8.265625 -37.984375 7.910156 -38.078125 7.390625 -38.078125 L 3.46875 -38.078125 L 3.46875 -39.875 L 34.9375 -39.875 L 35.28125 -26.875 L 33.484375 -26.875 C 33.484375 -26.875 33.414062 -27.207031 33.28125 -27.875 C 33.15625 -28.550781 32.925781 -29.382812 32.59375 -30.375 C 32.257812 -31.363281 31.8125 -32.328125 31.25 -33.265625 C 30.46875 -34.648438 29.515625 -35.796875 28.390625 -36.703125 C 27.273438 -37.617188 25.988281 -38.078125 24.53125 -38.078125 L 18.375 -38.078125 C 17.882812 -38.078125 17.535156 -37.984375 17.328125 -37.796875 C 17.128906 -37.609375 17.03125 -37.253906 17.03125 -36.734375 L 17.03125 -21.28125 L 19.875 -21.28125 C 20.925781 -21.28125 21.867188 -21.695312 22.703125 -22.53125 C 23.546875 -23.375 24.21875 -24.394531 24.71875 -25.59375 C 25.226562 -26.789062 25.484375 -27.929688 25.484375 -29.015625 L 27.265625 -29.015625 L 27.265625 -11.484375 L 25.484375 -11.484375 C 25.484375 -12.597656 25.226562 -13.753906 24.71875 -14.953125 C 24.21875 -16.148438 23.546875 -17.164062 22.703125 -18 C 21.867188 -18.84375 20.925781 -19.265625 19.875 -19.265625 L 17.03125 -19.265625 L 17.03125 -3.140625 C 17.03125 -2.648438 17.128906 -2.300781 17.328125 -2.09375 C 17.535156 -1.894531 17.882812 -1.796875 18.375 -1.796875 L 24.46875 -1.796875 C 26 -1.796875 27.316406 -2.25 28.421875 -3.15625 C 29.523438 -4.070312 30.4375 -5.144531 31.15625 -6.375 C 31.882812 -7.613281 32.421875 -8.738281 32.765625 -9.75 C 33.023438 -10.457031 33.238281 -11.25 33.40625 -12.125 C 33.570312 -13 33.703125 -13.769531 33.796875 -14.4375 C 33.890625 -15.113281 33.9375 -15.453125 33.9375 -15.453125 L 35.734375 -15.453125 L 35.390625 0 Z M 3.46875 0 "/></g></g></g><g fill="#000000" fill-opacity="1"><g transform="translate(248.031094, 389.599978)"><g><path d="M 9.40625 -6.4375 C 9.40625 -5.0625 9.59375 -4.023438 9.96875 -3.328125 C 10.34375 -2.640625 10.789062 -2.171875 11.3125 -1.921875 C 11.832031 -1.679688 12.300781 -1.5625 12.71875 -1.5625 C 14.164062 -1.5625 15.300781 -2.382812 16.125 -4.03125 L 16.125 -15.125 L 12.984375 -14 C 11.722656 -13.550781 10.8125 -12.703125 10.25 -11.453125 C 9.6875 -10.203125 9.40625 -8.53125 9.40625 -6.4375 Z M 2.578125 -5.9375 C 2.578125 -7.769531 3.078125 -9.28125 4.078125 -10.46875 C 5.085938 -11.664062 6.320312 -12.632812 7.78125 -13.375 C 9.238281 -14.125 10.640625 -14.722656 11.984375 -15.171875 L 16.125 -16.625 L 16.125 -20.4375 C 16.125 -22.488281 15.691406 -23.90625 14.828125 -24.6875 C 13.972656 -25.476562 13.003906 -25.875 11.921875 -25.875 C 10.992188 -25.875 10.117188 -25.648438 9.296875 -25.203125 C 8.472656 -24.753906 8.0625 -24.097656 8.0625 -23.234375 C 8.0625 -23.085938 8.117188 -22.847656 8.234375 -22.515625 C 8.347656 -22.179688 8.585938 -21.878906 8.953125 -21.609375 C 9.484375 -21.316406 9.878906 -20.984375 10.140625 -20.609375 C 10.398438 -20.234375 10.53125 -19.726562 10.53125 -19.09375 C 10.53125 -18.125 10.179688 -17.40625 9.484375 -16.9375 C 8.796875 -16.46875 8.097656 -16.234375 7.390625 -16.234375 C 6.535156 -16.234375 5.734375 -16.539062 4.984375 -17.15625 C 4.234375 -17.78125 3.859375 -18.742188 3.859375 -20.046875 C 3.859375 -21.578125 4.304688 -22.875 5.203125 -23.9375 C 6.097656 -25 7.21875 -25.8125 8.5625 -26.375 C 9.90625 -26.9375 11.234375 -27.21875 12.546875 -27.21875 C 14.078125 -27.21875 15.613281 -26.9375 17.15625 -26.375 C 18.707031 -25.8125 20.003906 -24.875 21.046875 -23.5625 C 22.097656 -22.257812 22.625 -20.472656 22.625 -18.203125 L 22.625 -4.03125 C 22.625 -2.6875 23 -2.015625 23.75 -2.015625 C 24.226562 -2.015625 24.617188 -2.300781 24.921875 -2.875 C 25.222656 -3.457031 25.4375 -4.175781 25.5625 -5.03125 C 25.695312 -5.894531 25.765625 -6.738281 25.765625 -7.5625 L 27.328125 -7.5625 C 27.328125 -6.550781 27.25 -5.503906 27.09375 -4.421875 C 26.945312 -3.335938 26.613281 -2.382812 26.09375 -1.5625 C 25.71875 -0.96875 25.15625 -0.445312 24.40625 0 C 23.664062 0.445312 22.789062 0.671875 21.78125 0.671875 C 20.175781 0.671875 19 0.421875 18.25 -0.078125 C 17.507812 -0.585938 16.878906 -1.347656 16.359375 -2.359375 L 16.234375 -2.359375 C 15.640625 -1.535156 14.828125 -0.820312 13.796875 -0.21875 C 12.773438 0.375 11.5 0.671875 9.96875 0.671875 C 8.8125 0.671875 7.660156 0.484375 6.515625 0.109375 C 5.378906 -0.265625 4.4375 -0.9375 3.6875 -1.90625 C 2.945312 -2.875 2.578125 -4.21875 2.578125 -5.9375 Z M 2.578125 -5.9375 "/></g></g></g><g fill="#000000" fill-opacity="1"><g transform="translate(276.475118, 389.599978)"><g><path d="M 2.234375 0 L 2.234375 -1.34375 L 4.375 -1.34375 C 4.96875 -1.34375 5.265625 -1.640625 5.265625 -2.234375 L 5.265625 -24.296875 C 5.265625 -24.898438 4.96875 -25.203125 4.375 -25.203125 L 2.234375 -25.203125 L 2.234375 -26.546875 L 11.765625 -26.546875 L 11.765625 -21 L 12.046875 -20.9375 C 12.410156 -21.988281 12.890625 -22.988281 13.484375 -23.9375 C 14.085938 -24.894531 14.800781 -25.679688 15.625 -26.296875 C 16.445312 -26.910156 17.320312 -27.21875 18.25 -27.21875 C 19.632812 -27.21875 20.742188 -26.722656 21.578125 -25.734375 C 22.421875 -24.742188 22.84375 -23.519531 22.84375 -22.0625 C 22.84375 -20.71875 22.457031 -19.539062 21.6875 -18.53125 C 20.925781 -17.53125 19.953125 -17.03125 18.765625 -17.03125 C 17.753906 -17.03125 16.894531 -17.335938 16.1875 -17.953125 C 15.476562 -18.566406 15.125 -19.320312 15.125 -20.21875 C 15.125 -20.78125 15.257812 -21.3125 15.53125 -21.8125 C 15.8125 -22.3125 16.125 -22.75 16.46875 -23.125 C 16.65625 -23.351562 16.832031 -23.578125 17 -23.796875 C 17.164062 -24.023438 17.25 -24.234375 17.25 -24.421875 C 17.25 -24.785156 17.039062 -24.96875 16.625 -24.96875 C 15.882812 -24.96875 15.128906 -24.4375 14.359375 -23.375 C 13.597656 -22.3125 12.972656 -20.910156 12.484375 -19.171875 C 12.003906 -17.441406 11.765625 -15.550781 11.765625 -13.5 L 11.765625 -2.234375 C 11.765625 -1.640625 12.0625 -1.34375 12.65625 -1.34375 L 14.453125 -1.34375 L 14.453125 0 Z M 2.234375 0 "/></g></g></g><g fill="#000000" fill-opacity="1"><g transform="translate(300.77573, 389.599978)"><g><path d="M 2.234375 0 L 2.234375 -1.34375 L 4.375 -1.34375 C 4.96875 -1.34375 5.265625 -1.640625 5.265625 -2.234375 L 5.265625 -24.296875 C 5.265625 -24.898438 4.96875 -25.203125 4.375 -25.203125 L 2.234375 -25.203125 L 2.234375 -26.546875 L 11.765625 -26.546875 L 11.765625 -21.5625 L 12.046875 -21.5 C 12.753906 -23.144531 13.6875 -24.507812 14.84375 -25.59375 C 16 -26.675781 17.378906 -27.21875 18.984375 -27.21875 C 19.953125 -27.21875 20.765625 -27.113281 21.421875 -26.90625 C 22.078125 -26.695312 22.703125 -26.390625 23.296875 -25.984375 C 24.265625 -25.273438 25.007812 -24.320312 25.53125 -23.125 C 26.050781 -21.9375 26.3125 -20.722656 26.3125 -19.484375 L 26.3125 -2.234375 C 26.3125 -1.640625 26.613281 -1.34375 27.21875 -1.34375 L 29.34375 -1.34375 L 29.34375 0 L 17.140625 0 L 17.140625 -1.34375 L 18.921875 -1.34375 C 19.523438 -1.34375 19.828125 -1.640625 19.828125 -2.234375 L 19.828125 -21.109375 C 19.828125 -22.265625 19.65625 -23.269531 19.3125 -24.125 C 18.976562 -24.988281 18.289062 -25.421875 17.25 -25.421875 C 16.5 -25.421875 15.691406 -24.90625 14.828125 -23.875 C 13.972656 -22.851562 13.25 -21.5 12.65625 -19.8125 C 12.0625 -18.132812 11.765625 -16.269531 11.765625 -14.21875 L 11.765625 -2.234375 C 11.765625 -1.640625 12.0625 -1.34375 12.65625 -1.34375 L 14.453125 -1.34375 L 14.453125 0 Z M 2.234375 0 "/></g></g></g><g fill="#000000" fill-opacity="1"><g transform="translate(331.907388, 389.599978)"><g/></g></g><g fill="#000000" fill-opacity="1"><g transform="translate(347.585198, 389.599978)"><g><path d="M 2.6875 0 L 2.6875 -1.796875 C 4.144531 -1.796875 5.476562 -2.1875 6.6875 -2.96875 C 7.90625 -3.75 8.515625 -5.035156 8.515625 -6.828125 L 8.515625 -36.734375 C 8.515625 -37.253906 8.421875 -37.609375 8.234375 -37.796875 C 8.046875 -37.984375 7.691406 -38.078125 7.171875 -38.078125 L 2.6875 -38.078125 L 2.6875 -39.875 L 16.078125 -39.875 L 26.3125 -12.3125 L 33.828125 -39.875 L 48.046875 -39.875 L 48.046875 -38.078125 L 44.125 -38.078125 C 43.644531 -38.078125 43.300781 -37.984375 43.09375 -37.796875 C 42.882812 -37.609375 42.78125 -37.253906 42.78125 -36.734375 L 42.78125 -3.140625 C 42.78125 -2.648438 42.882812 -2.300781 43.09375 -2.09375 C 43.300781 -1.894531 43.644531 -1.796875 44.125 -1.796875 L 48.046875 -1.796875 L 48.046875 0 L 29.234375 0 L 29.234375 -1.796875 L 33.15625 -1.796875 C 33.675781 -1.796875 34.03125 -1.894531 34.21875 -2.09375 C 34.40625 -2.300781 34.5 -2.648438 34.5 -3.140625 L 34.5 -35 L 24.75 0.671875 L 22.5625 0.671875 L 11.140625 -30.078125 L 10.75 -30.078125 L 10.75 -6.828125 C 10.75 -5.035156 11.351562 -3.75 12.5625 -2.96875 C 13.78125 -2.1875 15.117188 -1.796875 16.578125 -1.796875 L 16.578125 0 Z M 2.6875 0 "/></g></g></g><g fill="#000000" fill-opacity="1"><g transform="translate(397.41824, 389.599978)"><g><path d="M 9.859375 -13.265625 C 9.859375 -9.015625 10.144531 -5.851562 10.71875 -3.78125 C 11.300781 -1.707031 12.429688 -0.671875 14.109375 -0.671875 C 15.785156 -0.671875 16.914062 -1.707031 17.5 -3.78125 C 18.082031 -5.851562 18.375 -9.015625 18.375 -13.265625 C 18.375 -17.523438 18.082031 -20.691406 17.5 -22.765625 C 16.914062 -24.835938 15.785156 -25.875 14.109375 -25.875 C 12.429688 -25.875 11.300781 -24.835938 10.71875 -22.765625 C 10.144531 -20.691406 9.859375 -17.523438 9.859375 -13.265625 Z M 2.6875 -13.265625 C 2.6875 -15.953125 3.21875 -18.347656 4.28125 -20.453125 C 5.34375 -22.566406 6.742188 -24.222656 8.484375 -25.421875 C 10.222656 -26.617188 12.097656 -27.21875 14.109375 -27.21875 C 16.128906 -27.21875 18.003906 -26.617188 19.734375 -25.421875 C 21.472656 -24.222656 22.875 -22.566406 23.9375 -20.453125 C 25 -18.347656 25.53125 -15.953125 25.53125 -13.265625 C 25.53125 -10.578125 25 -8.1875 23.9375 -6.09375 C 22.875 -4.007812 21.472656 -2.359375 19.734375 -1.140625 C 18.003906 0.0664062 16.128906 0.671875 14.109375 0.671875 C 12.097656 0.671875 10.222656 0.0664062 8.484375 -1.140625 C 6.742188 -2.359375 5.34375 -4.007812 4.28125 -6.09375 C 3.21875 -8.1875 2.6875 -10.578125 2.6875 -13.265625 Z M 2.6875 -13.265625 "/></g></g></g><g fill="#000000" fill-opacity="1"><g transform="translate(425.638304, 389.599978)"><g><path d="M 2.234375 0 L 2.234375 -1.34375 L 4.375 -1.34375 C 4.96875 -1.34375 5.265625 -1.640625 5.265625 -2.234375 L 5.265625 -24.296875 C 5.265625 -24.898438 4.96875 -25.203125 4.375 -25.203125 L 2.234375 -25.203125 L 2.234375 -26.546875 L 11.765625 -26.546875 L 11.765625 -21.5625 L 12.046875 -21.5 C 12.753906 -23.144531 13.6875 -24.507812 14.84375 -25.59375 C 16 -26.675781 17.378906 -27.21875 18.984375 -27.21875 C 19.953125 -27.21875 20.765625 -27.113281 21.421875 -26.90625 C 22.078125 -26.695312 22.703125 -26.390625 23.296875 -25.984375 C 24.265625 -25.273438 25.007812 -24.320312 25.53125 -23.125 C 26.050781 -21.9375 26.3125 -20.722656 26.3125 -19.484375 L 26.3125 -2.234375 C 26.3125 -1.640625 26.613281 -1.34375 27.21875 -1.34375 L 29.34375 -1.34375 L 29.34375 0 L 17.140625 0 L 17.140625 -1.34375 L 18.921875 -1.34375 C 19.523438 -1.34375 19.828125 -1.640625 19.828125 -2.234375 L 19.828125 -21.109375 C 19.828125 -22.265625 19.65625 -23.269531 19.3125 -24.125 C 18.976562 -24.988281 18.289062 -25.421875 17.25 -25.421875 C 16.5 -25.421875 15.691406 -24.90625 14.828125 -23.875 C 13.972656 -22.851562 13.25 -21.5 12.65625 -19.8125 C 12.0625 -18.132812 11.765625 -16.269531 11.765625 -14.21875 L 11.765625 -2.234375 C 11.765625 -1.640625 12.0625 -1.34375 12.65625 -1.34375 L 14.453125 -1.34375 L 14.453125 0 Z M 2.234375 0 "/></g></g></g><g fill="#000000" fill-opacity="1"><g transform="translate(456.769962, 389.599978)"><g><path d="M 2.6875 -13.265625 C 2.6875 -15.953125 3.195312 -18.347656 4.21875 -20.453125 C 5.25 -22.566406 6.625 -24.222656 8.34375 -25.421875 C 10.0625 -26.617188 11.945312 -27.21875 14 -27.21875 C 16.3125 -27.21875 18.28125 -26.40625 19.90625 -24.78125 C 21.53125 -23.15625 22.601562 -21.019531 23.125 -18.375 C 23.28125 -17.769531 23.375 -17.078125 23.40625 -16.296875 C 23.445312 -15.515625 23.472656 -14.785156 23.484375 -14.109375 C 23.503906 -13.441406 23.515625 -12.992188 23.515625 -12.765625 L 9.859375 -12.765625 C 9.859375 -11.347656 9.882812 -10.0625 9.9375 -8.90625 C 10 -7.75 10.175781 -6.628906 10.46875 -5.546875 C 10.800781 -4.160156 11.441406 -3.054688 12.390625 -2.234375 C 13.347656 -1.421875 14.460938 -1.015625 15.734375 -1.015625 C 17.078125 -1.015625 18.195312 -1.421875 19.09375 -2.234375 C 19.988281 -3.054688 20.695312 -4.082031 21.21875 -5.3125 C 21.75 -6.550781 22.066406 -7.804688 22.171875 -9.078125 L 23.625 -9.078125 C 23.519531 -8.023438 23.289062 -6.9375 22.9375 -5.8125 C 22.582031 -4.695312 22.054688 -3.644531 21.359375 -2.65625 C 20.671875 -1.664062 19.773438 -0.863281 18.671875 -0.25 C 17.578125 0.363281 16.222656 0.671875 14.609375 0.671875 C 12.222656 0.671875 10.132812 0.046875 8.34375 -1.203125 C 6.550781 -2.453125 5.160156 -4.140625 4.171875 -6.265625 C 3.179688 -8.398438 2.6875 -10.734375 2.6875 -13.265625 Z M 9.859375 -14.34375 L 17.03125 -14.34375 C 17.03125 -18 16.796875 -20.832031 16.328125 -22.84375 C 15.859375 -24.863281 14.894531 -25.875 13.4375 -25.875 C 11.976562 -25.875 11.015625 -24.863281 10.546875 -22.84375 C 10.085938 -20.832031 9.859375 -18 9.859375 -14.34375 Z M 9.859375 -14.34375 "/></g></g></g><g fill="#000000" fill-opacity="1"><g transform="translate(483.198282, 389.599978)"><g><path d="M 0.671875 -25.203125 L 0.671875 -26.546875 L 14.390625 -26.546875 L 14.390625 -25.203125 L 12.765625 -25.203125 C 12.460938 -25.203125 12.160156 -25.078125 11.859375 -24.828125 C 11.566406 -24.585938 11.421875 -24.226562 11.421875 -23.75 C 11.421875 -23.332031 11.550781 -22.804688 11.8125 -22.171875 L 17.578125 -8.34375 L 21.21875 -20.609375 C 21.332031 -21.054688 21.425781 -21.46875 21.5 -21.84375 C 21.570312 -22.21875 21.609375 -22.628906 21.609375 -23.078125 C 21.609375 -23.597656 21.46875 -24.082031 21.1875 -24.53125 C 20.914062 -24.976562 20.476562 -25.203125 19.875 -25.203125 L 18.421875 -25.203125 L 18.421875 -26.546875 L 27.65625 -26.546875 L 27.65625 -25.203125 L 26.4375 -25.203125 C 25.832031 -25.203125 25.210938 -24.921875 24.578125 -24.359375 C 23.941406 -23.796875 23.441406 -22.921875 23.078125 -21.734375 L 14.5625 6.546875 C 14.257812 7.628906 13.847656 8.691406 13.328125 9.734375 C 12.804688 10.785156 12.148438 11.644531 11.359375 12.3125 C 10.578125 12.988281 9.609375 13.328125 8.453125 13.328125 C 6.890625 13.328125 5.648438 12.847656 4.734375 11.890625 C 3.816406 10.941406 3.359375 9.722656 3.359375 8.234375 C 3.359375 7.035156 3.738281 5.957031 4.5 5 C 5.269531 4.050781 6.269531 3.578125 7.5 3.578125 C 8.4375 3.578125 9.179688 3.859375 9.734375 4.421875 C 10.296875 4.984375 10.578125 5.640625 10.578125 6.390625 C 10.578125 6.867188 10.460938 7.320312 10.234375 7.75 C 10.015625 8.1875 9.773438 8.515625 9.515625 8.734375 C 9.328125 8.878906 9.148438 9.070312 8.984375 9.3125 C 8.816406 9.5625 8.734375 9.851562 8.734375 10.1875 C 8.734375 10.445312 8.828125 10.734375 9.015625 11.046875 C 9.203125 11.367188 9.539062 11.53125 10.03125 11.53125 C 10.507812 11.53125 10.925781 11.296875 11.28125 10.828125 C 11.632812 10.367188 11.941406 9.8125 12.203125 9.15625 C 12.460938 8.5 12.671875 7.910156 12.828125 7.390625 L 14.671875 1.234375 L 4.984375 -21.953125 C 4.535156 -23.035156 4.097656 -23.847656 3.671875 -24.390625 C 3.242188 -24.929688 2.523438 -25.203125 1.515625 -25.203125 Z M 0.671875 -25.203125 "/></g></g></g><g fill="#000000" fill-opacity="1"><g transform="translate(512.538184, 389.599978)"><g/></g></g><g fill="#000000" fill-opacity="1"><g transform="translate(528.215994, 389.599978)"><g><path d="M 3.921875 -19.9375 C 3.921875 -22.625 4.359375 -25.21875 5.234375 -27.71875 C 6.109375 -30.21875 7.320312 -32.457031 8.875 -34.4375 C 10.425781 -36.414062 12.195312 -37.984375 14.1875 -39.140625 C 16.1875 -40.296875 18.289062 -40.875 20.5 -40.875 C 22.695312 -40.875 24.796875 -40.296875 26.796875 -39.140625 C 28.796875 -37.984375 30.566406 -36.414062 32.109375 -34.4375 C 33.660156 -32.457031 34.875 -30.21875 35.75 -27.71875 C 36.632812 -25.21875 37.078125 -22.625 37.078125 -19.9375 C 37.078125 -17.25 36.632812 -14.65625 35.75 -12.15625 C 34.875 -9.65625 33.660156 -7.414062 32.109375 -5.4375 C 30.566406 -3.457031 28.796875 -1.882812 26.796875 -0.71875 C 24.796875 0.4375 22.695312 1.015625 20.5 1.015625 C 18.289062 1.015625 16.1875 0.4375 14.1875 -0.71875 C 12.195312 -1.882812 10.425781 -3.457031 8.875 -5.4375 C 7.320312 -7.414062 6.109375 -9.65625 5.234375 -12.15625 C 4.359375 -14.65625 3.921875 -17.25 3.921875 -19.9375 Z M 13.4375 -11.53125 C 13.4375 -7.5 14.078125 -4.695312 15.359375 -3.125 C 16.648438 -1.5625 18.363281 -0.78125 20.5 -0.78125 C 22.625 -0.78125 24.328125 -1.5625 25.609375 -3.125 C 26.898438 -4.695312 27.546875 -7.5 27.546875 -11.53125 L 27.546875 -28.34375 C 27.546875 -32.375 26.898438 -35.171875 25.609375 -36.734375 C 24.328125 -38.304688 22.625 -39.09375 20.5 -39.09375 C 18.363281 -39.09375 16.648438 -38.304688 15.359375 -36.734375 C 14.078125 -35.171875 13.4375 -32.375 13.4375 -28.34375 Z M 13.4375 -11.53125 "/></g></g></g><g fill="#000000" fill-opacity="1"><g transform="translate(568.082423, 389.599978)"><g><path d="M 2.234375 0 L 2.234375 -1.34375 L 4.375 -1.34375 C 4.96875 -1.34375 5.265625 -1.640625 5.265625 -2.234375 L 5.265625 -24.296875 C 5.265625 -24.898438 4.96875 -25.203125 4.375 -25.203125 L 2.234375 -25.203125 L 2.234375 -26.546875 L 11.765625 -26.546875 L 11.765625 -21.5625 L 12.046875 -21.5 C 12.753906 -23.144531 13.6875 -24.507812 14.84375 -25.59375 C 16 -26.675781 17.378906 -27.21875 18.984375 -27.21875 C 19.953125 -27.21875 20.765625 -27.113281 21.421875 -26.90625 C 22.078125 -26.695312 22.703125 -26.390625 23.296875 -25.984375 C 24.265625 -25.273438 25.007812 -24.320312 25.53125 -23.125 C 26.050781 -21.9375 26.3125 -20.722656 26.3125 -19.484375 L 26.3125 -2.234375 C 26.3125 -1.640625 26.613281 -1.34375 27.21875 -1.34375 L 29.34375 -1.34375 L 29.34375 0 L 17.140625 0 L 17.140625 -1.34375 L 18.921875 -1.34375 C 19.523438 -1.34375 19.828125 -1.640625 19.828125 -2.234375 L 19.828125 -21.109375 C 19.828125 -22.265625 19.65625 -23.269531 19.3125 -24.125 C 18.976562 -24.988281 18.289062 -25.421875 17.25 -25.421875 C 16.5 -25.421875 15.691406 -24.90625 14.828125 -23.875 C 13.972656 -22.851562 13.25 -21.5 12.65625 -19.8125 C 12.0625 -18.132812 11.765625 -16.269531 11.765625 -14.21875 L 11.765625 -2.234375 C 11.765625 -1.640625 12.0625 -1.34375 12.65625 -1.34375 L 14.453125 -1.34375 L 14.453125 0 Z M 2.234375 0 "/></g></g></g><g fill="#000000" fill-opacity="1"><g transform="translate(599.214081, 389.599978)"><g><path d="M 1.453125 0 L 1.453125 -1.34375 L 4.59375 -1.34375 C 5.1875 -1.34375 5.484375 -1.640625 5.484375 -2.234375 L 5.484375 -37.625 C 5.484375 -38.226562 5.1875 -38.53125 4.59375 -38.53125 L 1.453125 -38.53125 L 1.453125 -39.875 L 11.984375 -39.875 L 11.984375 -2.234375 C 11.984375 -1.640625 12.28125 -1.34375 12.875 -1.34375 L 16.015625 -1.34375 L 16.015625 0 Z M 1.453125 0 "/></g></g></g><g fill="#000000" fill-opacity="1"><g transform="translate(616.459686, 389.599978)"><g><path d="M 4.375 -36.40625 C 4.375 -37.59375 4.773438 -38.578125 5.578125 -39.359375 C 6.378906 -40.148438 7.359375 -40.546875 8.515625 -40.546875 C 9.703125 -40.546875 10.6875 -40.148438 11.46875 -39.359375 C 12.257812 -38.578125 12.65625 -37.59375 12.65625 -36.40625 C 12.65625 -35.238281 12.257812 -34.253906 11.46875 -33.453125 C 10.6875 -32.648438 9.703125 -32.25 8.515625 -32.25 C 7.359375 -32.25 6.378906 -32.648438 5.578125 -33.453125 C 4.773438 -34.253906 4.375 -35.238281 4.375 -36.40625 Z M 2.234375 0 L 2.234375 -1.34375 L 4.375 -1.34375 C 4.96875 -1.34375 5.265625 -1.640625 5.265625 -2.234375 L 5.265625 -24.296875 C 5.265625 -24.898438 4.96875 -25.203125 4.375 -25.203125 L 2.234375 -25.203125 L 2.234375 -26.546875 L 11.765625 -26.546875 L 11.765625 -2.234375 C 11.765625 -1.640625 12.0625 -1.34375 12.65625 -1.34375 L 14.78125 -1.34375 L 14.78125 0 Z M 2.234375 0 "/></g></g></g><g fill="#000000" fill-opacity="1"><g transform="translate(633.033385, 389.599978)"><g><path d="M 2.234375 0 L 2.234375 -1.34375 L 4.375 -1.34375 C 4.96875 -1.34375 5.265625 -1.640625 5.265625 -2.234375 L 5.265625 -24.296875 C 5.265625 -24.898438 4.96875 -25.203125 4.375 -25.203125 L 2.234375 -25.203125 L 2.234375 -26.546875 L 11.765625 -26.546875 L 11.765625 -21.5625 L 12.046875 -21.5 C 12.753906 -23.144531 13.6875 -24.507812 14.84375 -25.59375 C 16 -26.675781 17.378906 -27.21875 18.984375 -27.21875 C 19.953125 -27.21875 20.765625 -27.113281 21.421875 -26.90625 C 22.078125 -26.695312 22.703125 -26.390625 23.296875 -25.984375 C 24.265625 -25.273438 25.007812 -24.320312 25.53125 -23.125 C 26.050781 -21.9375 26.3125 -20.722656 26.3125 -19.484375 L 26.3125 -2.234375 C 26.3125 -1.640625 26.613281 -1.34375 27.21875 -1.34375 L 29.34375 -1.34375 L 29.34375 0 L 17.140625 0 L 17.140625 -1.34375 L 18.921875 -1.34375 C 19.523438 -1.34375 19.828125 -1.640625 19.828125 -2.234375 L 19.828125 -21.109375 C 19.828125 -22.265625 19.65625 -23.269531 19.3125 -24.125 C 18.976562 -24.988281 18.289062 -25.421875 17.25 -25.421875 C 16.5 -25.421875 15.691406 -24.90625 14.828125 -23.875 C 13.972656 -22.851562 13.25 -21.5 12.65625 -19.8125 C 12.0625 -18.132812 11.765625 -16.269531 11.765625 -14.21875 L 11.765625 -2.234375 C 11.765625 -1.640625 12.0625 -1.34375 12.65625 -1.34375 L 14.453125 -1.34375 L 14.453125 0 Z M 2.234375 0 "/></g></g></g><g fill="#000000" fill-opacity="1"><g transform="translate(664.165066, 389.599978)"><g><path d="M 2.6875 -13.265625 C 2.6875 -15.953125 3.195312 -18.347656 4.21875 -20.453125 C 5.25 -22.566406 6.625 -24.222656 8.34375 -25.421875 C 10.0625 -26.617188 11.945312 -27.21875 14 -27.21875 C 16.3125 -27.21875 18.28125 -26.40625 19.90625 -24.78125 C 21.53125 -23.15625 22.601562 -21.019531 23.125 -18.375 C 23.28125 -17.769531 23.375 -17.078125 23.40625 -16.296875 C 23.445312 -15.515625 23.472656 -14.785156 23.484375 -14.109375 C 23.503906 -13.441406 23.515625 -12.992188 23.515625 -12.765625 L 9.859375 -12.765625 C 9.859375 -11.347656 9.882812 -10.0625 9.9375 -8.90625 C 10 -7.75 10.175781 -6.628906 10.46875 -5.546875 C 10.800781 -4.160156 11.441406 -3.054688 12.390625 -2.234375 C 13.347656 -1.421875 14.460938 -1.015625 15.734375 -1.015625 C 17.078125 -1.015625 18.195312 -1.421875 19.09375 -2.234375 C 19.988281 -3.054688 20.695312 -4.082031 21.21875 -5.3125 C 21.75 -6.550781 22.066406 -7.804688 22.171875 -9.078125 L 23.625 -9.078125 C 23.519531 -8.023438 23.289062 -6.9375 22.9375 -5.8125 C 22.582031 -4.695312 22.054688 -3.644531 21.359375 -2.65625 C 20.671875 -1.664062 19.773438 -0.863281 18.671875 -0.25 C 17.578125 0.363281 16.222656 0.671875 14.609375 0.671875 C 12.222656 0.671875 10.132812 0.046875 8.34375 -1.203125 C 6.550781 -2.453125 5.160156 -4.140625 4.171875 -6.265625 C 3.179688 -8.398438 2.6875 -10.734375 2.6875 -13.265625 Z M 9.859375 -14.34375 L 17.03125 -14.34375 C 17.03125 -18 16.796875 -20.832031 16.328125 -22.84375 C 15.859375 -24.863281 14.894531 -25.875 13.4375 -25.875 C 11.976562 -25.875 11.015625 -24.863281 10.546875 -22.84375 C 10.085938 -20.832031 9.859375 -18 9.859375 -14.34375 Z M 9.859375 -14.34375 "/></g></g></g></svg>