<svg xmlns="http://www.w3.org/2000/svg" xmlns:xlink="http://www.w3.org/1999/xlink" width="972" zoomAndPan="magnify" viewBox="0 0 729 537.000006" height="716" preserveAspectRatio="xMidYMid meet" version="1.0"><defs><g/><clipPath id="be6a9d8f5c"><path d="M 0.675781 0 L 728.320312 0 L 728.320312 536 L 0.675781 536 Z M 0.675781 0 " clip-rule="nonzero"/></clipPath><clipPath id="bd92811dfb"><path d="M 243.027344 214.402344 L 486 214.402344 L 486 380 L 243.027344 380 Z M 243.027344 214.402344 " clip-rule="nonzero"/></clipPath><clipPath id="9473ae34f8"><path d="M 414 395 L 447 395 L 447 428.503906 L 414 428.503906 Z M 414 395 " clip-rule="nonzero"/></clipPath><clipPath id="def408fbb0"><path d="M 320 395 L 354 395 L 354 428.503906 L 320 428.503906 Z M 320 395 " clip-rule="nonzero"/></clipPath></defs><g clip-path="url(#be6a9d8f5c)"><path fill="#ffffff" d="M 0.675781 0 L 728.324219 0 L 728.324219 536 L 0.675781 536 Z M 0.675781 0 " fill-opacity="1" fill-rule="nonzero"/><path fill="#ffffff" d="M 0.675781 0 L 728.324219 0 L 728.324219 536 L 0.675781 536 Z M 0.675781 0 " fill-opacity="1" fill-rule="nonzero"/></g><path fill="#000000" d="M 378.945312 340.109375 C 379.132812 340.109375 379.324219 340.296875 379.511719 340.296875 C 380.265625 340.296875 381.023438 339.734375 381.402344 338.980469 L 386.125 325.785156 C 386.503906 324.84375 385.9375 323.714844 384.992188 323.335938 C 384.046875 322.960938 382.914062 323.523438 382.535156 324.46875 L 377.808594 337.660156 C 377.433594 338.789062 378 339.734375 378.945312 340.109375 Z M 378.945312 340.109375 " fill-opacity="1" fill-rule="nonzero"/><path fill="#000000" d="M 374.410156 311.652344 L 361.933594 317.492188 C 360.988281 317.871094 360.613281 319.191406 360.988281 320.132812 C 361.367188 320.886719 361.933594 321.261719 362.691406 321.261719 C 362.878906 321.261719 363.257812 321.261719 363.445312 321.074219 L 375.921875 315.230469 C 376.867188 314.855469 377.242188 313.535156 376.867188 312.59375 C 376.488281 311.652344 375.351562 311.273438 374.410156 311.652344 Z M 374.410156 311.652344 " fill-opacity="1" fill-rule="nonzero"/><path fill="#000000" d="M 378.753906 299.210938 C 379.132812 298.269531 378.566406 297.140625 377.621094 296.761719 L 364.582031 292.050781 C 363.636719 291.671875 362.5 292.238281 362.125 293.179688 C 361.746094 294.125 362.3125 295.253906 363.257812 295.632812 L 376.296875 300.34375 C 376.488281 300.34375 376.675781 300.53125 377.054688 300.53125 C 377.808594 300.53125 378.378906 299.964844 378.753906 299.210938 Z M 378.753906 299.210938 " fill-opacity="1" fill-rule="nonzero"/><path fill="#000000" d="M 388.582031 291.296875 C 388.773438 291.296875 389.152344 291.296875 389.339844 291.109375 C 390.285156 290.730469 390.664062 289.410156 390.285156 288.46875 L 384.425781 275.839844 C 384.046875 274.898438 382.722656 274.523438 381.78125 274.898438 C 381.023438 275.277344 380.644531 276.59375 381.023438 277.539062 L 386.882812 290.164062 C 387.261719 290.730469 387.828125 291.296875 388.582031 291.296875 Z M 388.582031 291.296875 " fill-opacity="1" fill-rule="nonzero"/><path fill="#000000" d="M 403.515625 292.992188 C 404.269531 292.992188 405.027344 292.425781 405.40625 291.671875 L 410.128906 278.480469 C 410.507812 277.539062 409.941406 276.40625 408.996094 276.03125 C 408.050781 275.652344 406.917969 276.21875 406.539062 277.160156 L 401.8125 290.355469 C 401.433594 291.296875 402.003906 292.425781 402.949219 292.804688 C 402.949219 292.992188 403.136719 292.992188 403.515625 292.992188 Z M 403.515625 292.992188 " fill-opacity="1" fill-rule="nonzero"/><path fill="#000000" d="M 412.585938 304.867188 C 412.773438 304.867188 413.152344 304.867188 413.34375 304.675781 L 425.816406 298.835938 C 426.761719 298.457031 427.140625 297.140625 426.761719 296.195312 C 426.382812 295.253906 425.058594 294.878906 424.117188 295.253906 L 411.640625 301.097656 C 410.695312 301.472656 410.316406 302.792969 410.695312 303.734375 C 411.261719 304.300781 412.019531 304.867188 412.585938 304.867188 Z M 412.585938 304.867188 " fill-opacity="1" fill-rule="nonzero"/><g clip-path="url(#bd92811dfb)"><path fill="#000000" d="M 465.128906 251.339844 L 301.265625 251.339844 C 295.59375 224.765625 280.097656 223.070312 278.773438 222.882812 L 266.867188 222.882812 C 264.976562 218.359375 260.628906 214.402344 255.339844 214.402344 C 248.535156 214.402344 243.054688 219.867188 243.054688 226.652344 C 243.054688 233.4375 248.535156 239.089844 255.339844 239.089844 C 260.628906 239.089844 264.976562 234.945312 266.867188 230.421875 L 278.019531 230.421875 C 278.398438 230.421875 288.792969 233.625 292.761719 255.296875 C 297.863281 284.132812 311.09375 356.507812 311.09375 356.507812 C 311.09375 364.609375 316.007812 379.3125 334.152344 379.3125 L 404.082031 379.3125 L 401.246094 371.960938 L 333.960938 371.960938 C 326.214844 371.960938 322.8125 366.308594 321.300781 362.347656 C 333.585938 361.59375 367.226562 359.332031 396.898438 357.261719 L 394.253906 348.027344 C 364.011719 350.097656 330.5625 352.359375 319.789062 353.113281 C 317.332031 340.863281 308.070312 288.847656 302.964844 260.574219 L 463.804688 260.574219 C 471.175781 260.574219 476.46875 266.605469 475.523438 273.957031 L 468.71875 329.367188 C 468.71875 329.554688 468.53125 330.6875 467.773438 332.195312 L 476.089844 336.339844 C 477.601562 333.136719 477.980469 330.875 477.980469 330.496094 L 484.972656 273.582031 C 486.296875 261.328125 477.601562 251.339844 465.128906 251.339844 Z M 465.128906 251.339844 " fill-opacity="1" fill-rule="nonzero"/></g><path fill="#000000" d="M 446.605469 351.984375 L 462.480469 345.765625 C 463.996094 345.199219 464.9375 343.878906 464.9375 342.371094 C 464.9375 340.863281 464.183594 339.355469 462.859375 338.601562 L 395.953125 304.867188 C 394.632812 304.113281 392.929688 304.300781 391.605469 305.429688 C 390.472656 306.375 389.90625 308.070312 390.472656 309.578125 L 413.152344 382.515625 C 413.53125 384.023438 415.042969 385.152344 416.554688 385.34375 C 418.066406 385.53125 419.578125 384.589844 420.335938 383.269531 L 429.40625 365.929688 L 448.875 391.75 C 449.441406 392.503906 450.386719 393.070312 451.519531 393.257812 C 451.710938 393.257812 451.898438 393.257812 452.085938 393.257812 C 452.84375 393.257812 453.789062 393.070312 454.542969 392.503906 L 466.453125 383.269531 C 467.207031 382.703125 467.773438 381.761719 467.964844 380.628906 C 468.152344 379.5 467.773438 378.558594 467.207031 377.617188 Z M 452.652344 383.835938 L 431.863281 356.316406 C 431.109375 355.375 429.972656 354.808594 428.839844 354.808594 C 428.652344 354.808594 428.652344 354.808594 428.460938 354.808594 C 427.140625 355 426.003906 355.753906 425.25 356.882812 L 417.6875 371.394531 L 400.492188 316.175781 L 451.332031 341.804688 L 438.855469 346.707031 C 437.722656 347.082031 436.777344 348.214844 436.589844 349.34375 C 436.210938 350.476562 436.589844 351.796875 437.34375 352.738281 L 458.511719 379.5 Z M 452.652344 383.835938 " fill-opacity="1" fill-rule="nonzero"/><g clip-path="url(#9473ae34f8)"><path fill="#000000" d="M 430.542969 395.707031 C 421.660156 395.707031 414.289062 403.058594 414.289062 412.105469 C 414.289062 421.152344 421.660156 428.503906 430.542969 428.503906 C 439.425781 428.503906 446.796875 421.152344 446.796875 412.105469 C 446.796875 403.058594 439.425781 395.707031 430.542969 395.707031 Z M 430.542969 420.585938 C 425.816406 420.585938 422.035156 416.816406 422.035156 412.105469 C 422.035156 407.394531 425.816406 403.625 430.542969 403.625 C 435.265625 403.625 439.046875 407.394531 439.046875 412.105469 C 439.046875 416.628906 435.265625 420.585938 430.542969 420.585938 Z M 430.542969 420.585938 " fill-opacity="1" fill-rule="nonzero"/></g><g clip-path="url(#def408fbb0)"><path fill="#000000" d="M 336.988281 395.707031 C 328.105469 395.707031 320.734375 403.058594 320.734375 412.105469 C 320.734375 421.152344 328.105469 428.503906 336.988281 428.503906 C 345.871094 428.503906 353.242188 421.152344 353.242188 412.105469 C 353.242188 403.058594 345.871094 395.707031 336.988281 395.707031 Z M 336.988281 420.585938 C 332.261719 420.585938 328.480469 416.816406 328.480469 412.105469 C 328.480469 407.394531 332.261719 403.625 336.988281 403.625 C 341.710938 403.625 345.492188 407.394531 345.492188 412.105469 C 345.492188 416.628906 341.710938 420.585938 336.988281 420.585938 Z M 336.988281 420.585938 " fill-opacity="1" fill-rule="nonzero"/></g><g fill="#000000" fill-opacity="1"><g transform="translate(184.758533, 159.253414)"><g><path d="M 16.046875 -23.8125 C 18.429688 -23.8125 20.347656 -23.882812 21.796875 -24.03125 C 23.253906 -24.175781 24.378906 -24.484375 25.171875 -24.953125 C 25.972656 -25.421875 26.539062 -26.101562 26.875 -27 C 27.21875 -27.894531 27.484375 -29.101562 27.671875 -30.625 L 29.734375 -30.625 L 29.734375 -14.25 L 27.671875 -14.25 C 27.441406 -15.738281 27.140625 -16.929688 26.765625 -17.828125 C 26.398438 -18.722656 25.804688 -19.398438 24.984375 -19.859375 C 24.160156 -20.328125 23.050781 -20.625 21.65625 -20.75 C 20.257812 -20.882812 18.390625 -20.953125 16.046875 -20.953125 L 16.046875 -9.453125 C 16.046875 -8.253906 16.203125 -7.242188 16.515625 -6.421875 C 16.828125 -5.609375 17.351562 -4.945312 18.09375 -4.4375 C 18.84375 -3.9375 19.832031 -3.582031 21.0625 -3.375 C 22.300781 -3.175781 23.8125 -3.078125 25.59375 -3.078125 C 27.71875 -3.078125 29.515625 -3.222656 30.984375 -3.515625 C 32.460938 -3.816406 33.6875 -4.335938 34.65625 -5.078125 C 35.625 -5.828125 36.40625 -6.828125 37 -8.078125 C 37.59375 -9.328125 38.097656 -10.898438 38.515625 -12.796875 L 40.75 -12.796875 L 39.84375 0 L 1.953125 0 L 1.953125 -2.234375 C 3.179688 -2.273438 4.1875 -2.382812 4.96875 -2.5625 C 5.75 -2.75 6.34375 -3.066406 6.75 -3.515625 C 7.164062 -3.960938 7.445312 -4.597656 7.59375 -5.421875 C 7.75 -6.242188 7.828125 -7.304688 7.828125 -8.609375 L 7.828125 -34.421875 C 7.828125 -35.734375 7.757812 -36.785156 7.625 -37.578125 C 7.5 -38.378906 7.25 -39.015625 6.875 -39.484375 C 6.5 -39.953125 5.96875 -40.269531 5.28125 -40.4375 C 4.59375 -40.601562 3.691406 -40.722656 2.578125 -40.796875 L 2.578125 -43.03125 L 37.890625 -43.03125 L 38.28125 -32.078125 L 35.875 -32.078125 C 35.65625 -33.640625 35.300781 -34.929688 34.8125 -35.953125 C 34.332031 -36.984375 33.660156 -37.804688 32.796875 -38.421875 C 31.941406 -39.035156 30.832031 -39.460938 29.46875 -39.703125 C 28.113281 -39.953125 26.453125 -40.078125 24.484375 -40.078125 L 18.171875 -40.078125 C 17.203125 -40.078125 16.601562 -39.953125 16.375 -39.703125 C 16.15625 -39.460938 16.046875 -38.894531 16.046875 -38 Z M 16.046875 -23.8125 "/></g></g></g><g fill="#000000" fill-opacity="1"><g transform="translate(227.457046, 159.253414)"><g><path d="M 29.515625 -4.640625 C 28.097656 -3.078125 26.335938 -1.863281 24.234375 -1 C 22.128906 -0.144531 19.84375 0.28125 17.375 0.28125 C 15.101562 0.28125 13.035156 -0.0820312 11.171875 -0.8125 C 9.316406 -1.539062 7.71875 -2.554688 6.375 -3.859375 C 5.03125 -5.160156 3.992188 -6.734375 3.265625 -8.578125 C 2.546875 -10.421875 2.1875 -12.460938 2.1875 -14.703125 C 2.1875 -17.015625 2.578125 -19.117188 3.359375 -21.015625 C 4.140625 -22.910156 5.238281 -24.535156 6.65625 -25.890625 C 8.070312 -27.253906 9.765625 -28.3125 11.734375 -29.0625 C 13.710938 -29.8125 15.894531 -30.1875 18.28125 -30.1875 C 19.957031 -30.1875 21.507812 -30.015625 22.9375 -29.671875 C 24.375 -29.335938 25.601562 -28.875 26.625 -28.28125 C 27.65625 -27.6875 28.46875 -26.988281 29.0625 -26.1875 C 29.65625 -25.382812 29.953125 -24.515625 29.953125 -23.578125 C 29.953125 -22.503906 29.644531 -21.648438 29.03125 -21.015625 C 28.414062 -20.378906 27.585938 -20.0625 26.546875 -20.0625 C 25.691406 -20.0625 24.9375 -20.285156 24.28125 -20.734375 C 23.632812 -21.179688 22.992188 -21.910156 22.359375 -22.921875 C 21.796875 -23.804688 21.316406 -24.507812 20.921875 -25.03125 C 20.535156 -25.5625 20.175781 -25.960938 19.84375 -26.234375 C 19.507812 -26.515625 19.171875 -26.703125 18.828125 -26.796875 C 18.492188 -26.890625 18.085938 -26.9375 17.609375 -26.9375 C 15.441406 -26.9375 13.757812 -25.929688 12.5625 -23.921875 C 11.375 -21.910156 10.78125 -19.097656 10.78125 -15.484375 C 10.78125 -11.609375 11.5 -8.625 12.9375 -6.53125 C 14.375 -4.445312 16.429688 -3.40625 19.109375 -3.40625 C 20.640625 -3.40625 22.164062 -3.691406 23.6875 -4.265625 C 25.21875 -4.847656 26.675781 -5.679688 28.0625 -6.765625 Z M 29.515625 -4.640625 "/></g></g></g><g fill="#000000" fill-opacity="1"><g transform="translate(258.97794, 159.253414)"><g><path d="M 18.328125 -30.1875 C 20.566406 -30.1875 22.679688 -29.800781 24.671875 -29.03125 C 26.671875 -28.269531 28.421875 -27.21875 29.921875 -25.875 C 31.429688 -24.53125 32.625 -22.9375 33.5 -21.09375 C 34.375 -19.25 34.8125 -17.226562 34.8125 -15.03125 C 34.8125 -12.757812 34.375 -10.671875 33.5 -8.765625 C 32.625 -6.867188 31.429688 -5.226562 29.921875 -3.84375 C 28.421875 -2.46875 26.671875 -1.390625 24.671875 -0.609375 C 22.679688 0.171875 20.566406 0.5625 18.328125 0.5625 C 16.128906 0.5625 14.039062 0.179688 12.0625 -0.578125 C 10.09375 -1.347656 8.363281 -2.421875 6.875 -3.796875 C 5.382812 -5.179688 4.207031 -6.832031 3.34375 -8.75 C 2.488281 -10.664062 2.0625 -12.757812 2.0625 -15.03125 C 2.0625 -17.226562 2.488281 -19.257812 3.34375 -21.125 C 4.207031 -22.988281 5.382812 -24.585938 6.875 -25.921875 C 8.363281 -27.265625 10.09375 -28.3125 12.0625 -29.0625 C 14.039062 -29.8125 16.128906 -30.1875 18.328125 -30.1875 Z M 18.328125 -26.9375 C 17.210938 -26.9375 16.1875 -26.644531 15.25 -26.0625 C 14.320312 -25.488281 13.53125 -24.679688 12.875 -23.640625 C 12.226562 -22.597656 11.726562 -21.335938 11.375 -19.859375 C 11.019531 -18.390625 10.84375 -16.765625 10.84375 -14.984375 C 10.84375 -13.117188 11.019531 -11.441406 11.375 -9.953125 C 11.726562 -8.460938 12.226562 -7.191406 12.875 -6.140625 C 13.53125 -5.097656 14.3125 -4.285156 15.21875 -3.703125 C 16.132812 -3.128906 17.171875 -2.84375 18.328125 -2.84375 C 19.484375 -2.84375 20.535156 -3.128906 21.484375 -3.703125 C 22.441406 -4.285156 23.253906 -5.109375 23.921875 -6.171875 C 24.585938 -7.234375 25.109375 -8.507812 25.484375 -10 C 25.859375 -11.488281 26.046875 -13.148438 26.046875 -14.984375 C 26.046875 -16.765625 25.859375 -18.378906 25.484375 -19.828125 C 25.109375 -21.285156 24.585938 -22.546875 23.921875 -23.609375 C 23.253906 -24.671875 22.441406 -25.488281 21.484375 -26.0625 C 20.535156 -26.644531 19.484375 -26.9375 18.328125 -26.9375 Z M 18.328125 -26.9375 "/></g></g></g><g fill="#000000" fill-opacity="1"><g transform="translate(295.864088, 159.253414)"><g><path d="M 14.421875 -9.21875 C 14.421875 -7.65625 14.457031 -6.425781 14.53125 -5.53125 C 14.601562 -4.632812 14.804688 -3.953125 15.140625 -3.484375 C 15.484375 -3.023438 15.96875 -2.71875 16.59375 -2.5625 C 17.226562 -2.414062 18.101562 -2.304688 19.21875 -2.234375 L 19.21875 0 L 1.5625 0 L 1.5625 -2.234375 C 2.675781 -2.304688 3.566406 -2.414062 4.234375 -2.5625 C 4.910156 -2.71875 5.414062 -3.019531 5.75 -3.46875 C 6.09375 -3.914062 6.316406 -4.554688 6.421875 -5.390625 C 6.535156 -6.234375 6.59375 -7.363281 6.59375 -8.78125 L 6.59375 -15.703125 C 6.59375 -17.828125 6.5625 -19.597656 6.5 -21.015625 C 6.445312 -22.429688 6.347656 -23.398438 6.203125 -23.921875 C 6.085938 -24.398438 5.945312 -24.78125 5.78125 -25.0625 C 5.613281 -25.34375 5.351562 -25.566406 5 -25.734375 C 4.644531 -25.898438 4.1875 -26.007812 3.625 -26.0625 C 3.070312 -26.125 2.347656 -26.15625 1.453125 -26.15625 L 1.453125 -28.0625 L 12.234375 -30.1875 L 12.90625 -25.3125 L 13.25 -25.3125 C 14.8125 -27.0625 16.382812 -28.3125 17.96875 -29.0625 C 19.550781 -29.8125 21.382812 -30.1875 23.46875 -30.1875 C 25.925781 -30.1875 27.957031 -29.753906 29.5625 -28.890625 C 31.164062 -28.035156 32.378906 -26.804688 33.203125 -25.203125 L 33.421875 -25.203125 C 34.765625 -26.765625 36.367188 -27.984375 38.234375 -28.859375 C 40.097656 -29.742188 42.085938 -30.1875 44.203125 -30.1875 C 46.441406 -30.1875 48.390625 -29.90625 50.046875 -29.34375 C 51.703125 -28.78125 53 -27.976562 53.9375 -26.9375 C 54.675781 -26.082031 55.222656 -24.960938 55.578125 -23.578125 C 55.929688 -22.203125 56.109375 -20.285156 56.109375 -17.828125 L 56.109375 -9.21875 C 56.109375 -7.695312 56.15625 -6.488281 56.25 -5.59375 C 56.34375 -4.695312 56.554688 -4.003906 56.890625 -3.515625 C 57.234375 -3.035156 57.71875 -2.71875 58.34375 -2.5625 C 58.976562 -2.414062 59.859375 -2.304688 60.984375 -2.234375 L 60.984375 0 L 43.3125 0 L 43.3125 -2.234375 C 44.425781 -2.273438 45.3125 -2.378906 45.96875 -2.546875 C 46.625 -2.710938 47.128906 -3.023438 47.484375 -3.484375 C 47.835938 -3.953125 48.0625 -4.597656 48.15625 -5.421875 C 48.25 -6.242188 48.296875 -7.363281 48.296875 -8.78125 L 48.296875 -16.09375 C 48.296875 -18.03125 48.179688 -19.671875 47.953125 -21.015625 C 47.734375 -22.359375 47.378906 -23.4375 46.890625 -24.25 C 46.410156 -25.070312 45.769531 -25.660156 44.96875 -26.015625 C 44.164062 -26.367188 43.1875 -26.546875 42.03125 -26.546875 C 40.726562 -26.546875 39.65625 -26.226562 38.8125 -25.59375 C 37.976562 -24.957031 37.28125 -24.140625 36.71875 -23.140625 C 35.75 -21.390625 35.265625 -19.207031 35.265625 -16.59375 L 35.265625 -9.21875 C 35.265625 -7.695312 35.300781 -6.488281 35.375 -5.59375 C 35.445312 -4.695312 35.648438 -4.003906 35.984375 -3.515625 C 36.328125 -3.035156 36.820312 -2.71875 37.46875 -2.5625 C 38.125 -2.414062 39.03125 -2.304688 40.1875 -2.234375 L 40.1875 0 L 22.46875 0 L 22.46875 -2.234375 C 23.582031 -2.304688 24.460938 -2.414062 25.109375 -2.5625 C 25.765625 -2.71875 26.269531 -3.019531 26.625 -3.46875 C 26.976562 -3.914062 27.203125 -4.554688 27.296875 -5.390625 C 27.390625 -6.234375 27.4375 -7.363281 27.4375 -8.78125 L 27.4375 -16.09375 C 27.4375 -18.03125 27.320312 -19.671875 27.09375 -21.015625 C 26.875 -22.359375 26.515625 -23.4375 26.015625 -24.25 C 25.515625 -25.070312 24.851562 -25.660156 24.03125 -26.015625 C 23.207031 -26.367188 22.179688 -26.546875 20.953125 -26.546875 C 19.722656 -26.546875 18.707031 -26.25 17.90625 -25.65625 C 17.113281 -25.0625 16.453125 -24.257812 15.921875 -23.25 C 15.441406 -22.351562 15.070312 -21.328125 14.8125 -20.171875 C 14.550781 -19.015625 14.421875 -17.820312 14.421875 -16.59375 Z M 14.421875 -9.21875 "/></g></g></g><g fill="#000000" fill-opacity="1"><g transform="translate(357.676336, 159.253414)"><g><path d="M 14.421875 -9.21875 C 14.421875 -7.65625 14.457031 -6.425781 14.53125 -5.53125 C 14.601562 -4.632812 14.804688 -3.953125 15.140625 -3.484375 C 15.484375 -3.023438 15.96875 -2.71875 16.59375 -2.5625 C 17.226562 -2.414062 18.101562 -2.304688 19.21875 -2.234375 L 19.21875 0 L 1.5625 0 L 1.5625 -2.234375 C 2.675781 -2.304688 3.566406 -2.414062 4.234375 -2.5625 C 4.910156 -2.71875 5.414062 -3.019531 5.75 -3.46875 C 6.09375 -3.914062 6.316406 -4.554688 6.421875 -5.390625 C 6.535156 -6.234375 6.59375 -7.363281 6.59375 -8.78125 L 6.59375 -15.703125 C 6.59375 -17.828125 6.5625 -19.597656 6.5 -21.015625 C 6.445312 -22.429688 6.347656 -23.398438 6.203125 -23.921875 C 6.085938 -24.398438 5.945312 -24.78125 5.78125 -25.0625 C 5.613281 -25.34375 5.351562 -25.566406 5 -25.734375 C 4.644531 -25.898438 4.1875 -26.007812 3.625 -26.0625 C 3.070312 -26.125 2.347656 -26.15625 1.453125 -26.15625 L 1.453125 -28.0625 L 12.234375 -30.1875 L 12.90625 -25.3125 L 13.25 -25.3125 C 14.8125 -27.0625 16.382812 -28.3125 17.96875 -29.0625 C 19.550781 -29.8125 21.382812 -30.1875 23.46875 -30.1875 C 25.925781 -30.1875 27.957031 -29.753906 29.5625 -28.890625 C 31.164062 -28.035156 32.378906 -26.804688 33.203125 -25.203125 L 33.421875 -25.203125 C 34.765625 -26.765625 36.367188 -27.984375 38.234375 -28.859375 C 40.097656 -29.742188 42.085938 -30.1875 44.203125 -30.1875 C 46.441406 -30.1875 48.390625 -29.90625 50.046875 -29.34375 C 51.703125 -28.78125 53 -27.976562 53.9375 -26.9375 C 54.675781 -26.082031 55.222656 -24.960938 55.578125 -23.578125 C 55.929688 -22.203125 56.109375 -20.285156 56.109375 -17.828125 L 56.109375 -9.21875 C 56.109375 -7.695312 56.15625 -6.488281 56.25 -5.59375 C 56.34375 -4.695312 56.554688 -4.003906 56.890625 -3.515625 C 57.234375 -3.035156 57.71875 -2.71875 58.34375 -2.5625 C 58.976562 -2.414062 59.859375 -2.304688 60.984375 -2.234375 L 60.984375 0 L 43.3125 0 L 43.3125 -2.234375 C 44.425781 -2.273438 45.3125 -2.378906 45.96875 -2.546875 C 46.625 -2.710938 47.128906 -3.023438 47.484375 -3.484375 C 47.835938 -3.953125 48.0625 -4.597656 48.15625 -5.421875 C 48.25 -6.242188 48.296875 -7.363281 48.296875 -8.78125 L 48.296875 -16.09375 C 48.296875 -18.03125 48.179688 -19.671875 47.953125 -21.015625 C 47.734375 -22.359375 47.378906 -23.4375 46.890625 -24.25 C 46.410156 -25.070312 45.769531 -25.660156 44.96875 -26.015625 C 44.164062 -26.367188 43.1875 -26.546875 42.03125 -26.546875 C 40.726562 -26.546875 39.65625 -26.226562 38.8125 -25.59375 C 37.976562 -24.957031 37.28125 -24.140625 36.71875 -23.140625 C 35.75 -21.390625 35.265625 -19.207031 35.265625 -16.59375 L 35.265625 -9.21875 C 35.265625 -7.695312 35.300781 -6.488281 35.375 -5.59375 C 35.445312 -4.695312 35.648438 -4.003906 35.984375 -3.515625 C 36.328125 -3.035156 36.820312 -2.71875 37.46875 -2.5625 C 38.125 -2.414062 39.03125 -2.304688 40.1875 -2.234375 L 40.1875 0 L 22.46875 0 L 22.46875 -2.234375 C 23.582031 -2.304688 24.460938 -2.414062 25.109375 -2.5625 C 25.765625 -2.71875 26.269531 -3.019531 26.625 -3.46875 C 26.976562 -3.914062 27.203125 -4.554688 27.296875 -5.390625 C 27.390625 -6.234375 27.4375 -7.363281 27.4375 -8.78125 L 27.4375 -16.09375 C 27.4375 -18.03125 27.320312 -19.671875 27.09375 -21.015625 C 26.875 -22.359375 26.515625 -23.4375 26.015625 -24.25 C 25.515625 -25.070312 24.851562 -25.660156 24.03125 -26.015625 C 23.207031 -26.367188 22.179688 -26.546875 20.953125 -26.546875 C 19.722656 -26.546875 18.707031 -26.25 17.90625 -25.65625 C 17.113281 -25.0625 16.453125 -24.257812 15.921875 -23.25 C 15.441406 -22.351562 15.070312 -21.328125 14.8125 -20.171875 C 14.550781 -19.015625 14.421875 -17.820312 14.421875 -16.59375 Z M 14.421875 -9.21875 "/></g></g></g><g fill="#000000" fill-opacity="1"><g transform="translate(419.488573, 159.253414)"><g><path d="M 30.1875 -5.203125 C 26.789062 -1.359375 22.5625 0.5625 17.5 0.5625 C 15.1875 0.5625 13.085938 0.195312 11.203125 -0.53125 C 9.328125 -1.257812 7.71875 -2.285156 6.375 -3.609375 C 5.03125 -4.929688 3.984375 -6.503906 3.234375 -8.328125 C 2.492188 -10.148438 2.125 -12.179688 2.125 -14.421875 C 2.125 -16.734375 2.515625 -18.847656 3.296875 -20.765625 C 4.078125 -22.679688 5.1875 -24.335938 6.625 -25.734375 C 8.0625 -27.128906 9.753906 -28.21875 11.703125 -29 C 13.660156 -29.789062 15.816406 -30.1875 18.171875 -30.1875 C 22.117188 -30.1875 25.191406 -29.125 27.390625 -27 C 29.585938 -24.875 30.6875 -21.890625 30.6875 -18.046875 C 30.6875 -17.453125 30.59375 -17.085938 30.40625 -16.953125 C 30.21875 -16.828125 29.695312 -16.765625 28.84375 -16.765625 L 10.84375 -16.765625 C 10.695312 -16.429688 10.625 -15.816406 10.625 -14.921875 C 10.625 -11.273438 11.414062 -8.390625 13 -6.265625 C 14.582031 -4.140625 16.734375 -3.078125 19.453125 -3.078125 C 21.015625 -3.078125 22.566406 -3.429688 24.109375 -4.140625 C 25.660156 -4.847656 27.160156 -5.851562 28.609375 -7.15625 Z M 19.34375 -19.890625 C 20.832031 -19.890625 21.789062 -19.972656 22.21875 -20.140625 C 22.644531 -20.316406 22.859375 -20.71875 22.859375 -21.34375 C 22.859375 -22.988281 22.390625 -24.332031 21.453125 -25.375 C 20.523438 -26.414062 19.351562 -26.9375 17.9375 -26.9375 C 16.332031 -26.9375 14.90625 -26.273438 13.65625 -24.953125 C 12.414062 -23.628906 11.609375 -21.941406 11.234375 -19.890625 Z M 19.34375 -19.890625 "/></g></g></g><g fill="#000000" fill-opacity="1"><g transform="translate(452.183105, 159.253414)"><g><path d="M 14.421875 -8.65625 C 14.421875 -7.207031 14.484375 -6.0625 14.609375 -5.21875 C 14.742188 -4.382812 15.015625 -3.742188 15.421875 -3.296875 C 15.835938 -2.847656 16.4375 -2.554688 17.21875 -2.421875 C 18 -2.296875 19.039062 -2.234375 20.34375 -2.234375 L 20.34375 0 L 1.671875 0 L 1.671875 -2.234375 C 2.796875 -2.304688 3.691406 -2.414062 4.359375 -2.5625 C 5.023438 -2.71875 5.523438 -3.019531 5.859375 -3.46875 C 6.203125 -3.914062 6.421875 -4.554688 6.515625 -5.390625 C 6.609375 -6.234375 6.65625 -7.363281 6.65625 -8.78125 L 6.65625 -15.59375 C 6.65625 -17.90625 6.597656 -19.75 6.484375 -21.125 C 6.367188 -22.5 6.125 -23.5625 5.75 -24.3125 C 5.382812 -25.0625 4.851562 -25.554688 4.15625 -25.796875 C 3.46875 -26.035156 2.566406 -26.15625 1.453125 -26.15625 L 1.453125 -28.109375 L 12.625 -30.1875 L 13.53125 -23.75 L 13.75 -23.75 C 14.757812 -25.726562 16.082031 -27.296875 17.71875 -28.453125 C 19.351562 -29.609375 21.085938 -30.1875 22.921875 -30.1875 C 24.328125 -30.1875 25.476562 -29.832031 26.375 -29.125 C 27.269531 -28.414062 27.71875 -27.519531 27.71875 -26.4375 C 27.71875 -25.238281 27.375 -24.226562 26.6875 -23.40625 C 26 -22.59375 25.054688 -22.1875 23.859375 -22.1875 C 23.304688 -22.1875 22.804688 -22.296875 22.359375 -22.515625 C 21.910156 -22.742188 21.507812 -23 21.15625 -23.28125 C 20.800781 -23.5625 20.445312 -23.820312 20.09375 -24.0625 C 19.738281 -24.300781 19.375 -24.421875 19 -24.421875 C 18.289062 -24.421875 17.617188 -23.953125 16.984375 -23.015625 C 16.359375 -22.085938 15.835938 -20.84375 15.421875 -19.28125 C 15.128906 -18.164062 14.890625 -16.90625 14.703125 -15.5 C 14.515625 -14.101562 14.421875 -12.71875 14.421875 -11.34375 Z M 14.421875 -8.65625 "/></g></g></g><g fill="#000000" fill-opacity="1"><g transform="translate(480.0154, 159.253414)"><g><path d="M 29.515625 -4.640625 C 28.097656 -3.078125 26.335938 -1.863281 24.234375 -1 C 22.128906 -0.144531 19.84375 0.28125 17.375 0.28125 C 15.101562 0.28125 13.035156 -0.0820312 11.171875 -0.8125 C 9.316406 -1.539062 7.71875 -2.554688 6.375 -3.859375 C 5.03125 -5.160156 3.992188 -6.734375 3.265625 -8.578125 C 2.546875 -10.421875 2.1875 -12.460938 2.1875 -14.703125 C 2.1875 -17.015625 2.578125 -19.117188 3.359375 -21.015625 C 4.140625 -22.910156 5.238281 -24.535156 6.65625 -25.890625 C 8.070312 -27.253906 9.765625 -28.3125 11.734375 -29.0625 C 13.710938 -29.8125 15.894531 -30.1875 18.28125 -30.1875 C 19.957031 -30.1875 21.507812 -30.015625 22.9375 -29.671875 C 24.375 -29.335938 25.601562 -28.875 26.625 -28.28125 C 27.65625 -27.6875 28.46875 -26.988281 29.0625 -26.1875 C 29.65625 -25.382812 29.953125 -24.515625 29.953125 -23.578125 C 29.953125 -22.503906 29.644531 -21.648438 29.03125 -21.015625 C 28.414062 -20.378906 27.585938 -20.0625 26.546875 -20.0625 C 25.691406 -20.0625 24.9375 -20.285156 24.28125 -20.734375 C 23.632812 -21.179688 22.992188 -21.910156 22.359375 -22.921875 C 21.796875 -23.804688 21.316406 -24.507812 20.921875 -25.03125 C 20.535156 -25.5625 20.175781 -25.960938 19.84375 -26.234375 C 19.507812 -26.515625 19.171875 -26.703125 18.828125 -26.796875 C 18.492188 -26.890625 18.085938 -26.9375 17.609375 -26.9375 C 15.441406 -26.9375 13.757812 -25.929688 12.5625 -23.921875 C 11.375 -21.910156 10.78125 -19.097656 10.78125 -15.484375 C 10.78125 -11.609375 11.5 -8.625 12.9375 -6.53125 C 14.375 -4.445312 16.429688 -3.40625 19.109375 -3.40625 C 20.640625 -3.40625 22.164062 -3.691406 23.6875 -4.265625 C 25.21875 -4.847656 26.675781 -5.679688 28.0625 -6.765625 Z M 29.515625 -4.640625 "/></g></g></g><g fill="#000000" fill-opacity="1"><g transform="translate(511.536305, 159.253414)"><g><path d="M 30.1875 -5.203125 C 26.789062 -1.359375 22.5625 0.5625 17.5 0.5625 C 15.1875 0.5625 13.085938 0.195312 11.203125 -0.53125 C 9.328125 -1.257812 7.71875 -2.285156 6.375 -3.609375 C 5.03125 -4.929688 3.984375 -6.503906 3.234375 -8.328125 C 2.492188 -10.148438 2.125 -12.179688 2.125 -14.421875 C 2.125 -16.734375 2.515625 -18.847656 3.296875 -20.765625 C 4.078125 -22.679688 5.1875 -24.335938 6.625 -25.734375 C 8.0625 -27.128906 9.753906 -28.21875 11.703125 -29 C 13.660156 -29.789062 15.816406 -30.1875 18.171875 -30.1875 C 22.117188 -30.1875 25.191406 -29.125 27.390625 -27 C 29.585938 -24.875 30.6875 -21.890625 30.6875 -18.046875 C 30.6875 -17.453125 30.59375 -17.085938 30.40625 -16.953125 C 30.21875 -16.828125 29.695312 -16.765625 28.84375 -16.765625 L 10.84375 -16.765625 C 10.695312 -16.429688 10.625 -15.816406 10.625 -14.921875 C 10.625 -11.273438 11.414062 -8.390625 13 -6.265625 C 14.582031 -4.140625 16.734375 -3.078125 19.453125 -3.078125 C 21.015625 -3.078125 22.566406 -3.429688 24.109375 -4.140625 C 25.660156 -4.847656 27.160156 -5.851562 28.609375 -7.15625 Z M 19.34375 -19.890625 C 20.832031 -19.890625 21.789062 -19.972656 22.21875 -20.140625 C 22.644531 -20.316406 22.859375 -20.71875 22.859375 -21.34375 C 22.859375 -22.988281 22.390625 -24.332031 21.453125 -25.375 C 20.523438 -26.414062 19.351562 -26.9375 17.9375 -26.9375 C 16.332031 -26.9375 14.90625 -26.273438 13.65625 -24.953125 C 12.414062 -23.628906 11.609375 -21.941406 11.234375 -19.890625 Z M 19.34375 -19.890625 "/></g></g></g></svg>