<svg xmlns="http://www.w3.org/2000/svg" xmlns:xlink="http://www.w3.org/1999/xlink" width="972" zoomAndPan="magnify" viewBox="0 0 729 537.000006" height="716" preserveAspectRatio="xMidYMid meet" version="1.0"><defs><g/><clipPath id="0f2b8e1562"><path d="M 0.675781 0 L 728.320312 0 L 728.320312 536 L 0.675781 536 Z M 0.675781 0 " clip-rule="nonzero"/></clipPath><clipPath id="9219a83101"><path d="M 257 323 L 363 323 L 363 428.503906 L 257 428.503906 Z M 257 323 " clip-rule="nonzero"/></clipPath><clipPath id="16e57ea963"><path d="M 385 214.402344 L 435 214.402344 L 435 254 L 385 254 Z M 385 214.402344 " clip-rule="nonzero"/></clipPath><clipPath id="19a82f6892"><path d="M 366 323 L 472 323 L 472 428.503906 L 366 428.503906 Z M 366 323 " clip-rule="nonzero"/></clipPath></defs><g clip-path="url(#0f2b8e1562)"><path fill="#ffffff" d="M 0.675781 0 L 728.324219 0 L 728.324219 536 L 0.675781 536 Z M 0.675781 0 " fill-opacity="1" fill-rule="nonzero"/><path fill="#ffffff" d="M 0.675781 0 L 728.324219 0 L 728.324219 536 L 0.675781 536 Z M 0.675781 0 " fill-opacity="1" fill-rule="nonzero"/></g><path fill="#000000" d="M 260.761719 292.546875 C 261.320312 292.878906 262.015625 292.898438 262.597656 292.589844 C 266.890625 290.304688 269.71875 289.824219 271.335938 289.824219 C 274.953125 289.824219 276.628906 290.65625 278.398438 291.539062 C 280.101562 292.386719 282.023438 293.34375 285.335938 293.34375 C 291.953125 293.34375 296.167969 290.390625 296.34375 290.265625 C 296.835938 289.917969 297.125 289.355469 297.125 288.753906 L 297.125 272.183594 C 297.125 271.488281 296.738281 270.855469 296.121094 270.535156 C 295.507812 270.21875 294.757812 270.265625 294.1875 270.664062 C 294.152344 270.6875 290.703125 273.054688 285.335938 273.054688 C 282.902344 273.054688 281.652344 272.429688 280.0625 271.640625 C 278.078125 270.652344 275.832031 269.53125 271.335938 269.53125 C 268.367188 269.53125 264.835938 270.613281 260.84375 272.738281 C 260.234375 273.0625 259.855469 273.695312 259.855469 274.378906 L 259.855469 290.949219 C 259.855469 291.605469 260.199219 292.210938 260.761719 292.546875 Z M 263.582031 275.515625 C 267.328125 273.660156 269.847656 273.253906 271.335938 273.253906 C 274.953125 273.253906 276.628906 274.089844 278.398438 274.972656 C 280.101562 275.816406 282.023438 276.777344 285.335938 276.777344 C 288.730469 276.777344 291.488281 276 293.398438 275.226562 L 293.398438 287.695312 C 292.085938 288.390625 289.210938 289.625 285.335938 289.625 C 282.902344 289.625 281.652344 289 280.0625 288.210938 C 278.078125 287.222656 275.832031 286.101562 271.335938 286.101562 C 269.066406 286.101562 266.464844 286.730469 263.582031 287.980469 Z M 263.582031 275.515625 " fill-opacity="1" fill-rule="nonzero"/><path fill="#000000" d="M 282.21875 281.441406 C 282.21875 281.933594 282.125 282.40625 281.933594 282.863281 C 281.746094 283.320312 281.476562 283.722656 281.125 284.070312 C 280.777344 284.421875 280.375 284.6875 279.917969 284.878906 C 279.460938 285.066406 278.984375 285.160156 278.492188 285.160156 C 277.996094 285.160156 277.523438 285.066406 277.066406 284.878906 C 276.609375 284.6875 276.207031 284.421875 275.855469 284.070312 C 275.507812 283.722656 275.238281 283.320312 275.046875 282.863281 C 274.859375 282.40625 274.765625 281.933594 274.765625 281.441406 C 274.765625 280.945312 274.859375 280.472656 275.046875 280.015625 C 275.238281 279.558594 275.507812 279.15625 275.855469 278.808594 C 276.207031 278.457031 276.609375 278.191406 277.066406 278 C 277.523438 277.8125 277.996094 277.71875 278.492188 277.71875 C 278.984375 277.71875 279.460938 277.8125 279.917969 278 C 280.375 278.191406 280.777344 278.457031 281.125 278.808594 C 281.476562 279.15625 281.746094 279.558594 281.933594 280.015625 C 282.125 280.472656 282.21875 280.945312 282.21875 281.441406 Z M 282.21875 281.441406 " fill-opacity="1" fill-rule="nonzero"/><path fill="#000000" d="M 327.871094 251.664062 C 337.632812 251.664062 345.574219 243.730469 345.574219 233.984375 C 345.574219 224.234375 337.632812 216.304688 327.871094 216.304688 C 318.113281 216.304688 310.171875 224.234375 310.171875 233.984375 C 310.171875 243.730469 318.113281 251.664062 327.871094 251.664062 Z M 327.871094 220.027344 C 335.578125 220.027344 341.847656 226.285156 341.847656 233.984375 C 341.847656 241.679688 335.578125 247.941406 327.871094 247.941406 C 320.167969 247.941406 313.898438 241.679688 313.898438 233.984375 C 313.898438 226.285156 320.167969 220.027344 327.871094 220.027344 Z M 327.871094 220.027344 " fill-opacity="1" fill-rule="nonzero"/><path fill="#000000" d="M 323.355469 239.609375 C 323.75 239.609375 324.148438 239.484375 324.488281 239.222656 L 329.835938 235.113281 C 330.292969 234.761719 330.515625 234.242188 330.535156 233.707031 C 330.613281 233.5 330.667969 233.285156 330.667969 233.054688 L 330.667969 225.609375 C 330.667969 224.582031 329.835938 223.75 328.804688 223.75 C 327.773438 223.75 326.941406 224.582031 326.941406 225.609375 L 326.941406 232.640625 L 322.214844 236.273438 C 321.398438 236.898438 321.25 238.066406 321.875 238.882812 C 322.242188 239.359375 322.796875 239.609375 323.355469 239.609375 Z M 323.355469 239.609375 " fill-opacity="1" fill-rule="nonzero"/><path fill="#000000" d="M 435.421875 295.859375 L 442.550781 302.976562 C 442.914062 303.339844 443.390625 303.523438 443.871094 303.523438 C 444.347656 303.523438 444.824219 303.339844 445.1875 302.976562 L 466.214844 281.976562 C 466.414062 281.777344 466.566406 281.535156 466.660156 281.269531 L 470.285156 270.777344 C 470.511719 270.117188 470.347656 269.378906 469.859375 268.875 C 469.367188 268.371094 468.632812 268.183594 467.964844 268.394531 L 457.210938 271.765625 C 456.925781 271.855469 456.664062 272.015625 456.453125 272.226562 L 435.421875 293.226562 C 434.695312 293.953125 434.695312 295.132812 435.421875 295.859375 Z M 458.761719 275.183594 L 465.554688 273.050781 L 463.273438 279.648438 L 443.871094 299.03125 L 439.375 294.542969 Z M 458.761719 275.183594 " fill-opacity="1" fill-rule="nonzero"/><g clip-path="url(#9219a83101)"><path fill="#000000" d="M 355.410156 349.867188 L 347.535156 340.289062 C 346.707031 339.285156 345.4375 338.769531 344.140625 338.871094 C 336.613281 339.445312 329.59375 343.023438 324.707031 348.851562 L 309.90625 366.492188 C 308.300781 368.40625 305.296875 368.226562 303.929688 366.132812 L 289.496094 344.03125 L 289.46875 344.042969 L 284.972656 336.128906 C 283.460938 333.46875 280.738281 331.722656 277.691406 331.453125 L 272.210938 330.96875 C 271.007812 330.863281 269.933594 330.179688 269.324219 329.136719 L 267.371094 325.800781 C 266.347656 324.046875 264.496094 323.0625 262.589844 323.0625 C 261.695312 323.0625 260.785156 323.277344 259.945312 323.738281 C 257.277344 325.191406 256.285156 328.523438 257.722656 331.199219 L 269.546875 353.203125 L 293.714844 397.898438 C 296.089844 402.289062 300.683594 405.023438 305.675781 405.023438 C 309.238281 405.023438 312.65625 403.628906 315.195312 401.140625 L 321.917969 394.554688 C 320.003906 382.378906 322.617188 372.621094 322.738281 372.175781 C 323.011719 371.183594 324.035156 370.605469 325.027344 370.875 C 326.019531 371.148438 326.605469 372.171875 326.332031 373.160156 C 326.304688 373.257812 324.128906 381.445312 325.3125 391.84375 C 326.152344 394.484375 330.480469 409.042969 328.726562 423.929688 C 328.449219 426.285156 330.226562 428.375 332.601562 428.375 L 362.347656 428.375 L 362.347656 353.945312 C 359.734375 353.464844 357.257812 352.117188 355.410156 349.867188 Z M 261.730469 327.003906 C 262 326.859375 262.289062 326.78125 262.589844 326.78125 C 263.242188 326.78125 263.824219 327.117188 264.152344 327.675781 L 266.105469 331.015625 C 267.320312 333.09375 269.480469 334.464844 271.882812 334.675781 L 277.363281 335.160156 C 279.191406 335.324219 280.824219 336.371094 281.730469 337.964844 L 284.277344 342.449219 L 271.183594 348.375 L 261.003906 329.4375 C 260.539062 328.570312 260.863281 327.476562 261.730469 327.003906 Z M 261.730469 327.003906 " fill-opacity="1" fill-rule="nonzero"/></g><path fill="#000000" d="M 397.75 337.878906 C 403.734375 337.878906 405.34375 333.0625 405.773438 330.667969 C 405.914062 329.882812 406.253906 329.128906 406.828125 328.578125 C 410.808594 324.769531 408.796875 320.460938 407.320312 318.308594 C 406.683594 317.378906 406.476562 316.222656 406.777344 315.132812 C 408.453125 309.019531 407.867188 303.15625 402.765625 300.160156 C 398.261719 297.515625 395.984375 292.863281 395.269531 291.144531 C 395.191406 290.960938 395.125 290.773438 395.050781 290.59375 C 395.023438 290.527344 395.007812 290.480469 395.007812 290.480469 C 395.007812 290.480469 395.007812 290.492188 395.003906 290.5 C 389.859375 278.605469 378.011719 270.273438 364.210938 270.273438 C 352.269531 270.273438 341.824219 276.53125 335.886719 285.921875 L 335.886719 285.917969 C 335.859375 285.960938 335.839844 285.996094 335.8125 286.042969 C 335.140625 287.117188 334.511719 288.222656 333.960938 289.375 C 332.398438 292.242188 331.128906 294.433594 328.214844 296.648438 L 328.214844 296.652344 C 325.050781 299.230469 321.46875 303.683594 320.871094 310.898438 C 320.792969 311.820312 320.363281 312.664062 319.621094 313.214844 C 316.882812 315.25 310.539062 321.058594 314.132812 329.171875 C 314.4375 329.863281 314.554688 330.609375 314.402344 331.347656 C 314.019531 333.164062 313.917969 336.960938 318.835938 339.121094 C 323.082031 340.988281 328.347656 338.03125 330.375 336.707031 C 330.925781 336.34375 331.570312 336.160156 332.230469 336.175781 C 334.886719 336.25 341.789062 336.691406 344.492188 330.828125 C 350.03125 334.863281 356.832031 337.269531 364.210938 337.269531 C 371.144531 337.269531 377.585938 335.167969 382.933594 331.566406 C 385.785156 335.074219 390.855469 337.878906 397.75 337.878906 Z M 335.15625 310.367188 C 357.242188 308.855469 366.851562 298.996094 371.027344 290.691406 C 374.519531 295.207031 381.171875 299.824219 393.757812 299.980469 C 393.914062 301.226562 394.027344 302.484375 394.027344 303.773438 C 394.027344 320.191406 380.648438 333.546875 364.210938 333.546875 C 350.042969 333.546875 338.171875 323.617188 335.15625 310.367188 Z M 335.15625 310.367188 " fill-opacity="1" fill-rule="nonzero"/><g clip-path="url(#16e57ea963)"><path fill="#000000" d="M 386.023438 252.644531 C 386.363281 253.191406 386.964844 253.523438 387.605469 253.523438 L 432.175781 253.523438 C 432.820312 253.523438 433.421875 253.191406 433.757812 252.644531 C 434.097656 252.097656 434.132812 251.414062 433.84375 250.835938 L 427.566406 238.210938 L 427.566406 216.304688 C 427.566406 215.277344 426.734375 214.441406 425.703125 214.441406 L 394.027344 214.441406 C 392.996094 214.441406 392.160156 215.277344 392.160156 216.304688 L 392.160156 238.316406 L 385.9375 250.835938 C 385.652344 251.414062 385.683594 252.097656 386.023438 252.644531 Z M 395.890625 218.164062 L 423.839844 218.164062 L 423.839844 236.773438 L 395.890625 236.773438 Z M 395.238281 240.496094 L 424.542969 240.496094 L 429.167969 249.800781 L 390.613281 249.800781 Z M 395.238281 240.496094 " fill-opacity="1" fill-rule="nonzero"/></g><path fill="#000000" d="M 418.25 242.359375 L 401.480469 242.359375 C 400.449219 242.359375 399.617188 243.191406 399.617188 244.21875 C 399.617188 245.246094 400.449219 246.082031 401.480469 246.082031 L 418.25 246.082031 C 419.28125 246.082031 420.113281 245.246094 420.113281 244.21875 C 420.113281 243.191406 419.28125 242.359375 418.25 242.359375 Z M 418.25 242.359375 " fill-opacity="1" fill-rule="nonzero"/><g clip-path="url(#19a82f6892)"><path fill="#000000" d="M 468.957031 323.738281 C 468.117188 323.277344 467.207031 323.0625 466.3125 323.0625 C 464.40625 323.0625 462.554688 324.046875 461.527344 325.800781 L 459.578125 329.136719 C 458.96875 330.179688 457.890625 330.863281 456.6875 330.96875 L 451.210938 331.453125 C 448.160156 331.722656 445.441406 333.46875 443.929688 336.128906 L 439.367188 344.15625 L 439.375 344.160156 L 425.027344 366.132812 C 423.660156 368.226562 420.65625 368.40625 419.046875 366.492188 L 404.25 348.851562 C 399.363281 343.023438 392.34375 339.445312 384.816406 338.871094 C 383.519531 338.769531 382.25 339.285156 381.421875 340.289062 L 373.558594 349.863281 C 371.582031 352.269531 368.882812 353.652344 366.074219 354.03125 L 366.074219 428.375 L 396.351562 428.375 C 398.726562 428.375 400.507812 426.285156 400.230469 423.929688 C 398.699219 410.929688 401.808594 398.183594 403.179688 393.394531 C 404.78125 382.269531 402.386719 373.261719 402.363281 373.160156 C 402.089844 372.171875 402.671875 371.148438 403.664062 370.875 C 404.65625 370.601562 405.679688 371.183594 405.953125 372.175781 C 406.074219 372.617188 408.65625 382.257812 406.8125 394.332031 L 413.761719 401.140625 C 416.300781 403.628906 419.71875 405.023438 423.277344 405.023438 C 428.273438 405.023438 432.867188 402.285156 435.238281 397.890625 L 459.355469 353.203125 L 471.179688 331.199219 C 472.617188 328.523438 471.625 325.191406 468.957031 323.738281 Z M 390.296875 381.933594 L 379.117188 381.933594 C 378.085938 381.933594 377.253906 381.101562 377.253906 380.074219 C 377.253906 379.042969 378.085938 378.210938 379.117188 378.210938 L 390.296875 378.210938 C 391.328125 378.210938 392.160156 379.042969 392.160156 380.074219 C 392.160156 381.101562 391.328125 381.933594 390.296875 381.933594 Z M 451.539062 335.160156 L 457.015625 334.675781 C 459.417969 334.464844 461.582031 333.09375 462.796875 331.015625 L 464.746094 327.675781 C 465.074219 327.117188 465.660156 326.78125 466.3125 326.78125 C 466.613281 326.78125 466.902344 326.859375 467.171875 327.003906 C 468.039062 327.476562 468.363281 328.570312 467.894531 329.4375 L 457.71875 348.375 L 444.621094 342.449219 L 447.171875 337.964844 C 448.078125 336.371094 449.710938 335.324219 451.539062 335.160156 Z M 451.539062 335.160156 " fill-opacity="1" fill-rule="nonzero"/></g><path fill="#000000" d="M 460.015625 297.859375 C 459.832031 297.222656 459.652344 296.617188 459.484375 296.050781 C 459.183594 295.066406 458.148438 294.507812 457.160156 294.804688 C 456.175781 295.097656 455.617188 296.140625 455.914062 297.121094 C 456.078125 297.675781 456.253906 298.265625 456.433594 298.886719 C 456.667969 299.703125 457.410156 300.234375 458.222656 300.234375 C 458.394531 300.234375 458.566406 300.210938 458.738281 300.160156 C 459.726562 299.878906 460.296875 298.847656 460.015625 297.859375 Z M 460.015625 297.859375 " fill-opacity="1" fill-rule="nonzero"/><path fill="#000000" d="M 461.96875 318.445312 C 462.019531 318.445312 462.074219 318.445312 462.128906 318.4375 C 463.15625 318.347656 463.914062 317.449219 463.824219 316.425781 C 463.769531 315.792969 463.703125 315.152344 463.621094 314.507812 C 463.5 313.488281 462.578125 312.738281 461.546875 312.886719 C 460.527344 313.011719 459.800781 313.941406 459.925781 314.960938 C 459.996094 315.5625 460.0625 316.15625 460.113281 316.746094 C 460.195312 317.714844 461.007812 318.445312 461.96875 318.445312 Z M 461.96875 318.445312 " fill-opacity="1" fill-rule="nonzero"/><path fill="#000000" d="M 458.691406 307.792969 C 458.878906 308.664062 459.652344 309.257812 460.507812 309.257812 C 460.640625 309.257812 460.773438 309.246094 460.90625 309.214844 C 461.914062 309 462.550781 308.007812 462.332031 307.003906 C 462.199219 306.382812 462.0625 305.769531 461.921875 305.160156 C 461.691406 304.160156 460.691406 303.535156 459.6875 303.765625 C 458.683594 303.996094 458.058594 304.996094 458.289062 306 C 458.425781 306.589844 458.558594 307.191406 458.691406 307.792969 Z M 458.691406 307.792969 " fill-opacity="1" fill-rule="nonzero"/><path fill="#000000" d="M 434.296875 257.167969 C 434.710938 257.617188 435.121094 258.066406 435.527344 258.523438 C 435.894531 258.9375 436.40625 259.148438 436.917969 259.148438 C 437.359375 259.148438 437.800781 258.992188 438.15625 258.675781 C 438.925781 257.992188 438.992188 256.816406 438.308594 256.046875 C 437.890625 255.578125 437.464844 255.109375 437.039062 254.648438 C 436.34375 253.890625 435.160156 253.839844 434.40625 254.539062 C 433.648438 255.234375 433.601562 256.410156 434.296875 257.167969 Z M 434.296875 257.167969 " fill-opacity="1" fill-rule="nonzero"/><path fill="#000000" d="M 441.257812 265.625 C 441.625 266.125 442.191406 266.386719 442.765625 266.386719 C 443.144531 266.386719 443.53125 266.273438 443.863281 266.03125 C 444.695312 265.421875 444.875 264.257812 444.269531 263.429688 C 443.894531 262.921875 443.519531 262.414062 443.136719 261.910156 C 442.515625 261.09375 441.347656 260.929688 440.527344 261.550781 C 439.707031 262.171875 439.542969 263.339844 440.164062 264.15625 C 440.535156 264.644531 440.898438 265.132812 441.257812 265.625 Z M 441.257812 265.625 " fill-opacity="1" fill-rule="nonzero"/><path fill="#000000" d="M 445.964844 272.703125 C 446.3125 273.285156 446.929688 273.609375 447.5625 273.609375 C 447.890625 273.609375 448.21875 273.523438 448.519531 273.34375 C 449.402344 272.816406 449.6875 271.671875 449.160156 270.792969 L 448.507812 269.726562 C 447.972656 268.847656 446.816406 268.578125 445.945312 269.121094 C 445.070312 269.660156 444.800781 270.804688 445.339844 271.679688 Z M 445.964844 272.703125 " fill-opacity="1" fill-rule="nonzero"/><path fill="#000000" d="M 376.605469 227.40625 C 377.210938 227.484375 377.8125 227.566406 378.414062 227.652344 C 378.507812 227.667969 378.597656 227.671875 378.691406 227.671875 C 379.601562 227.671875 380.394531 227.007812 380.53125 226.085938 C 380.683594 225.066406 379.980469 224.121094 378.960938 223.972656 C 378.332031 223.878906 377.707031 223.792969 377.074219 223.714844 C 376.046875 223.609375 375.125 224.308594 374.992188 225.324219 C 374.863281 226.34375 375.585938 227.277344 376.605469 227.40625 Z M 376.605469 227.40625 " fill-opacity="1" fill-rule="nonzero"/><path fill="#000000" d="M 358.242188 226.84375 C 358.28125 226.84375 358.324219 226.839844 358.363281 226.839844 C 358.96875 226.800781 359.578125 226.769531 360.1875 226.742188 C 361.214844 226.695312 362.011719 225.828125 361.964844 224.800781 C 361.921875 223.773438 361.074219 222.933594 360.023438 223.023438 C 359.386719 223.050781 358.753906 223.085938 358.121094 223.125 C 357.097656 223.191406 356.316406 224.078125 356.382812 225.101562 C 356.445312 226.085938 357.269531 226.84375 358.242188 226.84375 Z M 358.242188 226.84375 " fill-opacity="1" fill-rule="nonzero"/><path fill="#000000" d="M 385.601562 228.992188 L 386.769531 229.265625 C 386.917969 229.300781 387.0625 229.316406 387.207031 229.316406 C 388.050781 229.316406 388.8125 228.742188 389.015625 227.890625 C 389.257812 226.890625 388.640625 225.886719 387.640625 225.644531 L 386.429688 225.363281 C 385.429688 225.132812 384.429688 225.761719 384.199219 226.761719 C 383.96875 227.765625 384.597656 228.761719 385.601562 228.992188 Z M 385.601562 228.992188 " fill-opacity="1" fill-rule="nonzero"/><path fill="#000000" d="M 348.984375 227.878906 C 349.085938 227.878906 349.183594 227.871094 349.28125 227.855469 C 349.886719 227.757812 350.488281 227.667969 351.09375 227.578125 C 352.113281 227.433594 352.820312 226.488281 352.671875 225.472656 C 352.527344 224.453125 351.574219 223.726562 350.5625 223.894531 C 349.9375 223.984375 349.3125 224.078125 348.691406 224.179688 C 347.675781 224.34375 346.984375 225.296875 347.148438 226.3125 C 347.296875 227.226562 348.085938 227.878906 348.984375 227.878906 Z M 348.984375 227.878906 " fill-opacity="1" fill-rule="nonzero"/><path fill="#000000" d="M 367.496094 226.6875 C 368.109375 226.707031 368.71875 226.734375 369.328125 226.765625 C 369.359375 226.765625 369.390625 226.765625 369.421875 226.765625 C 370.410156 226.765625 371.230469 225.992188 371.28125 225 C 371.332031 223.972656 370.542969 223.097656 369.511719 223.046875 C 368.882812 223.015625 368.25 222.992188 367.617188 222.96875 C 366.65625 222.882812 365.726562 223.742188 365.695312 224.769531 C 365.660156 225.796875 366.46875 226.65625 367.496094 226.6875 Z M 367.496094 226.6875 " fill-opacity="1" fill-rule="nonzero"/><path fill="#000000" d="M 290.222656 261.292969 C 290.757812 261.292969 291.285156 261.066406 291.65625 260.625 C 292.046875 260.15625 292.441406 259.695312 292.839844 259.238281 C 293.515625 258.460938 293.433594 257.289062 292.660156 256.613281 C 291.886719 255.941406 290.710938 256.019531 290.03125 256.792969 C 289.613281 257.269531 289.203125 257.75 288.792969 258.238281 C 288.136719 259.027344 288.238281 260.199219 289.03125 260.859375 C 289.378906 261.148438 289.804688 261.292969 290.222656 261.292969 Z M 290.222656 261.292969 " fill-opacity="1" fill-rule="nonzero"/><path fill="#000000" d="M 296.542969 254.453125 C 297.015625 254.453125 297.488281 254.277344 297.851562 253.917969 C 298.285156 253.492188 298.71875 253.066406 299.164062 252.648438 C 299.910156 251.941406 299.941406 250.765625 299.234375 250.019531 C 298.527344 249.273438 297.347656 249.242188 296.601562 249.949219 C 296.140625 250.386719 295.683594 250.824219 295.230469 251.269531 C 294.5 251.992188 294.492188 253.171875 295.214844 253.902344 C 295.582031 254.269531 296.0625 254.453125 296.542969 254.453125 Z M 296.542969 254.453125 " fill-opacity="1" fill-rule="nonzero"/><path fill="#000000" d="M 284.59375 268.703125 C 285.1875 268.703125 285.773438 268.417969 286.132812 267.890625 C 286.476562 267.390625 286.824219 266.894531 287.179688 266.402344 C 287.78125 265.566406 287.589844 264.402344 286.75 263.804688 C 285.917969 263.203125 284.75 263.394531 284.152344 264.230469 C 283.78125 264.746094 283.414062 265.265625 283.058594 265.789062 C 282.476562 266.636719 282.691406 267.796875 283.542969 268.375 C 283.863281 268.597656 284.230469 268.703125 284.59375 268.703125 Z M 284.59375 268.703125 " fill-opacity="1" fill-rule="nonzero"/><path fill="#000000" d="M 303.480469 248.253906 C 303.894531 248.253906 304.308594 248.117188 304.652344 247.835938 C 305.128906 247.453125 305.605469 247.074219 306.089844 246.695312 C 306.898438 246.0625 307.039062 244.890625 306.40625 244.082031 C 305.769531 243.273438 304.597656 243.128906 303.789062 243.765625 C 303.292969 244.15625 302.796875 244.550781 302.308594 244.949219 C 301.507812 245.59375 301.382812 246.765625 302.035156 247.566406 C 302.402344 248.019531 302.941406 248.253906 303.480469 248.253906 Z M 303.480469 248.253906 " fill-opacity="1" fill-rule="nonzero"/><path fill="#000000" d="M 265.945312 313.835938 C 265.882812 314.464844 265.828125 315.09375 265.78125 315.722656 C 265.703125 316.746094 266.472656 317.640625 267.496094 317.71875 C 267.546875 317.722656 267.59375 317.726562 267.640625 317.726562 C 268.605469 317.726562 269.421875 316.984375 269.496094 316.007812 C 269.546875 315.398438 269.597656 314.789062 269.652344 314.183594 C 269.75 313.164062 268.996094 312.253906 267.972656 312.160156 C 266.9375 312.039062 266.042969 312.8125 265.945312 313.835938 Z M 265.945312 313.835938 " fill-opacity="1" fill-rule="nonzero"/><path fill="#000000" d="M 272.613281 298.050781 C 272.777344 297.460938 272.945312 296.875 273.121094 296.289062 C 273.410156 295.304688 272.84375 294.269531 271.855469 293.980469 C 270.867188 293.691406 269.832031 294.257812 269.542969 295.242188 C 269.363281 295.847656 269.191406 296.453125 269.023438 297.0625 C 268.75 298.050781 269.332031 299.078125 270.324219 299.351562 C 270.488281 299.394531 270.65625 299.417969 270.820312 299.417969 C 271.636719 299.417969 272.386719 298.875 272.613281 298.050781 Z M 272.613281 298.050781 " fill-opacity="1" fill-rule="nonzero"/><path fill="#000000" d="M 270.621094 306.949219 C 270.726562 306.347656 270.835938 305.75 270.953125 305.15625 C 271.148438 304.144531 270.488281 303.167969 269.476562 302.972656 C 268.46875 302.777344 267.492188 303.4375 267.292969 304.445312 C 267.171875 305.066406 267.058594 305.691406 266.949219 306.316406 C 266.777344 307.332031 267.457031 308.292969 268.46875 308.464844 C 268.578125 308.484375 268.683594 308.492188 268.789062 308.492188 C 269.679688 308.492188 270.464844 307.855469 270.621094 306.949219 Z M 270.621094 306.949219 " fill-opacity="1" fill-rule="nonzero"/><g fill="#000000" fill-opacity="1"><g transform="translate(189.150744, 159.253445)"><g><path d="M 16.046875 -9 C 16.046875 -7.582031 16.132812 -6.4375 16.3125 -5.5625 C 16.5 -4.6875 16.878906 -4.015625 17.453125 -3.546875 C 18.035156 -3.078125 18.859375 -2.75 19.921875 -2.5625 C 20.984375 -2.382812 22.410156 -2.273438 24.203125 -2.234375 L 24.203125 0 L 1.953125 0 L 1.953125 -2.234375 C 3.179688 -2.273438 4.1875 -2.382812 4.96875 -2.5625 C 5.75 -2.75 6.34375 -3.066406 6.75 -3.515625 C 7.164062 -3.960938 7.445312 -4.597656 7.59375 -5.421875 C 7.75 -6.242188 7.828125 -7.304688 7.828125 -8.609375 L 7.828125 -34.421875 C 7.828125 -35.734375 7.757812 -36.785156 7.625 -37.578125 C 7.5 -38.378906 7.25 -39.015625 6.875 -39.484375 C 6.5 -39.953125 5.96875 -40.269531 5.28125 -40.4375 C 4.59375 -40.601562 3.691406 -40.722656 2.578125 -40.796875 L 2.578125 -43.03125 L 36.78125 -43.03125 L 37.453125 -31.25 L 35.09375 -31.25 C 34.875 -32.84375 34.550781 -34.1875 34.125 -35.28125 C 33.695312 -36.382812 33.085938 -37.28125 32.296875 -37.96875 C 31.515625 -38.664062 30.507812 -39.160156 29.28125 -39.453125 C 28.050781 -39.753906 26.546875 -39.90625 24.765625 -39.90625 L 17.046875 -39.90625 C 16.378906 -39.90625 16.046875 -39.585938 16.046875 -38.953125 L 16.046875 -22.796875 C 18.316406 -22.796875 20.164062 -22.890625 21.59375 -23.078125 C 23.03125 -23.265625 24.175781 -23.628906 25.03125 -24.171875 C 25.894531 -24.710938 26.507812 -25.445312 26.875 -26.375 C 27.25 -27.3125 27.515625 -28.539062 27.671875 -30.0625 L 29.734375 -30.0625 L 29.734375 -12.578125 L 27.671875 -12.578125 C 27.441406 -14.140625 27.117188 -15.394531 26.703125 -16.34375 C 26.296875 -17.289062 25.671875 -18.015625 24.828125 -18.515625 C 23.992188 -19.023438 22.867188 -19.375 21.453125 -19.5625 C 20.046875 -19.75 18.242188 -19.84375 16.046875 -19.84375 Z M 16.046875 -9 "/></g></g></g><g fill="#000000" fill-opacity="1"><g transform="translate(227.657653, 159.253445)"><g><path d="M 14.421875 -8.65625 C 14.421875 -7.207031 14.484375 -6.0625 14.609375 -5.21875 C 14.742188 -4.382812 15.015625 -3.742188 15.421875 -3.296875 C 15.835938 -2.847656 16.4375 -2.554688 17.21875 -2.421875 C 18 -2.296875 19.039062 -2.234375 20.34375 -2.234375 L 20.34375 0 L 1.671875 0 L 1.671875 -2.234375 C 2.796875 -2.304688 3.691406 -2.414062 4.359375 -2.5625 C 5.023438 -2.71875 5.523438 -3.019531 5.859375 -3.46875 C 6.203125 -3.914062 6.421875 -4.554688 6.515625 -5.390625 C 6.609375 -6.234375 6.65625 -7.363281 6.65625 -8.78125 L 6.65625 -15.59375 C 6.65625 -17.90625 6.597656 -19.75 6.484375 -21.125 C 6.367188 -22.5 6.125 -23.5625 5.75 -24.3125 C 5.382812 -25.0625 4.851562 -25.554688 4.15625 -25.796875 C 3.46875 -26.035156 2.566406 -26.15625 1.453125 -26.15625 L 1.453125 -28.109375 L 12.625 -30.1875 L 13.53125 -23.75 L 13.75 -23.75 C 14.757812 -25.726562 16.082031 -27.296875 17.71875 -28.453125 C 19.351562 -29.609375 21.085938 -30.1875 22.921875 -30.1875 C 24.328125 -30.1875 25.476562 -29.832031 26.375 -29.125 C 27.269531 -28.414062 27.71875 -27.519531 27.71875 -26.4375 C 27.71875 -25.238281 27.375 -24.226562 26.6875 -23.40625 C 26 -22.59375 25.054688 -22.1875 23.859375 -22.1875 C 23.304688 -22.1875 22.804688 -22.296875 22.359375 -22.515625 C 21.910156 -22.742188 21.507812 -23 21.15625 -23.28125 C 20.800781 -23.5625 20.445312 -23.820312 20.09375 -24.0625 C 19.738281 -24.300781 19.375 -24.421875 19 -24.421875 C 18.289062 -24.421875 17.617188 -23.953125 16.984375 -23.015625 C 16.359375 -22.085938 15.835938 -20.84375 15.421875 -19.28125 C 15.128906 -18.164062 14.890625 -16.90625 14.703125 -15.5 C 14.515625 -14.101562 14.421875 -12.71875 14.421875 -11.34375 Z M 14.421875 -8.65625 "/></g></g></g><g fill="#000000" fill-opacity="1"><g transform="translate(255.489936, 159.253445)"><g><path d="M 30.1875 -5.203125 C 26.789062 -1.359375 22.5625 0.5625 17.5 0.5625 C 15.1875 0.5625 13.085938 0.195312 11.203125 -0.53125 C 9.328125 -1.257812 7.71875 -2.285156 6.375 -3.609375 C 5.03125 -4.929688 3.984375 -6.503906 3.234375 -8.328125 C 2.492188 -10.148438 2.125 -12.179688 2.125 -14.421875 C 2.125 -16.734375 2.515625 -18.847656 3.296875 -20.765625 C 4.078125 -22.679688 5.1875 -24.335938 6.625 -25.734375 C 8.0625 -27.128906 9.753906 -28.21875 11.703125 -29 C 13.660156 -29.789062 15.816406 -30.1875 18.171875 -30.1875 C 22.117188 -30.1875 25.191406 -29.125 27.390625 -27 C 29.585938 -24.875 30.6875 -21.890625 30.6875 -18.046875 C 30.6875 -17.453125 30.59375 -17.085938 30.40625 -16.953125 C 30.21875 -16.828125 29.695312 -16.765625 28.84375 -16.765625 L 10.84375 -16.765625 C 10.695312 -16.429688 10.625 -15.816406 10.625 -14.921875 C 10.625 -11.273438 11.414062 -8.390625 13 -6.265625 C 14.582031 -4.140625 16.734375 -3.078125 19.453125 -3.078125 C 21.015625 -3.078125 22.566406 -3.429688 24.109375 -4.140625 C 25.660156 -4.847656 27.160156 -5.851562 28.609375 -7.15625 Z M 19.34375 -19.890625 C 20.832031 -19.890625 21.789062 -19.972656 22.21875 -20.140625 C 22.644531 -20.316406 22.859375 -20.71875 22.859375 -21.34375 C 22.859375 -22.988281 22.390625 -24.332031 21.453125 -25.375 C 20.523438 -26.414062 19.351562 -26.9375 17.9375 -26.9375 C 16.332031 -26.9375 14.90625 -26.273438 13.65625 -24.953125 C 12.414062 -23.628906 11.609375 -21.941406 11.234375 -19.890625 Z M 19.34375 -19.890625 "/></g></g></g><g fill="#000000" fill-opacity="1"><g transform="translate(288.184479, 159.253445)"><g><path d="M 30.1875 -5.203125 C 26.789062 -1.359375 22.5625 0.5625 17.5 0.5625 C 15.1875 0.5625 13.085938 0.195312 11.203125 -0.53125 C 9.328125 -1.257812 7.71875 -2.285156 6.375 -3.609375 C 5.03125 -4.929688 3.984375 -6.503906 3.234375 -8.328125 C 2.492188 -10.148438 2.125 -12.179688 2.125 -14.421875 C 2.125 -16.734375 2.515625 -18.847656 3.296875 -20.765625 C 4.078125 -22.679688 5.1875 -24.335938 6.625 -25.734375 C 8.0625 -27.128906 9.753906 -28.21875 11.703125 -29 C 13.660156 -29.789062 15.816406 -30.1875 18.171875 -30.1875 C 22.117188 -30.1875 25.191406 -29.125 27.390625 -27 C 29.585938 -24.875 30.6875 -21.890625 30.6875 -18.046875 C 30.6875 -17.453125 30.59375 -17.085938 30.40625 -16.953125 C 30.21875 -16.828125 29.695312 -16.765625 28.84375 -16.765625 L 10.84375 -16.765625 C 10.695312 -16.429688 10.625 -15.816406 10.625 -14.921875 C 10.625 -11.273438 11.414062 -8.390625 13 -6.265625 C 14.582031 -4.140625 16.734375 -3.078125 19.453125 -3.078125 C 21.015625 -3.078125 22.566406 -3.429688 24.109375 -4.140625 C 25.660156 -4.847656 27.160156 -5.851562 28.609375 -7.15625 Z M 19.34375 -19.890625 C 20.832031 -19.890625 21.789062 -19.972656 22.21875 -20.140625 C 22.644531 -20.316406 22.859375 -20.71875 22.859375 -21.34375 C 22.859375 -22.988281 22.390625 -24.332031 21.453125 -25.375 C 20.523438 -26.414062 19.351562 -26.9375 17.9375 -26.9375 C 16.332031 -26.9375 14.90625 -26.273438 13.65625 -24.953125 C 12.414062 -23.628906 11.609375 -21.941406 11.234375 -19.890625 Z M 19.34375 -19.890625 "/></g></g></g><g fill="#000000" fill-opacity="1"><g transform="translate(320.879023, 159.253445)"><g><path d="M 13.8125 -9.171875 C 13.8125 -7.679688 13.863281 -6.488281 13.96875 -5.59375 C 14.082031 -4.695312 14.304688 -4.003906 14.640625 -3.515625 C 14.972656 -3.035156 15.457031 -2.710938 16.09375 -2.546875 C 16.726562 -2.378906 17.585938 -2.273438 18.671875 -2.234375 L 18.671875 0 L 1.0625 0 L 1.0625 -2.234375 C 2.101562 -2.273438 2.945312 -2.394531 3.59375 -2.59375 C 4.25 -2.800781 4.753906 -3.132812 5.109375 -3.59375 C 5.460938 -4.0625 5.703125 -4.710938 5.828125 -5.546875 C 5.960938 -6.390625 6.03125 -7.46875 6.03125 -8.78125 L 6.03125 -31.859375 C 6.03125 -34.015625 5.992188 -35.789062 5.921875 -37.1875 C 5.847656 -38.59375 5.753906 -39.554688 5.640625 -40.078125 C 5.453125 -41.003906 5.03125 -41.613281 4.375 -41.90625 C 3.726562 -42.207031 2.550781 -42.359375 0.84375 -42.359375 L 0.84375 -44.265625 L 13.8125 -46.390625 Z M 13.8125 -9.171875 "/></g></g></g><g fill="#000000" fill-opacity="1"><g transform="translate(340.719307, 159.253445)"><g><path d="M 19.21875 -15.921875 C 16.09375 -14.515625 13.738281 -13.203125 12.15625 -11.984375 C 10.570312 -10.773438 9.78125 -9.519531 9.78125 -8.21875 C 9.78125 -7.132812 10.078125 -6.273438 10.671875 -5.640625 C 11.265625 -5.003906 12.007812 -4.6875 12.90625 -4.6875 C 13.800781 -4.6875 14.640625 -4.84375 15.421875 -5.15625 C 16.203125 -5.476562 16.875 -5.898438 17.4375 -6.421875 C 18 -6.941406 18.4375 -7.566406 18.75 -8.296875 C 19.0625 -9.023438 19.21875 -9.800781 19.21875 -10.625 Z M 19.21875 -18.890625 L 19.21875 -21.234375 C 19.21875 -23.398438 18.835938 -24.972656 18.078125 -25.953125 C 17.316406 -26.941406 16.132812 -27.4375 14.53125 -27.4375 C 13.445312 -27.4375 12.625 -27.144531 12.0625 -26.5625 C 11.507812 -25.988281 10.988281 -25.035156 10.5 -23.703125 C 10.164062 -22.765625 9.691406 -22.035156 9.078125 -21.515625 C 8.460938 -20.992188 7.617188 -20.734375 6.546875 -20.734375 C 5.492188 -20.734375 4.6875 -21.050781 4.125 -21.6875 C 3.570312 -22.320312 3.296875 -23.21875 3.296875 -24.375 C 3.296875 -26.15625 4.273438 -27.566406 6.234375 -28.609375 C 8.191406 -29.660156 11.144531 -30.1875 15.09375 -30.1875 C 19.257812 -30.1875 22.238281 -29.429688 24.03125 -27.921875 C 25.820312 -26.410156 26.71875 -23.882812 26.71875 -20.34375 L 26.71875 -8.109375 C 26.71875 -4.941406 27.347656 -3.359375 28.609375 -3.359375 C 29.316406 -3.359375 29.972656 -3.597656 30.578125 -4.078125 L 31.40625 -2.453125 C 30.882812 -1.523438 30.070312 -0.789062 28.96875 -0.25 C 27.875 0.289062 26.640625 0.5625 25.265625 0.5625 C 23.546875 0.5625 22.238281 0.0390625 21.34375 -1 C 20.457031 -2.050781 20.015625 -3.523438 20.015625 -5.421875 L 19.734375 -5.421875 C 18.648438 -3.484375 17.25 -2.007812 15.53125 -1 C 13.820312 0 11.867188 0.5 9.671875 0.5 C 7.316406 0.5 5.429688 -0.160156 4.015625 -1.484375 C 2.609375 -2.804688 1.90625 -4.53125 1.90625 -6.65625 C 1.90625 -8.289062 2.628906 -9.820312 4.078125 -11.25 C 5.535156 -12.6875 7.957031 -14.097656 11.34375 -15.484375 Z M 19.21875 -18.890625 "/></g></g></g><g fill="#000000" fill-opacity="1"><g transform="translate(372.799086, 159.253445)"><g><path d="M 14.359375 -9.109375 C 14.359375 -7.578125 14.40625 -6.375 14.5 -5.5 C 14.59375 -4.625 14.796875 -3.953125 15.109375 -3.484375 C 15.429688 -3.023438 15.914062 -2.71875 16.5625 -2.5625 C 17.21875 -2.414062 18.101562 -2.304688 19.21875 -2.234375 L 19.21875 0 L 1.625 0 L 1.625 -2.234375 C 2.695312 -2.304688 3.5625 -2.414062 4.21875 -2.5625 C 4.875 -2.71875 5.378906 -3.019531 5.734375 -3.46875 C 6.085938 -3.914062 6.316406 -4.546875 6.421875 -5.359375 C 6.535156 -6.179688 6.59375 -7.300781 6.59375 -8.71875 L 6.59375 -15.703125 C 6.59375 -17.898438 6.554688 -19.675781 6.484375 -21.03125 C 6.410156 -22.394531 6.316406 -23.320312 6.203125 -23.8125 C 6.085938 -24.289062 5.9375 -24.6875 5.75 -25 C 5.570312 -25.320312 5.296875 -25.566406 4.921875 -25.734375 C 4.546875 -25.898438 4.078125 -26.007812 3.515625 -26.0625 C 2.960938 -26.125 2.253906 -26.15625 1.390625 -26.15625 L 1.390625 -28.0625 L 12.1875 -30.1875 L 12.90625 -25.265625 L 13.140625 -25.265625 C 14.367188 -26.828125 15.820312 -28.035156 17.5 -28.890625 C 19.175781 -29.753906 21.019531 -30.1875 23.03125 -30.1875 C 25.414062 -30.1875 27.34375 -29.859375 28.8125 -29.203125 C 30.28125 -28.546875 31.59375 -27.457031 32.75 -25.9375 C 33.382812 -25.070312 33.941406 -23.957031 34.421875 -22.59375 C 34.910156 -21.238281 35.15625 -19.367188 35.15625 -16.984375 L 35.15625 -9.109375 C 35.15625 -7.578125 35.203125 -6.375 35.296875 -5.5 C 35.390625 -4.625 35.59375 -3.953125 35.90625 -3.484375 C 36.226562 -3.023438 36.703125 -2.71875 37.328125 -2.5625 C 37.960938 -2.414062 38.820312 -2.304688 39.90625 -2.234375 L 39.90625 0 L 22.40625 0 L 22.40625 -2.234375 C 23.53125 -2.273438 24.414062 -2.378906 25.0625 -2.546875 C 25.71875 -2.710938 26.210938 -3.019531 26.546875 -3.46875 C 26.878906 -3.914062 27.101562 -4.554688 27.21875 -5.390625 C 27.332031 -6.234375 27.390625 -7.34375 27.390625 -8.71875 L 27.390625 -16.3125 C 27.390625 -18.21875 27.273438 -19.820312 27.046875 -21.125 C 26.828125 -22.425781 26.460938 -23.476562 25.953125 -24.28125 C 25.453125 -25.082031 24.789062 -25.660156 23.96875 -26.015625 C 23.15625 -26.367188 22.132812 -26.546875 20.90625 -26.546875 C 19.707031 -26.546875 18.679688 -26.207031 17.828125 -25.53125 C 16.972656 -24.863281 16.226562 -23.9375 15.59375 -22.75 C 15.257812 -22.070312 14.96875 -21.203125 14.71875 -20.140625 C 14.476562 -19.085938 14.359375 -17.984375 14.359375 -16.828125 Z M 14.359375 -9.109375 "/></g></g></g><g fill="#000000" fill-opacity="1"><g transform="translate(413.429725, 159.253445)"><g><path d="M 29.515625 -4.640625 C 28.097656 -3.078125 26.335938 -1.863281 24.234375 -1 C 22.128906 -0.144531 19.84375 0.28125 17.375 0.28125 C 15.101562 0.28125 13.035156 -0.0820312 11.171875 -0.8125 C 9.316406 -1.539062 7.71875 -2.554688 6.375 -3.859375 C 5.03125 -5.160156 3.992188 -6.734375 3.265625 -8.578125 C 2.546875 -10.421875 2.1875 -12.460938 2.1875 -14.703125 C 2.1875 -17.015625 2.578125 -19.117188 3.359375 -21.015625 C 4.140625 -22.910156 5.238281 -24.535156 6.65625 -25.890625 C 8.070312 -27.253906 9.765625 -28.3125 11.734375 -29.0625 C 13.710938 -29.8125 15.894531 -30.1875 18.28125 -30.1875 C 19.957031 -30.1875 21.507812 -30.015625 22.9375 -29.671875 C 24.375 -29.335938 25.601562 -28.875 26.625 -28.28125 C 27.65625 -27.6875 28.46875 -26.988281 29.0625 -26.1875 C 29.65625 -25.382812 29.953125 -24.515625 29.953125 -23.578125 C 29.953125 -22.503906 29.644531 -21.648438 29.03125 -21.015625 C 28.414062 -20.378906 27.585938 -20.0625 26.546875 -20.0625 C 25.691406 -20.0625 24.9375 -20.285156 24.28125 -20.734375 C 23.632812 -21.179688 22.992188 -21.910156 22.359375 -22.921875 C 21.796875 -23.804688 21.316406 -24.507812 20.921875 -25.03125 C 20.535156 -25.5625 20.175781 -25.960938 19.84375 -26.234375 C 19.507812 -26.515625 19.171875 -26.703125 18.828125 -26.796875 C 18.492188 -26.890625 18.085938 -26.9375 17.609375 -26.9375 C 15.441406 -26.9375 13.757812 -25.929688 12.5625 -23.921875 C 11.375 -21.910156 10.78125 -19.097656 10.78125 -15.484375 C 10.78125 -11.609375 11.5 -8.625 12.9375 -6.53125 C 14.375 -4.445312 16.429688 -3.40625 19.109375 -3.40625 C 20.640625 -3.40625 22.164062 -3.691406 23.6875 -4.265625 C 25.21875 -4.847656 26.675781 -5.679688 28.0625 -6.765625 Z M 29.515625 -4.640625 "/></g></g></g><g fill="#000000" fill-opacity="1"><g transform="translate(444.950631, 159.253445)"><g><path d="M 14.359375 -9.171875 C 14.359375 -7.679688 14.414062 -6.488281 14.53125 -5.59375 C 14.644531 -4.695312 14.867188 -4.003906 15.203125 -3.515625 C 15.535156 -3.035156 16.019531 -2.710938 16.65625 -2.546875 C 17.289062 -2.378906 18.144531 -2.273438 19.21875 -2.234375 L 19.21875 0 L 1.625 0 L 1.625 -2.234375 C 2.664062 -2.273438 3.507812 -2.394531 4.15625 -2.59375 C 4.8125 -2.800781 5.316406 -3.132812 5.671875 -3.59375 C 6.023438 -4.0625 6.265625 -4.710938 6.390625 -5.546875 C 6.523438 -6.390625 6.59375 -7.46875 6.59375 -8.78125 L 6.59375 -15.65625 C 6.59375 -17.8125 6.554688 -19.585938 6.484375 -20.984375 C 6.410156 -22.378906 6.316406 -23.335938 6.203125 -23.859375 C 6.015625 -24.796875 5.59375 -25.410156 4.9375 -25.703125 C 4.289062 -26.003906 3.109375 -26.15625 1.390625 -26.15625 L 1.390625 -28.0625 L 14.359375 -30.1875 Z M 6.140625 -42.03125 C 6.140625 -43.257812 6.554688 -44.289062 7.390625 -45.125 C 8.234375 -45.96875 9.253906 -46.390625 10.453125 -46.390625 C 11.679688 -46.390625 12.710938 -45.96875 13.546875 -45.125 C 14.390625 -44.289062 14.8125 -43.257812 14.8125 -42.03125 C 14.8125 -40.832031 14.390625 -39.8125 13.546875 -38.96875 C 12.710938 -38.132812 11.679688 -37.71875 10.453125 -37.71875 C 9.253906 -37.71875 8.234375 -38.132812 7.390625 -38.96875 C 6.554688 -39.8125 6.140625 -40.832031 6.140625 -42.03125 Z M 6.140625 -42.03125 "/></g></g></g><g fill="#000000" fill-opacity="1"><g transform="translate(465.126255, 159.253445)"><g><path d="M 14.359375 -9.109375 C 14.359375 -7.578125 14.40625 -6.375 14.5 -5.5 C 14.59375 -4.625 14.796875 -3.953125 15.109375 -3.484375 C 15.429688 -3.023438 15.914062 -2.71875 16.5625 -2.5625 C 17.21875 -2.414062 18.101562 -2.304688 19.21875 -2.234375 L 19.21875 0 L 1.625 0 L 1.625 -2.234375 C 2.695312 -2.304688 3.5625 -2.414062 4.21875 -2.5625 C 4.875 -2.71875 5.378906 -3.019531 5.734375 -3.46875 C 6.085938 -3.914062 6.316406 -4.546875 6.421875 -5.359375 C 6.535156 -6.179688 6.59375 -7.300781 6.59375 -8.71875 L 6.59375 -15.703125 C 6.59375 -17.898438 6.554688 -19.675781 6.484375 -21.03125 C 6.410156 -22.394531 6.316406 -23.320312 6.203125 -23.8125 C 6.085938 -24.289062 5.9375 -24.6875 5.75 -25 C 5.570312 -25.320312 5.296875 -25.566406 4.921875 -25.734375 C 4.546875 -25.898438 4.078125 -26.007812 3.515625 -26.0625 C 2.960938 -26.125 2.253906 -26.15625 1.390625 -26.15625 L 1.390625 -28.0625 L 12.1875 -30.1875 L 12.90625 -25.265625 L 13.140625 -25.265625 C 14.367188 -26.828125 15.820312 -28.035156 17.5 -28.890625 C 19.175781 -29.753906 21.019531 -30.1875 23.03125 -30.1875 C 25.414062 -30.1875 27.34375 -29.859375 28.8125 -29.203125 C 30.28125 -28.546875 31.59375 -27.457031 32.75 -25.9375 C 33.382812 -25.070312 33.941406 -23.957031 34.421875 -22.59375 C 34.910156 -21.238281 35.15625 -19.367188 35.15625 -16.984375 L 35.15625 -9.109375 C 35.15625 -7.578125 35.203125 -6.375 35.296875 -5.5 C 35.390625 -4.625 35.59375 -3.953125 35.90625 -3.484375 C 36.226562 -3.023438 36.703125 -2.71875 37.328125 -2.5625 C 37.960938 -2.414062 38.820312 -2.304688 39.90625 -2.234375 L 39.90625 0 L 22.40625 0 L 22.40625 -2.234375 C 23.53125 -2.273438 24.414062 -2.378906 25.0625 -2.546875 C 25.71875 -2.710938 26.210938 -3.019531 26.546875 -3.46875 C 26.878906 -3.914062 27.101562 -4.554688 27.21875 -5.390625 C 27.332031 -6.234375 27.390625 -7.34375 27.390625 -8.71875 L 27.390625 -16.3125 C 27.390625 -18.21875 27.273438 -19.820312 27.046875 -21.125 C 26.828125 -22.425781 26.460938 -23.476562 25.953125 -24.28125 C 25.453125 -25.082031 24.789062 -25.660156 23.96875 -26.015625 C 23.15625 -26.367188 22.132812 -26.546875 20.90625 -26.546875 C 19.707031 -26.546875 18.679688 -26.207031 17.828125 -25.53125 C 16.972656 -24.863281 16.226562 -23.9375 15.59375 -22.75 C 15.257812 -22.070312 14.96875 -21.203125 14.71875 -20.140625 C 14.476562 -19.085938 14.359375 -17.984375 14.359375 -16.828125 Z M 14.359375 -9.109375 "/></g></g></g><g fill="#000000" fill-opacity="1"><g transform="translate(505.756905, 159.253445)"><g><path d="M 12.75 -6.03125 C 13.75 -5.957031 14.628906 -5.882812 15.390625 -5.8125 C 16.160156 -5.738281 16.890625 -5.65625 17.578125 -5.5625 C 18.265625 -5.46875 18.953125 -5.375 19.640625 -5.28125 C 20.328125 -5.1875 21.066406 -5.082031 21.859375 -4.96875 C 24.765625 -4.5625 27.046875 -3.472656 28.703125 -1.703125 C 30.359375 0.0664062 31.1875 2.253906 31.1875 4.859375 C 31.1875 8.023438 29.878906 10.425781 27.265625 12.0625 C 24.660156 13.707031 20.828125 14.53125 15.765625 14.53125 C 11.109375 14.53125 7.519531 13.847656 5 12.484375 C 2.488281 11.128906 1.234375 9.203125 1.234375 6.703125 C 1.234375 4.765625 1.734375 3.300781 2.734375 2.3125 C 3.742188 1.332031 5.015625 0.84375 6.546875 0.84375 C 7.515625 0.84375 8.453125 1.035156 9.359375 1.421875 C 10.273438 1.816406 11.050781 2.382812 11.6875 3.125 C 10.71875 3.3125 9.925781 3.75 9.3125 4.4375 C 8.695312 5.132812 8.390625 5.945312 8.390625 6.875 C 8.390625 8.363281 9.050781 9.507812 10.375 10.3125 C 11.695312 11.113281 13.640625 11.515625 16.203125 11.515625 C 21.796875 11.515625 24.59375 9.742188 24.59375 6.203125 C 24.59375 4.929688 24.171875 3.835938 23.328125 2.921875 C 22.492188 2.015625 21.296875 1.46875 19.734375 1.28125 L 9.953125 -0.0625 C 5.816406 -0.613281 3.75 -2.457031 3.75 -5.59375 C 3.75 -7.113281 4.238281 -8.359375 5.21875 -9.328125 C 6.207031 -10.296875 7.617188 -10.96875 9.453125 -11.34375 L 9.453125 -11.5625 C 8.585938 -11.90625 7.8125 -12.375 7.125 -12.96875 C 6.4375 -13.5625 5.832031 -14.25 5.3125 -15.03125 C 4.789062 -15.8125 4.390625 -16.660156 4.109375 -17.578125 C 3.828125 -18.492188 3.6875 -19.4375 3.6875 -20.40625 C 3.6875 -21.78125 3.972656 -23.070312 4.546875 -24.28125 C 5.128906 -25.488281 5.929688 -26.519531 6.953125 -27.375 C 7.984375 -28.238281 9.195312 -28.921875 10.59375 -29.421875 C 11.988281 -29.929688 13.503906 -30.1875 15.140625 -30.1875 C 16.742188 -30.1875 18.304688 -29.941406 19.828125 -29.453125 C 21.359375 -28.972656 22.664062 -28.300781 23.75 -27.4375 C 24.601562 -27.957031 25.347656 -28.394531 25.984375 -28.75 C 26.617188 -29.101562 27.207031 -29.382812 27.75 -29.59375 C 28.289062 -29.800781 28.785156 -29.953125 29.234375 -30.046875 C 29.679688 -30.140625 30.128906 -30.1875 30.578125 -30.1875 C 31.992188 -30.1875 33.140625 -29.867188 34.015625 -29.234375 C 34.890625 -28.597656 35.328125 -27.757812 35.328125 -26.71875 C 35.328125 -25.9375 35.082031 -25.289062 34.59375 -24.78125 C 34.113281 -24.28125 33.484375 -24.03125 32.703125 -24.03125 C 32.140625 -24.03125 31.691406 -24.148438 31.359375 -24.390625 C 31.023438 -24.640625 30.695312 -24.921875 30.375 -25.234375 C 30.0625 -25.546875 29.734375 -25.820312 29.390625 -26.0625 C 29.054688 -26.3125 28.613281 -26.4375 28.0625 -26.4375 C 27.28125 -26.4375 26.535156 -25.929688 25.828125 -24.921875 C 26.191406 -24.296875 26.445312 -23.617188 26.59375 -22.890625 C 26.75 -22.160156 26.828125 -21.3125 26.828125 -20.34375 C 26.828125 -18.925781 26.601562 -17.617188 26.15625 -16.421875 C 25.707031 -15.234375 25.007812 -14.179688 24.0625 -13.265625 C 23.113281 -12.359375 21.894531 -11.585938 20.40625 -10.953125 C 18.914062 -10.316406 17.109375 -9.890625 14.984375 -9.671875 C 13.191406 -9.484375 11.953125 -9.238281 11.265625 -8.9375 C 10.578125 -8.644531 10.234375 -8.195312 10.234375 -7.59375 C 10.234375 -6.707031 11.070312 -6.1875 12.75 -6.03125 Z M 15.421875 -12.859375 C 16.617188 -12.859375 17.550781 -13.488281 18.21875 -14.75 C 18.882812 -16.019531 19.21875 -17.789062 19.21875 -20.0625 C 19.21875 -22.375 18.882812 -24.15625 18.21875 -25.40625 C 17.550781 -26.65625 16.601562 -27.28125 15.375 -27.28125 C 14.101562 -27.28125 13.09375 -26.644531 12.34375 -25.375 C 11.601562 -24.101562 11.234375 -22.367188 11.234375 -20.171875 C 11.234375 -17.941406 11.613281 -16.164062 12.375 -14.84375 C 13.144531 -13.519531 14.160156 -12.859375 15.421875 -12.859375 Z M 15.421875 -12.859375 "/></g></g></g></svg>