<svg xmlns="http://www.w3.org/2000/svg" xmlns:xlink="http://www.w3.org/1999/xlink" width="972" zoomAndPan="magnify" viewBox="0 0 729 537.000006" height="716" preserveAspectRatio="xMidYMid meet" version="1.0"><defs><g/><clipPath id="4d66726fe7"><path d="M 0.675781 0 L 728.320312 0 L 728.320312 536 L 0.675781 536 Z M 0.675781 0 " clip-rule="nonzero"/></clipPath><clipPath id="09bf78a47d"><path d="M 406.347656 265 L 500.863281 265 L 500.863281 343.933594 L 406.347656 343.933594 Z M 406.347656 265 " clip-rule="nonzero"/></clipPath><clipPath id="0b9d0c1a27"><path d="M 227.84375 214.402344 L 453.566406 214.402344 L 453.566406 428.480469 L 227.84375 428.480469 Z M 227.84375 214.402344 " clip-rule="nonzero"/></clipPath></defs><g clip-path="url(#4d66726fe7)"><path fill="#ffffff" d="M 0.675781 0 L 728.324219 0 L 728.324219 536 L 0.675781 536 Z M 0.675781 0 " fill-opacity="1" fill-rule="nonzero"/><path fill="#ffffff" d="M 0.675781 0 L 728.324219 0 L 728.324219 536 L 0.675781 536 Z M 0.675781 0 " fill-opacity="1" fill-rule="nonzero"/></g><g clip-path="url(#09bf78a47d)"><path fill="#100f0d" d="M 495.324219 270.859375 C 491.085938 265.707031 484.335938 262.726562 478.585938 267.261719 C 477.125 268.414062 475.664062 269.570312 474.203125 270.722656 C 466.941406 276.449219 459.683594 282.175781 452.425781 287.902344 C 444.046875 294.511719 435.667969 301.121094 427.289062 307.730469 C 424.429688 309.988281 421.570312 312.246094 418.710938 314.503906 C 417.558594 315.40625 415.8125 316.347656 415.046875 317.65625 C 413.164062 320.871094 412.21875 325.027344 410.910156 328.492188 C 409.5625 332.042969 408.21875 335.597656 406.875 339.148438 C 406.152344 341.050781 408.050781 343.707031 410.144531 343.4375 C 417.453125 342.503906 424.765625 341.566406 432.078125 340.632812 C 432.519531 340.574219 432.910156 340.453125 433.257812 340.277344 C 433.671875 340.15625 434.085938 339.949219 434.476562 339.636719 C 446.933594 329.8125 459.390625 319.984375 471.847656 310.15625 C 479.03125 304.492188 486.207031 298.828125 493.386719 293.164062 C 494.769531 292.074219 496.148438 290.984375 497.527344 289.894531 C 504.195312 284.636719 499.488281 275.917969 495.324219 270.859375 " fill-opacity="1" fill-rule="nonzero"/></g><g clip-path="url(#0b9d0c1a27)"><path fill="#100f0d" d="M 453.128906 341.851562 C 453.128906 337.210938 445.929688 337.210938 445.929688 341.851562 C 445.929688 348.492188 445.929688 355.136719 445.929688 361.777344 C 445.929688 374.070312 436.011719 383.917969 423.785156 384.105469 C 415.890625 384.226562 407.980469 384.105469 400.082031 384.105469 C 364.898438 384.105469 329.714844 384.105469 294.53125 384.105469 C 285.929688 384.105469 277.328125 384.105469 268.726562 384.105469 C 266.847656 384.105469 265.753906 385.515625 264.558594 386.714844 C 262.328125 388.941406 260.097656 391.171875 257.867188 393.402344 C 251.429688 399.839844 244.984375 406.28125 238.546875 412.71875 C 237.378906 413.886719 236.210938 415.054688 235.042969 416.222656 C 235.042969 394.277344 235.042969 372.335938 235.042969 350.394531 C 235.042969 320.949219 235.042969 291.5 235.042969 262.054688 C 235.042969 256.679688 235.042969 251.300781 235.042969 245.925781 C 235.042969 238.226562 237.40625 231.542969 243.464844 226.449219 C 251.0625 220.0625 262.820312 221.714844 272.085938 221.714844 C 306.636719 221.714844 341.191406 221.714844 375.742188 221.714844 C 389.390625 221.714844 403.042969 221.714844 416.691406 221.714844 C 419.039062 221.714844 421.394531 221.714844 423.742188 221.714844 C 435.621094 221.714844 445.378906 231.257812 445.917969 243.054688 C 446.445312 254.503906 445.929688 266.082031 445.929688 277.542969 C 445.929688 282.183594 453.128906 282.183594 453.128906 277.542969 C 453.128906 270.789062 453.128906 264.03125 453.128906 257.277344 C 453.128906 249.820312 453.957031 241.652344 451.589844 234.476562 C 447.699219 222.664062 436.140625 214.519531 423.761719 214.519531 C 421.488281 214.519531 419.214844 214.519531 416.941406 214.519531 C 384.609375 214.519531 352.28125 214.519531 319.949219 214.519531 C 304.109375 214.519531 288.269531 214.519531 272.433594 214.519531 C 262.472656 214.519531 251.886719 213.367188 242.8125 218.273438 C 233.40625 223.359375 227.84375 233.726562 227.84375 244.261719 C 227.84375 248.378906 227.84375 252.496094 227.84375 256.617188 C 227.84375 274.132812 227.84375 291.652344 227.84375 309.167969 C 227.84375 331.707031 227.84375 354.242188 227.84375 376.777344 C 227.84375 392.820312 227.84375 408.863281 227.84375 424.90625 C 227.84375 428.046875 231.765625 429.671875 233.988281 427.453125 C 246.042969 415.402344 258.09375 403.351562 270.148438 391.300781 C 295.027344 391.300781 319.90625 391.300781 344.785156 391.300781 C 371.09375 391.300781 397.40625 391.300781 423.714844 391.300781 C 437.886719 391.300781 450.335938 380.835938 452.699219 366.863281 C 453.417969 362.621094 453.128906 358.175781 453.128906 353.886719 C 453.128906 349.875 453.128906 345.863281 453.128906 341.851562 " fill-opacity="1" fill-rule="nonzero"/></g><path fill="#100f0d" d="M 412.394531 255.699219 C 386.125 255.699219 359.855469 255.699219 333.585938 255.699219 C 311.714844 255.699219 289.847656 255.699219 267.976562 255.699219 C 258.695312 255.699219 258.695312 270.09375 267.976562 270.09375 C 294.246094 270.09375 320.515625 270.09375 346.785156 270.09375 C 368.65625 270.09375 390.527344 270.09375 412.394531 270.09375 C 421.679688 270.09375 421.679688 255.699219 412.394531 255.699219 " fill-opacity="1" fill-rule="nonzero"/><path fill="#100f0d" d="M 391.570312 336.257812 C 363.632812 336.257812 335.699219 336.257812 307.757812 336.257812 C 294.496094 336.257812 281.238281 336.257812 267.976562 336.257812 C 258.695312 336.257812 258.695312 350.652344 267.976562 350.652344 C 295.914062 350.652344 323.851562 350.652344 351.789062 350.652344 C 365.050781 350.652344 378.3125 350.652344 391.570312 350.652344 C 400.855469 350.652344 400.855469 336.257812 391.570312 336.257812 " fill-opacity="1" fill-rule="nonzero"/><path fill="#100f0d" d="M 391.570312 297.050781 C 363.632812 297.050781 335.699219 297.050781 307.757812 297.050781 C 294.496094 297.050781 281.238281 297.050781 267.976562 297.050781 C 258.695312 297.050781 258.695312 311.441406 267.976562 311.441406 C 295.914062 311.441406 323.851562 311.441406 351.789062 311.441406 C 365.050781 311.441406 378.3125 311.441406 391.570312 311.441406 C 400.855469 311.441406 400.855469 297.050781 391.570312 297.050781 " fill-opacity="1" fill-rule="nonzero"/><g fill="#000000" fill-opacity="1"><g transform="translate(227.265312, 159.253474)"><g><path d="M 21.96875 0 L 2.015625 0 L 2.015625 -2.234375 C 3.273438 -2.273438 4.285156 -2.394531 5.046875 -2.59375 C 5.816406 -2.800781 6.40625 -3.179688 6.8125 -3.734375 C 7.226562 -4.296875 7.507812 -5.085938 7.65625 -6.109375 C 7.800781 -7.140625 7.875 -8.53125 7.875 -10.28125 L 7.875 -32.75 C 7.875 -34.3125 7.804688 -35.601562 7.671875 -36.625 C 7.546875 -37.65625 7.296875 -38.46875 6.921875 -39.0625 C 6.554688 -39.664062 6.023438 -40.085938 5.328125 -40.328125 C 4.640625 -40.566406 3.722656 -40.722656 2.578125 -40.796875 L 2.578125 -43.03125 L 21.40625 -43.03125 L 21.40625 -40.796875 C 20.25 -40.722656 19.328125 -40.566406 18.640625 -40.328125 C 17.953125 -40.085938 17.421875 -39.664062 17.046875 -39.0625 C 16.671875 -38.46875 16.414062 -37.65625 16.28125 -36.625 C 16.15625 -35.601562 16.09375 -34.3125 16.09375 -32.75 L 16.09375 -10.28125 C 16.09375 -8.53125 16.15625 -7.140625 16.28125 -6.109375 C 16.414062 -5.085938 16.695312 -4.296875 17.125 -3.734375 C 17.550781 -3.179688 18.144531 -2.800781 18.90625 -2.59375 C 19.675781 -2.394531 20.695312 -2.273438 21.96875 -2.234375 Z M 21.96875 0 "/></g></g></g><g fill="#000000" fill-opacity="1"><g transform="translate(251.241308, 159.253474)"><g><path d="M 14.359375 -9.109375 C 14.359375 -7.578125 14.40625 -6.375 14.5 -5.5 C 14.59375 -4.625 14.796875 -3.953125 15.109375 -3.484375 C 15.429688 -3.023438 15.914062 -2.71875 16.5625 -2.5625 C 17.21875 -2.414062 18.101562 -2.304688 19.21875 -2.234375 L 19.21875 0 L 1.625 0 L 1.625 -2.234375 C 2.695312 -2.304688 3.5625 -2.414062 4.21875 -2.5625 C 4.875 -2.71875 5.378906 -3.019531 5.734375 -3.46875 C 6.085938 -3.914062 6.316406 -4.546875 6.421875 -5.359375 C 6.535156 -6.179688 6.59375 -7.300781 6.59375 -8.71875 L 6.59375 -15.703125 C 6.59375 -17.898438 6.554688 -19.675781 6.484375 -21.03125 C 6.410156 -22.394531 6.316406 -23.320312 6.203125 -23.8125 C 6.085938 -24.289062 5.9375 -24.6875 5.75 -25 C 5.570312 -25.320312 5.296875 -25.566406 4.921875 -25.734375 C 4.546875 -25.898438 4.078125 -26.007812 3.515625 -26.0625 C 2.960938 -26.125 2.253906 -26.15625 1.390625 -26.15625 L 1.390625 -28.0625 L 12.1875 -30.1875 L 12.90625 -25.265625 L 13.140625 -25.265625 C 14.367188 -26.828125 15.820312 -28.035156 17.5 -28.890625 C 19.175781 -29.753906 21.019531 -30.1875 23.03125 -30.1875 C 25.414062 -30.1875 27.34375 -29.859375 28.8125 -29.203125 C 30.28125 -28.546875 31.59375 -27.457031 32.75 -25.9375 C 33.382812 -25.070312 33.941406 -23.957031 34.421875 -22.59375 C 34.910156 -21.238281 35.15625 -19.367188 35.15625 -16.984375 L 35.15625 -9.109375 C 35.15625 -7.578125 35.203125 -6.375 35.296875 -5.5 C 35.390625 -4.625 35.59375 -3.953125 35.90625 -3.484375 C 36.226562 -3.023438 36.703125 -2.71875 37.328125 -2.5625 C 37.960938 -2.414062 38.820312 -2.304688 39.90625 -2.234375 L 39.90625 0 L 22.40625 0 L 22.40625 -2.234375 C 23.53125 -2.273438 24.414062 -2.378906 25.0625 -2.546875 C 25.71875 -2.710938 26.210938 -3.019531 26.546875 -3.46875 C 26.878906 -3.914062 27.101562 -4.554688 27.21875 -5.390625 C 27.332031 -6.234375 27.390625 -7.34375 27.390625 -8.71875 L 27.390625 -16.3125 C 27.390625 -18.21875 27.273438 -19.820312 27.046875 -21.125 C 26.828125 -22.425781 26.460938 -23.476562 25.953125 -24.28125 C 25.453125 -25.082031 24.789062 -25.660156 23.96875 -26.015625 C 23.15625 -26.367188 22.132812 -26.546875 20.90625 -26.546875 C 19.707031 -26.546875 18.679688 -26.207031 17.828125 -25.53125 C 16.972656 -24.863281 16.226562 -23.9375 15.59375 -22.75 C 15.257812 -22.070312 14.96875 -21.203125 14.71875 -20.140625 C 14.476562 -19.085938 14.359375 -17.984375 14.359375 -16.828125 Z M 14.359375 -9.109375 "/></g></g></g><g fill="#000000" fill-opacity="1"><g transform="translate(291.871959, 159.253474)"><g><path d="M 5.640625 -22.40625 C 5.234375 -23.488281 4.84375 -24.351562 4.46875 -25 C 4.09375 -25.65625 3.707031 -26.160156 3.3125 -26.515625 C 2.925781 -26.867188 2.5 -27.101562 2.03125 -27.21875 C 1.570312 -27.332031 1.023438 -27.390625 0.390625 -27.390625 L 0.390625 -29.625 L 17.109375 -29.625 L 17.109375 -27.390625 C 16.171875 -27.390625 15.429688 -27.347656 14.890625 -27.265625 C 14.347656 -27.191406 13.9375 -27.082031 13.65625 -26.9375 C 13.382812 -26.789062 13.207031 -26.59375 13.125 -26.34375 C 13.050781 -26.101562 13.015625 -25.835938 13.015625 -25.546875 C 13.015625 -25.054688 13.109375 -24.492188 13.296875 -23.859375 C 13.484375 -23.234375 13.707031 -22.601562 13.96875 -21.96875 L 19.28125 -7.328125 L 19.5 -7.328125 L 25.484375 -21.90625 C 25.742188 -22.539062 25.945312 -23.109375 26.09375 -23.609375 C 26.25 -24.117188 26.328125 -24.578125 26.328125 -24.984375 C 26.328125 -25.804688 26.046875 -26.398438 25.484375 -26.765625 C 24.921875 -27.140625 23.9375 -27.347656 22.53125 -27.390625 L 22.53125 -29.625 L 34.875 -29.625 L 34.875 -27.390625 C 33.863281 -27.390625 32.992188 -27.128906 32.265625 -26.609375 C 31.546875 -26.085938 30.796875 -24.929688 30.015625 -23.140625 L 19.5625 0.5625 L 14.46875 0.5625 Z M 5.640625 -22.40625 "/></g></g></g><g fill="#000000" fill-opacity="1"><g transform="translate(326.746136, 159.253474)"><g><path d="M 30.1875 -5.203125 C 26.789062 -1.359375 22.5625 0.5625 17.5 0.5625 C 15.1875 0.5625 13.085938 0.195312 11.203125 -0.53125 C 9.328125 -1.257812 7.71875 -2.285156 6.375 -3.609375 C 5.03125 -4.929688 3.984375 -6.503906 3.234375 -8.328125 C 2.492188 -10.148438 2.125 -12.179688 2.125 -14.421875 C 2.125 -16.734375 2.515625 -18.847656 3.296875 -20.765625 C 4.078125 -22.679688 5.1875 -24.335938 6.625 -25.734375 C 8.0625 -27.128906 9.753906 -28.21875 11.703125 -29 C 13.660156 -29.789062 15.816406 -30.1875 18.171875 -30.1875 C 22.117188 -30.1875 25.191406 -29.125 27.390625 -27 C 29.585938 -24.875 30.6875 -21.890625 30.6875 -18.046875 C 30.6875 -17.453125 30.59375 -17.085938 30.40625 -16.953125 C 30.21875 -16.828125 29.695312 -16.765625 28.84375 -16.765625 L 10.84375 -16.765625 C 10.695312 -16.429688 10.625 -15.816406 10.625 -14.921875 C 10.625 -11.273438 11.414062 -8.390625 13 -6.265625 C 14.582031 -4.140625 16.734375 -3.078125 19.453125 -3.078125 C 21.015625 -3.078125 22.566406 -3.429688 24.109375 -4.140625 C 25.660156 -4.847656 27.160156 -5.851562 28.609375 -7.15625 Z M 19.34375 -19.890625 C 20.832031 -19.890625 21.789062 -19.972656 22.21875 -20.140625 C 22.644531 -20.316406 22.859375 -20.71875 22.859375 -21.34375 C 22.859375 -22.988281 22.390625 -24.332031 21.453125 -25.375 C 20.523438 -26.414062 19.351562 -26.9375 17.9375 -26.9375 C 16.332031 -26.9375 14.90625 -26.273438 13.65625 -24.953125 C 12.414062 -23.628906 11.609375 -21.941406 11.234375 -19.890625 Z M 19.34375 -19.890625 "/></g></g></g><g fill="#000000" fill-opacity="1"><g transform="translate(359.440679, 159.253474)"><g><path d="M 4.75 0 L 3.015625 0 L 3.015625 -10.171875 L 5.359375 -10.171875 C 5.992188 -7.484375 6.90625 -5.523438 8.09375 -4.296875 C 9.289062 -3.066406 10.84375 -2.453125 12.75 -2.453125 C 14.125 -2.453125 15.191406 -2.738281 15.953125 -3.3125 C 16.722656 -3.894531 17.109375 -4.691406 17.109375 -5.703125 C 17.109375 -6.742188 16.640625 -7.757812 15.703125 -8.75 C 14.773438 -9.738281 13.265625 -10.789062 11.171875 -11.90625 C 8.347656 -13.4375 6.316406 -14.953125 5.078125 -16.453125 C 3.847656 -17.960938 3.234375 -19.671875 3.234375 -21.578125 C 3.234375 -22.804688 3.46875 -23.953125 3.9375 -25.015625 C 4.40625 -26.078125 5.039062 -27 5.84375 -27.78125 C 6.644531 -28.5625 7.601562 -29.164062 8.71875 -29.59375 C 9.832031 -30.019531 11.046875 -30.234375 12.359375 -30.234375 C 13.503906 -30.234375 14.644531 -30.066406 15.78125 -29.734375 C 16.925781 -29.398438 17.925781 -28.9375 18.78125 -28.34375 L 19.78125 -29.671875 L 21.234375 -29.671875 L 21.234375 -21.234375 L 19.0625 -21.234375 C 18.195312 -23.359375 17.304688 -24.882812 16.390625 -25.8125 C 15.484375 -26.75 14.378906 -27.21875 13.078125 -27.21875 C 12.035156 -27.21875 11.207031 -26.9375 10.59375 -26.375 C 9.976562 -25.820312 9.671875 -25.078125 9.671875 -24.140625 C 9.671875 -23.097656 10.125 -22.109375 11.03125 -21.171875 C 11.945312 -20.242188 13.46875 -19.222656 15.59375 -18.109375 C 17.082031 -17.285156 18.367188 -16.484375 19.453125 -15.703125 C 20.535156 -14.921875 21.410156 -14.128906 22.078125 -13.328125 C 22.742188 -12.523438 23.234375 -11.6875 23.546875 -10.8125 C 23.867188 -9.9375 24.03125 -9 24.03125 -8 C 24.03125 -6.6875 23.785156 -5.507812 23.296875 -4.46875 C 22.816406 -3.425781 22.128906 -2.53125 21.234375 -1.78125 C 20.335938 -1.039062 19.265625 -0.460938 18.015625 -0.046875 C 16.773438 0.359375 15.390625 0.5625 13.859375 0.5625 C 12.253906 0.5625 10.765625 0.347656 9.390625 -0.078125 C 8.015625 -0.515625 6.878906 -1.140625 5.984375 -1.953125 Z M 4.75 0 "/></g></g></g><g fill="#000000" fill-opacity="1"><g transform="translate(385.484537, 159.253474)"><g><path d="M 1.390625 -26.546875 L 1.390625 -29.0625 C 3.628906 -29.695312 5.503906 -30.65625 7.015625 -31.9375 C 8.523438 -33.226562 9.648438 -34.710938 10.390625 -36.390625 L 13.25 -36.390625 L 13.25 -29.625 L 19.671875 -29.625 L 19.671875 -26.546875 L 13.25 -26.546875 L 13.25 -9.390625 C 13.25 -7.078125 13.5 -5.4375 14 -4.46875 C 14.5 -3.5 15.347656 -3.015625 16.546875 -3.015625 C 17.992188 -3.015625 19.09375 -3.6875 19.84375 -5.03125 L 21.015625 -3.40625 C 19.972656 -0.757812 17.515625 0.5625 13.640625 0.5625 C 11.066406 0.5625 9.0625 -0.03125 7.625 -1.21875 C 6.195312 -2.414062 5.484375 -4.097656 5.484375 -6.265625 L 5.484375 -26.546875 Z M 1.390625 -26.546875 "/></g></g></g><g fill="#000000" fill-opacity="1"><g transform="translate(406.833799, 159.253474)"><g><path d="M 14.359375 -9.171875 C 14.359375 -7.679688 14.414062 -6.488281 14.53125 -5.59375 C 14.644531 -4.695312 14.867188 -4.003906 15.203125 -3.515625 C 15.535156 -3.035156 16.019531 -2.710938 16.65625 -2.546875 C 17.289062 -2.378906 18.144531 -2.273438 19.21875 -2.234375 L 19.21875 0 L 1.625 0 L 1.625 -2.234375 C 2.664062 -2.273438 3.507812 -2.394531 4.15625 -2.59375 C 4.8125 -2.800781 5.316406 -3.132812 5.671875 -3.59375 C 6.023438 -4.0625 6.265625 -4.710938 6.390625 -5.546875 C 6.523438 -6.390625 6.59375 -7.46875 6.59375 -8.78125 L 6.59375 -15.65625 C 6.59375 -17.8125 6.554688 -19.585938 6.484375 -20.984375 C 6.410156 -22.378906 6.316406 -23.335938 6.203125 -23.859375 C 6.015625 -24.796875 5.59375 -25.410156 4.9375 -25.703125 C 4.289062 -26.003906 3.109375 -26.15625 1.390625 -26.15625 L 1.390625 -28.0625 L 14.359375 -30.1875 Z M 6.140625 -42.03125 C 6.140625 -43.257812 6.554688 -44.289062 7.390625 -45.125 C 8.234375 -45.96875 9.253906 -46.390625 10.453125 -46.390625 C 11.679688 -46.390625 12.710938 -45.96875 13.546875 -45.125 C 14.390625 -44.289062 14.8125 -43.257812 14.8125 -42.03125 C 14.8125 -40.832031 14.390625 -39.8125 13.546875 -38.96875 C 12.710938 -38.132812 11.679688 -37.71875 10.453125 -37.71875 C 9.253906 -37.71875 8.234375 -38.132812 7.390625 -38.96875 C 6.554688 -39.8125 6.140625 -40.832031 6.140625 -42.03125 Z M 6.140625 -42.03125 "/></g></g></g><g fill="#000000" fill-opacity="1"><g transform="translate(427.0094, 159.253474)"><g><path d="M 14.359375 -9.109375 C 14.359375 -7.578125 14.40625 -6.375 14.5 -5.5 C 14.59375 -4.625 14.796875 -3.953125 15.109375 -3.484375 C 15.429688 -3.023438 15.914062 -2.71875 16.5625 -2.5625 C 17.21875 -2.414062 18.101562 -2.304688 19.21875 -2.234375 L 19.21875 0 L 1.625 0 L 1.625 -2.234375 C 2.695312 -2.304688 3.5625 -2.414062 4.21875 -2.5625 C 4.875 -2.71875 5.378906 -3.019531 5.734375 -3.46875 C 6.085938 -3.914062 6.316406 -4.546875 6.421875 -5.359375 C 6.535156 -6.179688 6.59375 -7.300781 6.59375 -8.71875 L 6.59375 -15.703125 C 6.59375 -17.898438 6.554688 -19.675781 6.484375 -21.03125 C 6.410156 -22.394531 6.316406 -23.320312 6.203125 -23.8125 C 6.085938 -24.289062 5.9375 -24.6875 5.75 -25 C 5.570312 -25.320312 5.296875 -25.566406 4.921875 -25.734375 C 4.546875 -25.898438 4.078125 -26.007812 3.515625 -26.0625 C 2.960938 -26.125 2.253906 -26.15625 1.390625 -26.15625 L 1.390625 -28.0625 L 12.1875 -30.1875 L 12.90625 -25.265625 L 13.140625 -25.265625 C 14.367188 -26.828125 15.820312 -28.035156 17.5 -28.890625 C 19.175781 -29.753906 21.019531 -30.1875 23.03125 -30.1875 C 25.414062 -30.1875 27.34375 -29.859375 28.8125 -29.203125 C 30.28125 -28.546875 31.59375 -27.457031 32.75 -25.9375 C 33.382812 -25.070312 33.941406 -23.957031 34.421875 -22.59375 C 34.910156 -21.238281 35.15625 -19.367188 35.15625 -16.984375 L 35.15625 -9.109375 C 35.15625 -7.578125 35.203125 -6.375 35.296875 -5.5 C 35.390625 -4.625 35.59375 -3.953125 35.90625 -3.484375 C 36.226562 -3.023438 36.703125 -2.71875 37.328125 -2.5625 C 37.960938 -2.414062 38.820312 -2.304688 39.90625 -2.234375 L 39.90625 0 L 22.40625 0 L 22.40625 -2.234375 C 23.53125 -2.273438 24.414062 -2.378906 25.0625 -2.546875 C 25.71875 -2.710938 26.210938 -3.019531 26.546875 -3.46875 C 26.878906 -3.914062 27.101562 -4.554688 27.21875 -5.390625 C 27.332031 -6.234375 27.390625 -7.34375 27.390625 -8.71875 L 27.390625 -16.3125 C 27.390625 -18.21875 27.273438 -19.820312 27.046875 -21.125 C 26.828125 -22.425781 26.460938 -23.476562 25.953125 -24.28125 C 25.453125 -25.082031 24.789062 -25.660156 23.96875 -26.015625 C 23.15625 -26.367188 22.132812 -26.546875 20.90625 -26.546875 C 19.707031 -26.546875 18.679688 -26.207031 17.828125 -25.53125 C 16.972656 -24.863281 16.226562 -23.9375 15.59375 -22.75 C 15.257812 -22.070312 14.96875 -21.203125 14.71875 -20.140625 C 14.476562 -19.085938 14.359375 -17.984375 14.359375 -16.828125 Z M 14.359375 -9.109375 "/></g></g></g><g fill="#000000" fill-opacity="1"><g transform="translate(467.640051, 159.253474)"><g><path d="M 12.75 -6.03125 C 13.75 -5.957031 14.628906 -5.882812 15.390625 -5.8125 C 16.160156 -5.738281 16.890625 -5.65625 17.578125 -5.5625 C 18.265625 -5.46875 18.953125 -5.375 19.640625 -5.28125 C 20.328125 -5.1875 21.066406 -5.082031 21.859375 -4.96875 C 24.765625 -4.5625 27.046875 -3.472656 28.703125 -1.703125 C 30.359375 0.0664062 31.1875 2.253906 31.1875 4.859375 C 31.1875 8.023438 29.878906 10.425781 27.265625 12.0625 C 24.660156 13.707031 20.828125 14.53125 15.765625 14.53125 C 11.109375 14.53125 7.519531 13.847656 5 12.484375 C 2.488281 11.128906 1.234375 9.203125 1.234375 6.703125 C 1.234375 4.765625 1.734375 3.300781 2.734375 2.3125 C 3.742188 1.332031 5.015625 0.84375 6.546875 0.84375 C 7.515625 0.84375 8.453125 1.035156 9.359375 1.421875 C 10.273438 1.816406 11.050781 2.382812 11.6875 3.125 C 10.71875 3.3125 9.925781 3.75 9.3125 4.4375 C 8.695312 5.132812 8.390625 5.945312 8.390625 6.875 C 8.390625 8.363281 9.050781 9.507812 10.375 10.3125 C 11.695312 11.113281 13.640625 11.515625 16.203125 11.515625 C 21.796875 11.515625 24.59375 9.742188 24.59375 6.203125 C 24.59375 4.929688 24.171875 3.835938 23.328125 2.921875 C 22.492188 2.015625 21.296875 1.46875 19.734375 1.28125 L 9.953125 -0.0625 C 5.816406 -0.613281 3.75 -2.457031 3.75 -5.59375 C 3.75 -7.113281 4.238281 -8.359375 5.21875 -9.328125 C 6.207031 -10.296875 7.617188 -10.96875 9.453125 -11.34375 L 9.453125 -11.5625 C 8.585938 -11.90625 7.8125 -12.375 7.125 -12.96875 C 6.4375 -13.5625 5.832031 -14.25 5.3125 -15.03125 C 4.789062 -15.8125 4.390625 -16.660156 4.109375 -17.578125 C 3.828125 -18.492188 3.6875 -19.4375 3.6875 -20.40625 C 3.6875 -21.78125 3.972656 -23.070312 4.546875 -24.28125 C 5.128906 -25.488281 5.929688 -26.519531 6.953125 -27.375 C 7.984375 -28.238281 9.195312 -28.921875 10.59375 -29.421875 C 11.988281 -29.929688 13.503906 -30.1875 15.140625 -30.1875 C 16.742188 -30.1875 18.304688 -29.941406 19.828125 -29.453125 C 21.359375 -28.972656 22.664062 -28.300781 23.75 -27.4375 C 24.601562 -27.957031 25.347656 -28.394531 25.984375 -28.75 C 26.617188 -29.101562 27.207031 -29.382812 27.75 -29.59375 C 28.289062 -29.800781 28.785156 -29.953125 29.234375 -30.046875 C 29.679688 -30.140625 30.128906 -30.1875 30.578125 -30.1875 C 31.992188 -30.1875 33.140625 -29.867188 34.015625 -29.234375 C 34.890625 -28.597656 35.328125 -27.757812 35.328125 -26.71875 C 35.328125 -25.9375 35.082031 -25.289062 34.59375 -24.78125 C 34.113281 -24.28125 33.484375 -24.03125 32.703125 -24.03125 C 32.140625 -24.03125 31.691406 -24.148438 31.359375 -24.390625 C 31.023438 -24.640625 30.695312 -24.921875 30.375 -25.234375 C 30.0625 -25.546875 29.734375 -25.820312 29.390625 -26.0625 C 29.054688 -26.3125 28.613281 -26.4375 28.0625 -26.4375 C 27.28125 -26.4375 26.535156 -25.929688 25.828125 -24.921875 C 26.191406 -24.296875 26.445312 -23.617188 26.59375 -22.890625 C 26.75 -22.160156 26.828125 -21.3125 26.828125 -20.34375 C 26.828125 -18.925781 26.601562 -17.617188 26.15625 -16.421875 C 25.707031 -15.234375 25.007812 -14.179688 24.0625 -13.265625 C 23.113281 -12.359375 21.894531 -11.585938 20.40625 -10.953125 C 18.914062 -10.316406 17.109375 -9.890625 14.984375 -9.671875 C 13.191406 -9.484375 11.953125 -9.238281 11.265625 -8.9375 C 10.578125 -8.644531 10.234375 -8.195312 10.234375 -7.59375 C 10.234375 -6.707031 11.070312 -6.1875 12.75 -6.03125 Z M 15.421875 -12.859375 C 16.617188 -12.859375 17.550781 -13.488281 18.21875 -14.75 C 18.882812 -16.019531 19.21875 -17.789062 19.21875 -20.0625 C 19.21875 -22.375 18.882812 -24.15625 18.21875 -25.40625 C 17.550781 -26.65625 16.601562 -27.28125 15.375 -27.28125 C 14.101562 -27.28125 13.09375 -26.644531 12.34375 -25.375 C 11.601562 -24.101562 11.234375 -22.367188 11.234375 -20.171875 C 11.234375 -17.941406 11.613281 -16.164062 12.375 -14.84375 C 13.144531 -13.519531 14.160156 -12.859375 15.421875 -12.859375 Z M 15.421875 -12.859375 "/></g></g></g></svg>