<svg xmlns="http://www.w3.org/2000/svg" xmlns:xlink="http://www.w3.org/1999/xlink" width="972" zoomAndPan="magnify" viewBox="0 0 729 537.000006" height="716" preserveAspectRatio="xMidYMid meet" version="1.0"><defs><g/><clipPath id="f4cc637d6f"><path d="M 0.675781 0 L 728.320312 0 L 728.320312 536 L 0.675781 536 Z M 0.675781 0 " clip-rule="nonzero"/></clipPath><clipPath id="dea35bb252"><path d="M 244 214.402344 L 484.933594 214.402344 L 484.933594 428.503906 L 244 428.503906 Z M 244 214.402344 " clip-rule="nonzero"/></clipPath></defs><g clip-path="url(#f4cc637d6f)"><path fill="#ffffff" d="M 0.675781 0 L 728.324219 0 L 728.324219 536 L 0.675781 536 Z M 0.675781 0 " fill-opacity="1" fill-rule="nonzero"/><path fill="#ffffff" d="M 0.675781 0 L 728.324219 0 L 728.324219 536 L 0.675781 536 Z M 0.675781 0 " fill-opacity="1" fill-rule="nonzero"/></g><path fill="#000000" d="M 390.15625 341.761719 C 390.15625 312.058594 390.15625 282.527344 390.15625 252.867188 C 397.886719 252.867188 405.550781 252.867188 413.351562 252.867188 C 413.351562 282.4375 413.351562 312.015625 413.351562 341.761719 C 405.707031 341.761719 398.007812 341.761719 390.15625 341.761719 " fill-opacity="1" fill-rule="nonzero"/><path fill="#000000" d="M 378.117188 341.828125 C 370.371094 341.828125 362.714844 341.828125 354.953125 341.828125 C 354.953125 327.292969 354.953125 312.851562 354.953125 298.28125 C 362.660156 298.28125 370.320312 298.28125 378.117188 298.28125 C 378.117188 312.722656 378.117188 327.164062 378.117188 341.828125 " fill-opacity="1" fill-rule="nonzero"/><path fill="#000000" d="M 319.78125 317.085938 C 327.460938 317.085938 335.074219 317.085938 342.847656 317.085938 C 342.847656 325.265625 342.847656 333.441406 342.847656 341.769531 C 335.265625 341.769531 327.609375 341.769531 319.78125 341.769531 C 319.78125 333.671875 319.78125 325.5 319.78125 317.085938 " fill-opacity="1" fill-rule="nonzero"/><path fill="#000000" d="M 343.222656 281.480469 C 342.050781 280.433594 340.652344 279.5 339.054688 278.6875 C 337.449219 277.871094 335.699219 277.125 333.816406 276.4375 C 332.578125 276.011719 331.515625 275.617188 330.640625 275.25 C 329.761719 274.882812 329.027344 274.511719 328.421875 274.121094 C 327.824219 273.734375 327.386719 273.300781 327.109375 272.808594 C 326.832031 272.3125 326.691406 271.722656 326.691406 271.042969 C 326.691406 269.929688 327.136719 269.027344 328.042969 268.339844 C 328.9375 267.660156 330.417969 267.316406 332.472656 267.316406 C 334.527344 267.316406 336.484375 267.53125 338.34375 267.957031 C 340.203125 268.382812 341.847656 268.898438 343.261719 269.496094 L 345.246094 261.796875 C 344.304688 261.371094 343.035156 260.945312 341.421875 260.511719 C 339.824219 260.085938 337.902344 259.761719 335.675781 259.546875 L 335.675781 252.867188 L 327.59375 252.867188 L 327.59375 259.808594 C 325.703125 260.152344 324.082031 260.691406 322.714844 261.445312 C 321.339844 262.191406 320.226562 263.101562 319.375 264.171875 C 318.515625 265.238281 317.882812 266.425781 317.480469 267.734375 C 317.074219 269.042969 316.867188 270.402344 316.867188 271.8125 C 316.867188 273.652344 317.203125 275.226562 317.859375 276.527344 C 318.523438 277.835938 319.40625 278.941406 320.496094 279.835938 C 321.585938 280.734375 322.804688 281.496094 324.15625 282.117188 C 325.503906 282.734375 326.882812 283.304688 328.296875 283.820312 C 329.753906 284.335938 331.039062 284.8125 332.152344 285.261719 C 333.257812 285.710938 334.183594 286.171875 334.90625 286.644531 C 335.640625 287.113281 336.191406 287.636719 336.582031 288.21875 C 336.960938 288.792969 337.15625 289.488281 337.15625 290.304688 C 337.15625 291.589844 336.679688 292.582031 335.714844 293.285156 C 334.75 293.996094 332.964844 294.34375 330.351562 294.34375 C 328.042969 294.34375 325.847656 294.046875 323.769531 293.449219 C 321.691406 292.851562 319.90625 292.1875 318.414062 291.453125 L 315.648438 298.84375 C 316.589844 299.3125 318.03125 299.894531 319.980469 300.605469 C 321.929688 301.316406 324.464844 301.792969 327.59375 302.046875 L 327.59375 309.691406 L 335.675781 309.691406 L 335.675781 301.859375 C 337.777344 301.519531 339.546875 300.964844 340.980469 300.1875 C 342.410156 299.417969 343.574219 298.5 344.476562 297.429688 C 345.375 296.363281 346.015625 295.199219 346.398438 293.933594 C 346.785156 292.671875 346.980469 291.402344 346.980469 290.117188 C 346.980469 288.234375 346.644531 286.582031 345.988281 285.171875 C 345.324219 283.765625 344.402344 282.535156 343.222656 281.480469 " fill-opacity="1" fill-rule="nonzero"/><g clip-path="url(#dea35bb252)"><path fill="#000000" d="M 469.195312 364.0625 L 259.804688 364.0625 L 259.804688 234.820312 C 259.804688 232.511719 261.261719 230.636719 263.082031 230.636719 L 465.902344 230.636719 C 467.714844 230.636719 469.195312 232.511719 469.195312 234.820312 Z M 470.269531 214.320312 L 258.726562 214.320312 C 250.699219 214.320312 244.199219 220.824219 244.199219 228.847656 L 244.199219 374.925781 C 244.199219 382.910156 250.710938 389.433594 258.726562 389.433594 L 331.21875 389.433594 L 317.679688 423.992188 C 316.792969 426.25 318.457031 428.683594 320.878906 428.683594 L 407.679688 428.683594 C 410.085938 428.683594 411.746094 426.273438 410.894531 424.023438 L 397.78125 389.433594 L 470.269531 389.433594 C 478.289062 389.433594 484.800781 382.910156 484.800781 374.925781 L 484.800781 228.847656 C 484.800781 220.824219 478.300781 214.320312 470.269531 214.320312 " fill-opacity="1" fill-rule="nonzero"/></g><g fill="#000000" fill-opacity="1"><g transform="translate(125.829209, 159.253474)"><g><path d="M 26.375 -43.59375 C 29.726562 -43.59375 32.859375 -43.015625 35.765625 -41.859375 C 38.671875 -40.703125 41.195312 -39.117188 43.34375 -37.109375 C 45.488281 -35.097656 47.175781 -32.734375 48.40625 -30.015625 C 49.632812 -27.296875 50.25 -24.351562 50.25 -21.1875 C 50.25 -18.164062 49.625 -15.332031 48.375 -12.6875 C 47.125 -10.039062 45.425781 -7.738281 43.28125 -5.78125 C 41.144531 -3.820312 38.625 -2.273438 35.71875 -1.140625 C 32.8125 -0.00390625 29.695312 0.5625 26.375 0.5625 C 23.0625 0.5625 19.953125 -0.00390625 17.046875 -1.140625 C 14.140625 -2.273438 11.601562 -3.820312 9.4375 -5.78125 C 7.28125 -7.738281 5.585938 -10.039062 4.359375 -12.6875 C 3.128906 -15.332031 2.515625 -18.164062 2.515625 -21.1875 C 2.515625 -24.351562 3.128906 -27.296875 4.359375 -30.015625 C 5.585938 -32.734375 7.269531 -35.097656 9.40625 -37.109375 C 11.550781 -39.117188 14.078125 -40.703125 16.984375 -41.859375 C 19.890625 -43.015625 23.019531 -43.59375 26.375 -43.59375 Z M 26.375 -3.078125 C 28.539062 -3.078125 30.5 -3.492188 32.25 -4.328125 C 34 -5.171875 35.488281 -6.363281 36.71875 -7.90625 C 37.945312 -9.457031 38.882812 -11.335938 39.53125 -13.546875 C 40.1875 -15.765625 40.515625 -18.253906 40.515625 -21.015625 C 40.515625 -23.921875 40.1875 -26.535156 39.53125 -28.859375 C 38.882812 -31.191406 37.945312 -33.1875 36.71875 -34.84375 C 35.488281 -36.5 34 -37.765625 32.25 -38.640625 C 30.5 -39.523438 28.539062 -39.96875 26.375 -39.96875 C 24.175781 -39.96875 22.210938 -39.523438 20.484375 -38.640625 C 18.753906 -37.765625 17.273438 -36.5 16.046875 -34.84375 C 14.816406 -33.1875 13.875 -31.191406 13.21875 -28.859375 C 12.5625 -26.535156 12.234375 -23.921875 12.234375 -21.015625 C 12.234375 -18.253906 12.5625 -15.765625 13.21875 -13.546875 C 13.875 -11.335938 14.816406 -9.457031 16.046875 -7.90625 C 17.273438 -6.363281 18.753906 -5.171875 20.484375 -4.328125 C 22.210938 -3.492188 24.175781 -3.078125 26.375 -3.078125 Z M 26.375 -3.078125 "/></g></g></g><g fill="#000000" fill-opacity="1"><g transform="translate(178.531701, 159.253474)"><g><path d="M 14.359375 -9.109375 C 14.359375 -7.578125 14.40625 -6.375 14.5 -5.5 C 14.59375 -4.625 14.796875 -3.953125 15.109375 -3.484375 C 15.429688 -3.023438 15.914062 -2.71875 16.5625 -2.5625 C 17.21875 -2.414062 18.101562 -2.304688 19.21875 -2.234375 L 19.21875 0 L 1.625 0 L 1.625 -2.234375 C 2.695312 -2.304688 3.5625 -2.414062 4.21875 -2.5625 C 4.875 -2.71875 5.378906 -3.019531 5.734375 -3.46875 C 6.085938 -3.914062 6.316406 -4.546875 6.421875 -5.359375 C 6.535156 -6.179688 6.59375 -7.300781 6.59375 -8.71875 L 6.59375 -15.703125 C 6.59375 -17.898438 6.554688 -19.675781 6.484375 -21.03125 C 6.410156 -22.394531 6.316406 -23.320312 6.203125 -23.8125 C 6.085938 -24.289062 5.9375 -24.6875 5.75 -25 C 5.570312 -25.320312 5.296875 -25.566406 4.921875 -25.734375 C 4.546875 -25.898438 4.078125 -26.007812 3.515625 -26.0625 C 2.960938 -26.125 2.253906 -26.15625 1.390625 -26.15625 L 1.390625 -28.0625 L 12.1875 -30.1875 L 12.90625 -25.265625 L 13.140625 -25.265625 C 14.367188 -26.828125 15.820312 -28.035156 17.5 -28.890625 C 19.175781 -29.753906 21.019531 -30.1875 23.03125 -30.1875 C 25.414062 -30.1875 27.34375 -29.859375 28.8125 -29.203125 C 30.28125 -28.546875 31.59375 -27.457031 32.75 -25.9375 C 33.382812 -25.070312 33.941406 -23.957031 34.421875 -22.59375 C 34.910156 -21.238281 35.15625 -19.367188 35.15625 -16.984375 L 35.15625 -9.109375 C 35.15625 -7.578125 35.203125 -6.375 35.296875 -5.5 C 35.390625 -4.625 35.59375 -3.953125 35.90625 -3.484375 C 36.226562 -3.023438 36.703125 -2.71875 37.328125 -2.5625 C 37.960938 -2.414062 38.820312 -2.304688 39.90625 -2.234375 L 39.90625 0 L 22.40625 0 L 22.40625 -2.234375 C 23.53125 -2.273438 24.414062 -2.378906 25.0625 -2.546875 C 25.71875 -2.710938 26.210938 -3.019531 26.546875 -3.46875 C 26.878906 -3.914062 27.101562 -4.554688 27.21875 -5.390625 C 27.332031 -6.234375 27.390625 -7.34375 27.390625 -8.71875 L 27.390625 -16.3125 C 27.390625 -18.21875 27.273438 -19.820312 27.046875 -21.125 C 26.828125 -22.425781 26.460938 -23.476562 25.953125 -24.28125 C 25.453125 -25.082031 24.789062 -25.660156 23.96875 -26.015625 C 23.15625 -26.367188 22.132812 -26.546875 20.90625 -26.546875 C 19.707031 -26.546875 18.679688 -26.207031 17.828125 -25.53125 C 16.972656 -24.863281 16.226562 -23.9375 15.59375 -22.75 C 15.257812 -22.070312 14.96875 -21.203125 14.71875 -20.140625 C 14.476562 -19.085938 14.359375 -17.984375 14.359375 -16.828125 Z M 14.359375 -9.109375 "/></g></g></g><g fill="#000000" fill-opacity="1"><g transform="translate(219.162351, 159.253474)"><g><path d="M 13.8125 -9.171875 C 13.8125 -7.679688 13.863281 -6.488281 13.96875 -5.59375 C 14.082031 -4.695312 14.304688 -4.003906 14.640625 -3.515625 C 14.972656 -3.035156 15.457031 -2.710938 16.09375 -2.546875 C 16.726562 -2.378906 17.585938 -2.273438 18.671875 -2.234375 L 18.671875 0 L 1.0625 0 L 1.0625 -2.234375 C 2.101562 -2.273438 2.945312 -2.394531 3.59375 -2.59375 C 4.25 -2.800781 4.753906 -3.132812 5.109375 -3.59375 C 5.460938 -4.0625 5.703125 -4.710938 5.828125 -5.546875 C 5.960938 -6.390625 6.03125 -7.46875 6.03125 -8.78125 L 6.03125 -31.859375 C 6.03125 -34.015625 5.992188 -35.789062 5.921875 -37.1875 C 5.847656 -38.59375 5.753906 -39.554688 5.640625 -40.078125 C 5.453125 -41.003906 5.03125 -41.613281 4.375 -41.90625 C 3.726562 -42.207031 2.550781 -42.359375 0.84375 -42.359375 L 0.84375 -44.265625 L 13.8125 -46.390625 Z M 13.8125 -9.171875 "/></g></g></g><g fill="#000000" fill-opacity="1"><g transform="translate(239.002635, 159.253474)"><g><path d="M 14.359375 -9.171875 C 14.359375 -7.679688 14.414062 -6.488281 14.53125 -5.59375 C 14.644531 -4.695312 14.867188 -4.003906 15.203125 -3.515625 C 15.535156 -3.035156 16.019531 -2.710938 16.65625 -2.546875 C 17.289062 -2.378906 18.144531 -2.273438 19.21875 -2.234375 L 19.21875 0 L 1.625 0 L 1.625 -2.234375 C 2.664062 -2.273438 3.507812 -2.394531 4.15625 -2.59375 C 4.8125 -2.800781 5.316406 -3.132812 5.671875 -3.59375 C 6.023438 -4.0625 6.265625 -4.710938 6.390625 -5.546875 C 6.523438 -6.390625 6.59375 -7.46875 6.59375 -8.78125 L 6.59375 -15.65625 C 6.59375 -17.8125 6.554688 -19.585938 6.484375 -20.984375 C 6.410156 -22.378906 6.316406 -23.335938 6.203125 -23.859375 C 6.015625 -24.796875 5.59375 -25.410156 4.9375 -25.703125 C 4.289062 -26.003906 3.109375 -26.15625 1.390625 -26.15625 L 1.390625 -28.0625 L 14.359375 -30.1875 Z M 6.140625 -42.03125 C 6.140625 -43.257812 6.554688 -44.289062 7.390625 -45.125 C 8.234375 -45.96875 9.253906 -46.390625 10.453125 -46.390625 C 11.679688 -46.390625 12.710938 -45.96875 13.546875 -45.125 C 14.390625 -44.289062 14.8125 -43.257812 14.8125 -42.03125 C 14.8125 -40.832031 14.390625 -39.8125 13.546875 -38.96875 C 12.710938 -38.132812 11.679688 -37.71875 10.453125 -37.71875 C 9.253906 -37.71875 8.234375 -38.132812 7.390625 -38.96875 C 6.554688 -39.8125 6.140625 -40.832031 6.140625 -42.03125 Z M 6.140625 -42.03125 "/></g></g></g><g fill="#000000" fill-opacity="1"><g transform="translate(259.178248, 159.253474)"><g><path d="M 14.359375 -9.109375 C 14.359375 -7.578125 14.40625 -6.375 14.5 -5.5 C 14.59375 -4.625 14.796875 -3.953125 15.109375 -3.484375 C 15.429688 -3.023438 15.914062 -2.71875 16.5625 -2.5625 C 17.21875 -2.414062 18.101562 -2.304688 19.21875 -2.234375 L 19.21875 0 L 1.625 0 L 1.625 -2.234375 C 2.695312 -2.304688 3.5625 -2.414062 4.21875 -2.5625 C 4.875 -2.71875 5.378906 -3.019531 5.734375 -3.46875 C 6.085938 -3.914062 6.316406 -4.546875 6.421875 -5.359375 C 6.535156 -6.179688 6.59375 -7.300781 6.59375 -8.71875 L 6.59375 -15.703125 C 6.59375 -17.898438 6.554688 -19.675781 6.484375 -21.03125 C 6.410156 -22.394531 6.316406 -23.320312 6.203125 -23.8125 C 6.085938 -24.289062 5.9375 -24.6875 5.75 -25 C 5.570312 -25.320312 5.296875 -25.566406 4.921875 -25.734375 C 4.546875 -25.898438 4.078125 -26.007812 3.515625 -26.0625 C 2.960938 -26.125 2.253906 -26.15625 1.390625 -26.15625 L 1.390625 -28.0625 L 12.1875 -30.1875 L 12.90625 -25.265625 L 13.140625 -25.265625 C 14.367188 -26.828125 15.820312 -28.035156 17.5 -28.890625 C 19.175781 -29.753906 21.019531 -30.1875 23.03125 -30.1875 C 25.414062 -30.1875 27.34375 -29.859375 28.8125 -29.203125 C 30.28125 -28.546875 31.59375 -27.457031 32.75 -25.9375 C 33.382812 -25.070312 33.941406 -23.957031 34.421875 -22.59375 C 34.910156 -21.238281 35.15625 -19.367188 35.15625 -16.984375 L 35.15625 -9.109375 C 35.15625 -7.578125 35.203125 -6.375 35.296875 -5.5 C 35.390625 -4.625 35.59375 -3.953125 35.90625 -3.484375 C 36.226562 -3.023438 36.703125 -2.71875 37.328125 -2.5625 C 37.960938 -2.414062 38.820312 -2.304688 39.90625 -2.234375 L 39.90625 0 L 22.40625 0 L 22.40625 -2.234375 C 23.53125 -2.273438 24.414062 -2.378906 25.0625 -2.546875 C 25.71875 -2.710938 26.210938 -3.019531 26.546875 -3.46875 C 26.878906 -3.914062 27.101562 -4.554688 27.21875 -5.390625 C 27.332031 -6.234375 27.390625 -7.34375 27.390625 -8.71875 L 27.390625 -16.3125 C 27.390625 -18.21875 27.273438 -19.820312 27.046875 -21.125 C 26.828125 -22.425781 26.460938 -23.476562 25.953125 -24.28125 C 25.453125 -25.082031 24.789062 -25.660156 23.96875 -26.015625 C 23.15625 -26.367188 22.132812 -26.546875 20.90625 -26.546875 C 19.707031 -26.546875 18.679688 -26.207031 17.828125 -25.53125 C 16.972656 -24.863281 16.226562 -23.9375 15.59375 -22.75 C 15.257812 -22.070312 14.96875 -21.203125 14.71875 -20.140625 C 14.476562 -19.085938 14.359375 -17.984375 14.359375 -16.828125 Z M 14.359375 -9.109375 "/></g></g></g><g fill="#000000" fill-opacity="1"><g transform="translate(299.808898, 159.253474)"><g><path d="M 30.1875 -5.203125 C 26.789062 -1.359375 22.5625 0.5625 17.5 0.5625 C 15.1875 0.5625 13.085938 0.195312 11.203125 -0.53125 C 9.328125 -1.257812 7.71875 -2.285156 6.375 -3.609375 C 5.03125 -4.929688 3.984375 -6.503906 3.234375 -8.328125 C 2.492188 -10.148438 2.125 -12.179688 2.125 -14.421875 C 2.125 -16.734375 2.515625 -18.847656 3.296875 -20.765625 C 4.078125 -22.679688 5.1875 -24.335938 6.625 -25.734375 C 8.0625 -27.128906 9.753906 -28.21875 11.703125 -29 C 13.660156 -29.789062 15.816406 -30.1875 18.171875 -30.1875 C 22.117188 -30.1875 25.191406 -29.125 27.390625 -27 C 29.585938 -24.875 30.6875 -21.890625 30.6875 -18.046875 C 30.6875 -17.453125 30.59375 -17.085938 30.40625 -16.953125 C 30.21875 -16.828125 29.695312 -16.765625 28.84375 -16.765625 L 10.84375 -16.765625 C 10.695312 -16.429688 10.625 -15.816406 10.625 -14.921875 C 10.625 -11.273438 11.414062 -8.390625 13 -6.265625 C 14.582031 -4.140625 16.734375 -3.078125 19.453125 -3.078125 C 21.015625 -3.078125 22.566406 -3.429688 24.109375 -4.140625 C 25.660156 -4.847656 27.160156 -5.851562 28.609375 -7.15625 Z M 19.34375 -19.890625 C 20.832031 -19.890625 21.789062 -19.972656 22.21875 -20.140625 C 22.644531 -20.316406 22.859375 -20.71875 22.859375 -21.34375 C 22.859375 -22.988281 22.390625 -24.332031 21.453125 -25.375 C 20.523438 -26.414062 19.351562 -26.9375 17.9375 -26.9375 C 16.332031 -26.9375 14.90625 -26.273438 13.65625 -24.953125 C 12.414062 -23.628906 11.609375 -21.941406 11.234375 -19.890625 Z M 19.34375 -19.890625 "/></g></g></g><g fill="#000000" fill-opacity="1"><g transform="translate(332.50343, 159.253474)"><g/></g></g><g fill="#000000" fill-opacity="1"><g transform="translate(347.369682, 159.253474)"><g><path d="M 1.84375 0 L 1.84375 -2.234375 C 3.113281 -2.273438 4.128906 -2.382812 4.890625 -2.5625 C 5.648438 -2.75 6.242188 -3.066406 6.671875 -3.515625 C 7.109375 -3.960938 7.398438 -4.597656 7.546875 -5.421875 C 7.691406 -6.242188 7.765625 -7.304688 7.765625 -8.609375 L 7.765625 -34.421875 C 7.765625 -35.734375 7.707031 -36.785156 7.59375 -37.578125 C 7.488281 -38.378906 7.257812 -39.015625 6.90625 -39.484375 C 6.550781 -39.953125 6.066406 -40.269531 5.453125 -40.4375 C 4.835938 -40.601562 4.023438 -40.722656 3.015625 -40.796875 L 3.015625 -43.03125 L 20.953125 -43.03125 C 26.578125 -43.03125 30.910156 -42.125 33.953125 -40.3125 C 36.992188 -38.507812 38.515625 -35.929688 38.515625 -32.578125 C 38.515625 -28.148438 35.328125 -25.019531 28.953125 -23.1875 L 28.953125 -22.96875 C 31.003906 -22.96875 32.859375 -22.675781 34.515625 -22.09375 C 36.171875 -21.519531 37.578125 -20.710938 38.734375 -19.671875 C 39.890625 -18.628906 40.78125 -17.398438 41.40625 -15.984375 C 42.039062 -14.566406 42.359375 -13.019531 42.359375 -11.34375 C 42.359375 -9.445312 41.898438 -7.789062 40.984375 -6.375 C 40.078125 -4.957031 38.769531 -3.765625 37.0625 -2.796875 C 33.738281 -0.929688 29.171875 0 23.359375 0 Z M 23.75 -3.40625 C 29.75 -3.40625 32.75 -6.109375 32.75 -11.515625 C 32.75 -14.828125 31.671875 -17.25 29.515625 -18.78125 C 28.390625 -19.5625 26.941406 -20.117188 25.171875 -20.453125 C 23.410156 -20.785156 21.242188 -20.953125 18.671875 -20.953125 L 15.984375 -20.953125 L 15.984375 -9.78125 C 15.984375 -7.46875 16.578125 -5.828125 17.765625 -4.859375 C 18.960938 -3.890625 20.957031 -3.40625 23.75 -3.40625 Z M 19.28125 -24.3125 C 20.957031 -24.3125 22.410156 -24.46875 23.640625 -24.78125 C 24.867188 -25.101562 25.910156 -25.5625 26.765625 -26.15625 C 28.554688 -27.382812 29.453125 -29.300781 29.453125 -31.90625 C 29.453125 -34.632812 28.78125 -36.601562 27.4375 -37.8125 C 26.101562 -39.019531 23.941406 -39.625 20.953125 -39.625 L 16.984375 -39.625 C 16.316406 -39.625 15.984375 -39.304688 15.984375 -38.671875 L 15.984375 -24.3125 Z M 19.28125 -24.3125 "/></g></g></g><g fill="#000000" fill-opacity="1"><g transform="translate(391.912512, 159.253474)"><g><path d="M 25.984375 -20.453125 C 25.984375 -21.941406 25.945312 -23.125 25.875 -24 C 25.800781 -24.875 25.597656 -25.546875 25.265625 -26.015625 C 24.929688 -26.484375 24.4375 -26.800781 23.78125 -26.96875 C 23.125 -27.132812 22.238281 -27.273438 21.125 -27.390625 L 21.125 -29.625 L 33.765625 -29.625 L 33.765625 -12.6875 C 33.765625 -10.414062 33.789062 -8.632812 33.84375 -7.34375 C 33.894531 -6.0625 34 -5.101562 34.15625 -4.46875 C 34.257812 -3.988281 34.382812 -3.609375 34.53125 -3.328125 C 34.6875 -3.046875 34.929688 -2.820312 35.265625 -2.65625 C 35.597656 -2.488281 36.050781 -2.375 36.625 -2.3125 C 37.207031 -2.257812 37.96875 -2.234375 38.90625 -2.234375 L 38.90625 -0.0625 L 27.78125 0.609375 L 27.15625 -4.359375 L 26.9375 -4.359375 C 25.96875 -2.796875 24.609375 -1.582031 22.859375 -0.71875 C 21.109375 0.132812 19.148438 0.5625 16.984375 0.5625 C 13.003906 0.5625 9.96875 -0.851562 7.875 -3.6875 C 6.28125 -5.851562 5.484375 -8.925781 5.484375 -12.90625 L 5.484375 -20.453125 C 5.484375 -21.984375 5.441406 -23.1875 5.359375 -24.0625 C 5.285156 -24.9375 5.085938 -25.597656 4.765625 -26.046875 C 4.453125 -26.492188 3.976562 -26.800781 3.34375 -26.96875 C 2.71875 -27.132812 1.847656 -27.273438 0.734375 -27.390625 L 0.734375 -29.625 L 13.25 -29.625 L 13.25 -13.8125 C 13.25 -10.039062 13.710938 -7.304688 14.640625 -5.609375 C 15.578125 -3.921875 17.066406 -3.078125 19.109375 -3.078125 C 21.304688 -3.078125 23.003906 -4.082031 24.203125 -6.09375 C 25.390625 -8.03125 25.984375 -10.878906 25.984375 -14.640625 Z M 25.984375 -20.453125 "/></g></g></g><g fill="#000000" fill-opacity="1"><g transform="translate(431.537177, 159.253474)"><g><path d="M 4.75 0 L 3.015625 0 L 3.015625 -10.171875 L 5.359375 -10.171875 C 5.992188 -7.484375 6.90625 -5.523438 8.09375 -4.296875 C 9.289062 -3.066406 10.84375 -2.453125 12.75 -2.453125 C 14.125 -2.453125 15.191406 -2.738281 15.953125 -3.3125 C 16.722656 -3.894531 17.109375 -4.691406 17.109375 -5.703125 C 17.109375 -6.742188 16.640625 -7.757812 15.703125 -8.75 C 14.773438 -9.738281 13.265625 -10.789062 11.171875 -11.90625 C 8.347656 -13.4375 6.316406 -14.953125 5.078125 -16.453125 C 3.847656 -17.960938 3.234375 -19.671875 3.234375 -21.578125 C 3.234375 -22.804688 3.46875 -23.953125 3.9375 -25.015625 C 4.40625 -26.078125 5.039062 -27 5.84375 -27.78125 C 6.644531 -28.5625 7.601562 -29.164062 8.71875 -29.59375 C 9.832031 -30.019531 11.046875 -30.234375 12.359375 -30.234375 C 13.503906 -30.234375 14.644531 -30.066406 15.78125 -29.734375 C 16.925781 -29.398438 17.925781 -28.9375 18.78125 -28.34375 L 19.78125 -29.671875 L 21.234375 -29.671875 L 21.234375 -21.234375 L 19.0625 -21.234375 C 18.195312 -23.359375 17.304688 -24.882812 16.390625 -25.8125 C 15.484375 -26.75 14.378906 -27.21875 13.078125 -27.21875 C 12.035156 -27.21875 11.207031 -26.9375 10.59375 -26.375 C 9.976562 -25.820312 9.671875 -25.078125 9.671875 -24.140625 C 9.671875 -23.097656 10.125 -22.109375 11.03125 -21.171875 C 11.945312 -20.242188 13.46875 -19.222656 15.59375 -18.109375 C 17.082031 -17.285156 18.367188 -16.484375 19.453125 -15.703125 C 20.535156 -14.921875 21.410156 -14.128906 22.078125 -13.328125 C 22.742188 -12.523438 23.234375 -11.6875 23.546875 -10.8125 C 23.867188 -9.9375 24.03125 -9 24.03125 -8 C 24.03125 -6.6875 23.785156 -5.507812 23.296875 -4.46875 C 22.816406 -3.425781 22.128906 -2.53125 21.234375 -1.78125 C 20.335938 -1.039062 19.265625 -0.460938 18.015625 -0.046875 C 16.773438 0.359375 15.390625 0.5625 13.859375 0.5625 C 12.253906 0.5625 10.765625 0.347656 9.390625 -0.078125 C 8.015625 -0.515625 6.878906 -1.140625 5.984375 -1.953125 Z M 4.75 0 "/></g></g></g><g fill="#000000" fill-opacity="1"><g transform="translate(457.581024, 159.253474)"><g><path d="M 14.359375 -9.171875 C 14.359375 -7.679688 14.414062 -6.488281 14.53125 -5.59375 C 14.644531 -4.695312 14.867188 -4.003906 15.203125 -3.515625 C 15.535156 -3.035156 16.019531 -2.710938 16.65625 -2.546875 C 17.289062 -2.378906 18.144531 -2.273438 19.21875 -2.234375 L 19.21875 0 L 1.625 0 L 1.625 -2.234375 C 2.664062 -2.273438 3.507812 -2.394531 4.15625 -2.59375 C 4.8125 -2.800781 5.316406 -3.132812 5.671875 -3.59375 C 6.023438 -4.0625 6.265625 -4.710938 6.390625 -5.546875 C 6.523438 -6.390625 6.59375 -7.46875 6.59375 -8.78125 L 6.59375 -15.65625 C 6.59375 -17.8125 6.554688 -19.585938 6.484375 -20.984375 C 6.410156 -22.378906 6.316406 -23.335938 6.203125 -23.859375 C 6.015625 -24.796875 5.59375 -25.410156 4.9375 -25.703125 C 4.289062 -26.003906 3.109375 -26.15625 1.390625 -26.15625 L 1.390625 -28.0625 L 14.359375 -30.1875 Z M 6.140625 -42.03125 C 6.140625 -43.257812 6.554688 -44.289062 7.390625 -45.125 C 8.234375 -45.96875 9.253906 -46.390625 10.453125 -46.390625 C 11.679688 -46.390625 12.710938 -45.96875 13.546875 -45.125 C 14.390625 -44.289062 14.8125 -43.257812 14.8125 -42.03125 C 14.8125 -40.832031 14.390625 -39.8125 13.546875 -38.96875 C 12.710938 -38.132812 11.679688 -37.71875 10.453125 -37.71875 C 9.253906 -37.71875 8.234375 -38.132812 7.390625 -38.96875 C 6.554688 -39.8125 6.140625 -40.832031 6.140625 -42.03125 Z M 6.140625 -42.03125 "/></g></g></g><g fill="#000000" fill-opacity="1"><g transform="translate(477.756648, 159.253474)"><g><path d="M 14.359375 -9.109375 C 14.359375 -7.578125 14.40625 -6.375 14.5 -5.5 C 14.59375 -4.625 14.796875 -3.953125 15.109375 -3.484375 C 15.429688 -3.023438 15.914062 -2.71875 16.5625 -2.5625 C 17.21875 -2.414062 18.101562 -2.304688 19.21875 -2.234375 L 19.21875 0 L 1.625 0 L 1.625 -2.234375 C 2.695312 -2.304688 3.5625 -2.414062 4.21875 -2.5625 C 4.875 -2.71875 5.378906 -3.019531 5.734375 -3.46875 C 6.085938 -3.914062 6.316406 -4.546875 6.421875 -5.359375 C 6.535156 -6.179688 6.59375 -7.300781 6.59375 -8.71875 L 6.59375 -15.703125 C 6.59375 -17.898438 6.554688 -19.675781 6.484375 -21.03125 C 6.410156 -22.394531 6.316406 -23.320312 6.203125 -23.8125 C 6.085938 -24.289062 5.9375 -24.6875 5.75 -25 C 5.570312 -25.320312 5.296875 -25.566406 4.921875 -25.734375 C 4.546875 -25.898438 4.078125 -26.007812 3.515625 -26.0625 C 2.960938 -26.125 2.253906 -26.15625 1.390625 -26.15625 L 1.390625 -28.0625 L 12.1875 -30.1875 L 12.90625 -25.265625 L 13.140625 -25.265625 C 14.367188 -26.828125 15.820312 -28.035156 17.5 -28.890625 C 19.175781 -29.753906 21.019531 -30.1875 23.03125 -30.1875 C 25.414062 -30.1875 27.34375 -29.859375 28.8125 -29.203125 C 30.28125 -28.546875 31.59375 -27.457031 32.75 -25.9375 C 33.382812 -25.070312 33.941406 -23.957031 34.421875 -22.59375 C 34.910156 -21.238281 35.15625 -19.367188 35.15625 -16.984375 L 35.15625 -9.109375 C 35.15625 -7.578125 35.203125 -6.375 35.296875 -5.5 C 35.390625 -4.625 35.59375 -3.953125 35.90625 -3.484375 C 36.226562 -3.023438 36.703125 -2.71875 37.328125 -2.5625 C 37.960938 -2.414062 38.820312 -2.304688 39.90625 -2.234375 L 39.90625 0 L 22.40625 0 L 22.40625 -2.234375 C 23.53125 -2.273438 24.414062 -2.378906 25.0625 -2.546875 C 25.71875 -2.710938 26.210938 -3.019531 26.546875 -3.46875 C 26.878906 -3.914062 27.101562 -4.554688 27.21875 -5.390625 C 27.332031 -6.234375 27.390625 -7.34375 27.390625 -8.71875 L 27.390625 -16.3125 C 27.390625 -18.21875 27.273438 -19.820312 27.046875 -21.125 C 26.828125 -22.425781 26.460938 -23.476562 25.953125 -24.28125 C 25.453125 -25.082031 24.789062 -25.660156 23.96875 -26.015625 C 23.15625 -26.367188 22.132812 -26.546875 20.90625 -26.546875 C 19.707031 -26.546875 18.679688 -26.207031 17.828125 -25.53125 C 16.972656 -24.863281 16.226562 -23.9375 15.59375 -22.75 C 15.257812 -22.070312 14.96875 -21.203125 14.71875 -20.140625 C 14.476562 -19.085938 14.359375 -17.984375 14.359375 -16.828125 Z M 14.359375 -9.109375 "/></g></g></g><g fill="#000000" fill-opacity="1"><g transform="translate(518.387298, 159.253474)"><g><path d="M 30.1875 -5.203125 C 26.789062 -1.359375 22.5625 0.5625 17.5 0.5625 C 15.1875 0.5625 13.085938 0.195312 11.203125 -0.53125 C 9.328125 -1.257812 7.71875 -2.285156 6.375 -3.609375 C 5.03125 -4.929688 3.984375 -6.503906 3.234375 -8.328125 C 2.492188 -10.148438 2.125 -12.179688 2.125 -14.421875 C 2.125 -16.734375 2.515625 -18.847656 3.296875 -20.765625 C 4.078125 -22.679688 5.1875 -24.335938 6.625 -25.734375 C 8.0625 -27.128906 9.753906 -28.21875 11.703125 -29 C 13.660156 -29.789062 15.816406 -30.1875 18.171875 -30.1875 C 22.117188 -30.1875 25.191406 -29.125 27.390625 -27 C 29.585938 -24.875 30.6875 -21.890625 30.6875 -18.046875 C 30.6875 -17.453125 30.59375 -17.085938 30.40625 -16.953125 C 30.21875 -16.828125 29.695312 -16.765625 28.84375 -16.765625 L 10.84375 -16.765625 C 10.695312 -16.429688 10.625 -15.816406 10.625 -14.921875 C 10.625 -11.273438 11.414062 -8.390625 13 -6.265625 C 14.582031 -4.140625 16.734375 -3.078125 19.453125 -3.078125 C 21.015625 -3.078125 22.566406 -3.429688 24.109375 -4.140625 C 25.660156 -4.847656 27.160156 -5.851562 28.609375 -7.15625 Z M 19.34375 -19.890625 C 20.832031 -19.890625 21.789062 -19.972656 22.21875 -20.140625 C 22.644531 -20.316406 22.859375 -20.71875 22.859375 -21.34375 C 22.859375 -22.988281 22.390625 -24.332031 21.453125 -25.375 C 20.523438 -26.414062 19.351562 -26.9375 17.9375 -26.9375 C 16.332031 -26.9375 14.90625 -26.273438 13.65625 -24.953125 C 12.414062 -23.628906 11.609375 -21.941406 11.234375 -19.890625 Z M 19.34375 -19.890625 "/></g></g></g><g fill="#000000" fill-opacity="1"><g transform="translate(551.08183, 159.253474)"><g><path d="M 4.75 0 L 3.015625 0 L 3.015625 -10.171875 L 5.359375 -10.171875 C 5.992188 -7.484375 6.90625 -5.523438 8.09375 -4.296875 C 9.289062 -3.066406 10.84375 -2.453125 12.75 -2.453125 C 14.125 -2.453125 15.191406 -2.738281 15.953125 -3.3125 C 16.722656 -3.894531 17.109375 -4.691406 17.109375 -5.703125 C 17.109375 -6.742188 16.640625 -7.757812 15.703125 -8.75 C 14.773438 -9.738281 13.265625 -10.789062 11.171875 -11.90625 C 8.347656 -13.4375 6.316406 -14.953125 5.078125 -16.453125 C 3.847656 -17.960938 3.234375 -19.671875 3.234375 -21.578125 C 3.234375 -22.804688 3.46875 -23.953125 3.9375 -25.015625 C 4.40625 -26.078125 5.039062 -27 5.84375 -27.78125 C 6.644531 -28.5625 7.601562 -29.164062 8.71875 -29.59375 C 9.832031 -30.019531 11.046875 -30.234375 12.359375 -30.234375 C 13.503906 -30.234375 14.644531 -30.066406 15.78125 -29.734375 C 16.925781 -29.398438 17.925781 -28.9375 18.78125 -28.34375 L 19.78125 -29.671875 L 21.234375 -29.671875 L 21.234375 -21.234375 L 19.0625 -21.234375 C 18.195312 -23.359375 17.304688 -24.882812 16.390625 -25.8125 C 15.484375 -26.75 14.378906 -27.21875 13.078125 -27.21875 C 12.035156 -27.21875 11.207031 -26.9375 10.59375 -26.375 C 9.976562 -25.820312 9.671875 -25.078125 9.671875 -24.140625 C 9.671875 -23.097656 10.125 -22.109375 11.03125 -21.171875 C 11.945312 -20.242188 13.46875 -19.222656 15.59375 -18.109375 C 17.082031 -17.285156 18.367188 -16.484375 19.453125 -15.703125 C 20.535156 -14.921875 21.410156 -14.128906 22.078125 -13.328125 C 22.742188 -12.523438 23.234375 -11.6875 23.546875 -10.8125 C 23.867188 -9.9375 24.03125 -9 24.03125 -8 C 24.03125 -6.6875 23.785156 -5.507812 23.296875 -4.46875 C 22.816406 -3.425781 22.128906 -2.53125 21.234375 -1.78125 C 20.335938 -1.039062 19.265625 -0.460938 18.015625 -0.046875 C 16.773438 0.359375 15.390625 0.5625 13.859375 0.5625 C 12.253906 0.5625 10.765625 0.347656 9.390625 -0.078125 C 8.015625 -0.515625 6.878906 -1.140625 5.984375 -1.953125 Z M 4.75 0 "/></g></g></g><g fill="#000000" fill-opacity="1"><g transform="translate(577.125677, 159.253474)"><g><path d="M 4.75 0 L 3.015625 0 L 3.015625 -10.171875 L 5.359375 -10.171875 C 5.992188 -7.484375 6.90625 -5.523438 8.09375 -4.296875 C 9.289062 -3.066406 10.84375 -2.453125 12.75 -2.453125 C 14.125 -2.453125 15.191406 -2.738281 15.953125 -3.3125 C 16.722656 -3.894531 17.109375 -4.691406 17.109375 -5.703125 C 17.109375 -6.742188 16.640625 -7.757812 15.703125 -8.75 C 14.773438 -9.738281 13.265625 -10.789062 11.171875 -11.90625 C 8.347656 -13.4375 6.316406 -14.953125 5.078125 -16.453125 C 3.847656 -17.960938 3.234375 -19.671875 3.234375 -21.578125 C 3.234375 -22.804688 3.46875 -23.953125 3.9375 -25.015625 C 4.40625 -26.078125 5.039062 -27 5.84375 -27.78125 C 6.644531 -28.5625 7.601562 -29.164062 8.71875 -29.59375 C 9.832031 -30.019531 11.046875 -30.234375 12.359375 -30.234375 C 13.503906 -30.234375 14.644531 -30.066406 15.78125 -29.734375 C 16.925781 -29.398438 17.925781 -28.9375 18.78125 -28.34375 L 19.78125 -29.671875 L 21.234375 -29.671875 L 21.234375 -21.234375 L 19.0625 -21.234375 C 18.195312 -23.359375 17.304688 -24.882812 16.390625 -25.8125 C 15.484375 -26.75 14.378906 -27.21875 13.078125 -27.21875 C 12.035156 -27.21875 11.207031 -26.9375 10.59375 -26.375 C 9.976562 -25.820312 9.671875 -25.078125 9.671875 -24.140625 C 9.671875 -23.097656 10.125 -22.109375 11.03125 -21.171875 C 11.945312 -20.242188 13.46875 -19.222656 15.59375 -18.109375 C 17.082031 -17.285156 18.367188 -16.484375 19.453125 -15.703125 C 20.535156 -14.921875 21.410156 -14.128906 22.078125 -13.328125 C 22.742188 -12.523438 23.234375 -11.6875 23.546875 -10.8125 C 23.867188 -9.9375 24.03125 -9 24.03125 -8 C 24.03125 -6.6875 23.785156 -5.507812 23.296875 -4.46875 C 22.816406 -3.425781 22.128906 -2.53125 21.234375 -1.78125 C 20.335938 -1.039062 19.265625 -0.460938 18.015625 -0.046875 C 16.773438 0.359375 15.390625 0.5625 13.859375 0.5625 C 12.253906 0.5625 10.765625 0.347656 9.390625 -0.078125 C 8.015625 -0.515625 6.878906 -1.140625 5.984375 -1.953125 Z M 4.75 0 "/></g></g></g></svg>