<svg xmlns="http://www.w3.org/2000/svg" xmlns:xlink="http://www.w3.org/1999/xlink" width="972" zoomAndPan="magnify" viewBox="0 0 729 537.000006" height="716" preserveAspectRatio="xMidYMid meet" version="1.0"><defs><g/><clipPath id="d5f8feb9cc"><path d="M 0.675781 0 L 728.320312 0 L 728.320312 536 L 0.675781 536 Z M 0.675781 0 " clip-rule="nonzero"/></clipPath><clipPath id="5eba564b95"><path d="M 276 241.199219 L 471.402344 241.199219 L 471.402344 378 L 276 378 Z M 276 241.199219 " clip-rule="nonzero"/></clipPath><clipPath id="2db5dd2ed3"><path d="M 257.300781 319 L 453 319 L 453 455.300781 L 257.300781 455.300781 Z M 257.300781 319 " clip-rule="nonzero"/></clipPath></defs><g clip-path="url(#d5f8feb9cc)"><path fill="#ffffff" d="M 0.675781 0 L 728.324219 0 L 728.324219 536 L 0.675781 536 Z M 0.675781 0 " fill-opacity="1" fill-rule="nonzero"/><path fill="#ffffff" d="M 0.675781 0 L 728.324219 0 L 728.324219 536 L 0.675781 536 Z M 0.675781 0 " fill-opacity="1" fill-rule="nonzero"/></g><g clip-path="url(#5eba564b95)"><path fill="#040606" d="M 364.351562 241.199219 C 333.644531 241.199219 304.386719 254.417969 284.0625 277.445312 C 283.359375 278.253906 282.359375 278.714844 281.300781 278.746094 C 280.074219 278.761719 279.222656 278.359375 278.476562 277.609375 L 276.59375 275.699219 L 276.386719 290.886719 L 291.558594 290.695312 L 289.394531 288.527344 C 287.976562 287.109375 287.886719 284.839844 289.199219 283.332031 C 308.046875 261.40625 335.453125 248.847656 364.351562 248.847656 C 419.160156 248.847656 463.753906 293.441406 463.753906 348.25 C 463.753906 356.375 462.769531 364.484375 460.8125 372.371094 C 460.542969 373.417969 460.691406 374.476562 461.214844 375.371094 C 461.707031 376.222656 462.515625 376.835938 463.5 377.074219 C 463.753906 377.136719 464.1875 377.238281 464.515625 377.238281 C 466.25 377.238281 467.757812 376.042969 468.191406 374.355469 C 470.324219 365.902344 471.402344 357.121094 471.402344 348.25 C 471.402344 289.214844 423.386719 241.199219 364.351562 241.199219 " fill-opacity="1" fill-rule="nonzero"/></g><path fill="#040606" d="M 360.527344 401.777344 L 360.527344 397.640625 C 347.578125 395.773438 337.585938 384.648438 337.585938 371.191406 C 337.585938 369.085938 339.304688 367.367188 341.410156 367.367188 C 343.515625 367.367188 345.234375 369.085938 345.234375 371.191406 C 345.234375 380.421875 351.804688 388.140625 360.527344 389.917969 L 360.527344 351.761719 C 347.578125 349.894531 337.585938 338.769531 337.585938 325.3125 C 337.585938 311.855469 347.578125 300.730469 360.527344 298.863281 L 360.527344 294.726562 C 360.527344 292.621094 362.246094 290.902344 364.351562 290.902344 C 366.457031 290.902344 368.171875 292.621094 368.171875 294.726562 L 368.171875 298.863281 C 381.121094 300.730469 391.113281 311.855469 391.113281 325.3125 C 391.113281 327.417969 389.394531 329.136719 387.289062 329.136719 C 385.183594 329.136719 383.464844 327.417969 383.464844 325.3125 C 383.464844 316.082031 376.894531 308.363281 368.171875 306.585938 L 368.171875 344.742188 C 381.121094 346.609375 391.113281 357.734375 391.113281 371.191406 C 391.113281 384.648438 381.121094 395.773438 368.171875 397.640625 L 368.171875 401.777344 C 368.171875 403.882812 366.457031 405.601562 364.351562 405.601562 C 362.246094 405.601562 360.527344 403.882812 360.527344 401.777344 Z M 433.167969 348.25 C 433.167969 310.304688 402.300781 279.433594 364.351562 279.433594 C 326.402344 279.433594 295.53125 310.304688 295.53125 348.25 C 295.53125 386.199219 326.402344 417.070312 364.351562 417.070312 C 402.300781 417.070312 433.167969 386.199219 433.167969 348.25 " fill-opacity="1" fill-rule="nonzero"/><g clip-path="url(#2db5dd2ed3)"><path fill="#040606" d="M 364.351562 455.300781 C 395.054688 455.300781 424.3125 442.085938 444.636719 419.054688 C 445.339844 418.25 446.339844 417.785156 447.402344 417.757812 C 448.535156 417.773438 449.492188 418.144531 450.222656 418.890625 L 452.105469 420.804688 L 452.316406 405.613281 L 437.140625 405.808594 L 439.304688 407.976562 C 440.726562 409.394531 440.816406 411.664062 439.5 413.171875 C 420.652344 435.082031 393.25 447.65625 364.351562 447.65625 C 309.539062 447.65625 264.945312 403.0625 264.945312 348.25 C 264.945312 340.128906 265.933594 332.019531 267.886719 324.132812 C 268.140625 323.085938 268.007812 322.027344 267.5 321.128906 C 266.992188 320.277344 266.1875 319.667969 265.199219 319.429688 C 264.945312 319.367188 264.511719 319.261719 264.183594 319.261719 C 262.453125 319.261719 260.945312 320.457031 260.511719 322.144531 C 258.375 330.597656 257.300781 339.378906 257.300781 348.25 C 257.300781 407.289062 305.3125 455.300781 364.351562 455.300781 " fill-opacity="1" fill-rule="nonzero"/></g><path fill="#040606" d="M 383.464844 371.191406 C 383.464844 361.960938 376.894531 354.242188 368.171875 352.464844 L 368.171875 389.917969 C 376.894531 388.140625 383.464844 380.421875 383.464844 371.191406 " fill-opacity="1" fill-rule="nonzero"/><path fill="#040606" d="M 345.234375 325.3125 C 345.234375 334.542969 351.804688 342.261719 360.527344 344.039062 L 360.527344 306.585938 C 351.804688 308.363281 345.234375 316.082031 345.234375 325.3125 " fill-opacity="1" fill-rule="nonzero"/><g fill="#000000" fill-opacity="1"><g transform="translate(137.309784, 132.45336)"><g><path d="M 39.125 -31.078125 C 39.125 -27.046875 37.554688 -23.976562 34.421875 -21.875 C 31.296875 -19.769531 26.753906 -18.71875 20.796875 -18.71875 L 16.046875 -18.71875 L 16.046875 -8.890625 C 16.046875 -7.472656 16.132812 -6.328125 16.3125 -5.453125 C 16.5 -4.578125 16.890625 -3.894531 17.484375 -3.40625 C 18.085938 -2.925781 18.910156 -2.609375 19.953125 -2.453125 C 20.992188 -2.304688 22.390625 -2.234375 24.140625 -2.234375 L 24.140625 0 L 1.953125 0 L 1.953125 -2.234375 C 3.179688 -2.273438 4.1875 -2.382812 4.96875 -2.5625 C 5.75 -2.75 6.34375 -3.066406 6.75 -3.515625 C 7.164062 -3.960938 7.445312 -4.597656 7.59375 -5.421875 C 7.75 -6.242188 7.828125 -7.304688 7.828125 -8.609375 L 7.828125 -34.421875 C 7.828125 -35.734375 7.757812 -36.785156 7.625 -37.578125 C 7.5 -38.378906 7.25 -39.015625 6.875 -39.484375 C 6.5 -39.953125 5.96875 -40.269531 5.28125 -40.4375 C 4.59375 -40.601562 3.691406 -40.722656 2.578125 -40.796875 L 2.578125 -43.03125 L 21.90625 -43.03125 C 27.570312 -43.03125 31.859375 -42.023438 34.765625 -40.015625 C 37.671875 -38.003906 39.125 -35.023438 39.125 -31.078125 Z M 16.046875 -22.078125 L 19.671875 -22.078125 C 23.285156 -22.078125 25.929688 -22.800781 27.609375 -24.25 C 29.285156 -25.707031 30.125 -28 30.125 -31.125 C 30.125 -33.925781 29.414062 -36.085938 28 -37.609375 C 26.582031 -39.140625 24.363281 -39.90625 21.34375 -39.90625 L 17.046875 -39.90625 C 16.378906 -39.90625 16.046875 -39.585938 16.046875 -38.953125 Z M 16.046875 -22.078125 "/></g></g></g><g fill="#000000" fill-opacity="1"><g transform="translate(177.381562, 132.45336)"><g><path d="M 19.21875 -15.921875 C 16.09375 -14.515625 13.738281 -13.203125 12.15625 -11.984375 C 10.570312 -10.773438 9.78125 -9.519531 9.78125 -8.21875 C 9.78125 -7.132812 10.078125 -6.273438 10.671875 -5.640625 C 11.265625 -5.003906 12.007812 -4.6875 12.90625 -4.6875 C 13.800781 -4.6875 14.640625 -4.84375 15.421875 -5.15625 C 16.203125 -5.476562 16.875 -5.898438 17.4375 -6.421875 C 18 -6.941406 18.4375 -7.566406 18.75 -8.296875 C 19.0625 -9.023438 19.21875 -9.800781 19.21875 -10.625 Z M 19.21875 -18.890625 L 19.21875 -21.234375 C 19.21875 -23.398438 18.835938 -24.972656 18.078125 -25.953125 C 17.316406 -26.941406 16.132812 -27.4375 14.53125 -27.4375 C 13.445312 -27.4375 12.625 -27.144531 12.0625 -26.5625 C 11.507812 -25.988281 10.988281 -25.035156 10.5 -23.703125 C 10.164062 -22.765625 9.691406 -22.035156 9.078125 -21.515625 C 8.460938 -20.992188 7.617188 -20.734375 6.546875 -20.734375 C 5.492188 -20.734375 4.6875 -21.050781 4.125 -21.6875 C 3.570312 -22.320312 3.296875 -23.21875 3.296875 -24.375 C 3.296875 -26.15625 4.273438 -27.566406 6.234375 -28.609375 C 8.191406 -29.660156 11.144531 -30.1875 15.09375 -30.1875 C 19.257812 -30.1875 22.238281 -29.429688 24.03125 -27.921875 C 25.820312 -26.410156 26.71875 -23.882812 26.71875 -20.34375 L 26.71875 -8.109375 C 26.71875 -4.941406 27.347656 -3.359375 28.609375 -3.359375 C 29.316406 -3.359375 29.972656 -3.597656 30.578125 -4.078125 L 31.40625 -2.453125 C 30.882812 -1.523438 30.070312 -0.789062 28.96875 -0.25 C 27.875 0.289062 26.640625 0.5625 25.265625 0.5625 C 23.546875 0.5625 22.238281 0.0390625 21.34375 -1 C 20.457031 -2.050781 20.015625 -3.523438 20.015625 -5.421875 L 19.734375 -5.421875 C 18.648438 -3.484375 17.25 -2.007812 15.53125 -1 C 13.820312 0 11.867188 0.5 9.671875 0.5 C 7.316406 0.5 5.429688 -0.160156 4.015625 -1.484375 C 2.609375 -2.804688 1.90625 -4.53125 1.90625 -6.65625 C 1.90625 -8.289062 2.628906 -9.820312 4.078125 -11.25 C 5.535156 -12.6875 7.957031 -14.097656 11.34375 -15.484375 Z M 19.21875 -18.890625 "/></g></g></g><g fill="#000000" fill-opacity="1"><g transform="translate(209.461341, 132.45336)"><g><path d="M 4.75 0 L 3.015625 0 L 3.015625 -10.171875 L 5.359375 -10.171875 C 5.992188 -7.484375 6.90625 -5.523438 8.09375 -4.296875 C 9.289062 -3.066406 10.84375 -2.453125 12.75 -2.453125 C 14.125 -2.453125 15.191406 -2.738281 15.953125 -3.3125 C 16.722656 -3.894531 17.109375 -4.691406 17.109375 -5.703125 C 17.109375 -6.742188 16.640625 -7.757812 15.703125 -8.75 C 14.773438 -9.738281 13.265625 -10.789062 11.171875 -11.90625 C 8.347656 -13.4375 6.316406 -14.953125 5.078125 -16.453125 C 3.847656 -17.960938 3.234375 -19.671875 3.234375 -21.578125 C 3.234375 -22.804688 3.46875 -23.953125 3.9375 -25.015625 C 4.40625 -26.078125 5.039062 -27 5.84375 -27.78125 C 6.644531 -28.5625 7.601562 -29.164062 8.71875 -29.59375 C 9.832031 -30.019531 11.046875 -30.234375 12.359375 -30.234375 C 13.503906 -30.234375 14.644531 -30.066406 15.78125 -29.734375 C 16.925781 -29.398438 17.925781 -28.9375 18.78125 -28.34375 L 19.78125 -29.671875 L 21.234375 -29.671875 L 21.234375 -21.234375 L 19.0625 -21.234375 C 18.195312 -23.359375 17.304688 -24.882812 16.390625 -25.8125 C 15.484375 -26.75 14.378906 -27.21875 13.078125 -27.21875 C 12.035156 -27.21875 11.207031 -26.9375 10.59375 -26.375 C 9.976562 -25.820312 9.671875 -25.078125 9.671875 -24.140625 C 9.671875 -23.097656 10.125 -22.109375 11.03125 -21.171875 C 11.945312 -20.242188 13.46875 -19.222656 15.59375 -18.109375 C 17.082031 -17.285156 18.367188 -16.484375 19.453125 -15.703125 C 20.535156 -14.921875 21.410156 -14.128906 22.078125 -13.328125 C 22.742188 -12.523438 23.234375 -11.6875 23.546875 -10.8125 C 23.867188 -9.9375 24.03125 -9 24.03125 -8 C 24.03125 -6.6875 23.785156 -5.507812 23.296875 -4.46875 C 22.816406 -3.425781 22.128906 -2.53125 21.234375 -1.78125 C 20.335938 -1.039062 19.265625 -0.460938 18.015625 -0.046875 C 16.773438 0.359375 15.390625 0.5625 13.859375 0.5625 C 12.253906 0.5625 10.765625 0.347656 9.390625 -0.078125 C 8.015625 -0.515625 6.878906 -1.140625 5.984375 -1.953125 Z M 4.75 0 "/></g></g></g><g fill="#000000" fill-opacity="1"><g transform="translate(235.505199, 132.45336)"><g><path d="M 4.75 0 L 3.015625 0 L 3.015625 -10.171875 L 5.359375 -10.171875 C 5.992188 -7.484375 6.90625 -5.523438 8.09375 -4.296875 C 9.289062 -3.066406 10.84375 -2.453125 12.75 -2.453125 C 14.125 -2.453125 15.191406 -2.738281 15.953125 -3.3125 C 16.722656 -3.894531 17.109375 -4.691406 17.109375 -5.703125 C 17.109375 -6.742188 16.640625 -7.757812 15.703125 -8.75 C 14.773438 -9.738281 13.265625 -10.789062 11.171875 -11.90625 C 8.347656 -13.4375 6.316406 -14.953125 5.078125 -16.453125 C 3.847656 -17.960938 3.234375 -19.671875 3.234375 -21.578125 C 3.234375 -22.804688 3.46875 -23.953125 3.9375 -25.015625 C 4.40625 -26.078125 5.039062 -27 5.84375 -27.78125 C 6.644531 -28.5625 7.601562 -29.164062 8.71875 -29.59375 C 9.832031 -30.019531 11.046875 -30.234375 12.359375 -30.234375 C 13.503906 -30.234375 14.644531 -30.066406 15.78125 -29.734375 C 16.925781 -29.398438 17.925781 -28.9375 18.78125 -28.34375 L 19.78125 -29.671875 L 21.234375 -29.671875 L 21.234375 -21.234375 L 19.0625 -21.234375 C 18.195312 -23.359375 17.304688 -24.882812 16.390625 -25.8125 C 15.484375 -26.75 14.378906 -27.21875 13.078125 -27.21875 C 12.035156 -27.21875 11.207031 -26.9375 10.59375 -26.375 C 9.976562 -25.820312 9.671875 -25.078125 9.671875 -24.140625 C 9.671875 -23.097656 10.125 -22.109375 11.03125 -21.171875 C 11.945312 -20.242188 13.46875 -19.222656 15.59375 -18.109375 C 17.082031 -17.285156 18.367188 -16.484375 19.453125 -15.703125 C 20.535156 -14.921875 21.410156 -14.128906 22.078125 -13.328125 C 22.742188 -12.523438 23.234375 -11.6875 23.546875 -10.8125 C 23.867188 -9.9375 24.03125 -9 24.03125 -8 C 24.03125 -6.6875 23.785156 -5.507812 23.296875 -4.46875 C 22.816406 -3.425781 22.128906 -2.53125 21.234375 -1.78125 C 20.335938 -1.039062 19.265625 -0.460938 18.015625 -0.046875 C 16.773438 0.359375 15.390625 0.5625 13.859375 0.5625 C 12.253906 0.5625 10.765625 0.347656 9.390625 -0.078125 C 8.015625 -0.515625 6.878906 -1.140625 5.984375 -1.953125 Z M 4.75 0 "/></g></g></g><g fill="#000000" fill-opacity="1"><g transform="translate(261.549057, 132.45336)"><g><path d="M 14.359375 -9.171875 C 14.359375 -7.679688 14.414062 -6.488281 14.53125 -5.59375 C 14.644531 -4.695312 14.867188 -4.003906 15.203125 -3.515625 C 15.535156 -3.035156 16.019531 -2.710938 16.65625 -2.546875 C 17.289062 -2.378906 18.144531 -2.273438 19.21875 -2.234375 L 19.21875 0 L 1.625 0 L 1.625 -2.234375 C 2.664062 -2.273438 3.507812 -2.394531 4.15625 -2.59375 C 4.8125 -2.800781 5.316406 -3.132812 5.671875 -3.59375 C 6.023438 -4.0625 6.265625 -4.710938 6.390625 -5.546875 C 6.523438 -6.390625 6.59375 -7.46875 6.59375 -8.78125 L 6.59375 -15.65625 C 6.59375 -17.8125 6.554688 -19.585938 6.484375 -20.984375 C 6.410156 -22.378906 6.316406 -23.335938 6.203125 -23.859375 C 6.015625 -24.796875 5.59375 -25.410156 4.9375 -25.703125 C 4.289062 -26.003906 3.109375 -26.15625 1.390625 -26.15625 L 1.390625 -28.0625 L 14.359375 -30.1875 Z M 6.140625 -42.03125 C 6.140625 -43.257812 6.554688 -44.289062 7.390625 -45.125 C 8.234375 -45.96875 9.253906 -46.390625 10.453125 -46.390625 C 11.679688 -46.390625 12.710938 -45.96875 13.546875 -45.125 C 14.390625 -44.289062 14.8125 -43.257812 14.8125 -42.03125 C 14.8125 -40.832031 14.390625 -39.8125 13.546875 -38.96875 C 12.710938 -38.132812 11.679688 -37.71875 10.453125 -37.71875 C 9.253906 -37.71875 8.234375 -38.132812 7.390625 -38.96875 C 6.554688 -39.8125 6.140625 -40.832031 6.140625 -42.03125 Z M 6.140625 -42.03125 "/></g></g></g><g fill="#000000" fill-opacity="1"><g transform="translate(281.724669, 132.45336)"><g><path d="M 5.640625 -22.40625 C 5.234375 -23.488281 4.84375 -24.351562 4.46875 -25 C 4.09375 -25.65625 3.707031 -26.160156 3.3125 -26.515625 C 2.925781 -26.867188 2.5 -27.101562 2.03125 -27.21875 C 1.570312 -27.332031 1.023438 -27.390625 0.390625 -27.390625 L 0.390625 -29.625 L 17.109375 -29.625 L 17.109375 -27.390625 C 16.171875 -27.390625 15.429688 -27.347656 14.890625 -27.265625 C 14.347656 -27.191406 13.9375 -27.082031 13.65625 -26.9375 C 13.382812 -26.789062 13.207031 -26.59375 13.125 -26.34375 C 13.050781 -26.101562 13.015625 -25.835938 13.015625 -25.546875 C 13.015625 -25.054688 13.109375 -24.492188 13.296875 -23.859375 C 13.484375 -23.234375 13.707031 -22.601562 13.96875 -21.96875 L 19.28125 -7.328125 L 19.5 -7.328125 L 25.484375 -21.90625 C 25.742188 -22.539062 25.945312 -23.109375 26.09375 -23.609375 C 26.25 -24.117188 26.328125 -24.578125 26.328125 -24.984375 C 26.328125 -25.804688 26.046875 -26.398438 25.484375 -26.765625 C 24.921875 -27.140625 23.9375 -27.347656 22.53125 -27.390625 L 22.53125 -29.625 L 34.875 -29.625 L 34.875 -27.390625 C 33.863281 -27.390625 32.992188 -27.128906 32.265625 -26.609375 C 31.546875 -26.085938 30.796875 -24.929688 30.015625 -23.140625 L 19.5625 0.5625 L 14.46875 0.5625 Z M 5.640625 -22.40625 "/></g></g></g><g fill="#000000" fill-opacity="1"><g transform="translate(316.598847, 132.45336)"><g><path d="M 30.1875 -5.203125 C 26.789062 -1.359375 22.5625 0.5625 17.5 0.5625 C 15.1875 0.5625 13.085938 0.195312 11.203125 -0.53125 C 9.328125 -1.257812 7.71875 -2.285156 6.375 -3.609375 C 5.03125 -4.929688 3.984375 -6.503906 3.234375 -8.328125 C 2.492188 -10.148438 2.125 -12.179688 2.125 -14.421875 C 2.125 -16.734375 2.515625 -18.847656 3.296875 -20.765625 C 4.078125 -22.679688 5.1875 -24.335938 6.625 -25.734375 C 8.0625 -27.128906 9.753906 -28.21875 11.703125 -29 C 13.660156 -29.789062 15.816406 -30.1875 18.171875 -30.1875 C 22.117188 -30.1875 25.191406 -29.125 27.390625 -27 C 29.585938 -24.875 30.6875 -21.890625 30.6875 -18.046875 C 30.6875 -17.453125 30.59375 -17.085938 30.40625 -16.953125 C 30.21875 -16.828125 29.695312 -16.765625 28.84375 -16.765625 L 10.84375 -16.765625 C 10.695312 -16.429688 10.625 -15.816406 10.625 -14.921875 C 10.625 -11.273438 11.414062 -8.390625 13 -6.265625 C 14.582031 -4.140625 16.734375 -3.078125 19.453125 -3.078125 C 21.015625 -3.078125 22.566406 -3.429688 24.109375 -4.140625 C 25.660156 -4.847656 27.160156 -5.851562 28.609375 -7.15625 Z M 19.34375 -19.890625 C 20.832031 -19.890625 21.789062 -19.972656 22.21875 -20.140625 C 22.644531 -20.316406 22.859375 -20.71875 22.859375 -21.34375 C 22.859375 -22.988281 22.390625 -24.332031 21.453125 -25.375 C 20.523438 -26.414062 19.351562 -26.9375 17.9375 -26.9375 C 16.332031 -26.9375 14.90625 -26.273438 13.65625 -24.953125 C 12.414062 -23.628906 11.609375 -21.941406 11.234375 -19.890625 Z M 19.34375 -19.890625 "/></g></g></g><g fill="#000000" fill-opacity="1"><g transform="translate(349.293379, 132.45336)"><g/></g></g><g fill="#000000" fill-opacity="1"><g transform="translate(364.159631, 132.45336)"><g><path d="M 21.96875 0 L 2.015625 0 L 2.015625 -2.234375 C 3.273438 -2.273438 4.285156 -2.394531 5.046875 -2.59375 C 5.816406 -2.800781 6.40625 -3.179688 6.8125 -3.734375 C 7.226562 -4.296875 7.507812 -5.085938 7.65625 -6.109375 C 7.800781 -7.140625 7.875 -8.53125 7.875 -10.28125 L 7.875 -32.75 C 7.875 -34.3125 7.804688 -35.601562 7.671875 -36.625 C 7.546875 -37.65625 7.296875 -38.46875 6.921875 -39.0625 C 6.554688 -39.664062 6.023438 -40.085938 5.328125 -40.328125 C 4.640625 -40.566406 3.722656 -40.722656 2.578125 -40.796875 L 2.578125 -43.03125 L 21.40625 -43.03125 L 21.40625 -40.796875 C 20.25 -40.722656 19.328125 -40.566406 18.640625 -40.328125 C 17.953125 -40.085938 17.421875 -39.664062 17.046875 -39.0625 C 16.671875 -38.46875 16.414062 -37.65625 16.28125 -36.625 C 16.15625 -35.601562 16.09375 -34.3125 16.09375 -32.75 L 16.09375 -10.28125 C 16.09375 -8.53125 16.15625 -7.140625 16.28125 -6.109375 C 16.414062 -5.085938 16.695312 -4.296875 17.125 -3.734375 C 17.550781 -3.179688 18.144531 -2.800781 18.90625 -2.59375 C 19.675781 -2.394531 20.695312 -2.273438 21.96875 -2.234375 Z M 21.96875 0 "/></g></g></g><g fill="#000000" fill-opacity="1"><g transform="translate(388.135627, 132.45336)"><g><path d="M 14.359375 -9.109375 C 14.359375 -7.578125 14.40625 -6.375 14.5 -5.5 C 14.59375 -4.625 14.796875 -3.953125 15.109375 -3.484375 C 15.429688 -3.023438 15.914062 -2.71875 16.5625 -2.5625 C 17.21875 -2.414062 18.101562 -2.304688 19.21875 -2.234375 L 19.21875 0 L 1.625 0 L 1.625 -2.234375 C 2.695312 -2.304688 3.5625 -2.414062 4.21875 -2.5625 C 4.875 -2.71875 5.378906 -3.019531 5.734375 -3.46875 C 6.085938 -3.914062 6.316406 -4.546875 6.421875 -5.359375 C 6.535156 -6.179688 6.59375 -7.300781 6.59375 -8.71875 L 6.59375 -15.703125 C 6.59375 -17.898438 6.554688 -19.675781 6.484375 -21.03125 C 6.410156 -22.394531 6.316406 -23.320312 6.203125 -23.8125 C 6.085938 -24.289062 5.9375 -24.6875 5.75 -25 C 5.570312 -25.320312 5.296875 -25.566406 4.921875 -25.734375 C 4.546875 -25.898438 4.078125 -26.007812 3.515625 -26.0625 C 2.960938 -26.125 2.253906 -26.15625 1.390625 -26.15625 L 1.390625 -28.0625 L 12.1875 -30.1875 L 12.90625 -25.265625 L 13.140625 -25.265625 C 14.367188 -26.828125 15.820312 -28.035156 17.5 -28.890625 C 19.175781 -29.753906 21.019531 -30.1875 23.03125 -30.1875 C 25.414062 -30.1875 27.34375 -29.859375 28.8125 -29.203125 C 30.28125 -28.546875 31.59375 -27.457031 32.75 -25.9375 C 33.382812 -25.070312 33.941406 -23.957031 34.421875 -22.59375 C 34.910156 -21.238281 35.15625 -19.367188 35.15625 -16.984375 L 35.15625 -9.109375 C 35.15625 -7.578125 35.203125 -6.375 35.296875 -5.5 C 35.390625 -4.625 35.59375 -3.953125 35.90625 -3.484375 C 36.226562 -3.023438 36.703125 -2.71875 37.328125 -2.5625 C 37.960938 -2.414062 38.820312 -2.304688 39.90625 -2.234375 L 39.90625 0 L 22.40625 0 L 22.40625 -2.234375 C 23.53125 -2.273438 24.414062 -2.378906 25.0625 -2.546875 C 25.71875 -2.710938 26.210938 -3.019531 26.546875 -3.46875 C 26.878906 -3.914062 27.101562 -4.554688 27.21875 -5.390625 C 27.332031 -6.234375 27.390625 -7.34375 27.390625 -8.71875 L 27.390625 -16.3125 C 27.390625 -18.21875 27.273438 -19.820312 27.046875 -21.125 C 26.828125 -22.425781 26.460938 -23.476562 25.953125 -24.28125 C 25.453125 -25.082031 24.789062 -25.660156 23.96875 -26.015625 C 23.15625 -26.367188 22.132812 -26.546875 20.90625 -26.546875 C 19.707031 -26.546875 18.679688 -26.207031 17.828125 -25.53125 C 16.972656 -24.863281 16.226562 -23.9375 15.59375 -22.75 C 15.257812 -22.070312 14.96875 -21.203125 14.71875 -20.140625 C 14.476562 -19.085938 14.359375 -17.984375 14.359375 -16.828125 Z M 14.359375 -9.109375 "/></g></g></g><g fill="#000000" fill-opacity="1"><g transform="translate(428.766278, 132.45336)"><g><path d="M 29.515625 -4.640625 C 28.097656 -3.078125 26.335938 -1.863281 24.234375 -1 C 22.128906 -0.144531 19.84375 0.28125 17.375 0.28125 C 15.101562 0.28125 13.035156 -0.0820312 11.171875 -0.8125 C 9.316406 -1.539062 7.71875 -2.554688 6.375 -3.859375 C 5.03125 -5.160156 3.992188 -6.734375 3.265625 -8.578125 C 2.546875 -10.421875 2.1875 -12.460938 2.1875 -14.703125 C 2.1875 -17.015625 2.578125 -19.117188 3.359375 -21.015625 C 4.140625 -22.910156 5.238281 -24.535156 6.65625 -25.890625 C 8.070312 -27.253906 9.765625 -28.3125 11.734375 -29.0625 C 13.710938 -29.8125 15.894531 -30.1875 18.28125 -30.1875 C 19.957031 -30.1875 21.507812 -30.015625 22.9375 -29.671875 C 24.375 -29.335938 25.601562 -28.875 26.625 -28.28125 C 27.65625 -27.6875 28.46875 -26.988281 29.0625 -26.1875 C 29.65625 -25.382812 29.953125 -24.515625 29.953125 -23.578125 C 29.953125 -22.503906 29.644531 -21.648438 29.03125 -21.015625 C 28.414062 -20.378906 27.585938 -20.0625 26.546875 -20.0625 C 25.691406 -20.0625 24.9375 -20.285156 24.28125 -20.734375 C 23.632812 -21.179688 22.992188 -21.910156 22.359375 -22.921875 C 21.796875 -23.804688 21.316406 -24.507812 20.921875 -25.03125 C 20.535156 -25.5625 20.175781 -25.960938 19.84375 -26.234375 C 19.507812 -26.515625 19.171875 -26.703125 18.828125 -26.796875 C 18.492188 -26.890625 18.085938 -26.9375 17.609375 -26.9375 C 15.441406 -26.9375 13.757812 -25.929688 12.5625 -23.921875 C 11.375 -21.910156 10.78125 -19.097656 10.78125 -15.484375 C 10.78125 -11.609375 11.5 -8.625 12.9375 -6.53125 C 14.375 -4.445312 16.429688 -3.40625 19.109375 -3.40625 C 20.640625 -3.40625 22.164062 -3.691406 23.6875 -4.265625 C 25.21875 -4.847656 26.675781 -5.679688 28.0625 -6.765625 Z M 29.515625 -4.640625 "/></g></g></g><g fill="#000000" fill-opacity="1"><g transform="translate(460.287183, 132.45336)"><g><path d="M 18.328125 -30.1875 C 20.566406 -30.1875 22.679688 -29.800781 24.671875 -29.03125 C 26.671875 -28.269531 28.421875 -27.21875 29.921875 -25.875 C 31.429688 -24.53125 32.625 -22.9375 33.5 -21.09375 C 34.375 -19.25 34.8125 -17.226562 34.8125 -15.03125 C 34.8125 -12.757812 34.375 -10.671875 33.5 -8.765625 C 32.625 -6.867188 31.429688 -5.226562 29.921875 -3.84375 C 28.421875 -2.46875 26.671875 -1.390625 24.671875 -0.609375 C 22.679688 0.171875 20.566406 0.5625 18.328125 0.5625 C 16.128906 0.5625 14.039062 0.179688 12.0625 -0.578125 C 10.09375 -1.347656 8.363281 -2.421875 6.875 -3.796875 C 5.382812 -5.179688 4.207031 -6.832031 3.34375 -8.75 C 2.488281 -10.664062 2.0625 -12.757812 2.0625 -15.03125 C 2.0625 -17.226562 2.488281 -19.257812 3.34375 -21.125 C 4.207031 -22.988281 5.382812 -24.585938 6.875 -25.921875 C 8.363281 -27.265625 10.09375 -28.3125 12.0625 -29.0625 C 14.039062 -29.8125 16.128906 -30.1875 18.328125 -30.1875 Z M 18.328125 -26.9375 C 17.210938 -26.9375 16.1875 -26.644531 15.25 -26.0625 C 14.320312 -25.488281 13.53125 -24.679688 12.875 -23.640625 C 12.226562 -22.597656 11.726562 -21.335938 11.375 -19.859375 C 11.019531 -18.390625 10.84375 -16.765625 10.84375 -14.984375 C 10.84375 -13.117188 11.019531 -11.441406 11.375 -9.953125 C 11.726562 -8.460938 12.226562 -7.191406 12.875 -6.140625 C 13.53125 -5.097656 14.3125 -4.285156 15.21875 -3.703125 C 16.132812 -3.128906 17.171875 -2.84375 18.328125 -2.84375 C 19.484375 -2.84375 20.535156 -3.128906 21.484375 -3.703125 C 22.441406 -4.285156 23.253906 -5.109375 23.921875 -6.171875 C 24.585938 -7.234375 25.109375 -8.507812 25.484375 -10 C 25.859375 -11.488281 26.046875 -13.148438 26.046875 -14.984375 C 26.046875 -16.765625 25.859375 -18.378906 25.484375 -19.828125 C 25.109375 -21.285156 24.585938 -22.546875 23.921875 -23.609375 C 23.253906 -24.671875 22.441406 -25.488281 21.484375 -26.0625 C 20.535156 -26.644531 19.484375 -26.9375 18.328125 -26.9375 Z M 18.328125 -26.9375 "/></g></g></g><g fill="#000000" fill-opacity="1"><g transform="translate(497.173342, 132.45336)"><g><path d="M 14.421875 -9.21875 C 14.421875 -7.65625 14.457031 -6.425781 14.53125 -5.53125 C 14.601562 -4.632812 14.804688 -3.953125 15.140625 -3.484375 C 15.484375 -3.023438 15.96875 -2.71875 16.59375 -2.5625 C 17.226562 -2.414062 18.101562 -2.304688 19.21875 -2.234375 L 19.21875 0 L 1.5625 0 L 1.5625 -2.234375 C 2.675781 -2.304688 3.566406 -2.414062 4.234375 -2.5625 C 4.910156 -2.71875 5.414062 -3.019531 5.75 -3.46875 C 6.09375 -3.914062 6.316406 -4.554688 6.421875 -5.390625 C 6.535156 -6.234375 6.59375 -7.363281 6.59375 -8.78125 L 6.59375 -15.703125 C 6.59375 -17.828125 6.5625 -19.597656 6.5 -21.015625 C 6.445312 -22.429688 6.347656 -23.398438 6.203125 -23.921875 C 6.085938 -24.398438 5.945312 -24.78125 5.78125 -25.0625 C 5.613281 -25.34375 5.351562 -25.566406 5 -25.734375 C 4.644531 -25.898438 4.1875 -26.007812 3.625 -26.0625 C 3.070312 -26.125 2.347656 -26.15625 1.453125 -26.15625 L 1.453125 -28.0625 L 12.234375 -30.1875 L 12.90625 -25.3125 L 13.25 -25.3125 C 14.8125 -27.0625 16.382812 -28.3125 17.96875 -29.0625 C 19.550781 -29.8125 21.382812 -30.1875 23.46875 -30.1875 C 25.925781 -30.1875 27.957031 -29.753906 29.5625 -28.890625 C 31.164062 -28.035156 32.378906 -26.804688 33.203125 -25.203125 L 33.421875 -25.203125 C 34.765625 -26.765625 36.367188 -27.984375 38.234375 -28.859375 C 40.097656 -29.742188 42.085938 -30.1875 44.203125 -30.1875 C 46.441406 -30.1875 48.390625 -29.90625 50.046875 -29.34375 C 51.703125 -28.78125 53 -27.976562 53.9375 -26.9375 C 54.675781 -26.082031 55.222656 -24.960938 55.578125 -23.578125 C 55.929688 -22.203125 56.109375 -20.285156 56.109375 -17.828125 L 56.109375 -9.21875 C 56.109375 -7.695312 56.15625 -6.488281 56.25 -5.59375 C 56.34375 -4.695312 56.554688 -4.003906 56.890625 -3.515625 C 57.234375 -3.035156 57.71875 -2.71875 58.34375 -2.5625 C 58.976562 -2.414062 59.859375 -2.304688 60.984375 -2.234375 L 60.984375 0 L 43.3125 0 L 43.3125 -2.234375 C 44.425781 -2.273438 45.3125 -2.378906 45.96875 -2.546875 C 46.625 -2.710938 47.128906 -3.023438 47.484375 -3.484375 C 47.835938 -3.953125 48.0625 -4.597656 48.15625 -5.421875 C 48.25 -6.242188 48.296875 -7.363281 48.296875 -8.78125 L 48.296875 -16.09375 C 48.296875 -18.03125 48.179688 -19.671875 47.953125 -21.015625 C 47.734375 -22.359375 47.378906 -23.4375 46.890625 -24.25 C 46.410156 -25.070312 45.769531 -25.660156 44.96875 -26.015625 C 44.164062 -26.367188 43.1875 -26.546875 42.03125 -26.546875 C 40.726562 -26.546875 39.65625 -26.226562 38.8125 -25.59375 C 37.976562 -24.957031 37.28125 -24.140625 36.71875 -23.140625 C 35.75 -21.390625 35.265625 -19.207031 35.265625 -16.59375 L 35.265625 -9.21875 C 35.265625 -7.695312 35.300781 -6.488281 35.375 -5.59375 C 35.445312 -4.695312 35.648438 -4.003906 35.984375 -3.515625 C 36.328125 -3.035156 36.820312 -2.71875 37.46875 -2.5625 C 38.125 -2.414062 39.03125 -2.304688 40.1875 -2.234375 L 40.1875 0 L 22.46875 0 L 22.46875 -2.234375 C 23.582031 -2.304688 24.460938 -2.414062 25.109375 -2.5625 C 25.765625 -2.71875 26.269531 -3.019531 26.625 -3.46875 C 26.976562 -3.914062 27.203125 -4.554688 27.296875 -5.390625 C 27.390625 -6.234375 27.4375 -7.363281 27.4375 -8.78125 L 27.4375 -16.09375 C 27.4375 -18.03125 27.320312 -19.671875 27.09375 -21.015625 C 26.875 -22.359375 26.515625 -23.4375 26.015625 -24.25 C 25.515625 -25.070312 24.851562 -25.660156 24.03125 -26.015625 C 23.207031 -26.367188 22.179688 -26.546875 20.953125 -26.546875 C 19.722656 -26.546875 18.707031 -26.25 17.90625 -25.65625 C 17.113281 -25.0625 16.453125 -24.257812 15.921875 -23.25 C 15.441406 -22.351562 15.070312 -21.328125 14.8125 -20.171875 C 14.550781 -19.015625 14.421875 -17.820312 14.421875 -16.59375 Z M 14.421875 -9.21875 "/></g></g></g><g fill="#000000" fill-opacity="1"><g transform="translate(558.985601, 132.45336)"><g><path d="M 30.1875 -5.203125 C 26.789062 -1.359375 22.5625 0.5625 17.5 0.5625 C 15.1875 0.5625 13.085938 0.195312 11.203125 -0.53125 C 9.328125 -1.257812 7.71875 -2.285156 6.375 -3.609375 C 5.03125 -4.929688 3.984375 -6.503906 3.234375 -8.328125 C 2.492188 -10.148438 2.125 -12.179688 2.125 -14.421875 C 2.125 -16.734375 2.515625 -18.847656 3.296875 -20.765625 C 4.078125 -22.679688 5.1875 -24.335938 6.625 -25.734375 C 8.0625 -27.128906 9.753906 -28.21875 11.703125 -29 C 13.660156 -29.789062 15.816406 -30.1875 18.171875 -30.1875 C 22.117188 -30.1875 25.191406 -29.125 27.390625 -27 C 29.585938 -24.875 30.6875 -21.890625 30.6875 -18.046875 C 30.6875 -17.453125 30.59375 -17.085938 30.40625 -16.953125 C 30.21875 -16.828125 29.695312 -16.765625 28.84375 -16.765625 L 10.84375 -16.765625 C 10.695312 -16.429688 10.625 -15.816406 10.625 -14.921875 C 10.625 -11.273438 11.414062 -8.390625 13 -6.265625 C 14.582031 -4.140625 16.734375 -3.078125 19.453125 -3.078125 C 21.015625 -3.078125 22.566406 -3.429688 24.109375 -4.140625 C 25.660156 -4.847656 27.160156 -5.851562 28.609375 -7.15625 Z M 19.34375 -19.890625 C 20.832031 -19.890625 21.789062 -19.972656 22.21875 -20.140625 C 22.644531 -20.316406 22.859375 -20.71875 22.859375 -21.34375 C 22.859375 -22.988281 22.390625 -24.332031 21.453125 -25.375 C 20.523438 -26.414062 19.351562 -26.9375 17.9375 -26.9375 C 16.332031 -26.9375 14.90625 -26.273438 13.65625 -24.953125 C 12.414062 -23.628906 11.609375 -21.941406 11.234375 -19.890625 Z M 19.34375 -19.890625 "/></g></g></g><g fill="#000000" fill-opacity="1"><g transform="translate(287.709393, 210.308376)"><g><path d="M 21.96875 0 L 2.015625 0 L 2.015625 -2.234375 C 3.273438 -2.273438 4.285156 -2.394531 5.046875 -2.59375 C 5.816406 -2.800781 6.40625 -3.179688 6.8125 -3.734375 C 7.226562 -4.296875 7.507812 -5.085938 7.65625 -6.109375 C 7.800781 -7.140625 7.875 -8.53125 7.875 -10.28125 L 7.875 -32.75 C 7.875 -34.3125 7.804688 -35.601562 7.671875 -36.625 C 7.546875 -37.65625 7.296875 -38.46875 6.921875 -39.0625 C 6.554688 -39.664062 6.023438 -40.085938 5.328125 -40.328125 C 4.640625 -40.566406 3.722656 -40.722656 2.578125 -40.796875 L 2.578125 -43.03125 L 21.40625 -43.03125 L 21.40625 -40.796875 C 20.25 -40.722656 19.328125 -40.566406 18.640625 -40.328125 C 17.953125 -40.085938 17.421875 -39.664062 17.046875 -39.0625 C 16.671875 -38.46875 16.414062 -37.65625 16.28125 -36.625 C 16.15625 -35.601562 16.09375 -34.3125 16.09375 -32.75 L 16.09375 -10.28125 C 16.09375 -8.53125 16.15625 -7.140625 16.28125 -6.109375 C 16.414062 -5.085938 16.695312 -4.296875 17.125 -3.734375 C 17.550781 -3.179688 18.144531 -2.800781 18.90625 -2.59375 C 19.675781 -2.394531 20.695312 -2.273438 21.96875 -2.234375 Z M 21.96875 0 "/></g></g></g><g fill="#000000" fill-opacity="1"><g transform="translate(311.68539, 210.308376)"><g><path d="M 26.890625 -3.578125 L 26.65625 -3.578125 C 24.082031 -0.816406 20.75 0.5625 16.65625 0.5625 C 14.53125 0.5625 12.582031 0.191406 10.8125 -0.546875 C 9.039062 -1.296875 7.507812 -2.34375 6.21875 -3.6875 C 4.9375 -5.03125 3.941406 -6.625 3.234375 -8.46875 C 2.535156 -10.3125 2.1875 -12.351562 2.1875 -14.59375 C 2.1875 -16.820312 2.546875 -18.882812 3.265625 -20.78125 C 3.992188 -22.6875 4.984375 -24.335938 6.234375 -25.734375 C 7.484375 -27.128906 8.972656 -28.21875 10.703125 -29 C 12.429688 -29.789062 14.300781 -30.1875 16.3125 -30.1875 C 18.175781 -30.1875 19.828125 -29.90625 21.265625 -29.34375 C 22.703125 -28.78125 23.957031 -27.828125 25.03125 -26.484375 L 25.265625 -26.484375 L 25.265625 -31.25 C 25.265625 -33.445312 25.234375 -35.335938 25.171875 -36.921875 C 25.117188 -38.503906 25.035156 -39.535156 24.921875 -40.015625 C 24.734375 -40.796875 24.164062 -41.363281 23.21875 -41.71875 C 22.269531 -42.070312 20.804688 -42.25 18.828125 -42.25 L 18.828125 -44.15625 L 32.96875 -46.390625 L 32.96875 -14.421875 C 32.96875 -11.628906 32.992188 -9.476562 33.046875 -7.96875 C 33.109375 -6.457031 33.210938 -5.3125 33.359375 -4.53125 C 33.441406 -4.039062 33.554688 -3.644531 33.703125 -3.34375 C 33.847656 -3.050781 34.066406 -2.820312 34.359375 -2.65625 C 34.660156 -2.488281 35.0625 -2.375 35.5625 -2.3125 C 36.070312 -2.257812 36.71875 -2.234375 37.5 -2.234375 L 37.5 -0.0625 L 26.890625 0.5625 Z M 25.15625 -16.046875 C 25.15625 -17.460938 25.003906 -18.773438 24.703125 -19.984375 C 24.398438 -21.191406 23.953125 -22.257812 23.359375 -23.1875 C 22.691406 -24.269531 21.832031 -25.085938 20.78125 -25.640625 C 19.738281 -26.203125 18.625 -26.484375 17.4375 -26.484375 C 15.238281 -26.484375 13.5625 -25.476562 12.40625 -23.46875 C 11.25 -21.457031 10.671875 -18.535156 10.671875 -14.703125 C 10.671875 -10.828125 11.25 -7.84375 12.40625 -5.75 C 13.5625 -3.664062 15.21875 -2.625 17.375 -2.625 C 18.601562 -2.625 19.773438 -2.941406 20.890625 -3.578125 C 22.015625 -4.210938 22.929688 -5.066406 23.640625 -6.140625 C 24.160156 -6.960938 24.539062 -7.976562 24.78125 -9.1875 C 25.03125 -10.40625 25.15625 -11.960938 25.15625 -13.859375 Z M 25.15625 -16.046875 "/></g></g></g><g fill="#000000" fill-opacity="1"><g transform="translate(350.471735, 210.308376)"><g><path d="M 30.1875 -5.203125 C 26.789062 -1.359375 22.5625 0.5625 17.5 0.5625 C 15.1875 0.5625 13.085938 0.195312 11.203125 -0.53125 C 9.328125 -1.257812 7.71875 -2.285156 6.375 -3.609375 C 5.03125 -4.929688 3.984375 -6.503906 3.234375 -8.328125 C 2.492188 -10.148438 2.125 -12.179688 2.125 -14.421875 C 2.125 -16.734375 2.515625 -18.847656 3.296875 -20.765625 C 4.078125 -22.679688 5.1875 -24.335938 6.625 -25.734375 C 8.0625 -27.128906 9.753906 -28.21875 11.703125 -29 C 13.660156 -29.789062 15.816406 -30.1875 18.171875 -30.1875 C 22.117188 -30.1875 25.191406 -29.125 27.390625 -27 C 29.585938 -24.875 30.6875 -21.890625 30.6875 -18.046875 C 30.6875 -17.453125 30.59375 -17.085938 30.40625 -16.953125 C 30.21875 -16.828125 29.695312 -16.765625 28.84375 -16.765625 L 10.84375 -16.765625 C 10.695312 -16.429688 10.625 -15.816406 10.625 -14.921875 C 10.625 -11.273438 11.414062 -8.390625 13 -6.265625 C 14.582031 -4.140625 16.734375 -3.078125 19.453125 -3.078125 C 21.015625 -3.078125 22.566406 -3.429688 24.109375 -4.140625 C 25.660156 -4.847656 27.160156 -5.851562 28.609375 -7.15625 Z M 19.34375 -19.890625 C 20.832031 -19.890625 21.789062 -19.972656 22.21875 -20.140625 C 22.644531 -20.316406 22.859375 -20.71875 22.859375 -21.34375 C 22.859375 -22.988281 22.390625 -24.332031 21.453125 -25.375 C 20.523438 -26.414062 19.351562 -26.9375 17.9375 -26.9375 C 16.332031 -26.9375 14.90625 -26.273438 13.65625 -24.953125 C 12.414062 -23.628906 11.609375 -21.941406 11.234375 -19.890625 Z M 19.34375 -19.890625 "/></g></g></g><g fill="#000000" fill-opacity="1"><g transform="translate(383.166278, 210.308376)"><g><path d="M 19.21875 -15.921875 C 16.09375 -14.515625 13.738281 -13.203125 12.15625 -11.984375 C 10.570312 -10.773438 9.78125 -9.519531 9.78125 -8.21875 C 9.78125 -7.132812 10.078125 -6.273438 10.671875 -5.640625 C 11.265625 -5.003906 12.007812 -4.6875 12.90625 -4.6875 C 13.800781 -4.6875 14.640625 -4.84375 15.421875 -5.15625 C 16.203125 -5.476562 16.875 -5.898438 17.4375 -6.421875 C 18 -6.941406 18.4375 -7.566406 18.75 -8.296875 C 19.0625 -9.023438 19.21875 -9.800781 19.21875 -10.625 Z M 19.21875 -18.890625 L 19.21875 -21.234375 C 19.21875 -23.398438 18.835938 -24.972656 18.078125 -25.953125 C 17.316406 -26.941406 16.132812 -27.4375 14.53125 -27.4375 C 13.445312 -27.4375 12.625 -27.144531 12.0625 -26.5625 C 11.507812 -25.988281 10.988281 -25.035156 10.5 -23.703125 C 10.164062 -22.765625 9.691406 -22.035156 9.078125 -21.515625 C 8.460938 -20.992188 7.617188 -20.734375 6.546875 -20.734375 C 5.492188 -20.734375 4.6875 -21.050781 4.125 -21.6875 C 3.570312 -22.320312 3.296875 -23.21875 3.296875 -24.375 C 3.296875 -26.15625 4.273438 -27.566406 6.234375 -28.609375 C 8.191406 -29.660156 11.144531 -30.1875 15.09375 -30.1875 C 19.257812 -30.1875 22.238281 -29.429688 24.03125 -27.921875 C 25.820312 -26.410156 26.71875 -23.882812 26.71875 -20.34375 L 26.71875 -8.109375 C 26.71875 -4.941406 27.347656 -3.359375 28.609375 -3.359375 C 29.316406 -3.359375 29.972656 -3.597656 30.578125 -4.078125 L 31.40625 -2.453125 C 30.882812 -1.523438 30.070312 -0.789062 28.96875 -0.25 C 27.875 0.289062 26.640625 0.5625 25.265625 0.5625 C 23.546875 0.5625 22.238281 0.0390625 21.34375 -1 C 20.457031 -2.050781 20.015625 -3.523438 20.015625 -5.421875 L 19.734375 -5.421875 C 18.648438 -3.484375 17.25 -2.007812 15.53125 -1 C 13.820312 0 11.867188 0.5 9.671875 0.5 C 7.316406 0.5 5.429688 -0.160156 4.015625 -1.484375 C 2.609375 -2.804688 1.90625 -4.53125 1.90625 -6.65625 C 1.90625 -8.289062 2.628906 -9.820312 4.078125 -11.25 C 5.535156 -12.6875 7.957031 -14.097656 11.34375 -15.484375 Z M 19.21875 -18.890625 "/></g></g></g><g fill="#000000" fill-opacity="1"><g transform="translate(415.246057, 210.308376)"><g><path d="M 4.75 0 L 3.015625 0 L 3.015625 -10.171875 L 5.359375 -10.171875 C 5.992188 -7.484375 6.90625 -5.523438 8.09375 -4.296875 C 9.289062 -3.066406 10.84375 -2.453125 12.75 -2.453125 C 14.125 -2.453125 15.191406 -2.738281 15.953125 -3.3125 C 16.722656 -3.894531 17.109375 -4.691406 17.109375 -5.703125 C 17.109375 -6.742188 16.640625 -7.757812 15.703125 -8.75 C 14.773438 -9.738281 13.265625 -10.789062 11.171875 -11.90625 C 8.347656 -13.4375 6.316406 -14.953125 5.078125 -16.453125 C 3.847656 -17.960938 3.234375 -19.671875 3.234375 -21.578125 C 3.234375 -22.804688 3.46875 -23.953125 3.9375 -25.015625 C 4.40625 -26.078125 5.039062 -27 5.84375 -27.78125 C 6.644531 -28.5625 7.601562 -29.164062 8.71875 -29.59375 C 9.832031 -30.019531 11.046875 -30.234375 12.359375 -30.234375 C 13.503906 -30.234375 14.644531 -30.066406 15.78125 -29.734375 C 16.925781 -29.398438 17.925781 -28.9375 18.78125 -28.34375 L 19.78125 -29.671875 L 21.234375 -29.671875 L 21.234375 -21.234375 L 19.0625 -21.234375 C 18.195312 -23.359375 17.304688 -24.882812 16.390625 -25.8125 C 15.484375 -26.75 14.378906 -27.21875 13.078125 -27.21875 C 12.035156 -27.21875 11.207031 -26.9375 10.59375 -26.375 C 9.976562 -25.820312 9.671875 -25.078125 9.671875 -24.140625 C 9.671875 -23.097656 10.125 -22.109375 11.03125 -21.171875 C 11.945312 -20.242188 13.46875 -19.222656 15.59375 -18.109375 C 17.082031 -17.285156 18.367188 -16.484375 19.453125 -15.703125 C 20.535156 -14.921875 21.410156 -14.128906 22.078125 -13.328125 C 22.742188 -12.523438 23.234375 -11.6875 23.546875 -10.8125 C 23.867188 -9.9375 24.03125 -9 24.03125 -8 C 24.03125 -6.6875 23.785156 -5.507812 23.296875 -4.46875 C 22.816406 -3.425781 22.128906 -2.53125 21.234375 -1.78125 C 20.335938 -1.039062 19.265625 -0.460938 18.015625 -0.046875 C 16.773438 0.359375 15.390625 0.5625 13.859375 0.5625 C 12.253906 0.5625 10.765625 0.347656 9.390625 -0.078125 C 8.015625 -0.515625 6.878906 -1.140625 5.984375 -1.953125 Z M 4.75 0 "/></g></g></g></svg>