<svg xmlns="http://www.w3.org/2000/svg" xmlns:xlink="http://www.w3.org/1999/xlink" width="972" zoomAndPan="magnify" viewBox="0 0 729 537.000006" height="716" preserveAspectRatio="xMidYMid meet" version="1.0"><defs><g/><clipPath id="bf63f3ae75"><path d="M 0.675781 0 L 728.320312 0 L 728.320312 536 L 0.675781 536 Z M 0.675781 0 " clip-rule="nonzero"/></clipPath><clipPath id="bde4d16992"><path d="M 258.371094 214.402344 L 470.976562 214.402344 L 470.976562 428.503906 L 258.371094 428.503906 Z M 258.371094 214.402344 " clip-rule="nonzero"/></clipPath></defs><g clip-path="url(#bf63f3ae75)"><path fill="#ffffff" d="M 0.675781 0 L 728.324219 0 L 728.324219 536 L 0.675781 536 Z M 0.675781 0 " fill-opacity="1" fill-rule="nonzero"/><path fill="#ffffff" d="M 0.675781 0 L 728.324219 0 L 728.324219 536 L 0.675781 536 Z M 0.675781 0 " fill-opacity="1" fill-rule="nonzero"/></g><g clip-path="url(#bde4d16992)"><path fill="#000000" d="M 420.03125 338.140625 C 420.03125 338.625 419.617188 339.035156 419.132812 339.035156 C 418.644531 339.035156 418.234375 338.625 418.234375 338.140625 C 418.234375 337.65625 418.644531 337.246094 419.132812 337.246094 C 419.617188 337.246094 420.03125 337.65625 420.03125 338.140625 Z M 470.972656 332.269531 L 470.972656 344.015625 C 470.972656 347.3125 468.28125 349.996094 464.972656 349.996094 L 463.089844 349.996094 C 460.449219 349.996094 458.265625 351.449219 457.253906 353.886719 C 456.242188 356.320312 456.753906 358.886719 458.625 360.75 L 459.953125 362.074219 C 461.085938 363.203125 461.707031 364.703125 461.707031 366.304688 C 461.707031 367.902344 461.085938 369.40625 459.953125 370.535156 L 451.621094 378.839844 C 449.28125 381.171875 445.476562 381.171875 443.136719 378.839844 L 441.804688 377.515625 C 439.9375 375.652344 437.363281 375.140625 434.921875 376.148438 C 432.480469 377.160156 431.023438 379.332031 431.023438 381.96875 L 431.023438 383.84375 C 431.023438 387.140625 428.332031 389.824219 425.023438 389.824219 L 416.785156 389.824219 C 417.34375 401.871094 419.964844 411.8125 421.585938 417.953125 C 422.230469 420.394531 422.738281 422.324219 422.953125 423.742188 C 423.09375 424.640625 422.832031 425.558594 422.242188 426.253906 C 421.652344 426.945312 420.789062 427.351562 419.875 427.363281 L 337.117188 428.5 C 337.101562 428.503906 337.085938 428.503906 337.070312 428.503906 C 335.542969 428.503906 334.230469 427.40625 333.964844 425.902344 L 330.496094 406.328125 C 329.910156 403.023438 327.152344 400.714844 323.785156 400.714844 L 297.457031 400.714844 C 288.984375 400.714844 281.980469 394.292969 281.019531 386.046875 L 277.738281 384.289062 C 276.367188 383.558594 275.476562 382.195312 275.355469 380.648438 C 275.234375 379.101562 275.90625 377.617188 277.144531 376.683594 L 278.09375 375.964844 L 276.746094 375.347656 C 275.636719 374.832031 274.796875 373.921875 274.378906 372.78125 C 273.960938 371.644531 274.015625 370.40625 274.535156 369.304688 L 278.984375 359.851562 L 264.652344 359.851562 C 262.589844 359.851562 260.769531 358.859375 259.65625 357.128906 C 258.546875 355.398438 258.402344 353.335938 259.265625 351.46875 L 278.816406 309.136719 C 279.363281 307.957031 279.527344 306.90625 279.367188 305.617188 C 278.960938 302.316406 278.753906 298.957031 278.753906 295.632812 C 278.753906 250.839844 315.304688 214.402344 360.230469 214.402344 C 405.15625 214.402344 441.707031 250.839844 441.707031 295.632812 C 441.707031 296.730469 441.679688 297.828125 441.632812 298.929688 C 441.691406 298.875 441.75 298.824219 441.808594 298.769531 L 443.136719 297.441406 C 445.476562 295.109375 449.28125 295.109375 451.621094 297.441406 L 459.953125 305.75 C 461.085938 306.878906 461.707031 308.378906 461.707031 309.980469 C 461.707031 311.578125 461.085938 313.082031 459.953125 314.210938 L 458.625 315.535156 C 456.757812 317.398438 456.246094 319.964844 457.253906 322.398438 C 458.265625 324.832031 460.449219 326.285156 463.09375 326.285156 L 464.972656 326.285156 C 468.28125 326.285156 470.972656 328.96875 470.972656 332.269531 Z M 415.886719 421.121094 C 415.761719 420.628906 415.621094 420.105469 415.476562 419.554688 C 413.746094 413 410.917969 402.277344 410.433594 389.128906 C 408.535156 388.121094 407.238281 386.132812 407.238281 383.84375 L 407.238281 381.96875 C 407.238281 379.332031 405.78125 377.160156 403.339844 376.148438 C 400.898438 375.144531 398.324219 375.652344 396.457031 377.515625 L 395.128906 378.839844 C 392.789062 381.171875 388.980469 381.171875 386.640625 378.839844 L 378.308594 370.535156 C 377.179688 369.40625 376.554688 367.90625 376.554688 366.304688 C 376.554688 364.703125 377.179688 363.203125 378.308594 362.074219 L 379.640625 360.75 C 381.507812 358.886719 382.019531 356.320312 381.007812 353.886719 C 380.414062 352.449219 379.40625 351.359375 378.140625 350.703125 C 372.460938 352.496094 366.542969 353.40625 360.527344 353.40625 C 328.410156 353.40625 302.285156 327.355469 302.285156 295.339844 C 302.285156 263.320312 328.410156 237.273438 360.527344 237.273438 C 375.023438 237.273438 388.914062 242.617188 399.644531 252.316406 C 409.585938 261.308594 416.070312 273.347656 418.089844 286.460938 L 425.023438 286.460938 C 428.332031 286.460938 431.023438 289.144531 431.023438 292.441406 L 431.023438 294.316406 C 431.023438 296.949219 432.480469 299.125 434.921875 300.132812 C 435.03125 300.179688 435.136719 300.214844 435.246094 300.253906 C 435.339844 298.714844 435.390625 297.171875 435.390625 295.632812 C 435.390625 254.3125 401.675781 220.699219 360.230469 220.699219 C 318.789062 220.699219 285.070312 254.3125 285.070312 295.632812 C 285.070312 298.703125 285.261719 301.804688 285.636719 304.847656 C 285.9375 307.28125 285.582031 309.542969 284.554688 311.769531 L 265.253906 353.554688 L 283.957031 353.554688 C 285.035156 353.554688 286.042969 354.105469 286.621094 355.015625 C 287.199219 355.925781 287.273438 357.066406 286.8125 358.042969 L 281.007812 370.371094 L 283.421875 371.476562 C 284.886719 372.152344 285.863281 373.507812 286.035156 375.105469 C 286.210938 376.703125 285.546875 378.234375 284.265625 379.207031 L 283.15625 380.042969 L 285.558594 381.328125 C 286.582031 381.875 287.222656 382.941406 287.222656 384.101562 C 287.222656 389.789062 291.816406 394.417969 297.460938 394.417969 L 323.785156 394.417969 C 330.167969 394.417969 335.605469 398.964844 336.714844 405.230469 L 339.714844 422.167969 Z M 403.277344 295.339844 C 403.277344 296.984375 403.179688 298.632812 402.992188 300.265625 C 403.109375 300.222656 403.222656 300.179688 403.339844 300.132812 C 405.78125 299.125 407.242188 296.949219 407.242188 294.316406 L 407.242188 292.441406 C 407.242188 289.664062 409.148438 287.332031 411.726562 286.660156 C 407.558594 261.871094 386.105469 243.566406 360.527344 243.566406 C 331.894531 243.566406 308.601562 266.792969 308.601562 295.339844 C 308.601562 323.882812 331.894531 347.109375 360.527344 347.109375 C 363.003906 347.109375 365.457031 346.925781 367.882812 346.582031 C 367.507812 345.804688 367.292969 344.933594 367.292969 344.015625 L 367.292969 337.429688 C 365.0625 337.78125 362.796875 337.960938 360.527344 337.960938 C 336.953125 337.960938 317.773438 318.839844 317.773438 295.339844 C 317.773438 271.835938 336.953125 252.714844 360.527344 252.714844 C 384.097656 252.714844 403.277344 271.835938 403.277344 295.339844 Z M 357.367188 317.226562 L 357.367188 320.953125 C 357.367188 322.691406 358.78125 324.101562 360.527344 324.101562 C 362.269531 324.101562 363.683594 322.691406 363.683594 320.953125 L 363.683594 317.320312 C 369.917969 316.097656 374.175781 311.25 374.175781 304.90625 C 374.175781 297.535156 368.433594 292.1875 360.527344 292.1875 C 357.144531 292.1875 353.195312 290.507812 353.195312 285.769531 C 353.195312 281.035156 357.144531 279.351562 360.527344 279.351562 C 364.074219 279.351562 366.964844 282.230469 366.964844 285.769531 C 366.964844 287.507812 368.378906 288.917969 370.121094 288.917969 C 371.867188 288.917969 373.28125 287.507812 373.28125 285.769531 C 373.28125 279.847656 369.195312 274.855469 363.683594 273.449219 L 363.683594 269.722656 C 363.683594 267.984375 362.269531 266.574219 360.527344 266.574219 C 358.78125 266.574219 357.367188 267.984375 357.367188 269.722656 L 357.367188 273.355469 C 351.136719 274.578125 346.878906 279.425781 346.878906 285.769531 C 346.878906 293.136719 352.617188 298.488281 360.527344 298.488281 C 363.910156 298.488281 367.859375 300.167969 367.859375 304.90625 C 367.859375 309.640625 363.910156 311.324219 360.527344 311.324219 C 356.976562 311.324219 354.089844 308.445312 354.089844 304.90625 C 354.089844 303.164062 352.675781 301.757812 350.929688 301.757812 C 349.1875 301.757812 347.773438 303.164062 347.773438 304.90625 C 347.773438 310.828125 351.855469 315.820312 357.367188 317.226562 Z M 464.65625 332.582031 L 463.089844 332.582031 C 457.886719 332.582031 453.414062 329.605469 451.421875 324.808594 C 449.425781 320.011719 450.476562 314.753906 454.160156 311.082031 L 455.265625 309.980469 L 447.378906 302.117188 L 446.273438 303.222656 C 442.59375 306.890625 437.316406 307.9375 432.507812 305.949219 C 427.695312 303.964844 424.707031 299.503906 424.707031 294.316406 L 424.707031 292.753906 L 413.554688 292.753906 L 413.554688 294.316406 C 413.554688 299.503906 410.566406 303.964844 405.757812 305.949219 C 400.945312 307.9375 395.671875 306.890625 391.988281 303.21875 L 390.882812 302.117188 L 383 309.980469 L 384.105469 311.082031 C 387.785156 314.753906 388.835938 320.011719 386.84375 324.808594 C 384.851562 329.605469 380.378906 332.582031 375.171875 332.582031 L 373.609375 332.582031 L 373.609375 343.699219 L 375.171875 343.699219 C 380.378906 343.699219 384.851562 346.679688 386.84375 351.476562 C 388.835938 356.273438 387.785156 361.53125 384.105469 365.203125 L 383 366.304688 L 390.882812 374.164062 L 391.988281 373.0625 C 395.671875 369.390625 400.945312 368.347656 405.757812 370.332031 C 410.566406 372.320312 413.554688 376.777344 413.554688 381.96875 L 413.554688 383.527344 L 424.707031 383.527344 L 424.707031 381.96875 C 424.707031 376.777344 427.695312 372.320312 432.503906 370.332031 C 437.316406 368.347656 442.589844 369.390625 446.273438 373.0625 L 447.378906 374.164062 L 455.265625 366.304688 L 454.160156 365.203125 C 450.476562 361.53125 449.425781 356.273438 451.417969 351.476562 C 453.414062 346.679688 457.882812 343.699219 463.089844 343.699219 L 464.65625 343.699219 Z M 446.347656 338.140625 C 446.347656 353.105469 434.140625 365.277344 419.132812 365.277344 C 404.125 365.277344 391.914062 353.105469 391.914062 338.140625 C 391.914062 323.179688 404.125 311.007812 419.132812 311.007812 C 434.140625 311.007812 446.347656 323.179688 446.347656 338.140625 Z M 426.34375 338.140625 C 426.34375 335.304688 424.6875 332.855469 422.289062 331.683594 L 422.289062 322.0625 C 422.289062 320.324219 420.875 318.914062 419.132812 318.914062 C 417.386719 318.914062 415.972656 320.324219 415.972656 322.0625 L 415.972656 331.683594 C 413.578125 332.855469 411.917969 335.304688 411.917969 338.140625 C 411.917969 338.960938 412.0625 339.746094 412.316406 340.484375 L 407.5 345.285156 C 406.265625 346.515625 406.265625 348.507812 407.5 349.738281 C 408.117188 350.351562 408.925781 350.660156 409.734375 350.660156 C 410.542969 350.660156 411.351562 350.351562 411.964844 349.738281 L 416.785156 344.933594 C 417.523438 345.1875 418.308594 345.335938 419.132812 345.335938 C 423.109375 345.335938 426.34375 342.109375 426.34375 338.140625 Z M 426.34375 338.140625 " fill-opacity="1" fill-rule="nonzero"/></g><g fill="#000000" fill-opacity="1"><g transform="translate(183.501108, 159.253531)"><g><path d="M 3.015625 -14.25 L 5.203125 -14.25 C 5.722656 -10.707031 7.132812 -7.921875 9.4375 -5.890625 C 11.75 -3.859375 14.601562 -2.84375 18 -2.84375 C 19.375 -2.84375 20.640625 -3.007812 21.796875 -3.34375 C 22.953125 -3.6875 23.9375 -4.164062 24.75 -4.78125 C 25.570312 -5.394531 26.207031 -6.117188 26.65625 -6.953125 C 27.101562 -7.796875 27.328125 -8.738281 27.328125 -9.78125 C 27.328125 -10.675781 27.1875 -11.445312 26.90625 -12.09375 C 26.625 -12.75 26.09375 -13.382812 25.3125 -14 C 24.53125 -14.613281 23.457031 -15.238281 22.09375 -15.875 C 20.738281 -16.507812 18.984375 -17.234375 16.828125 -18.046875 C 12.460938 -19.722656 9.238281 -21.671875 7.15625 -23.890625 C 5.070312 -26.109375 4.03125 -28.726562 4.03125 -31.75 C 4.03125 -33.5 4.363281 -35.097656 5.03125 -36.546875 C 5.695312 -38.003906 6.632812 -39.253906 7.84375 -40.296875 C 9.0625 -41.335938 10.515625 -42.144531 12.203125 -42.71875 C 13.898438 -43.300781 15.773438 -43.59375 17.828125 -43.59375 C 19.722656 -43.59375 21.507812 -43.296875 23.1875 -42.703125 C 24.863281 -42.109375 26.523438 -41.210938 28.171875 -40.015625 L 29.171875 -42.8125 L 30.515625 -42.8125 L 31.125 -30.734375 L 28.953125 -30.734375 C 28.054688 -33.796875 26.65625 -36.132812 24.75 -37.75 C 22.851562 -39.375 20.660156 -40.1875 18.171875 -40.1875 C 15.859375 -40.1875 13.984375 -39.617188 12.546875 -38.484375 C 11.109375 -37.347656 10.390625 -35.882812 10.390625 -34.09375 C 10.390625 -33.3125 10.519531 -32.613281 10.78125 -32 C 11.039062 -31.382812 11.523438 -30.796875 12.234375 -30.234375 C 12.941406 -29.671875 13.910156 -29.101562 15.140625 -28.53125 C 16.367188 -27.957031 17.953125 -27.316406 19.890625 -26.609375 C 22.503906 -25.597656 24.734375 -24.578125 26.578125 -23.546875 C 28.421875 -22.523438 29.925781 -21.425781 31.09375 -20.25 C 32.269531 -19.082031 33.140625 -17.847656 33.703125 -16.546875 C 34.265625 -15.242188 34.546875 -13.804688 34.546875 -12.234375 C 34.546875 -10.335938 34.132812 -8.601562 33.3125 -7.03125 C 32.488281 -5.46875 31.34375 -4.128906 29.875 -3.015625 C 28.40625 -1.898438 26.65625 -1.023438 24.625 -0.390625 C 22.59375 0.242188 20.347656 0.5625 17.890625 0.5625 C 15.648438 0.5625 13.632812 0.253906 11.84375 -0.359375 C 10.0625 -0.972656 8.21875 -1.972656 6.3125 -3.359375 L 5.203125 0 L 3.859375 0 Z M 3.015625 -14.25 "/></g></g></g><g fill="#000000" fill-opacity="1"><g transform="translate(220.554919, 159.253531)"><g><path d="M 14.359375 -9.171875 C 14.359375 -7.679688 14.414062 -6.488281 14.53125 -5.59375 C 14.644531 -4.695312 14.867188 -4.003906 15.203125 -3.515625 C 15.535156 -3.035156 16.019531 -2.710938 16.65625 -2.546875 C 17.289062 -2.378906 18.144531 -2.273438 19.21875 -2.234375 L 19.21875 0 L 1.625 0 L 1.625 -2.234375 C 2.664062 -2.273438 3.507812 -2.394531 4.15625 -2.59375 C 4.8125 -2.800781 5.316406 -3.132812 5.671875 -3.59375 C 6.023438 -4.0625 6.265625 -4.710938 6.390625 -5.546875 C 6.523438 -6.390625 6.59375 -7.46875 6.59375 -8.78125 L 6.59375 -15.65625 C 6.59375 -17.8125 6.554688 -19.585938 6.484375 -20.984375 C 6.410156 -22.378906 6.316406 -23.335938 6.203125 -23.859375 C 6.015625 -24.796875 5.59375 -25.410156 4.9375 -25.703125 C 4.289062 -26.003906 3.109375 -26.15625 1.390625 -26.15625 L 1.390625 -28.0625 L 14.359375 -30.1875 Z M 6.140625 -42.03125 C 6.140625 -43.257812 6.554688 -44.289062 7.390625 -45.125 C 8.234375 -45.96875 9.253906 -46.390625 10.453125 -46.390625 C 11.679688 -46.390625 12.710938 -45.96875 13.546875 -45.125 C 14.390625 -44.289062 14.8125 -43.257812 14.8125 -42.03125 C 14.8125 -40.832031 14.390625 -39.8125 13.546875 -38.96875 C 12.710938 -38.132812 11.679688 -37.71875 10.453125 -37.71875 C 9.253906 -37.71875 8.234375 -38.132812 7.390625 -38.96875 C 6.554688 -39.8125 6.140625 -40.832031 6.140625 -42.03125 Z M 6.140625 -42.03125 "/></g></g></g><g fill="#000000" fill-opacity="1"><g transform="translate(240.730532, 159.253531)"><g><path d="M 26.890625 -3.578125 L 26.65625 -3.578125 C 24.082031 -0.816406 20.75 0.5625 16.65625 0.5625 C 14.53125 0.5625 12.582031 0.191406 10.8125 -0.546875 C 9.039062 -1.296875 7.507812 -2.34375 6.21875 -3.6875 C 4.9375 -5.03125 3.941406 -6.625 3.234375 -8.46875 C 2.535156 -10.3125 2.1875 -12.351562 2.1875 -14.59375 C 2.1875 -16.820312 2.546875 -18.882812 3.265625 -20.78125 C 3.992188 -22.6875 4.984375 -24.335938 6.234375 -25.734375 C 7.484375 -27.128906 8.972656 -28.21875 10.703125 -29 C 12.429688 -29.789062 14.300781 -30.1875 16.3125 -30.1875 C 18.175781 -30.1875 19.828125 -29.90625 21.265625 -29.34375 C 22.703125 -28.78125 23.957031 -27.828125 25.03125 -26.484375 L 25.265625 -26.484375 L 25.265625 -31.25 C 25.265625 -33.445312 25.234375 -35.335938 25.171875 -36.921875 C 25.117188 -38.503906 25.035156 -39.535156 24.921875 -40.015625 C 24.734375 -40.796875 24.164062 -41.363281 23.21875 -41.71875 C 22.269531 -42.070312 20.804688 -42.25 18.828125 -42.25 L 18.828125 -44.15625 L 32.96875 -46.390625 L 32.96875 -14.421875 C 32.96875 -11.628906 32.992188 -9.476562 33.046875 -7.96875 C 33.109375 -6.457031 33.210938 -5.3125 33.359375 -4.53125 C 33.441406 -4.039062 33.554688 -3.644531 33.703125 -3.34375 C 33.847656 -3.050781 34.066406 -2.820312 34.359375 -2.65625 C 34.660156 -2.488281 35.0625 -2.375 35.5625 -2.3125 C 36.070312 -2.257812 36.71875 -2.234375 37.5 -2.234375 L 37.5 -0.0625 L 26.890625 0.5625 Z M 25.15625 -16.046875 C 25.15625 -17.460938 25.003906 -18.773438 24.703125 -19.984375 C 24.398438 -21.191406 23.953125 -22.257812 23.359375 -23.1875 C 22.691406 -24.269531 21.832031 -25.085938 20.78125 -25.640625 C 19.738281 -26.203125 18.625 -26.484375 17.4375 -26.484375 C 15.238281 -26.484375 13.5625 -25.476562 12.40625 -23.46875 C 11.25 -21.457031 10.671875 -18.535156 10.671875 -14.703125 C 10.671875 -10.828125 11.25 -7.84375 12.40625 -5.75 C 13.5625 -3.664062 15.21875 -2.625 17.375 -2.625 C 18.601562 -2.625 19.773438 -2.941406 20.890625 -3.578125 C 22.015625 -4.210938 22.929688 -5.066406 23.640625 -6.140625 C 24.160156 -6.960938 24.539062 -7.976562 24.78125 -9.1875 C 25.03125 -10.40625 25.15625 -11.960938 25.15625 -13.859375 Z M 25.15625 -16.046875 "/></g></g></g><g fill="#000000" fill-opacity="1"><g transform="translate(279.516877, 159.253531)"><g><path d="M 30.1875 -5.203125 C 26.789062 -1.359375 22.5625 0.5625 17.5 0.5625 C 15.1875 0.5625 13.085938 0.195312 11.203125 -0.53125 C 9.328125 -1.257812 7.71875 -2.285156 6.375 -3.609375 C 5.03125 -4.929688 3.984375 -6.503906 3.234375 -8.328125 C 2.492188 -10.148438 2.125 -12.179688 2.125 -14.421875 C 2.125 -16.734375 2.515625 -18.847656 3.296875 -20.765625 C 4.078125 -22.679688 5.1875 -24.335938 6.625 -25.734375 C 8.0625 -27.128906 9.753906 -28.21875 11.703125 -29 C 13.660156 -29.789062 15.816406 -30.1875 18.171875 -30.1875 C 22.117188 -30.1875 25.191406 -29.125 27.390625 -27 C 29.585938 -24.875 30.6875 -21.890625 30.6875 -18.046875 C 30.6875 -17.453125 30.59375 -17.085938 30.40625 -16.953125 C 30.21875 -16.828125 29.695312 -16.765625 28.84375 -16.765625 L 10.84375 -16.765625 C 10.695312 -16.429688 10.625 -15.816406 10.625 -14.921875 C 10.625 -11.273438 11.414062 -8.390625 13 -6.265625 C 14.582031 -4.140625 16.734375 -3.078125 19.453125 -3.078125 C 21.015625 -3.078125 22.566406 -3.429688 24.109375 -4.140625 C 25.660156 -4.847656 27.160156 -5.851562 28.609375 -7.15625 Z M 19.34375 -19.890625 C 20.832031 -19.890625 21.789062 -19.972656 22.21875 -20.140625 C 22.644531 -20.316406 22.859375 -20.71875 22.859375 -21.34375 C 22.859375 -22.988281 22.390625 -24.332031 21.453125 -25.375 C 20.523438 -26.414062 19.351562 -26.9375 17.9375 -26.9375 C 16.332031 -26.9375 14.90625 -26.273438 13.65625 -24.953125 C 12.414062 -23.628906 11.609375 -21.941406 11.234375 -19.890625 Z M 19.34375 -19.890625 "/></g></g></g><g fill="#000000" fill-opacity="1"><g transform="translate(312.21142, 159.253531)"><g/></g></g><g fill="#000000" fill-opacity="1"><g transform="translate(327.07766, 159.253531)"><g><path d="M 44.984375 -9 C 44.984375 -7.582031 45.050781 -6.4375 45.1875 -5.5625 C 45.320312 -4.6875 45.601562 -4.015625 46.03125 -3.546875 C 46.457031 -3.078125 47.050781 -2.75 47.8125 -2.5625 C 48.570312 -2.382812 49.585938 -2.273438 50.859375 -2.234375 L 50.859375 0 L 30.34375 0 L 30.34375 -2.234375 C 31.726562 -2.273438 32.835938 -2.382812 33.671875 -2.5625 C 34.515625 -2.75 35.164062 -3.066406 35.625 -3.515625 C 36.09375 -3.960938 36.398438 -4.597656 36.546875 -5.421875 C 36.703125 -6.242188 36.78125 -7.304688 36.78125 -8.609375 L 36.78125 -20.28125 L 16.046875 -20.28125 L 16.046875 -9 C 16.046875 -7.582031 16.117188 -6.4375 16.265625 -5.5625 C 16.410156 -4.6875 16.707031 -4.015625 17.15625 -3.546875 C 17.601562 -3.078125 18.242188 -2.75 19.078125 -2.5625 C 19.921875 -2.382812 21.03125 -2.273438 22.40625 -2.234375 L 22.40625 0 L 1.953125 0 L 1.953125 -2.234375 C 3.222656 -2.273438 4.238281 -2.382812 5 -2.5625 C 5.757812 -2.75 6.34375 -3.066406 6.75 -3.515625 C 7.164062 -3.960938 7.445312 -4.597656 7.59375 -5.421875 C 7.75 -6.242188 7.828125 -7.304688 7.828125 -8.609375 L 7.828125 -34.421875 C 7.828125 -35.734375 7.757812 -36.785156 7.625 -37.578125 C 7.5 -38.378906 7.25 -39.015625 6.875 -39.484375 C 6.5 -39.953125 5.96875 -40.269531 5.28125 -40.4375 C 4.59375 -40.601562 3.691406 -40.722656 2.578125 -40.796875 L 2.578125 -43.03125 L 21.859375 -43.03125 L 21.859375 -40.796875 C 20.585938 -40.765625 19.566406 -40.65625 18.796875 -40.46875 C 18.035156 -40.28125 17.453125 -39.941406 17.046875 -39.453125 C 16.640625 -38.972656 16.367188 -38.300781 16.234375 -37.4375 C 16.109375 -36.582031 16.046875 -35.445312 16.046875 -34.03125 L 16.046875 -23.75 L 36.78125 -23.75 L 36.78125 -34.421875 C 36.78125 -35.734375 36.703125 -36.785156 36.546875 -37.578125 C 36.398438 -38.378906 36.117188 -39.015625 35.703125 -39.484375 C 35.296875 -39.953125 34.710938 -40.269531 33.953125 -40.4375 C 33.191406 -40.601562 32.175781 -40.722656 30.90625 -40.796875 L 30.90625 -43.03125 L 50.25 -43.03125 L 50.25 -40.796875 C 49.125 -40.765625 48.21875 -40.65625 47.53125 -40.46875 C 46.84375 -40.28125 46.3125 -39.941406 45.9375 -39.453125 C 45.570312 -38.972656 45.320312 -38.300781 45.1875 -37.4375 C 45.050781 -36.582031 44.984375 -35.445312 44.984375 -34.03125 Z M 44.984375 -9 "/></g></g></g><g fill="#000000" fill-opacity="1"><g transform="translate(379.891913, 159.253531)"><g><path d="M 25.984375 -20.453125 C 25.984375 -21.941406 25.945312 -23.125 25.875 -24 C 25.800781 -24.875 25.597656 -25.546875 25.265625 -26.015625 C 24.929688 -26.484375 24.4375 -26.800781 23.78125 -26.96875 C 23.125 -27.132812 22.238281 -27.273438 21.125 -27.390625 L 21.125 -29.625 L 33.765625 -29.625 L 33.765625 -12.6875 C 33.765625 -10.414062 33.789062 -8.632812 33.84375 -7.34375 C 33.894531 -6.0625 34 -5.101562 34.15625 -4.46875 C 34.257812 -3.988281 34.382812 -3.609375 34.53125 -3.328125 C 34.6875 -3.046875 34.929688 -2.820312 35.265625 -2.65625 C 35.597656 -2.488281 36.050781 -2.375 36.625 -2.3125 C 37.207031 -2.257812 37.96875 -2.234375 38.90625 -2.234375 L 38.90625 -0.0625 L 27.78125 0.609375 L 27.15625 -4.359375 L 26.9375 -4.359375 C 25.96875 -2.796875 24.609375 -1.582031 22.859375 -0.71875 C 21.109375 0.132812 19.148438 0.5625 16.984375 0.5625 C 13.003906 0.5625 9.96875 -0.851562 7.875 -3.6875 C 6.28125 -5.851562 5.484375 -8.925781 5.484375 -12.90625 L 5.484375 -20.453125 C 5.484375 -21.984375 5.441406 -23.1875 5.359375 -24.0625 C 5.285156 -24.9375 5.085938 -25.597656 4.765625 -26.046875 C 4.453125 -26.492188 3.976562 -26.800781 3.34375 -26.96875 C 2.71875 -27.132812 1.847656 -27.273438 0.734375 -27.390625 L 0.734375 -29.625 L 13.25 -29.625 L 13.25 -13.8125 C 13.25 -10.039062 13.710938 -7.304688 14.640625 -5.609375 C 15.578125 -3.921875 17.066406 -3.078125 19.109375 -3.078125 C 21.304688 -3.078125 23.003906 -4.082031 24.203125 -6.09375 C 25.390625 -8.03125 25.984375 -10.878906 25.984375 -14.640625 Z M 25.984375 -20.453125 "/></g></g></g><g fill="#000000" fill-opacity="1"><g transform="translate(419.516579, 159.253531)"><g><path d="M 4.75 0 L 3.015625 0 L 3.015625 -10.171875 L 5.359375 -10.171875 C 5.992188 -7.484375 6.90625 -5.523438 8.09375 -4.296875 C 9.289062 -3.066406 10.84375 -2.453125 12.75 -2.453125 C 14.125 -2.453125 15.191406 -2.738281 15.953125 -3.3125 C 16.722656 -3.894531 17.109375 -4.691406 17.109375 -5.703125 C 17.109375 -6.742188 16.640625 -7.757812 15.703125 -8.75 C 14.773438 -9.738281 13.265625 -10.789062 11.171875 -11.90625 C 8.347656 -13.4375 6.316406 -14.953125 5.078125 -16.453125 C 3.847656 -17.960938 3.234375 -19.671875 3.234375 -21.578125 C 3.234375 -22.804688 3.46875 -23.953125 3.9375 -25.015625 C 4.40625 -26.078125 5.039062 -27 5.84375 -27.78125 C 6.644531 -28.5625 7.601562 -29.164062 8.71875 -29.59375 C 9.832031 -30.019531 11.046875 -30.234375 12.359375 -30.234375 C 13.503906 -30.234375 14.644531 -30.066406 15.78125 -29.734375 C 16.925781 -29.398438 17.925781 -28.9375 18.78125 -28.34375 L 19.78125 -29.671875 L 21.234375 -29.671875 L 21.234375 -21.234375 L 19.0625 -21.234375 C 18.195312 -23.359375 17.304688 -24.882812 16.390625 -25.8125 C 15.484375 -26.75 14.378906 -27.21875 13.078125 -27.21875 C 12.035156 -27.21875 11.207031 -26.9375 10.59375 -26.375 C 9.976562 -25.820312 9.671875 -25.078125 9.671875 -24.140625 C 9.671875 -23.097656 10.125 -22.109375 11.03125 -21.171875 C 11.945312 -20.242188 13.46875 -19.222656 15.59375 -18.109375 C 17.082031 -17.285156 18.367188 -16.484375 19.453125 -15.703125 C 20.535156 -14.921875 21.410156 -14.128906 22.078125 -13.328125 C 22.742188 -12.523438 23.234375 -11.6875 23.546875 -10.8125 C 23.867188 -9.9375 24.03125 -9 24.03125 -8 C 24.03125 -6.6875 23.785156 -5.507812 23.296875 -4.46875 C 22.816406 -3.425781 22.128906 -2.53125 21.234375 -1.78125 C 20.335938 -1.039062 19.265625 -0.460938 18.015625 -0.046875 C 16.773438 0.359375 15.390625 0.5625 13.859375 0.5625 C 12.253906 0.5625 10.765625 0.347656 9.390625 -0.078125 C 8.015625 -0.515625 6.878906 -1.140625 5.984375 -1.953125 Z M 4.75 0 "/></g></g></g><g fill="#000000" fill-opacity="1"><g transform="translate(445.560425, 159.253531)"><g><path d="M 1.390625 -26.546875 L 1.390625 -29.0625 C 3.628906 -29.695312 5.503906 -30.65625 7.015625 -31.9375 C 8.523438 -33.226562 9.648438 -34.710938 10.390625 -36.390625 L 13.25 -36.390625 L 13.25 -29.625 L 19.671875 -29.625 L 19.671875 -26.546875 L 13.25 -26.546875 L 13.25 -9.390625 C 13.25 -7.078125 13.5 -5.4375 14 -4.46875 C 14.5 -3.5 15.347656 -3.015625 16.546875 -3.015625 C 17.992188 -3.015625 19.09375 -3.6875 19.84375 -5.03125 L 21.015625 -3.40625 C 19.972656 -0.757812 17.515625 0.5625 13.640625 0.5625 C 11.066406 0.5625 9.0625 -0.03125 7.625 -1.21875 C 6.195312 -2.414062 5.484375 -4.097656 5.484375 -6.265625 L 5.484375 -26.546875 Z M 1.390625 -26.546875 "/></g></g></g><g fill="#000000" fill-opacity="1"><g transform="translate(466.909676, 159.253531)"><g><path d="M 13.8125 -9.171875 C 13.8125 -7.679688 13.863281 -6.488281 13.96875 -5.59375 C 14.082031 -4.695312 14.304688 -4.003906 14.640625 -3.515625 C 14.972656 -3.035156 15.457031 -2.710938 16.09375 -2.546875 C 16.726562 -2.378906 17.585938 -2.273438 18.671875 -2.234375 L 18.671875 0 L 1.0625 0 L 1.0625 -2.234375 C 2.101562 -2.273438 2.945312 -2.394531 3.59375 -2.59375 C 4.25 -2.800781 4.753906 -3.132812 5.109375 -3.59375 C 5.460938 -4.0625 5.703125 -4.710938 5.828125 -5.546875 C 5.960938 -6.390625 6.03125 -7.46875 6.03125 -8.78125 L 6.03125 -31.859375 C 6.03125 -34.015625 5.992188 -35.789062 5.921875 -37.1875 C 5.847656 -38.59375 5.753906 -39.554688 5.640625 -40.078125 C 5.453125 -41.003906 5.03125 -41.613281 4.375 -41.90625 C 3.726562 -42.207031 2.550781 -42.359375 0.84375 -42.359375 L 0.84375 -44.265625 L 13.8125 -46.390625 Z M 13.8125 -9.171875 "/></g></g></g><g fill="#000000" fill-opacity="1"><g transform="translate(486.749972, 159.253531)"><g><path d="M 30.1875 -5.203125 C 26.789062 -1.359375 22.5625 0.5625 17.5 0.5625 C 15.1875 0.5625 13.085938 0.195312 11.203125 -0.53125 C 9.328125 -1.257812 7.71875 -2.285156 6.375 -3.609375 C 5.03125 -4.929688 3.984375 -6.503906 3.234375 -8.328125 C 2.492188 -10.148438 2.125 -12.179688 2.125 -14.421875 C 2.125 -16.734375 2.515625 -18.847656 3.296875 -20.765625 C 4.078125 -22.679688 5.1875 -24.335938 6.625 -25.734375 C 8.0625 -27.128906 9.753906 -28.21875 11.703125 -29 C 13.660156 -29.789062 15.816406 -30.1875 18.171875 -30.1875 C 22.117188 -30.1875 25.191406 -29.125 27.390625 -27 C 29.585938 -24.875 30.6875 -21.890625 30.6875 -18.046875 C 30.6875 -17.453125 30.59375 -17.085938 30.40625 -16.953125 C 30.21875 -16.828125 29.695312 -16.765625 28.84375 -16.765625 L 10.84375 -16.765625 C 10.695312 -16.429688 10.625 -15.816406 10.625 -14.921875 C 10.625 -11.273438 11.414062 -8.390625 13 -6.265625 C 14.582031 -4.140625 16.734375 -3.078125 19.453125 -3.078125 C 21.015625 -3.078125 22.566406 -3.429688 24.109375 -4.140625 C 25.660156 -4.847656 27.160156 -5.851562 28.609375 -7.15625 Z M 19.34375 -19.890625 C 20.832031 -19.890625 21.789062 -19.972656 22.21875 -20.140625 C 22.644531 -20.316406 22.859375 -20.71875 22.859375 -21.34375 C 22.859375 -22.988281 22.390625 -24.332031 21.453125 -25.375 C 20.523438 -26.414062 19.351562 -26.9375 17.9375 -26.9375 C 16.332031 -26.9375 14.90625 -26.273438 13.65625 -24.953125 C 12.414062 -23.628906 11.609375 -21.941406 11.234375 -19.890625 Z M 19.34375 -19.890625 "/></g></g></g><g fill="#000000" fill-opacity="1"><g transform="translate(519.444504, 159.253531)"><g><path d="M 4.75 0 L 3.015625 0 L 3.015625 -10.171875 L 5.359375 -10.171875 C 5.992188 -7.484375 6.90625 -5.523438 8.09375 -4.296875 C 9.289062 -3.066406 10.84375 -2.453125 12.75 -2.453125 C 14.125 -2.453125 15.191406 -2.738281 15.953125 -3.3125 C 16.722656 -3.894531 17.109375 -4.691406 17.109375 -5.703125 C 17.109375 -6.742188 16.640625 -7.757812 15.703125 -8.75 C 14.773438 -9.738281 13.265625 -10.789062 11.171875 -11.90625 C 8.347656 -13.4375 6.316406 -14.953125 5.078125 -16.453125 C 3.847656 -17.960938 3.234375 -19.671875 3.234375 -21.578125 C 3.234375 -22.804688 3.46875 -23.953125 3.9375 -25.015625 C 4.40625 -26.078125 5.039062 -27 5.84375 -27.78125 C 6.644531 -28.5625 7.601562 -29.164062 8.71875 -29.59375 C 9.832031 -30.019531 11.046875 -30.234375 12.359375 -30.234375 C 13.503906 -30.234375 14.644531 -30.066406 15.78125 -29.734375 C 16.925781 -29.398438 17.925781 -28.9375 18.78125 -28.34375 L 19.78125 -29.671875 L 21.234375 -29.671875 L 21.234375 -21.234375 L 19.0625 -21.234375 C 18.195312 -23.359375 17.304688 -24.882812 16.390625 -25.8125 C 15.484375 -26.75 14.378906 -27.21875 13.078125 -27.21875 C 12.035156 -27.21875 11.207031 -26.9375 10.59375 -26.375 C 9.976562 -25.820312 9.671875 -25.078125 9.671875 -24.140625 C 9.671875 -23.097656 10.125 -22.109375 11.03125 -21.171875 C 11.945312 -20.242188 13.46875 -19.222656 15.59375 -18.109375 C 17.082031 -17.285156 18.367188 -16.484375 19.453125 -15.703125 C 20.535156 -14.921875 21.410156 -14.128906 22.078125 -13.328125 C 22.742188 -12.523438 23.234375 -11.6875 23.546875 -10.8125 C 23.867188 -9.9375 24.03125 -9 24.03125 -8 C 24.03125 -6.6875 23.785156 -5.507812 23.296875 -4.46875 C 22.816406 -3.425781 22.128906 -2.53125 21.234375 -1.78125 C 20.335938 -1.039062 19.265625 -0.460938 18.015625 -0.046875 C 16.773438 0.359375 15.390625 0.5625 13.859375 0.5625 C 12.253906 0.5625 10.765625 0.347656 9.390625 -0.078125 C 8.015625 -0.515625 6.878906 -1.140625 5.984375 -1.953125 Z M 4.75 0 "/></g></g></g></svg>