<svg xmlns="http://www.w3.org/2000/svg" xmlns:xlink="http://www.w3.org/1999/xlink" width="972" zoomAndPan="magnify" viewBox="0 0 729 537.000006" height="716" preserveAspectRatio="xMidYMid meet" version="1.0"><defs><g/><clipPath id="f118f582cb"><path d="M 0.675781 0 L 728.320312 0 L 728.320312 536 L 0.675781 536 Z M 0.675781 0 " clip-rule="nonzero"/></clipPath><clipPath id="f58553e2de"><path d="M 257.300781 305 L 293 305 L 293 339 L 257.300781 339 Z M 257.300781 305 " clip-rule="nonzero"/></clipPath><clipPath id="9814f7d59b"><path d="M 349 214.402344 L 380 214.402344 L 380 248 L 349 248 Z M 349 214.402344 " clip-rule="nonzero"/></clipPath><clipPath id="36f45e6cc1"><path d="M 446 304 L 471.402344 304 L 471.402344 339 L 446 339 Z M 446 304 " clip-rule="nonzero"/></clipPath><clipPath id="26263b75ff"><path d="M 343 395 L 386 395 L 386 428.5 L 343 428.5 Z M 343 395 " clip-rule="nonzero"/></clipPath></defs><g clip-path="url(#f118f582cb)"><path fill="#ffffff" d="M 0.675781 0 L 728.324219 0 L 728.324219 536 L 0.675781 536 Z M 0.675781 0 " fill-opacity="1" fill-rule="nonzero"/><path fill="#ffffff" d="M 0.675781 0 L 728.324219 0 L 728.324219 536 L 0.675781 536 Z M 0.675781 0 " fill-opacity="1" fill-rule="nonzero"/></g><path fill="#000000" d="M 400.429688 324.488281 L 423.433594 324.488281 C 422.988281 333.761719 420.382812 342.96875 415.585938 351.296875 C 407.257812 365.707031 393.355469 375.539062 377.511719 379.136719 C 391.535156 364.390625 399.734375 344.957031 400.429688 324.488281 Z M 367.148438 324.488281 L 394.699219 324.488281 C 393.898438 346.078125 384.246094 366.660156 367.816406 380.789062 C 367.59375 380.800781 367.371094 380.84375 367.148438 380.84375 Z M 333.792969 324.488281 L 361.410156 324.488281 L 361.410156 380.578125 C 361.1875 380.566406 360.960938 380.539062 360.738281 380.523438 C 344.3125 366.390625 334.589844 346.078125 333.792969 324.488281 Z M 305.042969 324.488281 L 328.054688 324.488281 C 328.757812 344.957031 336.941406 364.390625 350.972656 379.136719 C 335.132812 375.542969 321.226562 365.707031 312.902344 351.296875 C 308.105469 342.96875 305.488281 333.761719 305.042969 324.488281 Z M 377.511719 264.101562 C 393.351562 267.699219 407.257812 277.53125 415.585938 291.941406 C 420.382812 300.273438 422.988281 309.476562 423.433594 318.75 L 400.429688 318.75 C 399.71875 298.285156 391.535156 278.847656 377.511719 264.101562 Z M 350.972656 264.101562 C 336.953125 278.847656 328.753906 298.285156 328.054688 318.75 L 305.042969 318.75 C 305.488281 309.476562 308.105469 300.269531 312.902344 291.941406 C 321.226562 277.53125 335.136719 267.699219 350.972656 264.101562 Z M 361.410156 262.660156 L 361.410156 318.75 L 333.792969 318.75 C 334.589844 297.175781 344.3125 276.84375 360.738281 262.714844 C 360.960938 262.699219 361.1875 262.671875 361.410156 262.660156 Z M 367.148438 262.355469 C 367.386719 262.367188 367.609375 262.390625 367.835938 262.410156 C 384.246094 276.542969 393.898438 297.175781 394.699219 318.753906 L 367.148438 318.753906 Z M 364.195312 256.558594 C 340.996094 256.585938 319.546875 268.984375 307.949219 289.085938 C 296.335938 309.210938 296.335938 334.027344 307.949219 354.148438 C 319.503906 374.15625 338.546875 386.523438 364.234375 386.578125 C 389.933594 386.523438 408.976562 374.15625 420.535156 354.148438 C 432.148438 334.027344 432.148438 309.210938 420.535156 289.085938 C 408.925781 268.984375 387.488281 256.585938 364.289062 256.558594 C 364.273438 256.558594 364.246094 256.558594 364.230469 256.558594 C 364.21875 256.558594 364.207031 256.558594 364.195312 256.558594 Z M 364.195312 256.558594 " fill-opacity="1" fill-rule="nonzero"/><g clip-path="url(#f58553e2de)"><path fill="#000000" d="M 282.667969 331.078125 L 287.648438 331.078125 C 287.917969 331.078125 288.042969 331.289062 288.042969 331.765625 L 288.042969 334.449219 C 288.042969 334.921875 287.914062 335.136719 287.648438 335.136719 L 282.667969 335.136719 C 282.402344 335.136719 282.277344 334.921875 282.277344 334.449219 L 282.277344 331.765625 C 282.273438 331.289062 282.402344 331.078125 282.667969 331.078125 Z M 272.355469 331.078125 L 277.335938 331.078125 C 277.601562 331.078125 277.730469 331.289062 277.730469 331.765625 L 277.730469 334.449219 C 277.730469 334.921875 277.601562 335.136719 277.335938 335.136719 L 272.355469 335.136719 C 272.089844 335.136719 271.964844 334.921875 271.964844 334.449219 L 271.964844 331.765625 C 271.964844 331.289062 272.089844 331.078125 272.355469 331.078125 Z M 262.042969 331.078125 L 267.023438 331.078125 C 267.289062 331.078125 267.417969 331.289062 267.417969 331.765625 L 267.417969 334.449219 C 267.417969 334.921875 267.289062 335.136719 267.023438 335.136719 L 262.042969 335.136719 C 261.777344 335.136719 261.652344 334.921875 261.652344 334.449219 L 261.652344 331.765625 C 261.652344 331.289062 261.777344 331.078125 262.042969 331.078125 Z M 278.066406 314.820312 L 286.554688 314.820312 C 287.578125 314.820312 288.042969 315.28125 288.042969 316.273438 L 288.042969 326.863281 C 288.042969 327.859375 287.578125 328.308594 286.554688 328.308594 L 278.066406 328.308594 C 277.042969 328.308594 276.582031 327.859375 276.582031 326.863281 L 276.582031 316.273438 C 276.582031 315.28125 277.042969 314.820312 278.066406 314.820312 Z M 263.132812 314.820312 L 271.628906 314.820312 C 272.648438 314.820312 273.113281 315.28125 273.113281 316.273438 L 273.113281 326.863281 C 273.113281 327.859375 272.648438 328.308594 271.628906 328.308594 L 263.132812 328.308594 C 262.113281 328.308594 261.652344 327.859375 261.652344 326.863281 L 261.652344 316.273438 C 261.652344 315.28125 262.113281 314.820312 263.132812 314.820312 Z M 282.667969 308.007812 L 287.648438 308.007812 C 287.917969 308.007812 288.042969 308.214844 288.042969 308.691406 L 288.042969 311.378906 C 288.042969 311.839844 287.914062 312.066406 287.648438 312.066406 L 282.667969 312.066406 C 282.402344 312.066406 282.277344 311.839844 282.277344 311.378906 L 282.277344 308.691406 C 282.273438 308.214844 282.402344 308.007812 282.667969 308.007812 Z M 272.355469 308.007812 L 277.335938 308.007812 C 277.601562 308.007812 277.730469 308.214844 277.730469 308.691406 L 277.730469 311.378906 C 277.730469 311.839844 277.601562 312.066406 277.335938 312.066406 L 272.355469 312.066406 C 272.089844 312.066406 271.964844 311.839844 271.964844 311.378906 L 271.964844 308.691406 C 271.964844 308.214844 272.089844 308.007812 272.355469 308.007812 Z M 262.042969 308.007812 L 267.023438 308.007812 C 267.289062 308.007812 267.417969 308.214844 267.417969 308.691406 L 267.417969 311.378906 C 267.417969 311.839844 267.289062 312.066406 267.023438 312.066406 L 262.042969 312.066406 C 261.777344 312.066406 261.652344 311.839844 261.652344 311.378906 L 261.652344 308.691406 C 261.652344 308.214844 261.777344 308.007812 262.042969 308.007812 Z M 261.148438 305.011719 C 258.574219 305.011719 257.398438 306.132812 257.398438 308.566406 L 257.398438 334.5625 C 257.398438 337.007812 258.574219 338.128906 261.148438 338.128906 L 288.542969 338.128906 C 291.117188 338.128906 292.292969 337.007812 292.292969 334.5625 L 292.292969 308.566406 C 292.292969 306.132812 291.117188 305.011719 288.542969 305.011719 Z M 261.148438 305.011719 " fill-opacity="1" fill-rule="nonzero"/></g><g clip-path="url(#9814f7d59b)"><path fill="#000000" d="M 364.238281 214.726562 C 361.804688 214.726562 359.453125 215.691406 357.71875 217.429688 C 355.980469 219.148438 355.015625 221.496094 355.015625 223.949219 C 355.015625 226.761719 356.300781 229.433594 358.515625 231.179688 C 359.675781 232.457031 359.085938 233.464844 358.066406 233.855469 C 352.902344 235 349.113281 239.046875 349.113281 244.625 L 349.113281 245.8125 C 349.113281 247.117188 349.28125 247.84375 351.140625 247.84375 L 377.347656 247.84375 C 379.207031 247.84375 379.363281 247.117188 379.363281 245.8125 L 379.363281 244.625 C 379.363281 239.046875 375.585938 234.984375 370.421875 233.855469 C 369.402344 233.464844 368.8125 232.46875 369.945312 231.210938 C 372.171875 229.460938 373.472656 226.773438 373.472656 223.949219 C 373.472656 221.496094 372.496094 219.148438 370.773438 217.429688 C 369.035156 215.691406 366.683594 214.726562 364.238281 214.726562 Z M 364.238281 214.726562 " fill-opacity="1" fill-rule="nonzero"/></g><g clip-path="url(#36f45e6cc1)"><path fill="#000000" d="M 446.558594 322.679688 L 446.558594 336.167969 C 446.558594 336.535156 446.628906 336.503906 446.964844 336.617188 L 452.675781 338.378906 C 453.304688 338.5625 453.863281 338.605469 454.492188 338.605469 L 463.03125 338.605469 C 466.09375 338.605469 467.882812 337.863281 468.46875 334.910156 L 470.976562 322.292969 C 471.382812 320.332031 470.808594 317.074219 467.339844 317.074219 L 461.964844 317.074219 C 460.398438 317.074219 459.980469 316.257812 460.21875 315.101562 L 460.90625 311.644531 C 461.648438 307.921875 458.734375 304.566406 456.695312 304.539062 C 454.652344 304.507812 455.15625 306.902344 454.539062 309.992188 C 453.921875 313.085938 449.222656 318.894531 448.132812 320.238281 L 446.757812 322.054688 C 446.578125 322.277344 446.558594 322.402344 446.558594 322.679688 Z M 446.558594 322.679688 " fill-opacity="1" fill-rule="nonzero"/></g><path fill="#000000" d="M 439.0625 336.882812 C 438.070312 336.882812 437.269531 336.382812 437.269531 335.429688 L 437.269531 323.355469 C 437.269531 322.402344 438.070312 321.914062 439.0625 321.914062 L 442.085938 321.914062 C 443.074219 321.914062 443.875 322.402344 443.875 323.355469 L 443.875 335.429688 C 443.875 336.378906 443.074219 336.882812 442.085938 336.882812 Z M 439.0625 336.882812 " fill-opacity="1" fill-rule="nonzero"/><g clip-path="url(#26263b75ff)"><path fill="#000000" d="M 369.777344 403.804688 C 370.605469 403.804688 371.46875 404.128906 371.859375 404.839844 L 379.417969 418.785156 C 380.4375 420.679688 380.101562 423.039062 377.46875 423.027344 L 350.289062 423.027344 C 348.425781 423.027344 348.1875 421.347656 348.929688 420.019531 L 354.289062 410.125 C 354.554688 409.621094 355.167969 409.398438 355.757812 409.398438 C 356.332031 409.398438 356.960938 409.621094 357.226562 410.136719 L 362.191406 419.332031 C 363.074219 421.019531 365.609375 419.695312 364.714844 418 L 362.671875 414.097656 L 367.707031 404.835938 C 368.097656 404.128906 368.96875 403.804688 369.777344 403.804688 Z M 360.558594 399.996094 C 362.347656 399.996094 363.789062 401.441406 363.789062 403.21875 C 363.789062 405.011719 362.347656 406.449219 360.558594 406.449219 C 358.78125 406.449219 357.339844 404.996094 357.339844 403.21875 C 357.339844 401.441406 358.78125 399.996094 360.558594 399.996094 Z M 347.8125 395.296875 C 345.320312 395.296875 343.320312 397.367188 343.320312 399.929688 L 343.320312 423.800781 C 343.320312 426.359375 345.320312 428.414062 347.8125 428.414062 L 380.679688 428.414062 C 383.167969 428.414062 385.167969 426.359375 385.167969 423.800781 L 385.167969 399.929688 C 385.167969 397.367188 383.167969 395.296875 380.679688 395.296875 Z M 347.8125 395.296875 " fill-opacity="1" fill-rule="nonzero"/></g><path fill="#000000" d="M 421.710938 372.871094 C 417.933594 377.417969 417.699219 384.972656 422.820312 390.109375 C 422.84375 390.132812 422.875 390.164062 422.902344 390.191406 L 436.390625 401.792969 C 436.949219 402.28125 437.789062 402.28125 438.363281 401.792969 L 451.835938 390.191406 C 451.878906 390.164062 451.90625 390.136719 451.933594 390.109375 C 457.039062 384.972656 456.816406 377.417969 453.039062 372.871094 C 450.996094 370.421875 447.875 368.980469 444.644531 369.054688 C 441.972656 369.105469 439.398438 370.589844 437.367188 373.027344 C 435.339844 370.589844 432.765625 369.109375 429.828125 369.054688 C 426.875 368.980469 423.742188 370.421875 421.710938 372.871094 Z M 421.710938 372.871094 " fill-opacity="1" fill-rule="nonzero"/><path fill="#000000" d="M 290.753906 369.039062 C 289.15625 369.039062 288.695312 370.574219 287.886719 372.003906 L 287.382812 372.871094 L 278.175781 372.871094 C 275.742188 372.871094 273.78125 374.894531 273.78125 377.40625 L 273.78125 397.621094 C 273.78125 400.136719 275.738281 402.167969 278.175781 402.167969 L 310.367188 402.167969 C 312.800781 402.167969 314.761719 400.136719 314.761719 397.621094 L 314.761719 377.40625 C 314.761719 374.894531 312.800781 372.871094 310.367188 372.871094 L 301.160156 372.871094 L 300.65625 372.003906 C 299.84375 370.574219 299.382812 369.039062 297.789062 369.039062 Z M 294.265625 379.878906 C 298.644531 379.878906 302.199219 383.433594 302.199219 387.8125 C 302.199219 392.191406 298.644531 395.746094 294.265625 395.746094 C 289.886719 395.746094 286.347656 392.195312 286.347656 387.8125 C 286.347656 383.433594 289.886719 379.878906 294.265625 379.878906 Z M 294.265625 379.878906 " fill-opacity="1" fill-rule="nonzero"/><path fill="#000000" d="M 302.367188 258.378906 C 300.59375 258.378906 299.148438 256.9375 299.148438 255.164062 C 299.148438 253.386719 300.59375 251.957031 302.367188 251.957031 C 304.144531 251.957031 305.570312 253.386719 305.570312 255.164062 C 305.570312 256.9375 304.144531 258.378906 302.367188 258.378906 Z M 293.007812 258.378906 C 291.230469 258.378906 289.789062 256.9375 289.789062 255.164062 C 289.789062 253.386719 291.230469 251.957031 293.007812 251.957031 C 294.78125 251.957031 296.226562 253.386719 296.226562 255.164062 C 296.226562 256.9375 294.78125 258.378906 293.007812 258.378906 Z M 283.648438 258.378906 C 281.871094 258.378906 280.445312 256.9375 280.445312 255.164062 C 280.445312 253.386719 281.871094 251.957031 283.648438 251.957031 C 285.421875 251.957031 286.867188 253.386719 286.867188 255.164062 C 286.867188 256.9375 285.421875 258.378906 283.648438 258.378906 Z M 304.957031 240.988281 L 281.058594 240.988281 C 277.015625 240.988281 273.78125 243.925781 273.78125 247.898438 L 273.78125 262.605469 C 273.78125 266.5625 277.015625 269.601562 281.058594 269.601562 L 283.4375 269.601562 L 284.601562 273.015625 C 284.980469 274.082031 286.53125 274.460938 287.371094 273.714844 L 292.097656 269.601562 L 304.957031 269.601562 C 309 269.601562 312.289062 266.5625 312.289062 262.605469 L 312.289062 247.898438 C 312.285156 243.925781 309 240.988281 304.957031 240.988281 Z M 304.957031 240.988281 " fill-opacity="1" fill-rule="nonzero"/><path fill="#000000" d="M 447.273438 244.066406 C 448.507812 243.925781 450.0625 248.417969 450.714844 254.113281 C 451.386719 259.820312 450.925781 264.550781 449.695312 264.6875 C 448.769531 264.800781 447.652344 262.3125 446.851562 258.421875 C 448.339844 257.625 449.175781 256 448.980469 254.324219 C 448.785156 252.644531 447.582031 251.277344 445.957031 250.839844 C 445.835938 246.863281 446.351562 244.175781 447.273438 244.066406 Z M 447.976562 239.628906 C 446.957031 239.699219 446.003906 240.007812 445.304688 240.480469 C 441.5 243.140625 436.238281 245.742188 431.230469 247.183594 C 430.640625 253.300781 431.691406 260.394531 433.914062 265.417969 C 438.980469 265.695312 444.480469 266.898438 448.621094 268.636719 C 449.699219 269.082031 450.285156 268.984375 451.417969 268.84375 C 453.757812 268.578125 454.808594 261.847656 453.855469 253.746094 C 452.898438 245.660156 450.328125 239.460938 447.976562 239.628906 Z M 447.976562 239.628906 " fill-opacity="1" fill-rule="evenodd"/><path fill="#000000" d="M 428.738281 247.800781 C 427.675781 248.039062 426.625 248.203125 425.632812 248.304688 L 420.21875 248.933594 C 417.476562 249.199219 415.683594 253.703125 416.105469 258.191406 C 416.734375 262.644531 419.519531 266.601562 422.257812 266.238281 L 423.632812 266.070312 L 427.394531 275.511719 C 427.730469 276.351562 428.445312 276.730469 429.394531 276.617188 L 435.058594 275.945312 C 436.390625 275.792969 436.824219 274.8125 436.375 273.707031 L 435.226562 270.8125 C 434.949219 270.097656 434.625 269.84375 433.964844 269.382812 L 432.46875 268.34375 C 429.253906 260.953125 428.289062 254.140625 428.738281 247.800781 Z M 428.738281 247.800781 " fill-opacity="1" fill-rule="evenodd"/><g fill="#000000" fill-opacity="1"><g transform="translate(174.424262, 159.253531)"><g><path d="M 3.015625 -14.25 L 5.203125 -14.25 C 5.722656 -10.707031 7.132812 -7.921875 9.4375 -5.890625 C 11.75 -3.859375 14.601562 -2.84375 18 -2.84375 C 19.375 -2.84375 20.640625 -3.007812 21.796875 -3.34375 C 22.953125 -3.6875 23.9375 -4.164062 24.75 -4.78125 C 25.570312 -5.394531 26.207031 -6.117188 26.65625 -6.953125 C 27.101562 -7.796875 27.328125 -8.738281 27.328125 -9.78125 C 27.328125 -10.675781 27.1875 -11.445312 26.90625 -12.09375 C 26.625 -12.75 26.09375 -13.382812 25.3125 -14 C 24.53125 -14.613281 23.457031 -15.238281 22.09375 -15.875 C 20.738281 -16.507812 18.984375 -17.234375 16.828125 -18.046875 C 12.460938 -19.722656 9.238281 -21.671875 7.15625 -23.890625 C 5.070312 -26.109375 4.03125 -28.726562 4.03125 -31.75 C 4.03125 -33.5 4.363281 -35.097656 5.03125 -36.546875 C 5.695312 -38.003906 6.632812 -39.253906 7.84375 -40.296875 C 9.0625 -41.335938 10.515625 -42.144531 12.203125 -42.71875 C 13.898438 -43.300781 15.773438 -43.59375 17.828125 -43.59375 C 19.722656 -43.59375 21.507812 -43.296875 23.1875 -42.703125 C 24.863281 -42.109375 26.523438 -41.210938 28.171875 -40.015625 L 29.171875 -42.8125 L 30.515625 -42.8125 L 31.125 -30.734375 L 28.953125 -30.734375 C 28.054688 -33.796875 26.65625 -36.132812 24.75 -37.75 C 22.851562 -39.375 20.660156 -40.1875 18.171875 -40.1875 C 15.859375 -40.1875 13.984375 -39.617188 12.546875 -38.484375 C 11.109375 -37.347656 10.390625 -35.882812 10.390625 -34.09375 C 10.390625 -33.3125 10.519531 -32.613281 10.78125 -32 C 11.039062 -31.382812 11.523438 -30.796875 12.234375 -30.234375 C 12.941406 -29.671875 13.910156 -29.101562 15.140625 -28.53125 C 16.367188 -27.957031 17.953125 -27.316406 19.890625 -26.609375 C 22.503906 -25.597656 24.734375 -24.578125 26.578125 -23.546875 C 28.421875 -22.523438 29.925781 -21.425781 31.09375 -20.25 C 32.269531 -19.082031 33.140625 -17.847656 33.703125 -16.546875 C 34.265625 -15.242188 34.546875 -13.804688 34.546875 -12.234375 C 34.546875 -10.335938 34.132812 -8.601562 33.3125 -7.03125 C 32.488281 -5.46875 31.34375 -4.128906 29.875 -3.015625 C 28.40625 -1.898438 26.65625 -1.023438 24.625 -0.390625 C 22.59375 0.242188 20.347656 0.5625 17.890625 0.5625 C 15.648438 0.5625 13.632812 0.253906 11.84375 -0.359375 C 10.0625 -0.972656 8.21875 -1.972656 6.3125 -3.359375 L 5.203125 0 L 3.859375 0 Z M 3.015625 -14.25 "/></g></g></g><g fill="#000000" fill-opacity="1"><g transform="translate(211.478074, 159.253531)"><g><path d="M 18.328125 -30.1875 C 20.566406 -30.1875 22.679688 -29.800781 24.671875 -29.03125 C 26.671875 -28.269531 28.421875 -27.21875 29.921875 -25.875 C 31.429688 -24.53125 32.625 -22.9375 33.5 -21.09375 C 34.375 -19.25 34.8125 -17.226562 34.8125 -15.03125 C 34.8125 -12.757812 34.375 -10.671875 33.5 -8.765625 C 32.625 -6.867188 31.429688 -5.226562 29.921875 -3.84375 C 28.421875 -2.46875 26.671875 -1.390625 24.671875 -0.609375 C 22.679688 0.171875 20.566406 0.5625 18.328125 0.5625 C 16.128906 0.5625 14.039062 0.179688 12.0625 -0.578125 C 10.09375 -1.347656 8.363281 -2.421875 6.875 -3.796875 C 5.382812 -5.179688 4.207031 -6.832031 3.34375 -8.75 C 2.488281 -10.664062 2.0625 -12.757812 2.0625 -15.03125 C 2.0625 -17.226562 2.488281 -19.257812 3.34375 -21.125 C 4.207031 -22.988281 5.382812 -24.585938 6.875 -25.921875 C 8.363281 -27.265625 10.09375 -28.3125 12.0625 -29.0625 C 14.039062 -29.8125 16.128906 -30.1875 18.328125 -30.1875 Z M 18.328125 -26.9375 C 17.210938 -26.9375 16.1875 -26.644531 15.25 -26.0625 C 14.320312 -25.488281 13.53125 -24.679688 12.875 -23.640625 C 12.226562 -22.597656 11.726562 -21.335938 11.375 -19.859375 C 11.019531 -18.390625 10.84375 -16.765625 10.84375 -14.984375 C 10.84375 -13.117188 11.019531 -11.441406 11.375 -9.953125 C 11.726562 -8.460938 12.226562 -7.191406 12.875 -6.140625 C 13.53125 -5.097656 14.3125 -4.285156 15.21875 -3.703125 C 16.132812 -3.128906 17.171875 -2.84375 18.328125 -2.84375 C 19.484375 -2.84375 20.535156 -3.128906 21.484375 -3.703125 C 22.441406 -4.285156 23.253906 -5.109375 23.921875 -6.171875 C 24.585938 -7.234375 25.109375 -8.507812 25.484375 -10 C 25.859375 -11.488281 26.046875 -13.148438 26.046875 -14.984375 C 26.046875 -16.765625 25.859375 -18.378906 25.484375 -19.828125 C 25.109375 -21.285156 24.585938 -22.546875 23.921875 -23.609375 C 23.253906 -24.671875 22.441406 -25.488281 21.484375 -26.0625 C 20.535156 -26.644531 19.484375 -26.9375 18.328125 -26.9375 Z M 18.328125 -26.9375 "/></g></g></g><g fill="#000000" fill-opacity="1"><g transform="translate(248.364221, 159.253531)"><g><path d="M 29.515625 -4.640625 C 28.097656 -3.078125 26.335938 -1.863281 24.234375 -1 C 22.128906 -0.144531 19.84375 0.28125 17.375 0.28125 C 15.101562 0.28125 13.035156 -0.0820312 11.171875 -0.8125 C 9.316406 -1.539062 7.71875 -2.554688 6.375 -3.859375 C 5.03125 -5.160156 3.992188 -6.734375 3.265625 -8.578125 C 2.546875 -10.421875 2.1875 -12.460938 2.1875 -14.703125 C 2.1875 -17.015625 2.578125 -19.117188 3.359375 -21.015625 C 4.140625 -22.910156 5.238281 -24.535156 6.65625 -25.890625 C 8.070312 -27.253906 9.765625 -28.3125 11.734375 -29.0625 C 13.710938 -29.8125 15.894531 -30.1875 18.28125 -30.1875 C 19.957031 -30.1875 21.507812 -30.015625 22.9375 -29.671875 C 24.375 -29.335938 25.601562 -28.875 26.625 -28.28125 C 27.65625 -27.6875 28.46875 -26.988281 29.0625 -26.1875 C 29.65625 -25.382812 29.953125 -24.515625 29.953125 -23.578125 C 29.953125 -22.503906 29.644531 -21.648438 29.03125 -21.015625 C 28.414062 -20.378906 27.585938 -20.0625 26.546875 -20.0625 C 25.691406 -20.0625 24.9375 -20.285156 24.28125 -20.734375 C 23.632812 -21.179688 22.992188 -21.910156 22.359375 -22.921875 C 21.796875 -23.804688 21.316406 -24.507812 20.921875 -25.03125 C 20.535156 -25.5625 20.175781 -25.960938 19.84375 -26.234375 C 19.507812 -26.515625 19.171875 -26.703125 18.828125 -26.796875 C 18.492188 -26.890625 18.085938 -26.9375 17.609375 -26.9375 C 15.441406 -26.9375 13.757812 -25.929688 12.5625 -23.921875 C 11.375 -21.910156 10.78125 -19.097656 10.78125 -15.484375 C 10.78125 -11.609375 11.5 -8.625 12.9375 -6.53125 C 14.375 -4.445312 16.429688 -3.40625 19.109375 -3.40625 C 20.640625 -3.40625 22.164062 -3.691406 23.6875 -4.265625 C 25.21875 -4.847656 26.675781 -5.679688 28.0625 -6.765625 Z M 29.515625 -4.640625 "/></g></g></g><g fill="#000000" fill-opacity="1"><g transform="translate(279.885116, 159.253531)"><g><path d="M 14.359375 -9.171875 C 14.359375 -7.679688 14.414062 -6.488281 14.53125 -5.59375 C 14.644531 -4.695312 14.867188 -4.003906 15.203125 -3.515625 C 15.535156 -3.035156 16.019531 -2.710938 16.65625 -2.546875 C 17.289062 -2.378906 18.144531 -2.273438 19.21875 -2.234375 L 19.21875 0 L 1.625 0 L 1.625 -2.234375 C 2.664062 -2.273438 3.507812 -2.394531 4.15625 -2.59375 C 4.8125 -2.800781 5.316406 -3.132812 5.671875 -3.59375 C 6.023438 -4.0625 6.265625 -4.710938 6.390625 -5.546875 C 6.523438 -6.390625 6.59375 -7.46875 6.59375 -8.78125 L 6.59375 -15.65625 C 6.59375 -17.8125 6.554688 -19.585938 6.484375 -20.984375 C 6.410156 -22.378906 6.316406 -23.335938 6.203125 -23.859375 C 6.015625 -24.796875 5.59375 -25.410156 4.9375 -25.703125 C 4.289062 -26.003906 3.109375 -26.15625 1.390625 -26.15625 L 1.390625 -28.0625 L 14.359375 -30.1875 Z M 6.140625 -42.03125 C 6.140625 -43.257812 6.554688 -44.289062 7.390625 -45.125 C 8.234375 -45.96875 9.253906 -46.390625 10.453125 -46.390625 C 11.679688 -46.390625 12.710938 -45.96875 13.546875 -45.125 C 14.390625 -44.289062 14.8125 -43.257812 14.8125 -42.03125 C 14.8125 -40.832031 14.390625 -39.8125 13.546875 -38.96875 C 12.710938 -38.132812 11.679688 -37.71875 10.453125 -37.71875 C 9.253906 -37.71875 8.234375 -38.132812 7.390625 -38.96875 C 6.554688 -39.8125 6.140625 -40.832031 6.140625 -42.03125 Z M 6.140625 -42.03125 "/></g></g></g><g fill="#000000" fill-opacity="1"><g transform="translate(300.060728, 159.253531)"><g><path d="M 19.21875 -15.921875 C 16.09375 -14.515625 13.738281 -13.203125 12.15625 -11.984375 C 10.570312 -10.773438 9.78125 -9.519531 9.78125 -8.21875 C 9.78125 -7.132812 10.078125 -6.273438 10.671875 -5.640625 C 11.265625 -5.003906 12.007812 -4.6875 12.90625 -4.6875 C 13.800781 -4.6875 14.640625 -4.84375 15.421875 -5.15625 C 16.203125 -5.476562 16.875 -5.898438 17.4375 -6.421875 C 18 -6.941406 18.4375 -7.566406 18.75 -8.296875 C 19.0625 -9.023438 19.21875 -9.800781 19.21875 -10.625 Z M 19.21875 -18.890625 L 19.21875 -21.234375 C 19.21875 -23.398438 18.835938 -24.972656 18.078125 -25.953125 C 17.316406 -26.941406 16.132812 -27.4375 14.53125 -27.4375 C 13.445312 -27.4375 12.625 -27.144531 12.0625 -26.5625 C 11.507812 -25.988281 10.988281 -25.035156 10.5 -23.703125 C 10.164062 -22.765625 9.691406 -22.035156 9.078125 -21.515625 C 8.460938 -20.992188 7.617188 -20.734375 6.546875 -20.734375 C 5.492188 -20.734375 4.6875 -21.050781 4.125 -21.6875 C 3.570312 -22.320312 3.296875 -23.21875 3.296875 -24.375 C 3.296875 -26.15625 4.273438 -27.566406 6.234375 -28.609375 C 8.191406 -29.660156 11.144531 -30.1875 15.09375 -30.1875 C 19.257812 -30.1875 22.238281 -29.429688 24.03125 -27.921875 C 25.820312 -26.410156 26.71875 -23.882812 26.71875 -20.34375 L 26.71875 -8.109375 C 26.71875 -4.941406 27.347656 -3.359375 28.609375 -3.359375 C 29.316406 -3.359375 29.972656 -3.597656 30.578125 -4.078125 L 31.40625 -2.453125 C 30.882812 -1.523438 30.070312 -0.789062 28.96875 -0.25 C 27.875 0.289062 26.640625 0.5625 25.265625 0.5625 C 23.546875 0.5625 22.238281 0.0390625 21.34375 -1 C 20.457031 -2.050781 20.015625 -3.523438 20.015625 -5.421875 L 19.734375 -5.421875 C 18.648438 -3.484375 17.25 -2.007812 15.53125 -1 C 13.820312 0 11.867188 0.5 9.671875 0.5 C 7.316406 0.5 5.429688 -0.160156 4.015625 -1.484375 C 2.609375 -2.804688 1.90625 -4.53125 1.90625 -6.65625 C 1.90625 -8.289062 2.628906 -9.820312 4.078125 -11.25 C 5.535156 -12.6875 7.957031 -14.097656 11.34375 -15.484375 Z M 19.21875 -18.890625 "/></g></g></g><g fill="#000000" fill-opacity="1"><g transform="translate(332.140507, 159.253531)"><g><path d="M 13.8125 -9.171875 C 13.8125 -7.679688 13.863281 -6.488281 13.96875 -5.59375 C 14.082031 -4.695312 14.304688 -4.003906 14.640625 -3.515625 C 14.972656 -3.035156 15.457031 -2.710938 16.09375 -2.546875 C 16.726562 -2.378906 17.585938 -2.273438 18.671875 -2.234375 L 18.671875 0 L 1.0625 0 L 1.0625 -2.234375 C 2.101562 -2.273438 2.945312 -2.394531 3.59375 -2.59375 C 4.25 -2.800781 4.753906 -3.132812 5.109375 -3.59375 C 5.460938 -4.0625 5.703125 -4.710938 5.828125 -5.546875 C 5.960938 -6.390625 6.03125 -7.46875 6.03125 -8.78125 L 6.03125 -31.859375 C 6.03125 -34.015625 5.992188 -35.789062 5.921875 -37.1875 C 5.847656 -38.59375 5.753906 -39.554688 5.640625 -40.078125 C 5.453125 -41.003906 5.03125 -41.613281 4.375 -41.90625 C 3.726562 -42.207031 2.550781 -42.359375 0.84375 -42.359375 L 0.84375 -44.265625 L 13.8125 -46.390625 Z M 13.8125 -9.171875 "/></g></g></g><g fill="#000000" fill-opacity="1"><g transform="translate(351.980791, 159.253531)"><g/></g></g><g fill="#000000" fill-opacity="1"><g transform="translate(366.847032, 159.253531)"><g><path d="M 32.46875 -10.453125 L 45.390625 -43.03125 L 61.703125 -43.03125 L 61.703125 -40.796875 C 60.472656 -40.796875 59.472656 -40.675781 58.703125 -40.4375 C 57.941406 -40.195312 57.359375 -39.757812 56.953125 -39.125 C 56.546875 -38.488281 56.273438 -37.617188 56.140625 -36.515625 C 56.015625 -35.421875 55.953125 -34.035156 55.953125 -32.359375 L 55.953125 -10.671875 C 55.953125 -8.804688 56.023438 -7.332031 56.171875 -6.25 C 56.316406 -5.175781 56.613281 -4.335938 57.0625 -3.734375 C 57.507812 -3.140625 58.148438 -2.75 58.984375 -2.5625 C 59.828125 -2.382812 60.9375 -2.273438 62.3125 -2.234375 L 62.3125 0 L 41.296875 0 L 41.296875 -2.234375 C 42.679688 -2.273438 43.789062 -2.394531 44.625 -2.59375 C 45.46875 -2.800781 46.117188 -3.179688 46.578125 -3.734375 C 47.046875 -4.296875 47.351562 -5.085938 47.5 -6.109375 C 47.65625 -7.140625 47.734375 -8.53125 47.734375 -10.28125 L 47.734375 -36.4375 L 47.453125 -36.4375 L 32.421875 0.5625 L 28.28125 0.5625 L 12.75 -36.4375 L 12.515625 -36.4375 L 12.515625 -10.671875 C 12.515625 -8.804688 12.585938 -7.332031 12.734375 -6.25 C 12.890625 -5.175781 13.191406 -4.335938 13.640625 -3.734375 C 14.085938 -3.140625 14.726562 -2.75 15.5625 -2.5625 C 16.40625 -2.382812 17.515625 -2.273438 18.890625 -2.234375 L 18.890625 0 L 1.671875 0 L 1.671875 -2.234375 C 3.054688 -2.273438 4.175781 -2.394531 5.03125 -2.59375 C 5.882812 -2.800781 6.546875 -3.179688 7.015625 -3.734375 C 7.484375 -4.296875 7.789062 -5.085938 7.9375 -6.109375 C 8.082031 -7.140625 8.15625 -8.53125 8.15625 -10.28125 L 8.15625 -32.75 C 8.15625 -34.3125 8.082031 -35.613281 7.9375 -36.65625 C 7.789062 -37.707031 7.507812 -38.539062 7.09375 -39.15625 C 6.6875 -39.769531 6.097656 -40.195312 5.328125 -40.4375 C 4.566406 -40.675781 3.554688 -40.796875 2.296875 -40.796875 L 2.296875 -43.03125 L 19.21875 -43.03125 L 32.25 -10.453125 Z M 32.46875 -10.453125 "/></g></g></g><g fill="#000000" fill-opacity="1"><g transform="translate(430.838925, 159.253531)"><g><path d="M 30.1875 -5.203125 C 26.789062 -1.359375 22.5625 0.5625 17.5 0.5625 C 15.1875 0.5625 13.085938 0.195312 11.203125 -0.53125 C 9.328125 -1.257812 7.71875 -2.285156 6.375 -3.609375 C 5.03125 -4.929688 3.984375 -6.503906 3.234375 -8.328125 C 2.492188 -10.148438 2.125 -12.179688 2.125 -14.421875 C 2.125 -16.734375 2.515625 -18.847656 3.296875 -20.765625 C 4.078125 -22.679688 5.1875 -24.335938 6.625 -25.734375 C 8.0625 -27.128906 9.753906 -28.21875 11.703125 -29 C 13.660156 -29.789062 15.816406 -30.1875 18.171875 -30.1875 C 22.117188 -30.1875 25.191406 -29.125 27.390625 -27 C 29.585938 -24.875 30.6875 -21.890625 30.6875 -18.046875 C 30.6875 -17.453125 30.59375 -17.085938 30.40625 -16.953125 C 30.21875 -16.828125 29.695312 -16.765625 28.84375 -16.765625 L 10.84375 -16.765625 C 10.695312 -16.429688 10.625 -15.816406 10.625 -14.921875 C 10.625 -11.273438 11.414062 -8.390625 13 -6.265625 C 14.582031 -4.140625 16.734375 -3.078125 19.453125 -3.078125 C 21.015625 -3.078125 22.566406 -3.429688 24.109375 -4.140625 C 25.660156 -4.847656 27.160156 -5.851562 28.609375 -7.15625 Z M 19.34375 -19.890625 C 20.832031 -19.890625 21.789062 -19.972656 22.21875 -20.140625 C 22.644531 -20.316406 22.859375 -20.71875 22.859375 -21.34375 C 22.859375 -22.988281 22.390625 -24.332031 21.453125 -25.375 C 20.523438 -26.414062 19.351562 -26.9375 17.9375 -26.9375 C 16.332031 -26.9375 14.90625 -26.273438 13.65625 -24.953125 C 12.414062 -23.628906 11.609375 -21.941406 11.234375 -19.890625 Z M 19.34375 -19.890625 "/></g></g></g><g fill="#000000" fill-opacity="1"><g transform="translate(463.533457, 159.253531)"><g><path d="M 26.890625 -3.578125 L 26.65625 -3.578125 C 24.082031 -0.816406 20.75 0.5625 16.65625 0.5625 C 14.53125 0.5625 12.582031 0.191406 10.8125 -0.546875 C 9.039062 -1.296875 7.507812 -2.34375 6.21875 -3.6875 C 4.9375 -5.03125 3.941406 -6.625 3.234375 -8.46875 C 2.535156 -10.3125 2.1875 -12.351562 2.1875 -14.59375 C 2.1875 -16.820312 2.546875 -18.882812 3.265625 -20.78125 C 3.992188 -22.6875 4.984375 -24.335938 6.234375 -25.734375 C 7.484375 -27.128906 8.972656 -28.21875 10.703125 -29 C 12.429688 -29.789062 14.300781 -30.1875 16.3125 -30.1875 C 18.175781 -30.1875 19.828125 -29.90625 21.265625 -29.34375 C 22.703125 -28.78125 23.957031 -27.828125 25.03125 -26.484375 L 25.265625 -26.484375 L 25.265625 -31.25 C 25.265625 -33.445312 25.234375 -35.335938 25.171875 -36.921875 C 25.117188 -38.503906 25.035156 -39.535156 24.921875 -40.015625 C 24.734375 -40.796875 24.164062 -41.363281 23.21875 -41.71875 C 22.269531 -42.070312 20.804688 -42.25 18.828125 -42.25 L 18.828125 -44.15625 L 32.96875 -46.390625 L 32.96875 -14.421875 C 32.96875 -11.628906 32.992188 -9.476562 33.046875 -7.96875 C 33.109375 -6.457031 33.210938 -5.3125 33.359375 -4.53125 C 33.441406 -4.039062 33.554688 -3.644531 33.703125 -3.34375 C 33.847656 -3.050781 34.066406 -2.820312 34.359375 -2.65625 C 34.660156 -2.488281 35.0625 -2.375 35.5625 -2.3125 C 36.070312 -2.257812 36.71875 -2.234375 37.5 -2.234375 L 37.5 -0.0625 L 26.890625 0.5625 Z M 25.15625 -16.046875 C 25.15625 -17.460938 25.003906 -18.773438 24.703125 -19.984375 C 24.398438 -21.191406 23.953125 -22.257812 23.359375 -23.1875 C 22.691406 -24.269531 21.832031 -25.085938 20.78125 -25.640625 C 19.738281 -26.203125 18.625 -26.484375 17.4375 -26.484375 C 15.238281 -26.484375 13.5625 -25.476562 12.40625 -23.46875 C 11.25 -21.457031 10.671875 -18.535156 10.671875 -14.703125 C 10.671875 -10.828125 11.25 -7.84375 12.40625 -5.75 C 13.5625 -3.664062 15.21875 -2.625 17.375 -2.625 C 18.601562 -2.625 19.773438 -2.941406 20.890625 -3.578125 C 22.015625 -4.210938 22.929688 -5.066406 23.640625 -6.140625 C 24.160156 -6.960938 24.539062 -7.976562 24.78125 -9.1875 C 25.03125 -10.40625 25.15625 -11.960938 25.15625 -13.859375 Z M 25.15625 -16.046875 "/></g></g></g><g fill="#000000" fill-opacity="1"><g transform="translate(502.319802, 159.253531)"><g><path d="M 14.359375 -9.171875 C 14.359375 -7.679688 14.414062 -6.488281 14.53125 -5.59375 C 14.644531 -4.695312 14.867188 -4.003906 15.203125 -3.515625 C 15.535156 -3.035156 16.019531 -2.710938 16.65625 -2.546875 C 17.289062 -2.378906 18.144531 -2.273438 19.21875 -2.234375 L 19.21875 0 L 1.625 0 L 1.625 -2.234375 C 2.664062 -2.273438 3.507812 -2.394531 4.15625 -2.59375 C 4.8125 -2.800781 5.316406 -3.132812 5.671875 -3.59375 C 6.023438 -4.0625 6.265625 -4.710938 6.390625 -5.546875 C 6.523438 -6.390625 6.59375 -7.46875 6.59375 -8.78125 L 6.59375 -15.65625 C 6.59375 -17.8125 6.554688 -19.585938 6.484375 -20.984375 C 6.410156 -22.378906 6.316406 -23.335938 6.203125 -23.859375 C 6.015625 -24.796875 5.59375 -25.410156 4.9375 -25.703125 C 4.289062 -26.003906 3.109375 -26.15625 1.390625 -26.15625 L 1.390625 -28.0625 L 14.359375 -30.1875 Z M 6.140625 -42.03125 C 6.140625 -43.257812 6.554688 -44.289062 7.390625 -45.125 C 8.234375 -45.96875 9.253906 -46.390625 10.453125 -46.390625 C 11.679688 -46.390625 12.710938 -45.96875 13.546875 -45.125 C 14.390625 -44.289062 14.8125 -43.257812 14.8125 -42.03125 C 14.8125 -40.832031 14.390625 -39.8125 13.546875 -38.96875 C 12.710938 -38.132812 11.679688 -37.71875 10.453125 -37.71875 C 9.253906 -37.71875 8.234375 -38.132812 7.390625 -38.96875 C 6.554688 -39.8125 6.140625 -40.832031 6.140625 -42.03125 Z M 6.140625 -42.03125 "/></g></g></g><g fill="#000000" fill-opacity="1"><g transform="translate(522.495404, 159.253531)"><g><path d="M 19.21875 -15.921875 C 16.09375 -14.515625 13.738281 -13.203125 12.15625 -11.984375 C 10.570312 -10.773438 9.78125 -9.519531 9.78125 -8.21875 C 9.78125 -7.132812 10.078125 -6.273438 10.671875 -5.640625 C 11.265625 -5.003906 12.007812 -4.6875 12.90625 -4.6875 C 13.800781 -4.6875 14.640625 -4.84375 15.421875 -5.15625 C 16.203125 -5.476562 16.875 -5.898438 17.4375 -6.421875 C 18 -6.941406 18.4375 -7.566406 18.75 -8.296875 C 19.0625 -9.023438 19.21875 -9.800781 19.21875 -10.625 Z M 19.21875 -18.890625 L 19.21875 -21.234375 C 19.21875 -23.398438 18.835938 -24.972656 18.078125 -25.953125 C 17.316406 -26.941406 16.132812 -27.4375 14.53125 -27.4375 C 13.445312 -27.4375 12.625 -27.144531 12.0625 -26.5625 C 11.507812 -25.988281 10.988281 -25.035156 10.5 -23.703125 C 10.164062 -22.765625 9.691406 -22.035156 9.078125 -21.515625 C 8.460938 -20.992188 7.617188 -20.734375 6.546875 -20.734375 C 5.492188 -20.734375 4.6875 -21.050781 4.125 -21.6875 C 3.570312 -22.320312 3.296875 -23.21875 3.296875 -24.375 C 3.296875 -26.15625 4.273438 -27.566406 6.234375 -28.609375 C 8.191406 -29.660156 11.144531 -30.1875 15.09375 -30.1875 C 19.257812 -30.1875 22.238281 -29.429688 24.03125 -27.921875 C 25.820312 -26.410156 26.71875 -23.882812 26.71875 -20.34375 L 26.71875 -8.109375 C 26.71875 -4.941406 27.347656 -3.359375 28.609375 -3.359375 C 29.316406 -3.359375 29.972656 -3.597656 30.578125 -4.078125 L 31.40625 -2.453125 C 30.882812 -1.523438 30.070312 -0.789062 28.96875 -0.25 C 27.875 0.289062 26.640625 0.5625 25.265625 0.5625 C 23.546875 0.5625 22.238281 0.0390625 21.34375 -1 C 20.457031 -2.050781 20.015625 -3.523438 20.015625 -5.421875 L 19.734375 -5.421875 C 18.648438 -3.484375 17.25 -2.007812 15.53125 -1 C 13.820312 0 11.867188 0.5 9.671875 0.5 C 7.316406 0.5 5.429688 -0.160156 4.015625 -1.484375 C 2.609375 -2.804688 1.90625 -4.53125 1.90625 -6.65625 C 1.90625 -8.289062 2.628906 -9.820312 4.078125 -11.25 C 5.535156 -12.6875 7.957031 -14.097656 11.34375 -15.484375 Z M 19.21875 -18.890625 "/></g></g></g></svg>